%TF.GenerationSoftware,KiCad,Pcbnew,8.0.0*%
%TF.CreationDate,2024-03-23T09:44:43-04:00*%
%TF.ProjectId,N64SP PCB,4e363453-5020-4504-9342-2e6b69636164,rev?*%
%TF.SameCoordinates,Original*%
%TF.FileFunction,Legend,Top*%
%TF.FilePolarity,Positive*%
%FSLAX46Y46*%
G04 Gerber Fmt 4.6, Leading zero omitted, Abs format (unit mm)*
G04 Created by KiCad (PCBNEW 8.0.0) date 2024-03-23 09:44:43*
%MOMM*%
%LPD*%
G01*
G04 APERTURE LIST*
%ADD10C,0.150000*%
%ADD11C,0.125000*%
%ADD12C,0.500000*%
%ADD13C,0.120000*%
%ADD14C,0.100000*%
G04 APERTURE END LIST*
D10*
X112269523Y-43342295D02*
X112764761Y-43342295D01*
X112764761Y-43342295D02*
X112498095Y-43647057D01*
X112498095Y-43647057D02*
X112612380Y-43647057D01*
X112612380Y-43647057D02*
X112688571Y-43685152D01*
X112688571Y-43685152D02*
X112726666Y-43723247D01*
X112726666Y-43723247D02*
X112764761Y-43799438D01*
X112764761Y-43799438D02*
X112764761Y-43989914D01*
X112764761Y-43989914D02*
X112726666Y-44066104D01*
X112726666Y-44066104D02*
X112688571Y-44104200D01*
X112688571Y-44104200D02*
X112612380Y-44142295D01*
X112612380Y-44142295D02*
X112383809Y-44142295D01*
X112383809Y-44142295D02*
X112307618Y-44104200D01*
X112307618Y-44104200D02*
X112269523Y-44066104D01*
X112993333Y-43342295D02*
X113260000Y-44142295D01*
X113260000Y-44142295D02*
X113526666Y-43342295D01*
X113717142Y-43342295D02*
X114212380Y-43342295D01*
X114212380Y-43342295D02*
X113945714Y-43647057D01*
X113945714Y-43647057D02*
X114059999Y-43647057D01*
X114059999Y-43647057D02*
X114136190Y-43685152D01*
X114136190Y-43685152D02*
X114174285Y-43723247D01*
X114174285Y-43723247D02*
X114212380Y-43799438D01*
X114212380Y-43799438D02*
X114212380Y-43989914D01*
X114212380Y-43989914D02*
X114174285Y-44066104D01*
X114174285Y-44066104D02*
X114136190Y-44104200D01*
X114136190Y-44104200D02*
X114059999Y-44142295D01*
X114059999Y-44142295D02*
X113831428Y-44142295D01*
X113831428Y-44142295D02*
X113755237Y-44104200D01*
X113755237Y-44104200D02*
X113717142Y-44066104D01*
X113050476Y-37152295D02*
X113050476Y-36352295D01*
X113050476Y-36352295D02*
X113240952Y-36352295D01*
X113240952Y-36352295D02*
X113355238Y-36390390D01*
X113355238Y-36390390D02*
X113431428Y-36466580D01*
X113431428Y-36466580D02*
X113469523Y-36542771D01*
X113469523Y-36542771D02*
X113507619Y-36695152D01*
X113507619Y-36695152D02*
X113507619Y-36809438D01*
X113507619Y-36809438D02*
X113469523Y-36961819D01*
X113469523Y-36961819D02*
X113431428Y-37038009D01*
X113431428Y-37038009D02*
X113355238Y-37114200D01*
X113355238Y-37114200D02*
X113240952Y-37152295D01*
X113240952Y-37152295D02*
X113050476Y-37152295D01*
X133623723Y-68530476D02*
X133623723Y-68149523D01*
X133852295Y-68606666D02*
X133052295Y-68339999D01*
X133052295Y-68339999D02*
X133852295Y-68073333D01*
X135526104Y-68492380D02*
X135564200Y-68530476D01*
X135564200Y-68530476D02*
X135602295Y-68644761D01*
X135602295Y-68644761D02*
X135602295Y-68720952D01*
X135602295Y-68720952D02*
X135564200Y-68835238D01*
X135564200Y-68835238D02*
X135488009Y-68911428D01*
X135488009Y-68911428D02*
X135411819Y-68949523D01*
X135411819Y-68949523D02*
X135259438Y-68987619D01*
X135259438Y-68987619D02*
X135145152Y-68987619D01*
X135145152Y-68987619D02*
X134992771Y-68949523D01*
X134992771Y-68949523D02*
X134916580Y-68911428D01*
X134916580Y-68911428D02*
X134840390Y-68835238D01*
X134840390Y-68835238D02*
X134802295Y-68720952D01*
X134802295Y-68720952D02*
X134802295Y-68644761D01*
X134802295Y-68644761D02*
X134840390Y-68530476D01*
X134840390Y-68530476D02*
X134878485Y-68492380D01*
X135602295Y-68149523D02*
X134802295Y-68149523D01*
X134802295Y-68149523D02*
X134802295Y-67959047D01*
X134802295Y-67959047D02*
X134840390Y-67844761D01*
X134840390Y-67844761D02*
X134916580Y-67768571D01*
X134916580Y-67768571D02*
X134992771Y-67730476D01*
X134992771Y-67730476D02*
X135145152Y-67692380D01*
X135145152Y-67692380D02*
X135259438Y-67692380D01*
X135259438Y-67692380D02*
X135411819Y-67730476D01*
X135411819Y-67730476D02*
X135488009Y-67768571D01*
X135488009Y-67768571D02*
X135564200Y-67844761D01*
X135564200Y-67844761D02*
X135602295Y-67959047D01*
X135602295Y-67959047D02*
X135602295Y-68149523D01*
X112650476Y-41660390D02*
X112574286Y-41622295D01*
X112574286Y-41622295D02*
X112460000Y-41622295D01*
X112460000Y-41622295D02*
X112345714Y-41660390D01*
X112345714Y-41660390D02*
X112269524Y-41736580D01*
X112269524Y-41736580D02*
X112231429Y-41812771D01*
X112231429Y-41812771D02*
X112193333Y-41965152D01*
X112193333Y-41965152D02*
X112193333Y-42079438D01*
X112193333Y-42079438D02*
X112231429Y-42231819D01*
X112231429Y-42231819D02*
X112269524Y-42308009D01*
X112269524Y-42308009D02*
X112345714Y-42384200D01*
X112345714Y-42384200D02*
X112460000Y-42422295D01*
X112460000Y-42422295D02*
X112536191Y-42422295D01*
X112536191Y-42422295D02*
X112650476Y-42384200D01*
X112650476Y-42384200D02*
X112688572Y-42346104D01*
X112688572Y-42346104D02*
X112688572Y-42079438D01*
X112688572Y-42079438D02*
X112536191Y-42079438D01*
X113031429Y-42422295D02*
X113031429Y-41622295D01*
X113031429Y-41622295D02*
X113488572Y-42422295D01*
X113488572Y-42422295D02*
X113488572Y-41622295D01*
X113869524Y-42422295D02*
X113869524Y-41622295D01*
X113869524Y-41622295D02*
X114060000Y-41622295D01*
X114060000Y-41622295D02*
X114174286Y-41660390D01*
X114174286Y-41660390D02*
X114250476Y-41736580D01*
X114250476Y-41736580D02*
X114288571Y-41812771D01*
X114288571Y-41812771D02*
X114326667Y-41965152D01*
X114326667Y-41965152D02*
X114326667Y-42079438D01*
X114326667Y-42079438D02*
X114288571Y-42231819D01*
X114288571Y-42231819D02*
X114250476Y-42308009D01*
X114250476Y-42308009D02*
X114174286Y-42384200D01*
X114174286Y-42384200D02*
X114060000Y-42422295D01*
X114060000Y-42422295D02*
X113869524Y-42422295D01*
X113517619Y-38902295D02*
X113250952Y-38521342D01*
X113060476Y-38902295D02*
X113060476Y-38102295D01*
X113060476Y-38102295D02*
X113365238Y-38102295D01*
X113365238Y-38102295D02*
X113441428Y-38140390D01*
X113441428Y-38140390D02*
X113479523Y-38178485D01*
X113479523Y-38178485D02*
X113517619Y-38254676D01*
X113517619Y-38254676D02*
X113517619Y-38368961D01*
X113517619Y-38368961D02*
X113479523Y-38445152D01*
X113479523Y-38445152D02*
X113441428Y-38483247D01*
X113441428Y-38483247D02*
X113365238Y-38521342D01*
X113365238Y-38521342D02*
X113060476Y-38521342D01*
X126852295Y-68968570D02*
X126052295Y-68968570D01*
X126052295Y-68968570D02*
X126052295Y-68778094D01*
X126052295Y-68778094D02*
X126090390Y-68663808D01*
X126090390Y-68663808D02*
X126166580Y-68587618D01*
X126166580Y-68587618D02*
X126242771Y-68549523D01*
X126242771Y-68549523D02*
X126395152Y-68511427D01*
X126395152Y-68511427D02*
X126509438Y-68511427D01*
X126509438Y-68511427D02*
X126661819Y-68549523D01*
X126661819Y-68549523D02*
X126738009Y-68587618D01*
X126738009Y-68587618D02*
X126814200Y-68663808D01*
X126814200Y-68663808D02*
X126852295Y-68778094D01*
X126852295Y-68778094D02*
X126852295Y-68968570D01*
X126052295Y-68168570D02*
X126699914Y-68168570D01*
X126699914Y-68168570D02*
X126776104Y-68130475D01*
X126776104Y-68130475D02*
X126814200Y-68092380D01*
X126814200Y-68092380D02*
X126852295Y-68016189D01*
X126852295Y-68016189D02*
X126852295Y-67863808D01*
X126852295Y-67863808D02*
X126814200Y-67787618D01*
X126814200Y-67787618D02*
X126776104Y-67749523D01*
X126776104Y-67749523D02*
X126699914Y-67711427D01*
X126699914Y-67711427D02*
X126052295Y-67711427D01*
X115590390Y-68949523D02*
X115552295Y-69025713D01*
X115552295Y-69025713D02*
X115552295Y-69139999D01*
X115552295Y-69139999D02*
X115590390Y-69254285D01*
X115590390Y-69254285D02*
X115666580Y-69330475D01*
X115666580Y-69330475D02*
X115742771Y-69368570D01*
X115742771Y-69368570D02*
X115895152Y-69406666D01*
X115895152Y-69406666D02*
X116009438Y-69406666D01*
X116009438Y-69406666D02*
X116161819Y-69368570D01*
X116161819Y-69368570D02*
X116238009Y-69330475D01*
X116238009Y-69330475D02*
X116314200Y-69254285D01*
X116314200Y-69254285D02*
X116352295Y-69139999D01*
X116352295Y-69139999D02*
X116352295Y-69063808D01*
X116352295Y-69063808D02*
X116314200Y-68949523D01*
X116314200Y-68949523D02*
X116276104Y-68911427D01*
X116276104Y-68911427D02*
X116009438Y-68911427D01*
X116009438Y-68911427D02*
X116009438Y-69063808D01*
X116352295Y-68568570D02*
X115552295Y-68568570D01*
X115552295Y-68568570D02*
X116352295Y-68111427D01*
X116352295Y-68111427D02*
X115552295Y-68111427D01*
X116352295Y-67730475D02*
X115552295Y-67730475D01*
X115552295Y-67730475D02*
X115552295Y-67539999D01*
X115552295Y-67539999D02*
X115590390Y-67425713D01*
X115590390Y-67425713D02*
X115666580Y-67349523D01*
X115666580Y-67349523D02*
X115742771Y-67311428D01*
X115742771Y-67311428D02*
X115895152Y-67273332D01*
X115895152Y-67273332D02*
X116009438Y-67273332D01*
X116009438Y-67273332D02*
X116161819Y-67311428D01*
X116161819Y-67311428D02*
X116238009Y-67349523D01*
X116238009Y-67349523D02*
X116314200Y-67425713D01*
X116314200Y-67425713D02*
X116352295Y-67539999D01*
X116352295Y-67539999D02*
X116352295Y-67730475D01*
X132064200Y-68568571D02*
X132102295Y-68454285D01*
X132102295Y-68454285D02*
X132102295Y-68263809D01*
X132102295Y-68263809D02*
X132064200Y-68187618D01*
X132064200Y-68187618D02*
X132026104Y-68149523D01*
X132026104Y-68149523D02*
X131949914Y-68111428D01*
X131949914Y-68111428D02*
X131873723Y-68111428D01*
X131873723Y-68111428D02*
X131797533Y-68149523D01*
X131797533Y-68149523D02*
X131759438Y-68187618D01*
X131759438Y-68187618D02*
X131721342Y-68263809D01*
X131721342Y-68263809D02*
X131683247Y-68416190D01*
X131683247Y-68416190D02*
X131645152Y-68492380D01*
X131645152Y-68492380D02*
X131607057Y-68530475D01*
X131607057Y-68530475D02*
X131530866Y-68568571D01*
X131530866Y-68568571D02*
X131454676Y-68568571D01*
X131454676Y-68568571D02*
X131378485Y-68530475D01*
X131378485Y-68530475D02*
X131340390Y-68492380D01*
X131340390Y-68492380D02*
X131302295Y-68416190D01*
X131302295Y-68416190D02*
X131302295Y-68225713D01*
X131302295Y-68225713D02*
X131340390Y-68111428D01*
X118104286Y-42362295D02*
X118104286Y-41562295D01*
X118104286Y-41562295D02*
X118561429Y-42362295D01*
X118561429Y-42362295D02*
X118561429Y-41562295D01*
X119285238Y-41562295D02*
X119132857Y-41562295D01*
X119132857Y-41562295D02*
X119056666Y-41600390D01*
X119056666Y-41600390D02*
X119018571Y-41638485D01*
X119018571Y-41638485D02*
X118942381Y-41752771D01*
X118942381Y-41752771D02*
X118904285Y-41905152D01*
X118904285Y-41905152D02*
X118904285Y-42209914D01*
X118904285Y-42209914D02*
X118942381Y-42286104D01*
X118942381Y-42286104D02*
X118980476Y-42324200D01*
X118980476Y-42324200D02*
X119056666Y-42362295D01*
X119056666Y-42362295D02*
X119209047Y-42362295D01*
X119209047Y-42362295D02*
X119285238Y-42324200D01*
X119285238Y-42324200D02*
X119323333Y-42286104D01*
X119323333Y-42286104D02*
X119361428Y-42209914D01*
X119361428Y-42209914D02*
X119361428Y-42019438D01*
X119361428Y-42019438D02*
X119323333Y-41943247D01*
X119323333Y-41943247D02*
X119285238Y-41905152D01*
X119285238Y-41905152D02*
X119209047Y-41867057D01*
X119209047Y-41867057D02*
X119056666Y-41867057D01*
X119056666Y-41867057D02*
X118980476Y-41905152D01*
X118980476Y-41905152D02*
X118942381Y-41943247D01*
X118942381Y-41943247D02*
X118904285Y-42019438D01*
X120047143Y-41828961D02*
X120047143Y-42362295D01*
X119856667Y-41524200D02*
X119666190Y-42095628D01*
X119666190Y-42095628D02*
X120161429Y-42095628D01*
X120923334Y-42286104D02*
X120885238Y-42324200D01*
X120885238Y-42324200D02*
X120770953Y-42362295D01*
X120770953Y-42362295D02*
X120694762Y-42362295D01*
X120694762Y-42362295D02*
X120580476Y-42324200D01*
X120580476Y-42324200D02*
X120504286Y-42248009D01*
X120504286Y-42248009D02*
X120466191Y-42171819D01*
X120466191Y-42171819D02*
X120428095Y-42019438D01*
X120428095Y-42019438D02*
X120428095Y-41905152D01*
X120428095Y-41905152D02*
X120466191Y-41752771D01*
X120466191Y-41752771D02*
X120504286Y-41676580D01*
X120504286Y-41676580D02*
X120580476Y-41600390D01*
X120580476Y-41600390D02*
X120694762Y-41562295D01*
X120694762Y-41562295D02*
X120770953Y-41562295D01*
X120770953Y-41562295D02*
X120885238Y-41600390D01*
X120885238Y-41600390D02*
X120923334Y-41638485D01*
X121266191Y-42057533D02*
X121875715Y-42057533D01*
X121570953Y-42362295D02*
X121570953Y-41752771D01*
X138683247Y-68282857D02*
X138721342Y-68168571D01*
X138721342Y-68168571D02*
X138759438Y-68130476D01*
X138759438Y-68130476D02*
X138835628Y-68092380D01*
X138835628Y-68092380D02*
X138949914Y-68092380D01*
X138949914Y-68092380D02*
X139026104Y-68130476D01*
X139026104Y-68130476D02*
X139064200Y-68168571D01*
X139064200Y-68168571D02*
X139102295Y-68244761D01*
X139102295Y-68244761D02*
X139102295Y-68549523D01*
X139102295Y-68549523D02*
X138302295Y-68549523D01*
X138302295Y-68549523D02*
X138302295Y-68282857D01*
X138302295Y-68282857D02*
X138340390Y-68206666D01*
X138340390Y-68206666D02*
X138378485Y-68168571D01*
X138378485Y-68168571D02*
X138454676Y-68130476D01*
X138454676Y-68130476D02*
X138530866Y-68130476D01*
X138530866Y-68130476D02*
X138607057Y-68168571D01*
X138607057Y-68168571D02*
X138645152Y-68206666D01*
X138645152Y-68206666D02*
X138683247Y-68282857D01*
X138683247Y-68282857D02*
X138683247Y-68549523D01*
X140776104Y-68416189D02*
X140814200Y-68454285D01*
X140814200Y-68454285D02*
X140852295Y-68568570D01*
X140852295Y-68568570D02*
X140852295Y-68644761D01*
X140852295Y-68644761D02*
X140814200Y-68759047D01*
X140814200Y-68759047D02*
X140738009Y-68835237D01*
X140738009Y-68835237D02*
X140661819Y-68873332D01*
X140661819Y-68873332D02*
X140509438Y-68911428D01*
X140509438Y-68911428D02*
X140395152Y-68911428D01*
X140395152Y-68911428D02*
X140242771Y-68873332D01*
X140242771Y-68873332D02*
X140166580Y-68835237D01*
X140166580Y-68835237D02*
X140090390Y-68759047D01*
X140090390Y-68759047D02*
X140052295Y-68644761D01*
X140052295Y-68644761D02*
X140052295Y-68568570D01*
X140052295Y-68568570D02*
X140090390Y-68454285D01*
X140090390Y-68454285D02*
X140128485Y-68416189D01*
X140852295Y-67692380D02*
X140852295Y-68073332D01*
X140852295Y-68073332D02*
X140052295Y-68073332D01*
X125102295Y-68949523D02*
X124302295Y-68949523D01*
X124302295Y-68949523D02*
X124302295Y-68759047D01*
X124302295Y-68759047D02*
X124340390Y-68644761D01*
X124340390Y-68644761D02*
X124416580Y-68568571D01*
X124416580Y-68568571D02*
X124492771Y-68530476D01*
X124492771Y-68530476D02*
X124645152Y-68492380D01*
X124645152Y-68492380D02*
X124759438Y-68492380D01*
X124759438Y-68492380D02*
X124911819Y-68530476D01*
X124911819Y-68530476D02*
X124988009Y-68568571D01*
X124988009Y-68568571D02*
X125064200Y-68644761D01*
X125064200Y-68644761D02*
X125102295Y-68759047D01*
X125102295Y-68759047D02*
X125102295Y-68949523D01*
X125102295Y-67692380D02*
X124721342Y-67959047D01*
X125102295Y-68149523D02*
X124302295Y-68149523D01*
X124302295Y-68149523D02*
X124302295Y-67844761D01*
X124302295Y-67844761D02*
X124340390Y-67768571D01*
X124340390Y-67768571D02*
X124378485Y-67730476D01*
X124378485Y-67730476D02*
X124454676Y-67692380D01*
X124454676Y-67692380D02*
X124568961Y-67692380D01*
X124568961Y-67692380D02*
X124645152Y-67730476D01*
X124645152Y-67730476D02*
X124683247Y-67768571D01*
X124683247Y-67768571D02*
X124721342Y-67844761D01*
X124721342Y-67844761D02*
X124721342Y-68149523D01*
X123352295Y-68397142D02*
X123352295Y-68778094D01*
X123352295Y-68778094D02*
X122552295Y-68778094D01*
X122552295Y-68244761D02*
X122552295Y-67787618D01*
X123352295Y-68016190D02*
X122552295Y-68016190D01*
X130352295Y-68949523D02*
X129552295Y-68949523D01*
X129552295Y-68949523D02*
X129552295Y-68759047D01*
X129552295Y-68759047D02*
X129590390Y-68644761D01*
X129590390Y-68644761D02*
X129666580Y-68568571D01*
X129666580Y-68568571D02*
X129742771Y-68530476D01*
X129742771Y-68530476D02*
X129895152Y-68492380D01*
X129895152Y-68492380D02*
X130009438Y-68492380D01*
X130009438Y-68492380D02*
X130161819Y-68530476D01*
X130161819Y-68530476D02*
X130238009Y-68568571D01*
X130238009Y-68568571D02*
X130314200Y-68644761D01*
X130314200Y-68644761D02*
X130352295Y-68759047D01*
X130352295Y-68759047D02*
X130352295Y-68949523D01*
X130352295Y-68149523D02*
X129552295Y-68149523D01*
X129552295Y-68149523D02*
X129552295Y-67959047D01*
X129552295Y-67959047D02*
X129590390Y-67844761D01*
X129590390Y-67844761D02*
X129666580Y-67768571D01*
X129666580Y-67768571D02*
X129742771Y-67730476D01*
X129742771Y-67730476D02*
X129895152Y-67692380D01*
X129895152Y-67692380D02*
X130009438Y-67692380D01*
X130009438Y-67692380D02*
X130161819Y-67730476D01*
X130161819Y-67730476D02*
X130238009Y-67768571D01*
X130238009Y-67768571D02*
X130314200Y-67844761D01*
X130314200Y-67844761D02*
X130352295Y-67959047D01*
X130352295Y-67959047D02*
X130352295Y-68149523D01*
X112993333Y-39962295D02*
X113526667Y-39962295D01*
X113526667Y-39962295D02*
X112993333Y-40762295D01*
X112993333Y-40762295D02*
X113526667Y-40762295D01*
X121564200Y-68949524D02*
X121602295Y-68835238D01*
X121602295Y-68835238D02*
X121602295Y-68644762D01*
X121602295Y-68644762D02*
X121564200Y-68568571D01*
X121564200Y-68568571D02*
X121526104Y-68530476D01*
X121526104Y-68530476D02*
X121449914Y-68492381D01*
X121449914Y-68492381D02*
X121373723Y-68492381D01*
X121373723Y-68492381D02*
X121297533Y-68530476D01*
X121297533Y-68530476D02*
X121259438Y-68568571D01*
X121259438Y-68568571D02*
X121221342Y-68644762D01*
X121221342Y-68644762D02*
X121183247Y-68797143D01*
X121183247Y-68797143D02*
X121145152Y-68873333D01*
X121145152Y-68873333D02*
X121107057Y-68911428D01*
X121107057Y-68911428D02*
X121030866Y-68949524D01*
X121030866Y-68949524D02*
X120954676Y-68949524D01*
X120954676Y-68949524D02*
X120878485Y-68911428D01*
X120878485Y-68911428D02*
X120840390Y-68873333D01*
X120840390Y-68873333D02*
X120802295Y-68797143D01*
X120802295Y-68797143D02*
X120802295Y-68606666D01*
X120802295Y-68606666D02*
X120840390Y-68492381D01*
X120802295Y-68225714D02*
X121602295Y-67692380D01*
X120802295Y-67692380D02*
X121602295Y-68225714D01*
X137276104Y-68492380D02*
X137314200Y-68530476D01*
X137314200Y-68530476D02*
X137352295Y-68644761D01*
X137352295Y-68644761D02*
X137352295Y-68720952D01*
X137352295Y-68720952D02*
X137314200Y-68835238D01*
X137314200Y-68835238D02*
X137238009Y-68911428D01*
X137238009Y-68911428D02*
X137161819Y-68949523D01*
X137161819Y-68949523D02*
X137009438Y-68987619D01*
X137009438Y-68987619D02*
X136895152Y-68987619D01*
X136895152Y-68987619D02*
X136742771Y-68949523D01*
X136742771Y-68949523D02*
X136666580Y-68911428D01*
X136666580Y-68911428D02*
X136590390Y-68835238D01*
X136590390Y-68835238D02*
X136552295Y-68720952D01*
X136552295Y-68720952D02*
X136552295Y-68644761D01*
X136552295Y-68644761D02*
X136590390Y-68530476D01*
X136590390Y-68530476D02*
X136628485Y-68492380D01*
X137352295Y-67692380D02*
X136971342Y-67959047D01*
X137352295Y-68149523D02*
X136552295Y-68149523D01*
X136552295Y-68149523D02*
X136552295Y-67844761D01*
X136552295Y-67844761D02*
X136590390Y-67768571D01*
X136590390Y-67768571D02*
X136628485Y-67730476D01*
X136628485Y-67730476D02*
X136704676Y-67692380D01*
X136704676Y-67692380D02*
X136818961Y-67692380D01*
X136818961Y-67692380D02*
X136895152Y-67730476D01*
X136895152Y-67730476D02*
X136933247Y-67768571D01*
X136933247Y-67768571D02*
X136971342Y-67844761D01*
X136971342Y-67844761D02*
X136971342Y-68149523D01*
X117302295Y-69330476D02*
X117302295Y-68835238D01*
X117302295Y-68835238D02*
X117607057Y-69101904D01*
X117607057Y-69101904D02*
X117607057Y-68987619D01*
X117607057Y-68987619D02*
X117645152Y-68911428D01*
X117645152Y-68911428D02*
X117683247Y-68873333D01*
X117683247Y-68873333D02*
X117759438Y-68835238D01*
X117759438Y-68835238D02*
X117949914Y-68835238D01*
X117949914Y-68835238D02*
X118026104Y-68873333D01*
X118026104Y-68873333D02*
X118064200Y-68911428D01*
X118064200Y-68911428D02*
X118102295Y-68987619D01*
X118102295Y-68987619D02*
X118102295Y-69216190D01*
X118102295Y-69216190D02*
X118064200Y-69292381D01*
X118064200Y-69292381D02*
X118026104Y-69330476D01*
X117302295Y-68606666D02*
X118102295Y-68339999D01*
X118102295Y-68339999D02*
X117302295Y-68073333D01*
X117302295Y-67882857D02*
X117302295Y-67387619D01*
X117302295Y-67387619D02*
X117607057Y-67654285D01*
X117607057Y-67654285D02*
X117607057Y-67540000D01*
X117607057Y-67540000D02*
X117645152Y-67463809D01*
X117645152Y-67463809D02*
X117683247Y-67425714D01*
X117683247Y-67425714D02*
X117759438Y-67387619D01*
X117759438Y-67387619D02*
X117949914Y-67387619D01*
X117949914Y-67387619D02*
X118026104Y-67425714D01*
X118026104Y-67425714D02*
X118064200Y-67463809D01*
X118064200Y-67463809D02*
X118102295Y-67540000D01*
X118102295Y-67540000D02*
X118102295Y-67768571D01*
X118102295Y-67768571D02*
X118064200Y-67844762D01*
X118064200Y-67844762D02*
X118026104Y-67882857D01*
X119814200Y-68911428D02*
X119852295Y-68797142D01*
X119852295Y-68797142D02*
X119852295Y-68606666D01*
X119852295Y-68606666D02*
X119814200Y-68530475D01*
X119814200Y-68530475D02*
X119776104Y-68492380D01*
X119776104Y-68492380D02*
X119699914Y-68454285D01*
X119699914Y-68454285D02*
X119623723Y-68454285D01*
X119623723Y-68454285D02*
X119547533Y-68492380D01*
X119547533Y-68492380D02*
X119509438Y-68530475D01*
X119509438Y-68530475D02*
X119471342Y-68606666D01*
X119471342Y-68606666D02*
X119433247Y-68759047D01*
X119433247Y-68759047D02*
X119395152Y-68835237D01*
X119395152Y-68835237D02*
X119357057Y-68873332D01*
X119357057Y-68873332D02*
X119280866Y-68911428D01*
X119280866Y-68911428D02*
X119204676Y-68911428D01*
X119204676Y-68911428D02*
X119128485Y-68873332D01*
X119128485Y-68873332D02*
X119090390Y-68835237D01*
X119090390Y-68835237D02*
X119052295Y-68759047D01*
X119052295Y-68759047D02*
X119052295Y-68568570D01*
X119052295Y-68568570D02*
X119090390Y-68454285D01*
X119471342Y-67959046D02*
X119852295Y-67959046D01*
X119052295Y-68225713D02*
X119471342Y-67959046D01*
X119471342Y-67959046D02*
X119052295Y-67692380D01*
X142526104Y-68511427D02*
X142564200Y-68549523D01*
X142564200Y-68549523D02*
X142602295Y-68663808D01*
X142602295Y-68663808D02*
X142602295Y-68739999D01*
X142602295Y-68739999D02*
X142564200Y-68854285D01*
X142564200Y-68854285D02*
X142488009Y-68930475D01*
X142488009Y-68930475D02*
X142411819Y-68968570D01*
X142411819Y-68968570D02*
X142259438Y-69006666D01*
X142259438Y-69006666D02*
X142145152Y-69006666D01*
X142145152Y-69006666D02*
X141992771Y-68968570D01*
X141992771Y-68968570D02*
X141916580Y-68930475D01*
X141916580Y-68930475D02*
X141840390Y-68854285D01*
X141840390Y-68854285D02*
X141802295Y-68739999D01*
X141802295Y-68739999D02*
X141802295Y-68663808D01*
X141802295Y-68663808D02*
X141840390Y-68549523D01*
X141840390Y-68549523D02*
X141878485Y-68511427D01*
X141802295Y-68168570D02*
X142449914Y-68168570D01*
X142449914Y-68168570D02*
X142526104Y-68130475D01*
X142526104Y-68130475D02*
X142564200Y-68092380D01*
X142564200Y-68092380D02*
X142602295Y-68016189D01*
X142602295Y-68016189D02*
X142602295Y-67863808D01*
X142602295Y-67863808D02*
X142564200Y-67787618D01*
X142564200Y-67787618D02*
X142526104Y-67749523D01*
X142526104Y-67749523D02*
X142449914Y-67711427D01*
X142449914Y-67711427D02*
X141802295Y-67711427D01*
X128602295Y-68873332D02*
X127802295Y-68873332D01*
X127802295Y-68873332D02*
X127802295Y-68682856D01*
X127802295Y-68682856D02*
X127840390Y-68568570D01*
X127840390Y-68568570D02*
X127916580Y-68492380D01*
X127916580Y-68492380D02*
X127992771Y-68454285D01*
X127992771Y-68454285D02*
X128145152Y-68416189D01*
X128145152Y-68416189D02*
X128259438Y-68416189D01*
X128259438Y-68416189D02*
X128411819Y-68454285D01*
X128411819Y-68454285D02*
X128488009Y-68492380D01*
X128488009Y-68492380D02*
X128564200Y-68568570D01*
X128564200Y-68568570D02*
X128602295Y-68682856D01*
X128602295Y-68682856D02*
X128602295Y-68873332D01*
X128602295Y-67692380D02*
X128602295Y-68073332D01*
X128602295Y-68073332D02*
X127802295Y-68073332D01*
D11*
X110624809Y-52219047D02*
X111029571Y-52219047D01*
X111029571Y-52219047D02*
X111077190Y-52195237D01*
X111077190Y-52195237D02*
X111101000Y-52171428D01*
X111101000Y-52171428D02*
X111124809Y-52123809D01*
X111124809Y-52123809D02*
X111124809Y-52028571D01*
X111124809Y-52028571D02*
X111101000Y-51980952D01*
X111101000Y-51980952D02*
X111077190Y-51957142D01*
X111077190Y-51957142D02*
X111029571Y-51933333D01*
X111029571Y-51933333D02*
X110624809Y-51933333D01*
X111124809Y-51433332D02*
X111124809Y-51719046D01*
X111124809Y-51576189D02*
X110624809Y-51576189D01*
X110624809Y-51576189D02*
X110696238Y-51623808D01*
X110696238Y-51623808D02*
X110743857Y-51671427D01*
X110743857Y-51671427D02*
X110767666Y-51719046D01*
X110624809Y-51266666D02*
X110624809Y-50957142D01*
X110624809Y-50957142D02*
X110815285Y-51123809D01*
X110815285Y-51123809D02*
X110815285Y-51052380D01*
X110815285Y-51052380D02*
X110839095Y-51004761D01*
X110839095Y-51004761D02*
X110862904Y-50980952D01*
X110862904Y-50980952D02*
X110910523Y-50957142D01*
X110910523Y-50957142D02*
X111029571Y-50957142D01*
X111029571Y-50957142D02*
X111077190Y-50980952D01*
X111077190Y-50980952D02*
X111101000Y-51004761D01*
X111101000Y-51004761D02*
X111124809Y-51052380D01*
X111124809Y-51052380D02*
X111124809Y-51195237D01*
X111124809Y-51195237D02*
X111101000Y-51242856D01*
X111101000Y-51242856D02*
X111077190Y-51266666D01*
X141524809Y-39919047D02*
X141929571Y-39919047D01*
X141929571Y-39919047D02*
X141977190Y-39895237D01*
X141977190Y-39895237D02*
X142001000Y-39871428D01*
X142001000Y-39871428D02*
X142024809Y-39823809D01*
X142024809Y-39823809D02*
X142024809Y-39728571D01*
X142024809Y-39728571D02*
X142001000Y-39680952D01*
X142001000Y-39680952D02*
X141977190Y-39657142D01*
X141977190Y-39657142D02*
X141929571Y-39633333D01*
X141929571Y-39633333D02*
X141524809Y-39633333D01*
X142024809Y-39133332D02*
X142024809Y-39419046D01*
X142024809Y-39276189D02*
X141524809Y-39276189D01*
X141524809Y-39276189D02*
X141596238Y-39323808D01*
X141596238Y-39323808D02*
X141643857Y-39371427D01*
X141643857Y-39371427D02*
X141667666Y-39419046D01*
X141691476Y-38704761D02*
X142024809Y-38704761D01*
X141501000Y-38823809D02*
X141858142Y-38942856D01*
X141858142Y-38942856D02*
X141858142Y-38633333D01*
X113461905Y-57686714D02*
X113461905Y-57924809D01*
X113295239Y-57424809D02*
X113461905Y-57686714D01*
X113461905Y-57686714D02*
X113628572Y-57424809D01*
X114057143Y-57924809D02*
X113771429Y-57924809D01*
X113914286Y-57924809D02*
X113914286Y-57424809D01*
X113914286Y-57424809D02*
X113866667Y-57496238D01*
X113866667Y-57496238D02*
X113819048Y-57543857D01*
X113819048Y-57543857D02*
X113771429Y-57567666D01*
X144777190Y-43983333D02*
X144801000Y-44007142D01*
X144801000Y-44007142D02*
X144824809Y-44078571D01*
X144824809Y-44078571D02*
X144824809Y-44126190D01*
X144824809Y-44126190D02*
X144801000Y-44197618D01*
X144801000Y-44197618D02*
X144753380Y-44245237D01*
X144753380Y-44245237D02*
X144705761Y-44269047D01*
X144705761Y-44269047D02*
X144610523Y-44292856D01*
X144610523Y-44292856D02*
X144539095Y-44292856D01*
X144539095Y-44292856D02*
X144443857Y-44269047D01*
X144443857Y-44269047D02*
X144396238Y-44245237D01*
X144396238Y-44245237D02*
X144348619Y-44197618D01*
X144348619Y-44197618D02*
X144324809Y-44126190D01*
X144324809Y-44126190D02*
X144324809Y-44078571D01*
X144324809Y-44078571D02*
X144348619Y-44007142D01*
X144348619Y-44007142D02*
X144372428Y-43983333D01*
X144372428Y-43792856D02*
X144348619Y-43769047D01*
X144348619Y-43769047D02*
X144324809Y-43721428D01*
X144324809Y-43721428D02*
X144324809Y-43602380D01*
X144324809Y-43602380D02*
X144348619Y-43554761D01*
X144348619Y-43554761D02*
X144372428Y-43530952D01*
X144372428Y-43530952D02*
X144420047Y-43507142D01*
X144420047Y-43507142D02*
X144467666Y-43507142D01*
X144467666Y-43507142D02*
X144539095Y-43530952D01*
X144539095Y-43530952D02*
X144824809Y-43816666D01*
X144824809Y-43816666D02*
X144824809Y-43507142D01*
X112437190Y-56471428D02*
X112461000Y-56495237D01*
X112461000Y-56495237D02*
X112484809Y-56566666D01*
X112484809Y-56566666D02*
X112484809Y-56614285D01*
X112484809Y-56614285D02*
X112461000Y-56685713D01*
X112461000Y-56685713D02*
X112413380Y-56733332D01*
X112413380Y-56733332D02*
X112365761Y-56757142D01*
X112365761Y-56757142D02*
X112270523Y-56780951D01*
X112270523Y-56780951D02*
X112199095Y-56780951D01*
X112199095Y-56780951D02*
X112103857Y-56757142D01*
X112103857Y-56757142D02*
X112056238Y-56733332D01*
X112056238Y-56733332D02*
X112008619Y-56685713D01*
X112008619Y-56685713D02*
X111984809Y-56614285D01*
X111984809Y-56614285D02*
X111984809Y-56566666D01*
X111984809Y-56566666D02*
X112008619Y-56495237D01*
X112008619Y-56495237D02*
X112032428Y-56471428D01*
X111984809Y-56304761D02*
X111984809Y-55995237D01*
X111984809Y-55995237D02*
X112175285Y-56161904D01*
X112175285Y-56161904D02*
X112175285Y-56090475D01*
X112175285Y-56090475D02*
X112199095Y-56042856D01*
X112199095Y-56042856D02*
X112222904Y-56019047D01*
X112222904Y-56019047D02*
X112270523Y-55995237D01*
X112270523Y-55995237D02*
X112389571Y-55995237D01*
X112389571Y-55995237D02*
X112437190Y-56019047D01*
X112437190Y-56019047D02*
X112461000Y-56042856D01*
X112461000Y-56042856D02*
X112484809Y-56090475D01*
X112484809Y-56090475D02*
X112484809Y-56233332D01*
X112484809Y-56233332D02*
X112461000Y-56280951D01*
X112461000Y-56280951D02*
X112437190Y-56304761D01*
X111984809Y-55566666D02*
X111984809Y-55661904D01*
X111984809Y-55661904D02*
X112008619Y-55709523D01*
X112008619Y-55709523D02*
X112032428Y-55733333D01*
X112032428Y-55733333D02*
X112103857Y-55780952D01*
X112103857Y-55780952D02*
X112199095Y-55804761D01*
X112199095Y-55804761D02*
X112389571Y-55804761D01*
X112389571Y-55804761D02*
X112437190Y-55780952D01*
X112437190Y-55780952D02*
X112461000Y-55757142D01*
X112461000Y-55757142D02*
X112484809Y-55709523D01*
X112484809Y-55709523D02*
X112484809Y-55614285D01*
X112484809Y-55614285D02*
X112461000Y-55566666D01*
X112461000Y-55566666D02*
X112437190Y-55542857D01*
X112437190Y-55542857D02*
X112389571Y-55519047D01*
X112389571Y-55519047D02*
X112270523Y-55519047D01*
X112270523Y-55519047D02*
X112222904Y-55542857D01*
X112222904Y-55542857D02*
X112199095Y-55566666D01*
X112199095Y-55566666D02*
X112175285Y-55614285D01*
X112175285Y-55614285D02*
X112175285Y-55709523D01*
X112175285Y-55709523D02*
X112199095Y-55757142D01*
X112199095Y-55757142D02*
X112222904Y-55780952D01*
X112222904Y-55780952D02*
X112270523Y-55804761D01*
X120528571Y-66487190D02*
X120504762Y-66511000D01*
X120504762Y-66511000D02*
X120433333Y-66534809D01*
X120433333Y-66534809D02*
X120385714Y-66534809D01*
X120385714Y-66534809D02*
X120314286Y-66511000D01*
X120314286Y-66511000D02*
X120266667Y-66463380D01*
X120266667Y-66463380D02*
X120242857Y-66415761D01*
X120242857Y-66415761D02*
X120219048Y-66320523D01*
X120219048Y-66320523D02*
X120219048Y-66249095D01*
X120219048Y-66249095D02*
X120242857Y-66153857D01*
X120242857Y-66153857D02*
X120266667Y-66106238D01*
X120266667Y-66106238D02*
X120314286Y-66058619D01*
X120314286Y-66058619D02*
X120385714Y-66034809D01*
X120385714Y-66034809D02*
X120433333Y-66034809D01*
X120433333Y-66034809D02*
X120504762Y-66058619D01*
X120504762Y-66058619D02*
X120528571Y-66082428D01*
X120695238Y-66034809D02*
X121004762Y-66034809D01*
X121004762Y-66034809D02*
X120838095Y-66225285D01*
X120838095Y-66225285D02*
X120909524Y-66225285D01*
X120909524Y-66225285D02*
X120957143Y-66249095D01*
X120957143Y-66249095D02*
X120980952Y-66272904D01*
X120980952Y-66272904D02*
X121004762Y-66320523D01*
X121004762Y-66320523D02*
X121004762Y-66439571D01*
X121004762Y-66439571D02*
X120980952Y-66487190D01*
X120980952Y-66487190D02*
X120957143Y-66511000D01*
X120957143Y-66511000D02*
X120909524Y-66534809D01*
X120909524Y-66534809D02*
X120766667Y-66534809D01*
X120766667Y-66534809D02*
X120719048Y-66511000D01*
X120719048Y-66511000D02*
X120695238Y-66487190D01*
X121171428Y-66034809D02*
X121504761Y-66034809D01*
X121504761Y-66034809D02*
X121290476Y-66534809D01*
X114416666Y-55624809D02*
X114250000Y-55386714D01*
X114130952Y-55624809D02*
X114130952Y-55124809D01*
X114130952Y-55124809D02*
X114321428Y-55124809D01*
X114321428Y-55124809D02*
X114369047Y-55148619D01*
X114369047Y-55148619D02*
X114392857Y-55172428D01*
X114392857Y-55172428D02*
X114416666Y-55220047D01*
X114416666Y-55220047D02*
X114416666Y-55291476D01*
X114416666Y-55291476D02*
X114392857Y-55339095D01*
X114392857Y-55339095D02*
X114369047Y-55362904D01*
X114369047Y-55362904D02*
X114321428Y-55386714D01*
X114321428Y-55386714D02*
X114130952Y-55386714D01*
X114892857Y-55624809D02*
X114607143Y-55624809D01*
X114750000Y-55624809D02*
X114750000Y-55124809D01*
X114750000Y-55124809D02*
X114702381Y-55196238D01*
X114702381Y-55196238D02*
X114654762Y-55243857D01*
X114654762Y-55243857D02*
X114607143Y-55267666D01*
X114436666Y-56924809D02*
X114270000Y-56686714D01*
X114150952Y-56924809D02*
X114150952Y-56424809D01*
X114150952Y-56424809D02*
X114341428Y-56424809D01*
X114341428Y-56424809D02*
X114389047Y-56448619D01*
X114389047Y-56448619D02*
X114412857Y-56472428D01*
X114412857Y-56472428D02*
X114436666Y-56520047D01*
X114436666Y-56520047D02*
X114436666Y-56591476D01*
X114436666Y-56591476D02*
X114412857Y-56639095D01*
X114412857Y-56639095D02*
X114389047Y-56662904D01*
X114389047Y-56662904D02*
X114341428Y-56686714D01*
X114341428Y-56686714D02*
X114150952Y-56686714D01*
X114603333Y-56424809D02*
X114936666Y-56424809D01*
X114936666Y-56424809D02*
X114722381Y-56924809D01*
X144824809Y-42821428D02*
X144586714Y-42988094D01*
X144824809Y-43107142D02*
X144324809Y-43107142D01*
X144324809Y-43107142D02*
X144324809Y-42916666D01*
X144324809Y-42916666D02*
X144348619Y-42869047D01*
X144348619Y-42869047D02*
X144372428Y-42845237D01*
X144372428Y-42845237D02*
X144420047Y-42821428D01*
X144420047Y-42821428D02*
X144491476Y-42821428D01*
X144491476Y-42821428D02*
X144539095Y-42845237D01*
X144539095Y-42845237D02*
X144562904Y-42869047D01*
X144562904Y-42869047D02*
X144586714Y-42916666D01*
X144586714Y-42916666D02*
X144586714Y-43107142D01*
X144824809Y-42345237D02*
X144824809Y-42630951D01*
X144824809Y-42488094D02*
X144324809Y-42488094D01*
X144324809Y-42488094D02*
X144396238Y-42535713D01*
X144396238Y-42535713D02*
X144443857Y-42583332D01*
X144443857Y-42583332D02*
X144467666Y-42630951D01*
X144824809Y-41869047D02*
X144824809Y-42154761D01*
X144824809Y-42011904D02*
X144324809Y-42011904D01*
X144324809Y-42011904D02*
X144396238Y-42059523D01*
X144396238Y-42059523D02*
X144443857Y-42107142D01*
X144443857Y-42107142D02*
X144467666Y-42154761D01*
X144924809Y-45821428D02*
X144686714Y-45988094D01*
X144924809Y-46107142D02*
X144424809Y-46107142D01*
X144424809Y-46107142D02*
X144424809Y-45916666D01*
X144424809Y-45916666D02*
X144448619Y-45869047D01*
X144448619Y-45869047D02*
X144472428Y-45845237D01*
X144472428Y-45845237D02*
X144520047Y-45821428D01*
X144520047Y-45821428D02*
X144591476Y-45821428D01*
X144591476Y-45821428D02*
X144639095Y-45845237D01*
X144639095Y-45845237D02*
X144662904Y-45869047D01*
X144662904Y-45869047D02*
X144686714Y-45916666D01*
X144686714Y-45916666D02*
X144686714Y-46107142D01*
X144924809Y-45345237D02*
X144924809Y-45630951D01*
X144924809Y-45488094D02*
X144424809Y-45488094D01*
X144424809Y-45488094D02*
X144496238Y-45535713D01*
X144496238Y-45535713D02*
X144543857Y-45583332D01*
X144543857Y-45583332D02*
X144567666Y-45630951D01*
X144424809Y-45178571D02*
X144424809Y-44869047D01*
X144424809Y-44869047D02*
X144615285Y-45035714D01*
X144615285Y-45035714D02*
X144615285Y-44964285D01*
X144615285Y-44964285D02*
X144639095Y-44916666D01*
X144639095Y-44916666D02*
X144662904Y-44892857D01*
X144662904Y-44892857D02*
X144710523Y-44869047D01*
X144710523Y-44869047D02*
X144829571Y-44869047D01*
X144829571Y-44869047D02*
X144877190Y-44892857D01*
X144877190Y-44892857D02*
X144901000Y-44916666D01*
X144901000Y-44916666D02*
X144924809Y-44964285D01*
X144924809Y-44964285D02*
X144924809Y-45107142D01*
X144924809Y-45107142D02*
X144901000Y-45154761D01*
X144901000Y-45154761D02*
X144877190Y-45178571D01*
X143119047Y-64424809D02*
X143119047Y-64829571D01*
X143119047Y-64829571D02*
X143142857Y-64877190D01*
X143142857Y-64877190D02*
X143166666Y-64901000D01*
X143166666Y-64901000D02*
X143214285Y-64924809D01*
X143214285Y-64924809D02*
X143309523Y-64924809D01*
X143309523Y-64924809D02*
X143357142Y-64901000D01*
X143357142Y-64901000D02*
X143380952Y-64877190D01*
X143380952Y-64877190D02*
X143404761Y-64829571D01*
X143404761Y-64829571D02*
X143404761Y-64424809D01*
X143904762Y-64924809D02*
X143619048Y-64924809D01*
X143761905Y-64924809D02*
X143761905Y-64424809D01*
X143761905Y-64424809D02*
X143714286Y-64496238D01*
X143714286Y-64496238D02*
X143666667Y-64543857D01*
X143666667Y-64543857D02*
X143619048Y-64567666D01*
D12*
X121000000Y-48908761D02*
X121095238Y-49004000D01*
X121095238Y-49004000D02*
X121000000Y-49099238D01*
X121000000Y-49099238D02*
X120904762Y-49004000D01*
X120904762Y-49004000D02*
X121000000Y-48908761D01*
X121000000Y-48908761D02*
X121000000Y-49099238D01*
D11*
X144824809Y-41283333D02*
X144586714Y-41449999D01*
X144824809Y-41569047D02*
X144324809Y-41569047D01*
X144324809Y-41569047D02*
X144324809Y-41378571D01*
X144324809Y-41378571D02*
X144348619Y-41330952D01*
X144348619Y-41330952D02*
X144372428Y-41307142D01*
X144372428Y-41307142D02*
X144420047Y-41283333D01*
X144420047Y-41283333D02*
X144491476Y-41283333D01*
X144491476Y-41283333D02*
X144539095Y-41307142D01*
X144539095Y-41307142D02*
X144562904Y-41330952D01*
X144562904Y-41330952D02*
X144586714Y-41378571D01*
X144586714Y-41378571D02*
X144586714Y-41569047D01*
X144372428Y-41092856D02*
X144348619Y-41069047D01*
X144348619Y-41069047D02*
X144324809Y-41021428D01*
X144324809Y-41021428D02*
X144324809Y-40902380D01*
X144324809Y-40902380D02*
X144348619Y-40854761D01*
X144348619Y-40854761D02*
X144372428Y-40830952D01*
X144372428Y-40830952D02*
X144420047Y-40807142D01*
X144420047Y-40807142D02*
X144467666Y-40807142D01*
X144467666Y-40807142D02*
X144539095Y-40830952D01*
X144539095Y-40830952D02*
X144824809Y-41116666D01*
X144824809Y-41116666D02*
X144824809Y-40807142D01*
D13*
%TO.C,U13*%
X111990000Y-49490000D02*
X112715000Y-49490000D01*
X111990000Y-50215000D02*
X111990000Y-49490000D01*
X111990000Y-52985000D02*
X111990000Y-53710000D01*
X116210000Y-49490000D02*
X115485000Y-49490000D01*
X116210000Y-50215000D02*
X116210000Y-49490000D01*
X116210000Y-52985000D02*
X116210000Y-53710000D01*
X116210000Y-53710000D02*
X115485000Y-53710000D01*
%TO.C,U14*%
X122940000Y-35840000D02*
X123185000Y-35840000D01*
X122940000Y-39700000D02*
X122940000Y-35840000D01*
X122940000Y-39700000D02*
X122940000Y-43560000D01*
X122940000Y-43560000D02*
X123185000Y-43560000D01*
X140815000Y-35840000D02*
X140815000Y-34025000D01*
X141060000Y-35840000D02*
X140815000Y-35840000D01*
X141060000Y-39700000D02*
X141060000Y-35840000D01*
X141060000Y-39700000D02*
X141060000Y-43560000D01*
X141060000Y-43560000D02*
X140815000Y-43560000D01*
%TO.C,Y1*%
X110300000Y-58200000D02*
X110300000Y-65700000D01*
X110300000Y-65700000D02*
X117800000Y-65700000D01*
X117800000Y-58200000D02*
X110300000Y-58200000D01*
X117800000Y-65700000D02*
X117800000Y-58200000D01*
D14*
%TO.C,C2*%
X143430000Y-43660000D02*
X143460000Y-43680000D01*
X143500000Y-43710000D01*
X143520000Y-43740000D01*
X143520000Y-44070000D01*
X143490000Y-44100000D01*
X143440000Y-44130000D01*
X143400000Y-44150000D01*
X143360000Y-44160000D01*
X143310000Y-44160000D01*
X143240000Y-44150000D01*
X143190000Y-44130000D01*
X143150000Y-44100000D01*
X143120000Y-44070000D01*
X143120000Y-43740000D01*
X143150000Y-43700000D01*
X143210000Y-43660000D01*
X143310000Y-43640000D01*
X143370000Y-43640000D01*
X143430000Y-43660000D01*
G36*
X143430000Y-43660000D02*
G01*
X143460000Y-43680000D01*
X143500000Y-43710000D01*
X143520000Y-43740000D01*
X143520000Y-44070000D01*
X143490000Y-44100000D01*
X143440000Y-44130000D01*
X143400000Y-44150000D01*
X143360000Y-44160000D01*
X143310000Y-44160000D01*
X143240000Y-44150000D01*
X143190000Y-44130000D01*
X143150000Y-44100000D01*
X143120000Y-44070000D01*
X143120000Y-43740000D01*
X143150000Y-43700000D01*
X143210000Y-43660000D01*
X143310000Y-43640000D01*
X143370000Y-43640000D01*
X143430000Y-43660000D01*
G37*
%TO.C,C36*%
X111460000Y-55100000D02*
X111490000Y-55150000D01*
X111510000Y-55190000D01*
X111520000Y-55230000D01*
X111520000Y-55280000D01*
X111510000Y-55350000D01*
X111490000Y-55400000D01*
X111460000Y-55440000D01*
X111430000Y-55470000D01*
X111100000Y-55470000D01*
X111060000Y-55440000D01*
X111020000Y-55380000D01*
X111000000Y-55280000D01*
X111000000Y-55220000D01*
X111020000Y-55160000D01*
X111040000Y-55130000D01*
X111070000Y-55090000D01*
X111100000Y-55070000D01*
X111430000Y-55070000D01*
X111460000Y-55100000D01*
G36*
X111460000Y-55100000D02*
G01*
X111490000Y-55150000D01*
X111510000Y-55190000D01*
X111520000Y-55230000D01*
X111520000Y-55280000D01*
X111510000Y-55350000D01*
X111490000Y-55400000D01*
X111460000Y-55440000D01*
X111430000Y-55470000D01*
X111100000Y-55470000D01*
X111060000Y-55440000D01*
X111020000Y-55380000D01*
X111000000Y-55280000D01*
X111000000Y-55220000D01*
X111020000Y-55160000D01*
X111040000Y-55130000D01*
X111070000Y-55090000D01*
X111100000Y-55070000D01*
X111430000Y-55070000D01*
X111460000Y-55100000D01*
G37*
%TO.C,C37*%
X119230000Y-66060000D02*
X119260000Y-66080000D01*
X119300000Y-66110000D01*
X119320000Y-66140000D01*
X119320000Y-66470000D01*
X119290000Y-66500000D01*
X119240000Y-66530000D01*
X119200000Y-66550000D01*
X119160000Y-66560000D01*
X119110000Y-66560000D01*
X119040000Y-66550000D01*
X118990000Y-66530000D01*
X118950000Y-66500000D01*
X118920000Y-66470000D01*
X118920000Y-66140000D01*
X118950000Y-66100000D01*
X119010000Y-66060000D01*
X119110000Y-66040000D01*
X119170000Y-66040000D01*
X119230000Y-66060000D01*
G36*
X119230000Y-66060000D02*
G01*
X119260000Y-66080000D01*
X119300000Y-66110000D01*
X119320000Y-66140000D01*
X119320000Y-66470000D01*
X119290000Y-66500000D01*
X119240000Y-66530000D01*
X119200000Y-66550000D01*
X119160000Y-66560000D01*
X119110000Y-66560000D01*
X119040000Y-66550000D01*
X118990000Y-66530000D01*
X118950000Y-66500000D01*
X118920000Y-66470000D01*
X118920000Y-66140000D01*
X118950000Y-66100000D01*
X119010000Y-66060000D01*
X119110000Y-66040000D01*
X119170000Y-66040000D01*
X119230000Y-66060000D01*
G37*
%TO.C,R1*%
X116100000Y-55160000D02*
X116130000Y-55180000D01*
X116170000Y-55210000D01*
X116190000Y-55240000D01*
X116190000Y-55570000D01*
X116160000Y-55600000D01*
X116110000Y-55630000D01*
X116070000Y-55650000D01*
X116030000Y-55660000D01*
X115980000Y-55660000D01*
X115910000Y-55650000D01*
X115860000Y-55630000D01*
X115820000Y-55600000D01*
X115790000Y-55570000D01*
X115790000Y-55240000D01*
X115820000Y-55200000D01*
X115880000Y-55160000D01*
X115980000Y-55140000D01*
X116040000Y-55140000D01*
X116100000Y-55160000D01*
G36*
X116100000Y-55160000D02*
G01*
X116130000Y-55180000D01*
X116170000Y-55210000D01*
X116190000Y-55240000D01*
X116190000Y-55570000D01*
X116160000Y-55600000D01*
X116110000Y-55630000D01*
X116070000Y-55650000D01*
X116030000Y-55660000D01*
X115980000Y-55660000D01*
X115910000Y-55650000D01*
X115860000Y-55630000D01*
X115820000Y-55600000D01*
X115790000Y-55570000D01*
X115790000Y-55240000D01*
X115820000Y-55200000D01*
X115880000Y-55160000D01*
X115980000Y-55140000D01*
X116040000Y-55140000D01*
X116100000Y-55160000D01*
G37*
%TO.C,R7*%
X116090000Y-56450000D02*
X116140000Y-56470000D01*
X116180000Y-56500000D01*
X116210000Y-56530000D01*
X116210000Y-56860000D01*
X116180000Y-56900000D01*
X116120000Y-56940000D01*
X116020000Y-56960000D01*
X115960000Y-56960000D01*
X115900000Y-56940000D01*
X115870000Y-56920000D01*
X115830000Y-56890000D01*
X115810000Y-56860000D01*
X115810000Y-56530000D01*
X115840000Y-56500000D01*
X115890000Y-56470000D01*
X115930000Y-56450000D01*
X115970000Y-56440000D01*
X116020000Y-56440000D01*
X116090000Y-56450000D01*
G36*
X116090000Y-56450000D02*
G01*
X116140000Y-56470000D01*
X116180000Y-56500000D01*
X116210000Y-56530000D01*
X116210000Y-56860000D01*
X116180000Y-56900000D01*
X116120000Y-56940000D01*
X116020000Y-56960000D01*
X115960000Y-56960000D01*
X115900000Y-56940000D01*
X115870000Y-56920000D01*
X115830000Y-56890000D01*
X115810000Y-56860000D01*
X115810000Y-56530000D01*
X115840000Y-56500000D01*
X115890000Y-56470000D01*
X115930000Y-56450000D01*
X115970000Y-56440000D01*
X116020000Y-56440000D01*
X116090000Y-56450000D01*
G37*
%TO.C,R11*%
X143370000Y-42350000D02*
X143420000Y-42370000D01*
X143460000Y-42400000D01*
X143490000Y-42430000D01*
X143490000Y-42760000D01*
X143460000Y-42800000D01*
X143400000Y-42840000D01*
X143300000Y-42860000D01*
X143240000Y-42860000D01*
X143180000Y-42840000D01*
X143150000Y-42820000D01*
X143110000Y-42790000D01*
X143090000Y-42760000D01*
X143090000Y-42430000D01*
X143120000Y-42400000D01*
X143170000Y-42370000D01*
X143210000Y-42350000D01*
X143250000Y-42340000D01*
X143300000Y-42340000D01*
X143370000Y-42350000D01*
G36*
X143370000Y-42350000D02*
G01*
X143420000Y-42370000D01*
X143460000Y-42400000D01*
X143490000Y-42430000D01*
X143490000Y-42760000D01*
X143460000Y-42800000D01*
X143400000Y-42840000D01*
X143300000Y-42860000D01*
X143240000Y-42860000D01*
X143180000Y-42840000D01*
X143150000Y-42820000D01*
X143110000Y-42790000D01*
X143090000Y-42760000D01*
X143090000Y-42430000D01*
X143120000Y-42400000D01*
X143170000Y-42370000D01*
X143210000Y-42350000D01*
X143250000Y-42340000D01*
X143300000Y-42340000D01*
X143370000Y-42350000D01*
G37*
%TO.C,R13*%
X143420000Y-44960000D02*
X143450000Y-44980000D01*
X143490000Y-45010000D01*
X143510000Y-45040000D01*
X143510000Y-45370000D01*
X143480000Y-45400000D01*
X143430000Y-45430000D01*
X143390000Y-45450000D01*
X143350000Y-45460000D01*
X143300000Y-45460000D01*
X143230000Y-45450000D01*
X143180000Y-45430000D01*
X143140000Y-45400000D01*
X143110000Y-45370000D01*
X143110000Y-45040000D01*
X143140000Y-45000000D01*
X143200000Y-44960000D01*
X143300000Y-44940000D01*
X143360000Y-44940000D01*
X143420000Y-44960000D01*
G36*
X143420000Y-44960000D02*
G01*
X143450000Y-44980000D01*
X143490000Y-45010000D01*
X143510000Y-45040000D01*
X143510000Y-45370000D01*
X143480000Y-45400000D01*
X143430000Y-45430000D01*
X143390000Y-45450000D01*
X143350000Y-45460000D01*
X143300000Y-45460000D01*
X143230000Y-45450000D01*
X143180000Y-45430000D01*
X143140000Y-45400000D01*
X143110000Y-45370000D01*
X143110000Y-45040000D01*
X143140000Y-45000000D01*
X143200000Y-44960000D01*
X143300000Y-44940000D01*
X143360000Y-44940000D01*
X143420000Y-44960000D01*
G37*
D13*
%TO.C,U1*%
X122000000Y-49700000D02*
X122000000Y-63700000D01*
X122000000Y-63700000D02*
X142000000Y-63700000D01*
X142000000Y-49700000D02*
X122000000Y-49700000D01*
X142000000Y-63700000D02*
X142000000Y-49700000D01*
D14*
%TO.C,R2*%
X143390000Y-41050000D02*
X143440000Y-41070000D01*
X143480000Y-41100000D01*
X143510000Y-41130000D01*
X143510000Y-41460000D01*
X143480000Y-41500000D01*
X143420000Y-41540000D01*
X143320000Y-41560000D01*
X143260000Y-41560000D01*
X143200000Y-41540000D01*
X143170000Y-41520000D01*
X143130000Y-41490000D01*
X143110000Y-41460000D01*
X143110000Y-41130000D01*
X143140000Y-41100000D01*
X143190000Y-41070000D01*
X143230000Y-41050000D01*
X143270000Y-41040000D01*
X143320000Y-41040000D01*
X143390000Y-41050000D01*
G36*
X143390000Y-41050000D02*
G01*
X143440000Y-41070000D01*
X143480000Y-41100000D01*
X143510000Y-41130000D01*
X143510000Y-41460000D01*
X143480000Y-41500000D01*
X143420000Y-41540000D01*
X143320000Y-41560000D01*
X143260000Y-41560000D01*
X143200000Y-41540000D01*
X143170000Y-41520000D01*
X143130000Y-41490000D01*
X143110000Y-41460000D01*
X143110000Y-41130000D01*
X143140000Y-41100000D01*
X143190000Y-41070000D01*
X143230000Y-41050000D01*
X143270000Y-41040000D01*
X143320000Y-41040000D01*
X143390000Y-41050000D01*
G37*
D13*
%TO.C,J2*%
X114960000Y-35370000D02*
X116290000Y-35370000D01*
X114960000Y-36700000D02*
X114960000Y-35370000D01*
X114960000Y-37970000D02*
X114960000Y-48190000D01*
X114960000Y-37970000D02*
X117620000Y-37970000D01*
X114960000Y-48190000D02*
X117620000Y-48190000D01*
X117620000Y-37970000D02*
X117620000Y-48190000D01*
%TD*%
M02*
