%TF.GenerationSoftware,KiCad,Pcbnew,8.0.0*%
%TF.CreationDate,2024-03-23T09:44:43-04:00*%
%TF.ProjectId,N64SP PCB,4e363453-5020-4504-9342-2e6b69636164,rev?*%
%TF.SameCoordinates,Original*%
%TF.FileFunction,Copper,L2,Bot*%
%TF.FilePolarity,Positive*%
%FSLAX46Y46*%
G04 Gerber Fmt 4.6, Leading zero omitted, Abs format (unit mm)*
G04 Created by KiCad (PCBNEW 8.0.0) date 2024-03-23 09:44:43*
%MOMM*%
%LPD*%
G01*
G04 APERTURE LIST*
%TA.AperFunction,ComponentPad*%
%ADD10R,1.250000X1.250000*%
%TD*%
%TA.AperFunction,SMDPad,CuDef*%
%ADD11R,0.625000X1.250000*%
%TD*%
%TA.AperFunction,SMDPad,CuDef*%
%ADD12R,1.250000X0.625000*%
%TD*%
%TA.AperFunction,ComponentPad*%
%ADD13C,1.524000*%
%TD*%
%TA.AperFunction,ComponentPad*%
%ADD14R,1.700000X1.700000*%
%TD*%
%TA.AperFunction,ComponentPad*%
%ADD15O,1.700000X1.700000*%
%TD*%
%TA.AperFunction,ViaPad*%
%ADD16C,0.800000*%
%TD*%
%TA.AperFunction,Conductor*%
%ADD17C,0.250000*%
%TD*%
G04 APERTURE END LIST*
D10*
%TO.P,TP1,1*%
%TO.N,GND*%
X111150000Y-42000000D03*
D11*
X110460000Y-42000000D03*
%TD*%
D10*
%TO.P,TP2,1*%
%TO.N,3V3*%
X111150000Y-43750000D03*
D11*
X110460000Y-43750000D03*
%TD*%
D10*
%TO.P,TP3,1*%
%TO.N,DATA*%
X111150000Y-36750000D03*
D11*
X110460000Y-36750000D03*
%TD*%
D10*
%TO.P,TP4,1*%
%TO.N,A*%
X133450000Y-70350000D03*
D12*
X133450000Y-71040000D03*
%TD*%
D10*
%TO.P,TP5,1*%
%TO.N,B*%
X138700000Y-70350000D03*
D12*
X138700000Y-71040000D03*
%TD*%
D10*
%TO.P,TP6,1*%
%TO.N,S*%
X131700000Y-70350000D03*
D12*
X131700000Y-71040000D03*
%TD*%
D10*
%TO.P,TP8,1*%
%TO.N,R*%
X111150000Y-38500000D03*
D11*
X110460000Y-38500000D03*
%TD*%
D10*
%TO.P,TP10,1*%
%TO.N,CL*%
X140450000Y-70350000D03*
D12*
X140450000Y-71040000D03*
%TD*%
D10*
%TO.P,TP11,1*%
%TO.N,CR*%
X136950000Y-70350000D03*
D12*
X136950000Y-71040000D03*
%TD*%
D10*
%TO.P,TP12,1*%
%TO.N,CU*%
X142200000Y-70350000D03*
D12*
X142200000Y-71040000D03*
%TD*%
D10*
%TO.P,TP13,1*%
%TO.N,CD*%
X135200000Y-70350000D03*
D12*
X135200000Y-71040000D03*
%TD*%
D10*
%TO.P,TP14,1*%
%TO.N,DL*%
X128200000Y-70350000D03*
D12*
X128200000Y-71040000D03*
%TD*%
D10*
%TO.P,TP15,1*%
%TO.N,DR*%
X124700000Y-70350000D03*
D12*
X124700000Y-71040000D03*
%TD*%
D10*
%TO.P,TP16,1*%
%TO.N,DU*%
X126450000Y-70350000D03*
D12*
X126450000Y-71040000D03*
%TD*%
D10*
%TO.P,TP17,1*%
%TO.N,DD*%
X129950000Y-70350000D03*
D12*
X129950000Y-71040000D03*
%TD*%
D10*
%TO.P,TP18,1*%
%TO.N,SX*%
X121200000Y-70350000D03*
D12*
X121200000Y-71040000D03*
%TD*%
D10*
%TO.P,TP19,1*%
%TO.N,SY*%
X119450000Y-70350000D03*
D12*
X119450000Y-71040000D03*
%TD*%
D10*
%TO.P,TP9,1*%
%TO.N,Z*%
X111150000Y-40250000D03*
D11*
X110460000Y-40250000D03*
%TD*%
D10*
%TO.P,TP7,1*%
%TO.N,L*%
X122950000Y-70350000D03*
D12*
X122950000Y-71040000D03*
%TD*%
D10*
%TO.P,TP20,1*%
%TO.N,GND*%
X115950000Y-70350000D03*
D12*
X115950000Y-71040000D03*
%TD*%
D10*
%TO.P,TP21,1*%
%TO.N,3V3*%
X117700000Y-70350000D03*
D12*
X117700000Y-71040000D03*
%TD*%
D13*
%TO.P,Y1,1*%
%TO.N,OSC1*%
X111300000Y-64400000D03*
%TO.P,Y1,2*%
%TO.N,Net-(R1-Pad1)*%
X111300000Y-59500000D03*
%TO.P,Y1,3*%
%TO.N,GND*%
X111300000Y-61950000D03*
%TD*%
D14*
%TO.P,J2,1*%
%TO.N,MCLR*%
X116290000Y-36700000D03*
D15*
%TO.P,J2,2*%
%TO.N,3V3*%
X116290000Y-39240000D03*
%TO.P,J2,3*%
%TO.N,GND*%
X116290000Y-41780000D03*
%TO.P,J2,4*%
%TO.N,Net-(J2-Pad4)*%
X116290000Y-44320000D03*
%TO.P,J2,5*%
%TO.N,Net-(J2-Pad5)*%
X116290000Y-46860000D03*
%TD*%
D16*
%TO.N,MCLR*%
X114460000Y-54660000D03*
X117510000Y-48910000D03*
%TO.N,3V3*%
X117010000Y-66590000D03*
X111290000Y-53610000D03*
X120000000Y-63700000D03*
X132000000Y-63700000D03*
X140300000Y-40900000D03*
X119900000Y-65300000D03*
X142990000Y-40070000D03*
X137260000Y-61930000D03*
X124010000Y-63700000D03*
X140800000Y-49500000D03*
%TO.N,GND*%
X141000000Y-63700000D03*
X142800000Y-46200000D03*
X121800000Y-57700000D03*
X111260000Y-56730000D03*
X111290000Y-49710000D03*
X121800000Y-59800000D03*
X140000000Y-63700000D03*
X123700000Y-36900000D03*
X144000000Y-49300000D03*
X120500000Y-49800000D03*
X120230000Y-67350000D03*
X121800000Y-55700000D03*
X118500000Y-65300000D03*
X114810000Y-66600000D03*
%TO.N,R*%
X119820001Y-47590000D03*
X121375000Y-47580000D03*
%TO.N,SX*%
X122765000Y-62730000D03*
X117250000Y-53400000D03*
%TO.N,SY*%
X113540000Y-56230000D03*
%TO.N,DQ6*%
X124960000Y-51695030D03*
X127600000Y-40800000D03*
%TO.N,DQ7*%
X125800000Y-52360000D03*
X128800000Y-42000000D03*
%TO.N,A10*%
X131300000Y-42000000D03*
X126580870Y-52984696D03*
%TO.N,OE*%
X132600000Y-40800000D03*
X127430000Y-53530000D03*
%TO.N,XA*%
X117370000Y-51180000D03*
X127990000Y-62840000D03*
%TO.N,XB*%
X127265000Y-62020000D03*
X117489231Y-52293926D03*
%TO.N,YB*%
X115920000Y-54390000D03*
X125585000Y-61140000D03*
%TO.N,YA*%
X112543915Y-55048439D03*
X125059507Y-60289201D03*
%TO.N,A11*%
X134800000Y-51700000D03*
X133900000Y-42000000D03*
%TO.N,A9*%
X135100000Y-40800000D03*
X135675000Y-50700000D03*
%TO.N,A8*%
X136400000Y-42000000D03*
X136900000Y-51500000D03*
%TO.N,A13*%
X137700000Y-40800000D03*
X137700000Y-50800000D03*
%TO.N,WE*%
X139000000Y-42000000D03*
X141889990Y-42600000D03*
%TO.N,CE*%
X141900000Y-53300000D03*
X141900000Y-41300000D03*
X130100000Y-40800000D03*
%TD*%
D17*
%TO.N,MCLR*%
X114460000Y-53830000D02*
X114460000Y-54660000D01*
X116290000Y-50130000D02*
X116290000Y-52000000D01*
X116290000Y-52000000D02*
X114460000Y-53830000D01*
X117510000Y-48910000D02*
X116290000Y-50130000D01*
%TO.N,3V3*%
X142820000Y-56370000D02*
X142820000Y-51520000D01*
X139230000Y-48710000D02*
X139230000Y-43570000D01*
X111290000Y-55350000D02*
X111290000Y-53610000D01*
X124010000Y-63700000D02*
X120000000Y-63700000D01*
X142990000Y-43250000D02*
X142635000Y-43605000D01*
X117700000Y-66610000D02*
X117700000Y-70350000D01*
X137260000Y-61930000D02*
X142820000Y-56370000D01*
X119900000Y-65300000D02*
X119900000Y-63800000D01*
X117680000Y-66590000D02*
X117700000Y-66610000D01*
X140020000Y-49500000D02*
X139230000Y-48710000D01*
X142440000Y-43800000D02*
X141600000Y-43800000D01*
X117700000Y-66610000D02*
X117700000Y-66209412D01*
X140300000Y-42500000D02*
X140300000Y-40900000D01*
X114509990Y-63019402D02*
X114509990Y-58569990D01*
X140800000Y-49500000D02*
X140020000Y-49500000D01*
X117010000Y-66590000D02*
X117680000Y-66590000D01*
X124010000Y-63700000D02*
X132000000Y-63700000D01*
X142990000Y-40070000D02*
X142990000Y-43250000D01*
X117700000Y-66209412D02*
X114509990Y-63019402D01*
X119900000Y-63800000D02*
X120000000Y-63700000D01*
X142635000Y-43605000D02*
X142440000Y-43800000D01*
X114509990Y-58569990D02*
X111290000Y-55350000D01*
X142820000Y-51520000D02*
X140800000Y-49500000D01*
X139230000Y-43570000D02*
X140300000Y-42500000D01*
X141600000Y-43800000D02*
X140300000Y-42500000D01*
%TO.N,GND*%
X118500000Y-65300000D02*
X119610000Y-66410000D01*
%TO.N,R*%
X119820001Y-47590000D02*
X121365000Y-47590000D01*
X121365000Y-47590000D02*
X121375000Y-47580000D01*
%TO.N,SX*%
X126310000Y-62350000D02*
X126310000Y-57782820D01*
X122765000Y-62730000D02*
X125930000Y-62730000D01*
X126310000Y-57782820D02*
X122602159Y-54074979D01*
X122602159Y-54074979D02*
X117924979Y-54074979D01*
X125930000Y-62730000D02*
X126310000Y-62350000D01*
X117924979Y-54074979D02*
X117250000Y-53400000D01*
%TO.N,SY*%
X114960000Y-62833002D02*
X119450000Y-67323002D01*
X119450000Y-67323002D02*
X119450000Y-70350000D01*
X113540000Y-56230000D02*
X113540000Y-56963590D01*
X114960000Y-58383590D02*
X114960000Y-62833002D01*
X113540000Y-56963590D02*
X114960000Y-58383590D01*
%TO.N,DQ6*%
X124960000Y-51695030D02*
X125700000Y-50955030D01*
X125700000Y-49230000D02*
X125700000Y-47800000D01*
X127600000Y-45900000D02*
X127600000Y-40800000D01*
X125700000Y-50955030D02*
X125700000Y-50610000D01*
X125700000Y-47800000D02*
X127600000Y-45900000D01*
X125700000Y-49400000D02*
X125700000Y-49230000D01*
X125700000Y-49230000D02*
X125700000Y-50610000D01*
%TO.N,DQ7*%
X126150010Y-52009990D02*
X125800000Y-52360000D01*
X128800000Y-42000000D02*
X128050010Y-42749990D01*
X126150010Y-47986400D02*
X126150010Y-52009990D01*
X128050010Y-42749990D02*
X128050010Y-46086400D01*
X128050010Y-46086400D02*
X126150010Y-47986400D01*
%TO.N,A10*%
X128500020Y-45399980D02*
X131300000Y-42600000D01*
X126600020Y-52965546D02*
X126580870Y-52984696D01*
X126600020Y-48172800D02*
X128500020Y-46272800D01*
X131300000Y-42600000D02*
X131300000Y-42000000D01*
X126600020Y-49772800D02*
X126600020Y-48172800D01*
X126600020Y-49772800D02*
X126600020Y-52965546D01*
X128500020Y-46272800D02*
X128500020Y-45399980D01*
%TO.N,OE*%
X127430000Y-52700000D02*
X127430000Y-53530000D01*
X127050029Y-52320029D02*
X127430000Y-52700000D01*
X128950029Y-46459201D02*
X127050030Y-48359200D01*
X127050030Y-48359200D02*
X127050029Y-52320029D01*
X132600000Y-40800000D02*
X132600000Y-41936410D01*
X132600000Y-41936410D02*
X128950030Y-45586380D01*
X128950030Y-45586380D02*
X128950029Y-46459201D01*
%TO.N,XA*%
X122974959Y-53174959D02*
X119734959Y-53174959D01*
X117740000Y-51180000D02*
X117370000Y-51180000D01*
X119734959Y-53174959D02*
X117740000Y-51180000D01*
X127990000Y-58190000D02*
X122974959Y-53174959D01*
X127990000Y-62840000D02*
X127990000Y-58190000D01*
%TO.N,XB*%
X118820274Y-53624969D02*
X117489231Y-52293926D01*
X127539990Y-61745010D02*
X127539990Y-58376400D01*
X127539990Y-58376400D02*
X122788559Y-53624969D01*
X127265000Y-62020000D02*
X127539990Y-61745010D01*
X122788559Y-53624969D02*
X118820274Y-53624969D01*
%TO.N,YB*%
X125859990Y-57969220D02*
X122415759Y-54524989D01*
X116054989Y-54524989D02*
X115920000Y-54390000D01*
X122415759Y-54524989D02*
X116054989Y-54524989D01*
X125859990Y-60865010D02*
X125859990Y-57969220D01*
X125585000Y-61140000D02*
X125859990Y-60865010D01*
%TO.N,YA*%
X116408003Y-54974999D02*
X115934564Y-55448438D01*
X122229359Y-54974999D02*
X116408003Y-54974999D01*
X125059507Y-57805147D02*
X122229359Y-54974999D01*
X115934564Y-55448438D02*
X112943914Y-55448438D01*
X125059507Y-60289201D02*
X125059507Y-57805147D01*
X112943914Y-55448438D02*
X112543915Y-55048439D01*
%TO.N,A11*%
X133900000Y-42900000D02*
X133900000Y-42000000D01*
X135499980Y-49400020D02*
X135499980Y-44499980D01*
X134800000Y-51700000D02*
X134800000Y-50100000D01*
X135499980Y-44499980D02*
X133900000Y-42900000D01*
X134800000Y-50100000D02*
X135499980Y-49400020D01*
%TO.N,A9*%
X135949990Y-43249990D02*
X135949990Y-50425010D01*
X135100000Y-42400000D02*
X135949990Y-43249990D01*
X135949990Y-50425010D02*
X135675000Y-50700000D01*
X135100000Y-40800000D02*
X135100000Y-42400000D01*
%TO.N,A8*%
X136900000Y-51500000D02*
X136400000Y-51000000D01*
X136400000Y-51000000D02*
X136400000Y-42000000D01*
%TO.N,A13*%
X137700000Y-50800000D02*
X136850010Y-49950010D01*
X137700000Y-42500000D02*
X137700000Y-40800000D01*
X136850010Y-49950010D02*
X136850010Y-43349990D01*
X136850010Y-43349990D02*
X137700000Y-42500000D01*
%TO.N,WE*%
X139500000Y-40000000D02*
X140549998Y-40000000D01*
X139000000Y-40500000D02*
X139500000Y-40000000D01*
X140549998Y-40000000D02*
X141174999Y-40625001D01*
X141174999Y-41885009D02*
X141889990Y-42600000D01*
X139000000Y-42000000D02*
X139000000Y-40500000D01*
X141174999Y-40625001D02*
X141174999Y-41885009D01*
%TO.N,CE*%
X141900000Y-52550000D02*
X138274999Y-48924999D01*
X141900000Y-53300000D02*
X141900000Y-52550000D01*
X138274999Y-41405001D02*
X138425001Y-41254999D01*
X138250010Y-39549990D02*
X131350010Y-39549990D01*
X138425001Y-39724981D02*
X138250010Y-39549990D01*
X138274999Y-48924999D02*
X138274999Y-41405001D01*
X140749990Y-39549990D02*
X138250010Y-39549990D01*
X131350010Y-39549990D02*
X130100000Y-40800000D01*
X141900000Y-40700000D02*
X140749990Y-39549990D01*
X141900000Y-41300000D02*
X141900000Y-40700000D01*
X138425001Y-41254999D02*
X138425001Y-39724981D01*
%TD*%
%TA.AperFunction,Conductor*%
%TO.N,GND*%
G36*
X110609011Y-54212857D02*
G01*
X110620129Y-54223764D01*
X110624131Y-54228209D01*
X110654852Y-54292213D01*
X110656500Y-54312524D01*
X110656500Y-55266146D01*
X110654751Y-55281988D01*
X110655044Y-55282016D01*
X110654298Y-55289908D01*
X110656469Y-55358974D01*
X110656500Y-55360953D01*
X110656500Y-55389851D01*
X110656501Y-55389872D01*
X110657378Y-55396820D01*
X110657844Y-55402732D01*
X110659326Y-55449888D01*
X110659327Y-55449893D01*
X110664977Y-55469339D01*
X110668986Y-55488697D01*
X110671525Y-55508793D01*
X110671526Y-55508799D01*
X110688893Y-55552662D01*
X110690816Y-55558279D01*
X110703982Y-55603593D01*
X110714294Y-55621031D01*
X110722988Y-55638779D01*
X110730444Y-55657609D01*
X110730450Y-55657620D01*
X110758177Y-55695783D01*
X110761437Y-55700746D01*
X110785460Y-55741365D01*
X110799779Y-55755684D01*
X110812617Y-55770714D01*
X110822156Y-55783843D01*
X110824528Y-55787107D01*
X110852794Y-55810491D01*
X110860886Y-55817185D01*
X110865267Y-55821171D01*
X112762908Y-57718812D01*
X113839585Y-58795489D01*
X113873611Y-58857801D01*
X113876490Y-58884584D01*
X113876490Y-62935548D01*
X113874741Y-62951390D01*
X113875034Y-62951418D01*
X113874288Y-62959310D01*
X113876459Y-63028376D01*
X113876490Y-63030355D01*
X113876490Y-63059253D01*
X113876491Y-63059274D01*
X113877368Y-63066222D01*
X113877834Y-63072134D01*
X113879316Y-63119290D01*
X113879317Y-63119295D01*
X113884967Y-63138741D01*
X113888976Y-63158099D01*
X113891515Y-63178195D01*
X113891516Y-63178201D01*
X113908883Y-63222064D01*
X113910806Y-63227681D01*
X113923972Y-63272995D01*
X113934284Y-63290433D01*
X113942978Y-63308181D01*
X113950434Y-63327011D01*
X113950440Y-63327022D01*
X113978167Y-63365185D01*
X113981427Y-63370148D01*
X114005450Y-63410767D01*
X114019769Y-63425086D01*
X114032607Y-63440116D01*
X114042146Y-63453245D01*
X114044518Y-63456509D01*
X114072784Y-63479893D01*
X114080876Y-63486587D01*
X114085257Y-63490573D01*
X115240525Y-64645841D01*
X116364928Y-65770244D01*
X116398954Y-65832556D01*
X116393889Y-65903371D01*
X116369470Y-65943649D01*
X116270961Y-66053054D01*
X116270958Y-66053058D01*
X116175476Y-66218438D01*
X116175473Y-66218445D01*
X116116457Y-66400072D01*
X116096496Y-66590000D01*
X116116457Y-66779927D01*
X116139815Y-66851814D01*
X116175473Y-66961556D01*
X116175476Y-66961561D01*
X116270958Y-67126941D01*
X116270965Y-67126951D01*
X116398744Y-67268864D01*
X116418410Y-67283152D01*
X116553248Y-67381118D01*
X116727712Y-67458794D01*
X116914513Y-67498500D01*
X116940500Y-67498500D01*
X117008621Y-67518502D01*
X117055114Y-67572158D01*
X117066500Y-67624500D01*
X117066500Y-69099518D01*
X117046498Y-69167639D01*
X116992842Y-69214132D01*
X116969488Y-69222138D01*
X116965805Y-69223008D01*
X116868316Y-69259370D01*
X116797500Y-69264434D01*
X116780252Y-69259370D01*
X116684094Y-69223505D01*
X116623597Y-69217000D01*
X116204000Y-69217000D01*
X116204000Y-70064892D01*
X116133843Y-70010287D01*
X116013578Y-69969000D01*
X115918431Y-69969000D01*
X115824579Y-69984661D01*
X115712749Y-70045180D01*
X115696000Y-70063374D01*
X115696000Y-69217000D01*
X115276402Y-69217000D01*
X115215906Y-69223505D01*
X115079035Y-69274555D01*
X115079034Y-69274555D01*
X114962095Y-69362095D01*
X114874555Y-69479034D01*
X114874555Y-69479035D01*
X114823505Y-69615906D01*
X114817000Y-69676402D01*
X114817000Y-70096000D01*
X115665966Y-70096000D01*
X115626629Y-70138731D01*
X115575552Y-70255177D01*
X115565051Y-70381898D01*
X115596266Y-70505162D01*
X115660840Y-70604000D01*
X114817000Y-70604000D01*
X114817000Y-70973500D01*
X114796998Y-71041621D01*
X114743342Y-71088114D01*
X114691000Y-71099500D01*
X110526500Y-71099500D01*
X110458379Y-71079498D01*
X110411886Y-71025842D01*
X110400500Y-70973500D01*
X110400500Y-69149999D01*
X111004341Y-69149999D01*
X111024937Y-69385411D01*
X111086096Y-69613661D01*
X111086098Y-69613665D01*
X111185966Y-69827832D01*
X111321498Y-70021392D01*
X111321502Y-70021397D01*
X111321505Y-70021401D01*
X111488599Y-70188495D01*
X111488603Y-70188498D01*
X111488607Y-70188501D01*
X111682167Y-70324033D01*
X111682166Y-70324033D01*
X111758304Y-70359537D01*
X111896337Y-70423903D01*
X112124592Y-70485063D01*
X112301034Y-70500500D01*
X112301041Y-70500500D01*
X112418959Y-70500500D01*
X112418966Y-70500500D01*
X112595408Y-70485063D01*
X112823663Y-70423903D01*
X113037829Y-70324035D01*
X113231401Y-70188495D01*
X113398495Y-70021401D01*
X113534035Y-69827830D01*
X113633903Y-69613663D01*
X113695063Y-69385408D01*
X113715659Y-69150000D01*
X113695063Y-68914592D01*
X113633903Y-68686337D01*
X113534035Y-68472171D01*
X113534034Y-68472169D01*
X113534033Y-68472167D01*
X113398501Y-68278607D01*
X113398497Y-68278602D01*
X113398495Y-68278599D01*
X113231401Y-68111505D01*
X113231397Y-68111502D01*
X113231392Y-68111498D01*
X113037832Y-67975966D01*
X113037833Y-67975966D01*
X112823665Y-67876098D01*
X112823661Y-67876096D01*
X112595411Y-67814937D01*
X112542475Y-67810305D01*
X112418966Y-67799500D01*
X112301034Y-67799500D01*
X112188752Y-67809323D01*
X112124588Y-67814937D01*
X111896338Y-67876096D01*
X111896334Y-67876098D01*
X111682167Y-67975966D01*
X111488607Y-68111498D01*
X111488596Y-68111507D01*
X111321507Y-68278596D01*
X111321502Y-68278602D01*
X111185965Y-68472169D01*
X111086098Y-68686334D01*
X111086096Y-68686338D01*
X111024937Y-68914588D01*
X111004341Y-69149999D01*
X110400500Y-69149999D01*
X110400499Y-65563200D01*
X110420501Y-65495079D01*
X110474157Y-65448586D01*
X110544431Y-65438482D01*
X110598768Y-65459986D01*
X110662323Y-65504488D01*
X110863804Y-65598440D01*
X111078537Y-65655978D01*
X111300000Y-65675353D01*
X111521463Y-65655978D01*
X111736196Y-65598440D01*
X111937677Y-65504488D01*
X112119781Y-65376977D01*
X112276977Y-65219781D01*
X112404488Y-65037677D01*
X112498440Y-64836196D01*
X112555978Y-64621463D01*
X112575353Y-64400000D01*
X112555978Y-64178537D01*
X112498440Y-63963804D01*
X112404488Y-63762324D01*
X112276977Y-63580219D01*
X112119781Y-63423023D01*
X112119777Y-63423020D01*
X112119772Y-63423016D01*
X111937677Y-63295512D01*
X111937671Y-63295509D01*
X111923534Y-63288916D01*
X111870250Y-63241997D01*
X111850792Y-63173719D01*
X111871336Y-63105760D01*
X111923544Y-63060526D01*
X111937421Y-63054055D01*
X111937426Y-63054052D01*
X112000603Y-63009814D01*
X112000603Y-63009812D01*
X111321791Y-62331000D01*
X111331569Y-62331000D01*
X111425421Y-62315339D01*
X111537251Y-62254820D01*
X111623371Y-62161269D01*
X111674448Y-62044823D01*
X111680538Y-61971329D01*
X112359812Y-62650603D01*
X112359814Y-62650603D01*
X112404052Y-62587426D01*
X112404053Y-62587425D01*
X112497966Y-62386027D01*
X112497968Y-62386023D01*
X112555482Y-62171374D01*
X112574850Y-61949999D01*
X112555482Y-61728625D01*
X112497968Y-61513976D01*
X112497966Y-61513972D01*
X112404051Y-61312571D01*
X112359815Y-61249395D01*
X112359813Y-61249395D01*
X111684392Y-61924816D01*
X111684949Y-61918102D01*
X111653734Y-61794838D01*
X111584187Y-61688388D01*
X111483843Y-61610287D01*
X111363578Y-61569000D01*
X111321789Y-61569000D01*
X112000603Y-60890186D01*
X112000603Y-60890184D01*
X111937425Y-60845946D01*
X111937421Y-60845944D01*
X111923539Y-60839471D01*
X111870253Y-60792554D01*
X111850792Y-60724277D01*
X111871334Y-60656317D01*
X111923539Y-60611081D01*
X111937671Y-60604491D01*
X111937672Y-60604490D01*
X111937677Y-60604488D01*
X112119781Y-60476977D01*
X112276977Y-60319781D01*
X112404488Y-60137677D01*
X112498440Y-59936196D01*
X112555978Y-59721463D01*
X112575353Y-59500000D01*
X112555978Y-59278537D01*
X112498440Y-59063804D01*
X112404488Y-58862324D01*
X112276977Y-58680219D01*
X112119781Y-58523023D01*
X112119777Y-58523020D01*
X112119772Y-58523016D01*
X111937677Y-58395512D01*
X111937675Y-58395511D01*
X111736199Y-58301561D01*
X111736193Y-58301559D01*
X111669538Y-58283699D01*
X111521463Y-58244022D01*
X111300000Y-58224647D01*
X111078537Y-58244022D01*
X111003031Y-58264254D01*
X110863806Y-58301559D01*
X110863801Y-58301561D01*
X110662324Y-58395511D01*
X110598769Y-58440013D01*
X110531495Y-58462700D01*
X110462634Y-58445414D01*
X110414051Y-58393644D01*
X110400499Y-58336799D01*
X110400499Y-56221110D01*
X110400499Y-54308077D01*
X110420501Y-54239960D01*
X110474157Y-54193467D01*
X110544431Y-54183363D01*
X110609011Y-54212857D01*
G37*
%TD.AperFunction*%
%TA.AperFunction,Conductor*%
G36*
X144891621Y-33870502D02*
G01*
X144938114Y-33924158D01*
X144949500Y-33976500D01*
X144949500Y-70973500D01*
X144929498Y-71041621D01*
X144875842Y-71088114D01*
X144823500Y-71099500D01*
X143459500Y-71099500D01*
X143391379Y-71079498D01*
X143344886Y-71025842D01*
X143333500Y-70973500D01*
X143333500Y-69676367D01*
X143333499Y-69676350D01*
X143326990Y-69615803D01*
X143326988Y-69615795D01*
X143275978Y-69479035D01*
X143275889Y-69478796D01*
X143275888Y-69478794D01*
X143275887Y-69478792D01*
X143188261Y-69361738D01*
X143071207Y-69274112D01*
X143071202Y-69274110D01*
X142934204Y-69223011D01*
X142934196Y-69223009D01*
X142873649Y-69216500D01*
X142873638Y-69216500D01*
X141526362Y-69216500D01*
X141526350Y-69216500D01*
X141465803Y-69223009D01*
X141465795Y-69223011D01*
X141369033Y-69259103D01*
X141298217Y-69264169D01*
X141280967Y-69259103D01*
X141184204Y-69223011D01*
X141184196Y-69223009D01*
X141123649Y-69216500D01*
X141123638Y-69216500D01*
X139776362Y-69216500D01*
X139776350Y-69216500D01*
X139715803Y-69223009D01*
X139715802Y-69223010D01*
X139715799Y-69223010D01*
X139715799Y-69223011D01*
X139619030Y-69259104D01*
X139548216Y-69264169D01*
X139530971Y-69259104D01*
X139434201Y-69223011D01*
X139434196Y-69223009D01*
X139373649Y-69216500D01*
X139373638Y-69216500D01*
X138026362Y-69216500D01*
X138026350Y-69216500D01*
X137965803Y-69223009D01*
X137965795Y-69223011D01*
X137869033Y-69259103D01*
X137798217Y-69264169D01*
X137780967Y-69259103D01*
X137684204Y-69223011D01*
X137684196Y-69223009D01*
X137623649Y-69216500D01*
X137623638Y-69216500D01*
X136276362Y-69216500D01*
X136276350Y-69216500D01*
X136215803Y-69223009D01*
X136215795Y-69223011D01*
X136119033Y-69259103D01*
X136048217Y-69264169D01*
X136030967Y-69259103D01*
X135934204Y-69223011D01*
X135934196Y-69223009D01*
X135873649Y-69216500D01*
X135873638Y-69216500D01*
X134526362Y-69216500D01*
X134526350Y-69216500D01*
X134465803Y-69223009D01*
X134465802Y-69223010D01*
X134465799Y-69223010D01*
X134465799Y-69223011D01*
X134369030Y-69259104D01*
X134298216Y-69264169D01*
X134280971Y-69259104D01*
X134184201Y-69223011D01*
X134184196Y-69223009D01*
X134123649Y-69216500D01*
X134123638Y-69216500D01*
X132776362Y-69216500D01*
X132776350Y-69216500D01*
X132715803Y-69223009D01*
X132715795Y-69223011D01*
X132619033Y-69259103D01*
X132548217Y-69264169D01*
X132530967Y-69259103D01*
X132434204Y-69223011D01*
X132434196Y-69223009D01*
X132373649Y-69216500D01*
X132373638Y-69216500D01*
X131026362Y-69216500D01*
X131026350Y-69216500D01*
X130965803Y-69223009D01*
X130965795Y-69223011D01*
X130869033Y-69259103D01*
X130798217Y-69264169D01*
X130780967Y-69259103D01*
X130684204Y-69223011D01*
X130684196Y-69223009D01*
X130623649Y-69216500D01*
X130623638Y-69216500D01*
X129276362Y-69216500D01*
X129276350Y-69216500D01*
X129215803Y-69223009D01*
X129215802Y-69223010D01*
X129215799Y-69223010D01*
X129215799Y-69223011D01*
X129119030Y-69259104D01*
X129048216Y-69264169D01*
X129030971Y-69259104D01*
X128934201Y-69223011D01*
X128934196Y-69223009D01*
X128873649Y-69216500D01*
X128873638Y-69216500D01*
X127526362Y-69216500D01*
X127526350Y-69216500D01*
X127465803Y-69223009D01*
X127465795Y-69223011D01*
X127369033Y-69259103D01*
X127298217Y-69264169D01*
X127280967Y-69259103D01*
X127184204Y-69223011D01*
X127184196Y-69223009D01*
X127123649Y-69216500D01*
X127123638Y-69216500D01*
X125776362Y-69216500D01*
X125776350Y-69216500D01*
X125715803Y-69223009D01*
X125715802Y-69223010D01*
X125715799Y-69223010D01*
X125715799Y-69223011D01*
X125619030Y-69259104D01*
X125548216Y-69264169D01*
X125530971Y-69259104D01*
X125434201Y-69223011D01*
X125434196Y-69223009D01*
X125373649Y-69216500D01*
X125373638Y-69216500D01*
X124026362Y-69216500D01*
X124026350Y-69216500D01*
X123965803Y-69223009D01*
X123965795Y-69223011D01*
X123869033Y-69259103D01*
X123798217Y-69264169D01*
X123780967Y-69259103D01*
X123684204Y-69223011D01*
X123684196Y-69223009D01*
X123623649Y-69216500D01*
X123623638Y-69216500D01*
X122276362Y-69216500D01*
X122276350Y-69216500D01*
X122215803Y-69223009D01*
X122215795Y-69223011D01*
X122119033Y-69259103D01*
X122048217Y-69264169D01*
X122030967Y-69259103D01*
X121934204Y-69223011D01*
X121934196Y-69223009D01*
X121873649Y-69216500D01*
X121873638Y-69216500D01*
X120526362Y-69216500D01*
X120526350Y-69216500D01*
X120465803Y-69223009D01*
X120465799Y-69223010D01*
X120369031Y-69259103D01*
X120298215Y-69264167D01*
X120280966Y-69259103D01*
X120184191Y-69223007D01*
X120180512Y-69222138D01*
X120177956Y-69220682D01*
X120176816Y-69220257D01*
X120176884Y-69220072D01*
X120118820Y-69187000D01*
X120085919Y-69124087D01*
X120083500Y-69099518D01*
X120083500Y-68278596D01*
X120083499Y-67406845D01*
X120085249Y-67391013D01*
X120084956Y-67390986D01*
X120085702Y-67383093D01*
X120083531Y-67314013D01*
X120083500Y-67312034D01*
X120083500Y-67283152D01*
X120083500Y-67283146D01*
X120082620Y-67276184D01*
X120082156Y-67270295D01*
X120080674Y-67223113D01*
X120075017Y-67203644D01*
X120071012Y-67184300D01*
X120068474Y-67164205D01*
X120051100Y-67120324D01*
X120049181Y-67114718D01*
X120036018Y-67069409D01*
X120025706Y-67051972D01*
X120017010Y-67034223D01*
X120009552Y-67015385D01*
X119981812Y-66977205D01*
X119978564Y-66972260D01*
X119954542Y-66931640D01*
X119940214Y-66917312D01*
X119927384Y-66902291D01*
X119915472Y-66885895D01*
X119915469Y-66885893D01*
X119915469Y-66885892D01*
X119879107Y-66855810D01*
X119874726Y-66851824D01*
X119330513Y-66307611D01*
X119296488Y-66245300D01*
X119301553Y-66174485D01*
X119344100Y-66117649D01*
X119410620Y-66092838D01*
X119470855Y-66103409D01*
X119617712Y-66168794D01*
X119804513Y-66208500D01*
X119995487Y-66208500D01*
X120182288Y-66168794D01*
X120356752Y-66091118D01*
X120511253Y-65978866D01*
X120511255Y-65978864D01*
X120639034Y-65836951D01*
X120639035Y-65836949D01*
X120639040Y-65836944D01*
X120734527Y-65671556D01*
X120793542Y-65489928D01*
X120813504Y-65300000D01*
X120793542Y-65110072D01*
X120734527Y-64928444D01*
X120639040Y-64763056D01*
X120565863Y-64681784D01*
X120535146Y-64617776D01*
X120533500Y-64597474D01*
X120533500Y-64499557D01*
X120553502Y-64431436D01*
X120585439Y-64397621D01*
X120611253Y-64378866D01*
X120614562Y-64375190D01*
X120675009Y-64337950D01*
X120708200Y-64333500D01*
X123301800Y-64333500D01*
X123369921Y-64353502D01*
X123395437Y-64375190D01*
X123398747Y-64378866D01*
X123553248Y-64491118D01*
X123727712Y-64568794D01*
X123914513Y-64608500D01*
X124105487Y-64608500D01*
X124292288Y-64568794D01*
X124466752Y-64491118D01*
X124621253Y-64378866D01*
X124624562Y-64375190D01*
X124685009Y-64337950D01*
X124718200Y-64333500D01*
X131291800Y-64333500D01*
X131359921Y-64353502D01*
X131385437Y-64375190D01*
X131388747Y-64378866D01*
X131543248Y-64491118D01*
X131717712Y-64568794D01*
X131904513Y-64608500D01*
X132095487Y-64608500D01*
X132282288Y-64568794D01*
X132456752Y-64491118D01*
X132611253Y-64378866D01*
X132739040Y-64236944D01*
X132834527Y-64071556D01*
X132893542Y-63889928D01*
X132913504Y-63700000D01*
X132893542Y-63510072D01*
X132834527Y-63328444D01*
X132739040Y-63163056D01*
X132739038Y-63163054D01*
X132739034Y-63163048D01*
X132611255Y-63021135D01*
X132456752Y-62908882D01*
X132282288Y-62831206D01*
X132095487Y-62791500D01*
X131904513Y-62791500D01*
X131717711Y-62831206D01*
X131543247Y-62908882D01*
X131388747Y-63021133D01*
X131385437Y-63024810D01*
X131324991Y-63062050D01*
X131291800Y-63066500D01*
X129019635Y-63066500D01*
X128951514Y-63046498D01*
X128905021Y-62992842D01*
X128894325Y-62927329D01*
X128903504Y-62840000D01*
X128883542Y-62650072D01*
X128824527Y-62468444D01*
X128729040Y-62303056D01*
X128685608Y-62254820D01*
X128655862Y-62221783D01*
X128625145Y-62157775D01*
X128623499Y-62137473D01*
X128623499Y-60289201D01*
X128623499Y-58273845D01*
X128625249Y-58258014D01*
X128624956Y-58257987D01*
X128625701Y-58250094D01*
X128625702Y-58250091D01*
X128623531Y-58181024D01*
X128623500Y-58179045D01*
X128623500Y-58150149D01*
X128623500Y-58150144D01*
X128622619Y-58143178D01*
X128622155Y-58137282D01*
X128620673Y-58090111D01*
X128615022Y-58070664D01*
X128611012Y-58051300D01*
X128608474Y-58031203D01*
X128591097Y-57987314D01*
X128589183Y-57981723D01*
X128576018Y-57936407D01*
X128565706Y-57918970D01*
X128557010Y-57901221D01*
X128549552Y-57882383D01*
X128521812Y-57844203D01*
X128518564Y-57839258D01*
X128494542Y-57798638D01*
X128480214Y-57784310D01*
X128467384Y-57769289D01*
X128455472Y-57752893D01*
X128455469Y-57752891D01*
X128455469Y-57752890D01*
X128419107Y-57722808D01*
X128414726Y-57718822D01*
X123482203Y-52786298D01*
X123472238Y-52773860D01*
X123472011Y-52774049D01*
X123466960Y-52767943D01*
X123466959Y-52767941D01*
X123416585Y-52720637D01*
X123415196Y-52719291D01*
X123404949Y-52709044D01*
X123394735Y-52698829D01*
X123394731Y-52698825D01*
X123389184Y-52694522D01*
X123384676Y-52690671D01*
X123350284Y-52658376D01*
X123350278Y-52658372D01*
X123332522Y-52648610D01*
X123316006Y-52637761D01*
X123300000Y-52625345D01*
X123261073Y-52608500D01*
X123256699Y-52606607D01*
X123251367Y-52603995D01*
X123210020Y-52581264D01*
X123190395Y-52576225D01*
X123171695Y-52569823D01*
X123169315Y-52568793D01*
X123153104Y-52561778D01*
X123153102Y-52561777D01*
X123153101Y-52561777D01*
X123106501Y-52554396D01*
X123100688Y-52553192D01*
X123054989Y-52541459D01*
X123034735Y-52541459D01*
X123015025Y-52539908D01*
X122995016Y-52536739D01*
X122995015Y-52536739D01*
X122948042Y-52541179D01*
X122942109Y-52541459D01*
X120049553Y-52541459D01*
X119981432Y-52521457D01*
X119960458Y-52504554D01*
X119150934Y-51695030D01*
X124046496Y-51695030D01*
X124066457Y-51884957D01*
X124096526Y-51977500D01*
X124125473Y-52066586D01*
X124128345Y-52071561D01*
X124220958Y-52231971D01*
X124220965Y-52231981D01*
X124348744Y-52373894D01*
X124374192Y-52392383D01*
X124503248Y-52486148D01*
X124677712Y-52563824D01*
X124848419Y-52600109D01*
X124857122Y-52601959D01*
X124919596Y-52635688D01*
X124950757Y-52686267D01*
X124961925Y-52720638D01*
X124965475Y-52731561D01*
X125060958Y-52896941D01*
X125060965Y-52896951D01*
X125188744Y-53038864D01*
X125188747Y-53038866D01*
X125343248Y-53151118D01*
X125517712Y-53228794D01*
X125630406Y-53252748D01*
X125647662Y-53256416D01*
X125710136Y-53290145D01*
X125741297Y-53340723D01*
X125746344Y-53356255D01*
X125841828Y-53521637D01*
X125841835Y-53521647D01*
X125969614Y-53663560D01*
X126017644Y-53698456D01*
X126124118Y-53775814D01*
X126298582Y-53853490D01*
X126485383Y-53893196D01*
X126517901Y-53893196D01*
X126586022Y-53913198D01*
X126627018Y-53956194D01*
X126640107Y-53978864D01*
X126690958Y-54066941D01*
X126690965Y-54066951D01*
X126818744Y-54208864D01*
X126845369Y-54228208D01*
X126973248Y-54321118D01*
X127147712Y-54398794D01*
X127334513Y-54438500D01*
X127525487Y-54438500D01*
X127712288Y-54398794D01*
X127886752Y-54321118D01*
X128041253Y-54208866D01*
X128049011Y-54200250D01*
X128169034Y-54066951D01*
X128169035Y-54066949D01*
X128169040Y-54066944D01*
X128264527Y-53901556D01*
X128323542Y-53719928D01*
X128343504Y-53530000D01*
X128323542Y-53340072D01*
X128264527Y-53158444D01*
X128200868Y-53048185D01*
X128169042Y-52993059D01*
X128169041Y-52993058D01*
X128169040Y-52993056D01*
X128095863Y-52911784D01*
X128065146Y-52847776D01*
X128063500Y-52827474D01*
X128063500Y-52783855D01*
X128065249Y-52768014D01*
X128064956Y-52767987D01*
X128065702Y-52760093D01*
X128063531Y-52691023D01*
X128063500Y-52689044D01*
X128063500Y-52660149D01*
X128063500Y-52660144D01*
X128062619Y-52653178D01*
X128062155Y-52647282D01*
X128060673Y-52600110D01*
X128055022Y-52580663D01*
X128051012Y-52561300D01*
X128050140Y-52554396D01*
X128048474Y-52541203D01*
X128048464Y-52541179D01*
X128033963Y-52504554D01*
X128031099Y-52497320D01*
X128029179Y-52491711D01*
X128029007Y-52491118D01*
X128016018Y-52446407D01*
X128005706Y-52428970D01*
X127997010Y-52411221D01*
X127989552Y-52392383D01*
X127961812Y-52354203D01*
X127958564Y-52349258D01*
X127934542Y-52308638D01*
X127920214Y-52294310D01*
X127907384Y-52279289D01*
X127895472Y-52262893D01*
X127895469Y-52262891D01*
X127895469Y-52262890D01*
X127859109Y-52232809D01*
X127854728Y-52228823D01*
X127720433Y-52094528D01*
X127686407Y-52032216D01*
X127683528Y-52005442D01*
X127683529Y-48673794D01*
X127703531Y-48605673D01*
X127720434Y-48584699D01*
X128525206Y-47779927D01*
X129338689Y-46966443D01*
X129351125Y-46956482D01*
X129350937Y-46956254D01*
X129357041Y-46951203D01*
X129357046Y-46951201D01*
X129404377Y-46900797D01*
X129405693Y-46899439D01*
X129426163Y-46878971D01*
X129430457Y-46873433D01*
X129434302Y-46868930D01*
X129466615Y-46834523D01*
X129476375Y-46816767D01*
X129487227Y-46800245D01*
X129499642Y-46784242D01*
X129518375Y-46740949D01*
X129520990Y-46735613D01*
X129528911Y-46721206D01*
X129543724Y-46694262D01*
X129548761Y-46674639D01*
X129555168Y-46655927D01*
X129563210Y-46637346D01*
X129570592Y-46590727D01*
X129571791Y-46584943D01*
X129583529Y-46539232D01*
X129583529Y-46518969D01*
X129585080Y-46499259D01*
X129588248Y-46479258D01*
X129583809Y-46432291D01*
X129583529Y-46426359D01*
X129583529Y-45900974D01*
X129603531Y-45832853D01*
X129620434Y-45811879D01*
X131243656Y-44188657D01*
X132947638Y-42484675D01*
X133009948Y-42450651D01*
X133080763Y-42455716D01*
X133137599Y-42498263D01*
X133145844Y-42510762D01*
X133156854Y-42529832D01*
X133160960Y-42536944D01*
X133160965Y-42536951D01*
X133234135Y-42618214D01*
X133264853Y-42682221D01*
X133266499Y-42702524D01*
X133266499Y-42816152D01*
X133264751Y-42831993D01*
X133265043Y-42832021D01*
X133264297Y-42839906D01*
X133266469Y-42908973D01*
X133266500Y-42910953D01*
X133266500Y-42939851D01*
X133266501Y-42939872D01*
X133267378Y-42946820D01*
X133267844Y-42952732D01*
X133269326Y-42999888D01*
X133269327Y-42999893D01*
X133274977Y-43019339D01*
X133278986Y-43038697D01*
X133281525Y-43058793D01*
X133281526Y-43058799D01*
X133298893Y-43102662D01*
X133300816Y-43108279D01*
X133313982Y-43153593D01*
X133324294Y-43171031D01*
X133332988Y-43188779D01*
X133340444Y-43207609D01*
X133340450Y-43207620D01*
X133368177Y-43245783D01*
X133371437Y-43250746D01*
X133395460Y-43291365D01*
X133409779Y-43305684D01*
X133422617Y-43320714D01*
X133429385Y-43330028D01*
X133434528Y-43337107D01*
X133462794Y-43360491D01*
X133470886Y-43367185D01*
X133475267Y-43371171D01*
X134196001Y-44091904D01*
X134829575Y-44725478D01*
X134863600Y-44787790D01*
X134866480Y-44814573D01*
X134866480Y-49085423D01*
X134846478Y-49153544D01*
X134829575Y-49174519D01*
X134411333Y-49592760D01*
X134398901Y-49602721D01*
X134399089Y-49602948D01*
X134392979Y-49608002D01*
X134345694Y-49658355D01*
X134344319Y-49659774D01*
X134323863Y-49680231D01*
X134319560Y-49685777D01*
X134315714Y-49690279D01*
X134283417Y-49724674D01*
X134283411Y-49724683D01*
X134273651Y-49742435D01*
X134262803Y-49758950D01*
X134250386Y-49774958D01*
X134231645Y-49818264D01*
X134229034Y-49823594D01*
X134206305Y-49864939D01*
X134206303Y-49864944D01*
X134201267Y-49884559D01*
X134194864Y-49903262D01*
X134186819Y-49921852D01*
X134179437Y-49968456D01*
X134178233Y-49974268D01*
X134166500Y-50019968D01*
X134166500Y-50040223D01*
X134164949Y-50059933D01*
X134161780Y-50079942D01*
X134161780Y-50079943D01*
X134166220Y-50126917D01*
X134166500Y-50132850D01*
X134166500Y-50997474D01*
X134146498Y-51065595D01*
X134134137Y-51081784D01*
X134060957Y-51163059D01*
X133965476Y-51328438D01*
X133965473Y-51328445D01*
X133906457Y-51510072D01*
X133886496Y-51699999D01*
X133906457Y-51889927D01*
X133922921Y-51940595D01*
X133965473Y-52071556D01*
X133965476Y-52071561D01*
X134060958Y-52236941D01*
X134060965Y-52236951D01*
X134188744Y-52378864D01*
X134233273Y-52411216D01*
X134343248Y-52491118D01*
X134517712Y-52568794D01*
X134704513Y-52608500D01*
X134895487Y-52608500D01*
X135082288Y-52568794D01*
X135256752Y-52491118D01*
X135411253Y-52378866D01*
X135474487Y-52308638D01*
X135539034Y-52236951D01*
X135539035Y-52236949D01*
X135539040Y-52236944D01*
X135634527Y-52071556D01*
X135693542Y-51889928D01*
X135712469Y-51709838D01*
X135739482Y-51644184D01*
X135797703Y-51603554D01*
X135811570Y-51599767D01*
X135856453Y-51590227D01*
X135927242Y-51595629D01*
X135983875Y-51638446D01*
X136004277Y-51683692D01*
X136004417Y-51683647D01*
X136004829Y-51684917D01*
X136005896Y-51687282D01*
X136006459Y-51689932D01*
X136012492Y-51708500D01*
X136065473Y-51871556D01*
X136065475Y-51871559D01*
X136065476Y-51871561D01*
X136160958Y-52036941D01*
X136160965Y-52036951D01*
X136288744Y-52178864D01*
X136288747Y-52178866D01*
X136443248Y-52291118D01*
X136617712Y-52368794D01*
X136804513Y-52408500D01*
X136995487Y-52408500D01*
X137182288Y-52368794D01*
X137356752Y-52291118D01*
X137511253Y-52178866D01*
X137607871Y-52071561D01*
X137639034Y-52036951D01*
X137639035Y-52036949D01*
X137639040Y-52036944D01*
X137734527Y-51871556D01*
X137764436Y-51779506D01*
X137804508Y-51720902D01*
X137858069Y-51695197D01*
X137982288Y-51668794D01*
X138156752Y-51591118D01*
X138311253Y-51478866D01*
X138316365Y-51473189D01*
X138439034Y-51336951D01*
X138439035Y-51336949D01*
X138439040Y-51336944D01*
X138534527Y-51171556D01*
X138593542Y-50989928D01*
X138613504Y-50800000D01*
X138593542Y-50610072D01*
X138534527Y-50428444D01*
X138534520Y-50428433D01*
X138531840Y-50422410D01*
X138534600Y-50421180D01*
X138520920Y-50364979D01*
X138544088Y-50297869D01*
X138599861Y-50253938D01*
X138670531Y-50247134D01*
X138733660Y-50279617D01*
X138735877Y-50281781D01*
X141113162Y-52659066D01*
X141147188Y-52721378D01*
X141142123Y-52792193D01*
X141133186Y-52811161D01*
X141065476Y-52928438D01*
X141065473Y-52928445D01*
X141006457Y-53110072D01*
X140986496Y-53299999D01*
X141006457Y-53489927D01*
X141036526Y-53582470D01*
X141065473Y-53671556D01*
X141065476Y-53671561D01*
X141160958Y-53836941D01*
X141160965Y-53836951D01*
X141288744Y-53978864D01*
X141312261Y-53995950D01*
X141443248Y-54091118D01*
X141617712Y-54168794D01*
X141804513Y-54208500D01*
X141995491Y-54208500D01*
X142034302Y-54200250D01*
X142105093Y-54205651D01*
X142161726Y-54248467D01*
X142186220Y-54315104D01*
X142186500Y-54323496D01*
X142186500Y-56055405D01*
X142166498Y-56123526D01*
X142149595Y-56144500D01*
X137309500Y-60984595D01*
X137247188Y-61018621D01*
X137220405Y-61021500D01*
X137164513Y-61021500D01*
X136977711Y-61061206D01*
X136803247Y-61138882D01*
X136648744Y-61251135D01*
X136520965Y-61393048D01*
X136520958Y-61393058D01*
X136425476Y-61558438D01*
X136425473Y-61558445D01*
X136366457Y-61740072D01*
X136346496Y-61929999D01*
X136366457Y-62119927D01*
X136396248Y-62211612D01*
X136425473Y-62301556D01*
X136425476Y-62301561D01*
X136520958Y-62466941D01*
X136520965Y-62466951D01*
X136648744Y-62608864D01*
X136648747Y-62608866D01*
X136803248Y-62721118D01*
X136977712Y-62798794D01*
X137164513Y-62838500D01*
X137355487Y-62838500D01*
X137542288Y-62798794D01*
X137716752Y-62721118D01*
X137871253Y-62608866D01*
X137928587Y-62545190D01*
X137999034Y-62466951D01*
X137999035Y-62466949D01*
X137999040Y-62466944D01*
X138094527Y-62301556D01*
X138153542Y-62119928D01*
X138170907Y-61954703D01*
X138197920Y-61889048D01*
X138207113Y-61878789D01*
X143208657Y-56877245D01*
X143221092Y-56867284D01*
X143220905Y-56867057D01*
X143227016Y-56862001D01*
X143227015Y-56862001D01*
X143227018Y-56862000D01*
X143274352Y-56811592D01*
X143275667Y-56810235D01*
X143296134Y-56789770D01*
X143300429Y-56784232D01*
X143304271Y-56779731D01*
X143336586Y-56745321D01*
X143346345Y-56727567D01*
X143357197Y-56711046D01*
X143369613Y-56695041D01*
X143388347Y-56651748D01*
X143390961Y-56646412D01*
X143413694Y-56605061D01*
X143413695Y-56605060D01*
X143418733Y-56585435D01*
X143425138Y-56566730D01*
X143433181Y-56548145D01*
X143440563Y-56501525D01*
X143441761Y-56495744D01*
X143453500Y-56450030D01*
X143453500Y-56429769D01*
X143455051Y-56410058D01*
X143458219Y-56390056D01*
X143453780Y-56343089D01*
X143453500Y-56337157D01*
X143453500Y-51603849D01*
X143455249Y-51588012D01*
X143454955Y-51587985D01*
X143455701Y-51580092D01*
X143453531Y-51511042D01*
X143453500Y-51509063D01*
X143453500Y-51480151D01*
X143453500Y-51480144D01*
X143452620Y-51473185D01*
X143452155Y-51467280D01*
X143450673Y-51420110D01*
X143445022Y-51400663D01*
X143441012Y-51381300D01*
X143438474Y-51361203D01*
X143421100Y-51317323D01*
X143419184Y-51311725D01*
X143406018Y-51266406D01*
X143395700Y-51248961D01*
X143387005Y-51231209D01*
X143379553Y-51212385D01*
X143379550Y-51212379D01*
X143351818Y-51174210D01*
X143348562Y-51169253D01*
X143324542Y-51128637D01*
X143324540Y-51128635D01*
X143324540Y-51128634D01*
X143310218Y-51114312D01*
X143297377Y-51099279D01*
X143285471Y-51082892D01*
X143264562Y-51065595D01*
X143249108Y-51052810D01*
X143244736Y-51048831D01*
X141747121Y-49551215D01*
X141713095Y-49488904D01*
X141710908Y-49475306D01*
X141693542Y-49310072D01*
X141634527Y-49128444D01*
X141539040Y-48963056D01*
X141539038Y-48963054D01*
X141539034Y-48963048D01*
X141411255Y-48821135D01*
X141256752Y-48708882D01*
X141082288Y-48631206D01*
X140895487Y-48591500D01*
X140704513Y-48591500D01*
X140517711Y-48631206D01*
X140343247Y-48708882D01*
X140303777Y-48737559D01*
X140236909Y-48761417D01*
X140167758Y-48745336D01*
X140140621Y-48724717D01*
X140037508Y-48621604D01*
X139900404Y-48484499D01*
X139866379Y-48422187D01*
X139863500Y-48395404D01*
X139863500Y-43884594D01*
X139883502Y-43816473D01*
X139900405Y-43795499D01*
X140210905Y-43484999D01*
X140273217Y-43450973D01*
X140344032Y-43456038D01*
X140389095Y-43484999D01*
X141092753Y-44188657D01*
X141102720Y-44201097D01*
X141102947Y-44200910D01*
X141107999Y-44207017D01*
X141158388Y-44254335D01*
X141159777Y-44255681D01*
X141180231Y-44276135D01*
X141185770Y-44280431D01*
X141190282Y-44284285D01*
X141211853Y-44304542D01*
X141224678Y-44316585D01*
X141224682Y-44316588D01*
X141242430Y-44326345D01*
X141258957Y-44337201D01*
X141274960Y-44349614D01*
X141318259Y-44368351D01*
X141323585Y-44370960D01*
X141364935Y-44393693D01*
X141364938Y-44393694D01*
X141364940Y-44393695D01*
X141384562Y-44398733D01*
X141403263Y-44405135D01*
X141415814Y-44410567D01*
X141421852Y-44413180D01*
X141421853Y-44413180D01*
X141421855Y-44413181D01*
X141468477Y-44420564D01*
X141474262Y-44421763D01*
X141519970Y-44433500D01*
X141540224Y-44433500D01*
X141559934Y-44435051D01*
X141562141Y-44435400D01*
X141579943Y-44438220D01*
X141614472Y-44434956D01*
X141626917Y-44433780D01*
X141632850Y-44433500D01*
X142356147Y-44433500D01*
X142371988Y-44435249D01*
X142372016Y-44434956D01*
X142379901Y-44435700D01*
X142379909Y-44435702D01*
X142441208Y-44433775D01*
X142448976Y-44433531D01*
X142450955Y-44433500D01*
X142479851Y-44433500D01*
X142479856Y-44433500D01*
X142486818Y-44432619D01*
X142492719Y-44432154D01*
X142539889Y-44430673D01*
X142559347Y-44425019D01*
X142578694Y-44421013D01*
X142598797Y-44418474D01*
X142642679Y-44401099D01*
X142648274Y-44399183D01*
X142676816Y-44390891D01*
X142693591Y-44386019D01*
X142693595Y-44386017D01*
X142711026Y-44375708D01*
X142728780Y-44367009D01*
X142747617Y-44359552D01*
X142785786Y-44331818D01*
X142790744Y-44328562D01*
X142831362Y-44304542D01*
X142845685Y-44290218D01*
X142860724Y-44277374D01*
X142877107Y-44265472D01*
X142907188Y-44229108D01*
X142911167Y-44224735D01*
X143111135Y-44024769D01*
X143111134Y-44024769D01*
X143378663Y-43757240D01*
X143391097Y-43747281D01*
X143390909Y-43747054D01*
X143397014Y-43742003D01*
X143397015Y-43742001D01*
X143397018Y-43742000D01*
X143444337Y-43691608D01*
X143445652Y-43690251D01*
X143466135Y-43669770D01*
X143470445Y-43664212D01*
X143474274Y-43659729D01*
X143506586Y-43625321D01*
X143516346Y-43607565D01*
X143527195Y-43591050D01*
X143539614Y-43575041D01*
X143558363Y-43531710D01*
X143560953Y-43526423D01*
X143583695Y-43485060D01*
X143588733Y-43465434D01*
X143595137Y-43446732D01*
X143603180Y-43428147D01*
X143603179Y-43428147D01*
X143603181Y-43428145D01*
X143610561Y-43381547D01*
X143611762Y-43375740D01*
X143623500Y-43330030D01*
X143623500Y-43309775D01*
X143625051Y-43290063D01*
X143628220Y-43270057D01*
X143625629Y-43242651D01*
X143623780Y-43223080D01*
X143623500Y-43217148D01*
X143623500Y-40772524D01*
X143643502Y-40704403D01*
X143655858Y-40688220D01*
X143729040Y-40606944D01*
X143824527Y-40441556D01*
X143883542Y-40259928D01*
X143903504Y-40070000D01*
X143883542Y-39880072D01*
X143824527Y-39698444D01*
X143729040Y-39533056D01*
X143729038Y-39533054D01*
X143729034Y-39533048D01*
X143601255Y-39391135D01*
X143446752Y-39278882D01*
X143272288Y-39201206D01*
X143085487Y-39161500D01*
X142894513Y-39161500D01*
X142707711Y-39201206D01*
X142533247Y-39278882D01*
X142378744Y-39391135D01*
X142250965Y-39533048D01*
X142250958Y-39533058D01*
X142155476Y-39698438D01*
X142155474Y-39698442D01*
X142130449Y-39775459D01*
X142090374Y-39834064D01*
X142024977Y-39861700D01*
X141955021Y-39849593D01*
X141921520Y-39825616D01*
X141628962Y-39533058D01*
X141257231Y-39161326D01*
X141247269Y-39148891D01*
X141247042Y-39149080D01*
X141241991Y-39142974D01*
X141241990Y-39142972D01*
X141191615Y-39095667D01*
X141190226Y-39094321D01*
X141179980Y-39084075D01*
X141169766Y-39073860D01*
X141169762Y-39073856D01*
X141164215Y-39069553D01*
X141159707Y-39065702D01*
X141125315Y-39033407D01*
X141125309Y-39033403D01*
X141107553Y-39023641D01*
X141091037Y-39012792D01*
X141075031Y-39000376D01*
X141044279Y-38987068D01*
X141031730Y-38981638D01*
X141026398Y-38979026D01*
X140985051Y-38956295D01*
X140965426Y-38951256D01*
X140946726Y-38944854D01*
X140928135Y-38936809D01*
X140928133Y-38936808D01*
X140928132Y-38936808D01*
X140881532Y-38929427D01*
X140875719Y-38928223D01*
X140830020Y-38916490D01*
X140809766Y-38916490D01*
X140790056Y-38914939D01*
X140770047Y-38911770D01*
X140770046Y-38911770D01*
X140723073Y-38916210D01*
X140717140Y-38916490D01*
X138309786Y-38916490D01*
X138290076Y-38914939D01*
X138270067Y-38911770D01*
X138270066Y-38911770D01*
X138223093Y-38916210D01*
X138217160Y-38916490D01*
X131433863Y-38916490D01*
X131418021Y-38914740D01*
X131417994Y-38915034D01*
X131410101Y-38914288D01*
X131341034Y-38916459D01*
X131339055Y-38916490D01*
X131310154Y-38916490D01*
X131310150Y-38916490D01*
X131310140Y-38916491D01*
X131303189Y-38917369D01*
X131297277Y-38917834D01*
X131250122Y-38919316D01*
X131250120Y-38919317D01*
X131230665Y-38924968D01*
X131211312Y-38928976D01*
X131191220Y-38931514D01*
X131191212Y-38931516D01*
X131147346Y-38948883D01*
X131141731Y-38950806D01*
X131096417Y-38963972D01*
X131078974Y-38974287D01*
X131061228Y-38982980D01*
X131042392Y-38990438D01*
X131004219Y-39018171D01*
X130999258Y-39021430D01*
X130958648Y-39045448D01*
X130944321Y-39059774D01*
X130929295Y-39072607D01*
X130912905Y-39084515D01*
X130912903Y-39084517D01*
X130882818Y-39120882D01*
X130878822Y-39125272D01*
X130149498Y-39854596D01*
X130087188Y-39888620D01*
X130060405Y-39891500D01*
X130004513Y-39891500D01*
X129817711Y-39931206D01*
X129643247Y-40008882D01*
X129488744Y-40121135D01*
X129360965Y-40263048D01*
X129360958Y-40263058D01*
X129265476Y-40428438D01*
X129265473Y-40428445D01*
X129206457Y-40610072D01*
X129186496Y-40800000D01*
X129206355Y-40988956D01*
X129193582Y-41058795D01*
X129145080Y-41110641D01*
X129076247Y-41128035D01*
X129054848Y-41125373D01*
X128895487Y-41091500D01*
X128704513Y-41091500D01*
X128647436Y-41103632D01*
X128576645Y-41098230D01*
X128520013Y-41055413D01*
X128495519Y-40988775D01*
X128495929Y-40967215D01*
X128500509Y-40923638D01*
X128513504Y-40800000D01*
X128493542Y-40610072D01*
X128434527Y-40428444D01*
X128339040Y-40263056D01*
X128339038Y-40263054D01*
X128339034Y-40263048D01*
X128211255Y-40121135D01*
X128056752Y-40008882D01*
X127882288Y-39931206D01*
X127695487Y-39891500D01*
X127504513Y-39891500D01*
X127317711Y-39931206D01*
X127143247Y-40008882D01*
X126988744Y-40121135D01*
X126860965Y-40263048D01*
X126860958Y-40263058D01*
X126765476Y-40428438D01*
X126765473Y-40428445D01*
X126706457Y-40610072D01*
X126686496Y-40800000D01*
X126706457Y-40989927D01*
X126728834Y-41058795D01*
X126765473Y-41171556D01*
X126765476Y-41171561D01*
X126860958Y-41336941D01*
X126860965Y-41336951D01*
X126934135Y-41418214D01*
X126964853Y-41482221D01*
X126966499Y-41502524D01*
X126966499Y-45585404D01*
X126946497Y-45653525D01*
X126929594Y-45674499D01*
X125311336Y-47292757D01*
X125298901Y-47302721D01*
X125299089Y-47302948D01*
X125292979Y-47308002D01*
X125245694Y-47358355D01*
X125244319Y-47359774D01*
X125223863Y-47380231D01*
X125219560Y-47385777D01*
X125215714Y-47390279D01*
X125183417Y-47424674D01*
X125183411Y-47424683D01*
X125173651Y-47442435D01*
X125162803Y-47458950D01*
X125150386Y-47474958D01*
X125131645Y-47518264D01*
X125129034Y-47523594D01*
X125106305Y-47564939D01*
X125106303Y-47564944D01*
X125101267Y-47584559D01*
X125094864Y-47603262D01*
X125086819Y-47621852D01*
X125079437Y-47668456D01*
X125078233Y-47674268D01*
X125066500Y-47719968D01*
X125066500Y-47740223D01*
X125064949Y-47759933D01*
X125061780Y-47779942D01*
X125061780Y-47779943D01*
X125066220Y-47826917D01*
X125066500Y-47832850D01*
X125066500Y-50640434D01*
X125046498Y-50708555D01*
X125029598Y-50729527D01*
X125009503Y-50749623D01*
X124947191Y-50783650D01*
X124920405Y-50786530D01*
X124864513Y-50786530D01*
X124677711Y-50826236D01*
X124503247Y-50903912D01*
X124348744Y-51016165D01*
X124220965Y-51158078D01*
X124220958Y-51158088D01*
X124130613Y-51314571D01*
X124125473Y-51323474D01*
X124121094Y-51336951D01*
X124066457Y-51505102D01*
X124046496Y-51695030D01*
X119150934Y-51695030D01*
X118247244Y-50791339D01*
X118237279Y-50778901D01*
X118237052Y-50779090D01*
X118232001Y-50772984D01*
X118232000Y-50772982D01*
X118181625Y-50725677D01*
X118180236Y-50724331D01*
X118169990Y-50714085D01*
X118159776Y-50703870D01*
X118159774Y-50703869D01*
X118159770Y-50703865D01*
X118154218Y-50699558D01*
X118149720Y-50695716D01*
X118146428Y-50692625D01*
X118140840Y-50687377D01*
X118117971Y-50658525D01*
X118109040Y-50643056D01*
X118109038Y-50643054D01*
X118109034Y-50643048D01*
X117981255Y-50501135D01*
X117826752Y-50388882D01*
X117652288Y-50311206D01*
X117465487Y-50271500D01*
X117348595Y-50271500D01*
X117280474Y-50251498D01*
X117233981Y-50197842D01*
X117223877Y-50127568D01*
X117253371Y-50062988D01*
X117259500Y-50056405D01*
X117460500Y-49855405D01*
X117522812Y-49821379D01*
X117549595Y-49818500D01*
X117605487Y-49818500D01*
X117792288Y-49778794D01*
X117966752Y-49701118D01*
X118121253Y-49588866D01*
X118155153Y-49551216D01*
X118249034Y-49446951D01*
X118249035Y-49446949D01*
X118249040Y-49446944D01*
X118344527Y-49281556D01*
X118403542Y-49099928D01*
X118423504Y-48910000D01*
X118403542Y-48720072D01*
X118344527Y-48538444D01*
X118249040Y-48373056D01*
X118249038Y-48373054D01*
X118249034Y-48373048D01*
X118121255Y-48231135D01*
X117966752Y-48118882D01*
X117792288Y-48041206D01*
X117605487Y-48001500D01*
X117414513Y-48001500D01*
X117414508Y-48001500D01*
X117392200Y-48006241D01*
X117321410Y-48000838D01*
X117264778Y-47958019D01*
X117240286Y-47891381D01*
X117255710Y-47822080D01*
X117273302Y-47797661D01*
X117365722Y-47697268D01*
X117435804Y-47590000D01*
X118906497Y-47590000D01*
X118926458Y-47779927D01*
X118953420Y-47862906D01*
X118985474Y-47961556D01*
X118985477Y-47961561D01*
X119080959Y-48126941D01*
X119080966Y-48126951D01*
X119208745Y-48268864D01*
X119270000Y-48313368D01*
X119363249Y-48381118D01*
X119537713Y-48458794D01*
X119724514Y-48498500D01*
X119915488Y-48498500D01*
X120102289Y-48458794D01*
X120276753Y-48381118D01*
X120431254Y-48268866D01*
X120434563Y-48265190D01*
X120495010Y-48227950D01*
X120528201Y-48223500D01*
X120676103Y-48223500D01*
X120744224Y-48243502D01*
X120760418Y-48255868D01*
X120763749Y-48258868D01*
X120787357Y-48276020D01*
X120918248Y-48371118D01*
X121092712Y-48448794D01*
X121279513Y-48488500D01*
X121470487Y-48488500D01*
X121657288Y-48448794D01*
X121831752Y-48371118D01*
X121986253Y-48258866D01*
X121986255Y-48258864D01*
X122114034Y-48116951D01*
X122114035Y-48116949D01*
X122114040Y-48116944D01*
X122209527Y-47951556D01*
X122268542Y-47769928D01*
X122288504Y-47580000D01*
X122268542Y-47390072D01*
X122209527Y-47208444D01*
X122114040Y-47043056D01*
X122114038Y-47043054D01*
X122114034Y-47043048D01*
X121986255Y-46901135D01*
X121831752Y-46788882D01*
X121657288Y-46711206D01*
X121470487Y-46671500D01*
X121279513Y-46671500D01*
X121092711Y-46711206D01*
X120918247Y-46788882D01*
X120763747Y-46901133D01*
X120751433Y-46914810D01*
X120690987Y-46952050D01*
X120657796Y-46956500D01*
X120528201Y-46956500D01*
X120460080Y-46936498D01*
X120434564Y-46914810D01*
X120431253Y-46911133D01*
X120276753Y-46798882D01*
X120102289Y-46721206D01*
X119915488Y-46681500D01*
X119724514Y-46681500D01*
X119537712Y-46721206D01*
X119363248Y-46798882D01*
X119208745Y-46911135D01*
X119080966Y-47053048D01*
X119080959Y-47053058D01*
X118985477Y-47218438D01*
X118985474Y-47218445D01*
X118926458Y-47400072D01*
X118906497Y-47590000D01*
X117435804Y-47590000D01*
X117488860Y-47508791D01*
X117579296Y-47302616D01*
X117634564Y-47084368D01*
X117653156Y-46860000D01*
X117634564Y-46635632D01*
X117594965Y-46479258D01*
X117579297Y-46417387D01*
X117579296Y-46417386D01*
X117579296Y-46417384D01*
X117488860Y-46211209D01*
X117482140Y-46200924D01*
X117365724Y-46022734D01*
X117365720Y-46022729D01*
X117213237Y-45857091D01*
X117131382Y-45793381D01*
X117035576Y-45718811D01*
X117002319Y-45700813D01*
X116951929Y-45650802D01*
X116936576Y-45581485D01*
X116961136Y-45514872D01*
X117002320Y-45479186D01*
X117035576Y-45461189D01*
X117213240Y-45322906D01*
X117365722Y-45157268D01*
X117488860Y-44968791D01*
X117579296Y-44762616D01*
X117634564Y-44544368D01*
X117653156Y-44320000D01*
X117634564Y-44095632D01*
X117616619Y-44024769D01*
X117579297Y-43877387D01*
X117579296Y-43877386D01*
X117579296Y-43877384D01*
X117488860Y-43671209D01*
X117447287Y-43607577D01*
X117365724Y-43482734D01*
X117365720Y-43482729D01*
X117225149Y-43330031D01*
X117213240Y-43317094D01*
X117213239Y-43317093D01*
X117213237Y-43317091D01*
X117088654Y-43220124D01*
X117035576Y-43178811D01*
X117001792Y-43160528D01*
X116951402Y-43110516D01*
X116936050Y-43041199D01*
X116960610Y-42974586D01*
X117001793Y-42938901D01*
X117035300Y-42920767D01*
X117035301Y-42920767D01*
X117212902Y-42782534D01*
X117365325Y-42616958D01*
X117488419Y-42428548D01*
X117578820Y-42222456D01*
X117578823Y-42222449D01*
X117626544Y-42034000D01*
X116721116Y-42034000D01*
X116749493Y-41989844D01*
X116790000Y-41851889D01*
X116790000Y-41708111D01*
X116749493Y-41570156D01*
X116721116Y-41526000D01*
X117626544Y-41526000D01*
X117626544Y-41525999D01*
X117578823Y-41337550D01*
X117578820Y-41337543D01*
X117488419Y-41131451D01*
X117365325Y-40943041D01*
X117212902Y-40777465D01*
X117035301Y-40639232D01*
X117035300Y-40639231D01*
X117001791Y-40621097D01*
X116951401Y-40571083D01*
X116936050Y-40501766D01*
X116960612Y-40435153D01*
X117001790Y-40399472D01*
X117035576Y-40381189D01*
X117213240Y-40242906D01*
X117365722Y-40077268D01*
X117488860Y-39888791D01*
X117579296Y-39682616D01*
X117634564Y-39464368D01*
X117653156Y-39240000D01*
X117634564Y-39015632D01*
X117625956Y-38981638D01*
X117579297Y-38797387D01*
X117579296Y-38797386D01*
X117579296Y-38797384D01*
X117488860Y-38591209D01*
X117482140Y-38580924D01*
X117365724Y-38402734D01*
X117365719Y-38402729D01*
X117222524Y-38247179D01*
X117191103Y-38183514D01*
X117199090Y-38112968D01*
X117243948Y-38057939D01*
X117271183Y-38043789D01*
X117386204Y-38000889D01*
X117503261Y-37913261D01*
X117590889Y-37796204D01*
X117641989Y-37659201D01*
X117648500Y-37598638D01*
X117648500Y-35801362D01*
X117648354Y-35800000D01*
X118504341Y-35800000D01*
X118524937Y-36035411D01*
X118586096Y-36263661D01*
X118586098Y-36263665D01*
X118685966Y-36477832D01*
X118821498Y-36671392D01*
X118821502Y-36671397D01*
X118821505Y-36671401D01*
X118988599Y-36838495D01*
X118988603Y-36838498D01*
X118988607Y-36838501D01*
X119182167Y-36974033D01*
X119182166Y-36974033D01*
X119258304Y-37009537D01*
X119396337Y-37073903D01*
X119624592Y-37135063D01*
X119801034Y-37150500D01*
X119801041Y-37150500D01*
X119918959Y-37150500D01*
X119918966Y-37150500D01*
X120095408Y-37135063D01*
X120323663Y-37073903D01*
X120537829Y-36974035D01*
X120731401Y-36838495D01*
X120898495Y-36671401D01*
X121034035Y-36477830D01*
X121133903Y-36263663D01*
X121195063Y-36035408D01*
X121215659Y-35800000D01*
X121195063Y-35564592D01*
X121133903Y-35336337D01*
X121034035Y-35122171D01*
X121034034Y-35122169D01*
X121034033Y-35122167D01*
X120898501Y-34928607D01*
X120898497Y-34928602D01*
X120898495Y-34928599D01*
X120731401Y-34761505D01*
X120731397Y-34761502D01*
X120731392Y-34761498D01*
X120537832Y-34625966D01*
X120537833Y-34625966D01*
X120323665Y-34526098D01*
X120323661Y-34526096D01*
X120095411Y-34464937D01*
X120042475Y-34460305D01*
X119918966Y-34449500D01*
X119801034Y-34449500D01*
X119688752Y-34459323D01*
X119624588Y-34464937D01*
X119396338Y-34526096D01*
X119396334Y-34526098D01*
X119182167Y-34625966D01*
X118988607Y-34761498D01*
X118988596Y-34761507D01*
X118821507Y-34928596D01*
X118821502Y-34928602D01*
X118685965Y-35122169D01*
X118586098Y-35336334D01*
X118586096Y-35336338D01*
X118524937Y-35564588D01*
X118504341Y-35800000D01*
X117648354Y-35800000D01*
X117641990Y-35740803D01*
X117641988Y-35740795D01*
X117590889Y-35603797D01*
X117590887Y-35603792D01*
X117503261Y-35486738D01*
X117386207Y-35399112D01*
X117386202Y-35399110D01*
X117249204Y-35348011D01*
X117249196Y-35348009D01*
X117188649Y-35341500D01*
X117188638Y-35341500D01*
X115391362Y-35341500D01*
X115391350Y-35341500D01*
X115330803Y-35348009D01*
X115330795Y-35348011D01*
X115193797Y-35399110D01*
X115193792Y-35399112D01*
X115076738Y-35486738D01*
X114989112Y-35603792D01*
X114989110Y-35603797D01*
X114938011Y-35740795D01*
X114938009Y-35740803D01*
X114931500Y-35801350D01*
X114931500Y-37598649D01*
X114938009Y-37659196D01*
X114938011Y-37659204D01*
X114989110Y-37796202D01*
X114989112Y-37796207D01*
X115076738Y-37913261D01*
X115193791Y-38000886D01*
X115193792Y-38000886D01*
X115193796Y-38000889D01*
X115308810Y-38043787D01*
X115365642Y-38086332D01*
X115390453Y-38152852D01*
X115375362Y-38222226D01*
X115357475Y-38247179D01*
X115214280Y-38402729D01*
X115214275Y-38402734D01*
X115091141Y-38591206D01*
X115000703Y-38797386D01*
X115000702Y-38797387D01*
X114945437Y-39015624D01*
X114945436Y-39015630D01*
X114945436Y-39015632D01*
X114940611Y-39073860D01*
X114927325Y-39234201D01*
X114926844Y-39240000D01*
X114941679Y-39419033D01*
X114945437Y-39464375D01*
X115000702Y-39682612D01*
X115000703Y-39682613D01*
X115000704Y-39682616D01*
X115079257Y-39861700D01*
X115091141Y-39888793D01*
X115214275Y-40077265D01*
X115214279Y-40077270D01*
X115366762Y-40242908D01*
X115392638Y-40263048D01*
X115544424Y-40381189D01*
X115578205Y-40399470D01*
X115628596Y-40449482D01*
X115643949Y-40518799D01*
X115619389Y-40585412D01*
X115578209Y-40621096D01*
X115544704Y-40639228D01*
X115544698Y-40639232D01*
X115367097Y-40777465D01*
X115214674Y-40943041D01*
X115091580Y-41131451D01*
X115001179Y-41337543D01*
X115001176Y-41337550D01*
X114953455Y-41525999D01*
X114953456Y-41526000D01*
X115858884Y-41526000D01*
X115830507Y-41570156D01*
X115790000Y-41708111D01*
X115790000Y-41851889D01*
X115830507Y-41989844D01*
X115858884Y-42034000D01*
X114953455Y-42034000D01*
X115001176Y-42222449D01*
X115001179Y-42222456D01*
X115091580Y-42428548D01*
X115214674Y-42616958D01*
X115367097Y-42782534D01*
X115544698Y-42920767D01*
X115544704Y-42920771D01*
X115578207Y-42938902D01*
X115628597Y-42988915D01*
X115643949Y-43058232D01*
X115619388Y-43124845D01*
X115578207Y-43160528D01*
X115544430Y-43178807D01*
X115544424Y-43178811D01*
X115366762Y-43317091D01*
X115214279Y-43482729D01*
X115214275Y-43482734D01*
X115091141Y-43671206D01*
X115000703Y-43877386D01*
X115000702Y-43877387D01*
X114945437Y-44095624D01*
X114945436Y-44095630D01*
X114945436Y-44095632D01*
X114926844Y-44320000D01*
X114940450Y-44484201D01*
X114945437Y-44544375D01*
X115000702Y-44762612D01*
X115000703Y-44762613D01*
X115000704Y-44762616D01*
X115028457Y-44825887D01*
X115091141Y-44968793D01*
X115214275Y-45157265D01*
X115214279Y-45157270D01*
X115366762Y-45322908D01*
X115421331Y-45365381D01*
X115544424Y-45461189D01*
X115577680Y-45479186D01*
X115628071Y-45529200D01*
X115643423Y-45598516D01*
X115618862Y-45665129D01*
X115577680Y-45700813D01*
X115544426Y-45718810D01*
X115544424Y-45718811D01*
X115366762Y-45857091D01*
X115214279Y-46022729D01*
X115214275Y-46022734D01*
X115091141Y-46211206D01*
X115000703Y-46417386D01*
X115000702Y-46417387D01*
X114945437Y-46635624D01*
X114945436Y-46635630D01*
X114945436Y-46635632D01*
X114926844Y-46860000D01*
X114942841Y-47053056D01*
X114945437Y-47084375D01*
X115000702Y-47302612D01*
X115000703Y-47302613D01*
X115000704Y-47302616D01*
X115054247Y-47424683D01*
X115091141Y-47508793D01*
X115214275Y-47697265D01*
X115214279Y-47697270D01*
X115366762Y-47862908D01*
X115403344Y-47891381D01*
X115544424Y-48001189D01*
X115742426Y-48108342D01*
X115742427Y-48108342D01*
X115742428Y-48108343D01*
X115796632Y-48126951D01*
X115955365Y-48181444D01*
X116177431Y-48218500D01*
X116177435Y-48218500D01*
X116402565Y-48218500D01*
X116402569Y-48218500D01*
X116624635Y-48181444D01*
X116627691Y-48180394D01*
X116629010Y-48180335D01*
X116629683Y-48180165D01*
X116629718Y-48180303D01*
X116698612Y-48177189D01*
X116760010Y-48212837D01*
X116792390Y-48276020D01*
X116785469Y-48346678D01*
X116774086Y-48367235D01*
X116774262Y-48367337D01*
X116675476Y-48538438D01*
X116675473Y-48538445D01*
X116616457Y-48720072D01*
X116599092Y-48885292D01*
X116572079Y-48950949D01*
X116562877Y-48961216D01*
X115901336Y-49622757D01*
X115888901Y-49632721D01*
X115889089Y-49632948D01*
X115882979Y-49638002D01*
X115835694Y-49688355D01*
X115834319Y-49689774D01*
X115813863Y-49710231D01*
X115809560Y-49715777D01*
X115805714Y-49720279D01*
X115773417Y-49754674D01*
X115773411Y-49754683D01*
X115763651Y-49772435D01*
X115752803Y-49788950D01*
X115740386Y-49804958D01*
X115721645Y-49848264D01*
X115719034Y-49853594D01*
X115696305Y-49894939D01*
X115696303Y-49894944D01*
X115691267Y-49914559D01*
X115684864Y-49933262D01*
X115676819Y-49951852D01*
X115669437Y-49998456D01*
X115668233Y-50004268D01*
X115656499Y-50049969D01*
X115656499Y-50070231D01*
X115654948Y-50089933D01*
X115651780Y-50109938D01*
X115651779Y-50109947D01*
X115656219Y-50156919D01*
X115656499Y-50162850D01*
X115656499Y-51685404D01*
X115636497Y-51753525D01*
X115619594Y-51774499D01*
X114071336Y-53322757D01*
X114058901Y-53332721D01*
X114059089Y-53332948D01*
X114052979Y-53338002D01*
X114005694Y-53388355D01*
X114004319Y-53389774D01*
X113983863Y-53410231D01*
X113979560Y-53415777D01*
X113975714Y-53420279D01*
X113943417Y-53454674D01*
X113943411Y-53454683D01*
X113933651Y-53472435D01*
X113922803Y-53488950D01*
X113910386Y-53504958D01*
X113891645Y-53548264D01*
X113889034Y-53553594D01*
X113866305Y-53594939D01*
X113866303Y-53594944D01*
X113861267Y-53614559D01*
X113854864Y-53633262D01*
X113846819Y-53651852D01*
X113839437Y-53698456D01*
X113838233Y-53704268D01*
X113826500Y-53749968D01*
X113826500Y-53770223D01*
X113824949Y-53789933D01*
X113821780Y-53809942D01*
X113821780Y-53809943D01*
X113826220Y-53856917D01*
X113826500Y-53862850D01*
X113826500Y-53957474D01*
X113806498Y-54025595D01*
X113794137Y-54041784D01*
X113720957Y-54123059D01*
X113625476Y-54288438D01*
X113625473Y-54288444D01*
X113614084Y-54323496D01*
X113566457Y-54470072D01*
X113559647Y-54534868D01*
X113532633Y-54600525D01*
X113474411Y-54641154D01*
X113403466Y-54643857D01*
X113342322Y-54607774D01*
X113325218Y-54584697D01*
X113282956Y-54511497D01*
X113282949Y-54511487D01*
X113155170Y-54369574D01*
X113000667Y-54257321D01*
X112826203Y-54179645D01*
X112639402Y-54139939D01*
X112448428Y-54139939D01*
X112264375Y-54179061D01*
X112255168Y-54181018D01*
X112254752Y-54179061D01*
X112193280Y-54180807D01*
X112132489Y-54144133D01*
X112101176Y-54080415D01*
X112109281Y-54009883D01*
X112116212Y-53995957D01*
X112124527Y-53981556D01*
X112183542Y-53799928D01*
X112203504Y-53610000D01*
X112183542Y-53420072D01*
X112124527Y-53238444D01*
X112029040Y-53073056D01*
X112029038Y-53073054D01*
X112029034Y-53073048D01*
X111901255Y-52931135D01*
X111746752Y-52818882D01*
X111572288Y-52741206D01*
X111385487Y-52701500D01*
X111194513Y-52701500D01*
X111007711Y-52741206D01*
X110833247Y-52818882D01*
X110678744Y-52931135D01*
X110620136Y-52996227D01*
X110559690Y-53033467D01*
X110488707Y-53032115D01*
X110429722Y-52992602D01*
X110401464Y-52927471D01*
X110400500Y-52911917D01*
X110400500Y-45009500D01*
X110420502Y-44941379D01*
X110474158Y-44894886D01*
X110526500Y-44883500D01*
X111823632Y-44883500D01*
X111823638Y-44883500D01*
X111823645Y-44883499D01*
X111823649Y-44883499D01*
X111884196Y-44876990D01*
X111884199Y-44876989D01*
X111884201Y-44876989D01*
X112021204Y-44825889D01*
X112036321Y-44814573D01*
X112138261Y-44738261D01*
X112225887Y-44621207D01*
X112225887Y-44621206D01*
X112225889Y-44621204D01*
X112276989Y-44484201D01*
X112281933Y-44438220D01*
X112283499Y-44423649D01*
X112283500Y-44423632D01*
X112283500Y-43076367D01*
X112283499Y-43076350D01*
X112276990Y-43015803D01*
X112276988Y-43015795D01*
X112241545Y-42920771D01*
X112240629Y-42918317D01*
X112235564Y-42847503D01*
X112240629Y-42830252D01*
X112276494Y-42734092D01*
X112282999Y-42673597D01*
X112283000Y-42673585D01*
X112283000Y-42254000D01*
X111434034Y-42254000D01*
X111473371Y-42211269D01*
X111524448Y-42094823D01*
X111534949Y-41968102D01*
X111503734Y-41844838D01*
X111439160Y-41746000D01*
X112283000Y-41746000D01*
X112283000Y-41326414D01*
X112282999Y-41326402D01*
X112276494Y-41265907D01*
X112240629Y-41169748D01*
X112235564Y-41098932D01*
X112240630Y-41081682D01*
X112276988Y-40984204D01*
X112276990Y-40984196D01*
X112283499Y-40923649D01*
X112283500Y-40923632D01*
X112283500Y-39576367D01*
X112283499Y-39576350D01*
X112276990Y-39515803D01*
X112276988Y-39515795D01*
X112240897Y-39419033D01*
X112235831Y-39348217D01*
X112240897Y-39330967D01*
X112276988Y-39234204D01*
X112276990Y-39234196D01*
X112283499Y-39173649D01*
X112283500Y-39173632D01*
X112283500Y-37826367D01*
X112283499Y-37826350D01*
X112276990Y-37765803D01*
X112276989Y-37765802D01*
X112276989Y-37765799D01*
X112240895Y-37669030D01*
X112235831Y-37598216D01*
X112240895Y-37580971D01*
X112276989Y-37484201D01*
X112283500Y-37423638D01*
X112283500Y-36076362D01*
X112283499Y-36076350D01*
X112276990Y-36015803D01*
X112276988Y-36015795D01*
X112225889Y-35878797D01*
X112225887Y-35878792D01*
X112138261Y-35761738D01*
X112021207Y-35674112D01*
X112021202Y-35674110D01*
X111884204Y-35623011D01*
X111884196Y-35623009D01*
X111823649Y-35616500D01*
X111823638Y-35616500D01*
X110823638Y-35616500D01*
X110526500Y-35616500D01*
X110458379Y-35596498D01*
X110411886Y-35542842D01*
X110400500Y-35490500D01*
X110400500Y-33976500D01*
X110420502Y-33908379D01*
X110474158Y-33861886D01*
X110526500Y-33850500D01*
X144823500Y-33850500D01*
X144891621Y-33870502D01*
G37*
%TD.AperFunction*%
%TA.AperFunction,Conductor*%
G36*
X115766157Y-70689713D02*
G01*
X115886422Y-70731000D01*
X115981569Y-70731000D01*
X116075421Y-70715339D01*
X116187251Y-70654820D01*
X116204000Y-70636625D01*
X116204000Y-70973500D01*
X116183998Y-71041621D01*
X116179314Y-71045679D01*
X116133843Y-71010287D01*
X116013578Y-70969000D01*
X115918431Y-70969000D01*
X115824579Y-70984661D01*
X115720505Y-71040982D01*
X115707386Y-71025842D01*
X115696000Y-70973500D01*
X115696000Y-70635107D01*
X115766157Y-70689713D01*
G37*
%TD.AperFunction*%
%TA.AperFunction,Conductor*%
G36*
X121982886Y-55628501D02*
G01*
X122003860Y-55645404D01*
X124389102Y-58030645D01*
X124423127Y-58092957D01*
X124426007Y-58119740D01*
X124426007Y-59586675D01*
X124406005Y-59654796D01*
X124393644Y-59670985D01*
X124320464Y-59752260D01*
X124224983Y-59917639D01*
X124224980Y-59917645D01*
X124210506Y-59962187D01*
X124165964Y-60099273D01*
X124146003Y-60289201D01*
X124165964Y-60479128D01*
X124196033Y-60571671D01*
X124224980Y-60660757D01*
X124224983Y-60660762D01*
X124320465Y-60826142D01*
X124320472Y-60826152D01*
X124448251Y-60968065D01*
X124448254Y-60968067D01*
X124602755Y-61080319D01*
X124602762Y-61080322D01*
X124608476Y-61083622D01*
X124607727Y-61084918D01*
X124655927Y-61125886D01*
X124675894Y-61181845D01*
X124691457Y-61329927D01*
X124711970Y-61393058D01*
X124750473Y-61511556D01*
X124750476Y-61511561D01*
X124845958Y-61676941D01*
X124845965Y-61676951D01*
X124973744Y-61818864D01*
X125042150Y-61868564D01*
X125085504Y-61924786D01*
X125091579Y-61995523D01*
X125058448Y-62058314D01*
X124996627Y-62093226D01*
X124968089Y-62096500D01*
X123473200Y-62096500D01*
X123405079Y-62076498D01*
X123379563Y-62054810D01*
X123376252Y-62051133D01*
X123221752Y-61938882D01*
X123047288Y-61861206D01*
X122860487Y-61821500D01*
X122669513Y-61821500D01*
X122482711Y-61861206D01*
X122308247Y-61938882D01*
X122153744Y-62051135D01*
X122025965Y-62193048D01*
X122025958Y-62193058D01*
X121930476Y-62358438D01*
X121930473Y-62358445D01*
X121871457Y-62540072D01*
X121851496Y-62730000D01*
X121872148Y-62926496D01*
X121869315Y-62926793D01*
X121864846Y-62985131D01*
X121822011Y-63041750D01*
X121755366Y-63066223D01*
X121747015Y-63066500D01*
X120708200Y-63066500D01*
X120640079Y-63046498D01*
X120614563Y-63024810D01*
X120611252Y-63021133D01*
X120456752Y-62908882D01*
X120282288Y-62831206D01*
X120095487Y-62791500D01*
X119904513Y-62791500D01*
X119717711Y-62831206D01*
X119543247Y-62908882D01*
X119388744Y-63021135D01*
X119260965Y-63163048D01*
X119260958Y-63163058D01*
X119165476Y-63328438D01*
X119165473Y-63328445D01*
X119106457Y-63510072D01*
X119086496Y-63699999D01*
X119106457Y-63889927D01*
X119136526Y-63982470D01*
X119165473Y-64071556D01*
X119165476Y-64071561D01*
X119249619Y-64217300D01*
X119266500Y-64280300D01*
X119266500Y-64597474D01*
X119246498Y-64665595D01*
X119234137Y-64681784D01*
X119160957Y-64763059D01*
X119065476Y-64928438D01*
X119065473Y-64928445D01*
X119006457Y-65110072D01*
X118986496Y-65299999D01*
X119006457Y-65489927D01*
X119011189Y-65504489D01*
X119065473Y-65671556D01*
X119065476Y-65671561D01*
X119093757Y-65720546D01*
X119110495Y-65789542D01*
X119087274Y-65856634D01*
X119031467Y-65900521D01*
X118960792Y-65907269D01*
X118897688Y-65874736D01*
X118895543Y-65872641D01*
X117704686Y-64681784D01*
X115630405Y-62607502D01*
X115596379Y-62545190D01*
X115593500Y-62518407D01*
X115593500Y-58467445D01*
X115595249Y-58451604D01*
X115594956Y-58451577D01*
X115595702Y-58443683D01*
X115593531Y-58374613D01*
X115593500Y-58372634D01*
X115593500Y-58343739D01*
X115593500Y-58343738D01*
X115593500Y-58343734D01*
X115592619Y-58336768D01*
X115592155Y-58330872D01*
X115590673Y-58283700D01*
X115585022Y-58264253D01*
X115581012Y-58244890D01*
X115578474Y-58224793D01*
X115561099Y-58180910D01*
X115559179Y-58175301D01*
X115551872Y-58150149D01*
X115546018Y-58129997D01*
X115535705Y-58112559D01*
X115527010Y-58094812D01*
X115519552Y-58075973D01*
X115491821Y-58037805D01*
X115488562Y-58032845D01*
X115487589Y-58031200D01*
X115464542Y-57992227D01*
X115464541Y-57992225D01*
X115450218Y-57977902D01*
X115437377Y-57962869D01*
X115425471Y-57946482D01*
X115413292Y-57936407D01*
X115389108Y-57916400D01*
X115384736Y-57912421D01*
X114332843Y-56860528D01*
X114298818Y-56798217D01*
X114303883Y-56727402D01*
X114312813Y-56708446D01*
X114374527Y-56601556D01*
X114433542Y-56419928D01*
X114453504Y-56230000D01*
X114452569Y-56221107D01*
X114465340Y-56151272D01*
X114513842Y-56099424D01*
X114577879Y-56081938D01*
X115850711Y-56081938D01*
X115866552Y-56083687D01*
X115866580Y-56083394D01*
X115874465Y-56084138D01*
X115874473Y-56084140D01*
X115935772Y-56082213D01*
X115943540Y-56081969D01*
X115945519Y-56081938D01*
X115974415Y-56081938D01*
X115974420Y-56081938D01*
X115981382Y-56081057D01*
X115987283Y-56080592D01*
X116034453Y-56079111D01*
X116053911Y-56073457D01*
X116073258Y-56069451D01*
X116093361Y-56066912D01*
X116137243Y-56049537D01*
X116142838Y-56047621D01*
X116171380Y-56039329D01*
X116188155Y-56034457D01*
X116188159Y-56034455D01*
X116205590Y-56024146D01*
X116223344Y-56015447D01*
X116242181Y-56007990D01*
X116280350Y-55980256D01*
X116285308Y-55977000D01*
X116325926Y-55952980D01*
X116340249Y-55938656D01*
X116355288Y-55925812D01*
X116371671Y-55913910D01*
X116401752Y-55877546D01*
X116405731Y-55873173D01*
X116633503Y-55645403D01*
X116695817Y-55611378D01*
X116722599Y-55608499D01*
X121914765Y-55608499D01*
X121982886Y-55628501D01*
G37*
%TD.AperFunction*%
%TA.AperFunction,Conductor*%
G36*
X110826629Y-41788731D02*
G01*
X110775552Y-41905177D01*
X110765051Y-42031898D01*
X110796266Y-42155162D01*
X110860840Y-42254000D01*
X110526500Y-42254000D01*
X110458379Y-42233998D01*
X110455502Y-42230678D01*
X110473371Y-42211269D01*
X110524448Y-42094823D01*
X110534949Y-41968102D01*
X110503734Y-41844838D01*
X110456560Y-41772633D01*
X110474158Y-41757386D01*
X110526500Y-41746000D01*
X110865966Y-41746000D01*
X110826629Y-41788731D01*
G37*
%TD.AperFunction*%
%TD*%
M02*
