%TF.GenerationSoftware,KiCad,Pcbnew,8.0.0*%
%TF.CreationDate,2024-03-23T09:44:43-04:00*%
%TF.ProjectId,N64SP PCB,4e363453-5020-4504-9342-2e6b69636164,rev?*%
%TF.SameCoordinates,Original*%
%TF.FileFunction,Copper,L1,Top*%
%TF.FilePolarity,Positive*%
%FSLAX46Y46*%
G04 Gerber Fmt 4.6, Leading zero omitted, Abs format (unit mm)*
G04 Created by KiCad (PCBNEW 8.0.0) date 2024-03-23 09:44:43*
%MOMM*%
%LPD*%
G01*
G04 APERTURE LIST*
G04 Aperture macros list*
%AMRoundRect*
0 Rectangle with rounded corners*
0 $1 Rounding radius*
0 $2 $3 $4 $5 $6 $7 $8 $9 X,Y pos of 4 corners*
0 Add a 4 corners polygon primitive as box body*
4,1,4,$2,$3,$4,$5,$6,$7,$8,$9,$2,$3,0*
0 Add four circle primitives for the rounded corners*
1,1,$1+$1,$2,$3*
1,1,$1+$1,$4,$5*
1,1,$1+$1,$6,$7*
1,1,$1+$1,$8,$9*
0 Add four rect primitives between the rounded corners*
20,1,$1+$1,$2,$3,$4,$5,0*
20,1,$1+$1,$4,$5,$6,$7,0*
20,1,$1+$1,$6,$7,$8,$9,0*
20,1,$1+$1,$8,$9,$2,$3,0*%
G04 Aperture macros list end*
%TA.AperFunction,ComponentPad*%
%ADD10R,1.250000X1.250000*%
%TD*%
%TA.AperFunction,SMDPad,CuDef*%
%ADD11R,0.625000X1.250000*%
%TD*%
%TA.AperFunction,SMDPad,CuDef*%
%ADD12R,1.250000X0.625000*%
%TD*%
%TA.AperFunction,SMDPad,CuDef*%
%ADD13RoundRect,0.075000X0.075000X-0.350000X0.075000X0.350000X-0.075000X0.350000X-0.075000X-0.350000X0*%
%TD*%
%TA.AperFunction,SMDPad,CuDef*%
%ADD14RoundRect,0.075000X0.350000X-0.075000X0.350000X0.075000X-0.350000X0.075000X-0.350000X-0.075000X0*%
%TD*%
%TA.AperFunction,SMDPad,CuDef*%
%ADD15R,2.100000X2.100000*%
%TD*%
%TA.AperFunction,SMDPad,CuDef*%
%ADD16RoundRect,0.150000X-0.150000X0.875000X-0.150000X-0.875000X0.150000X-0.875000X0.150000X0.875000X0*%
%TD*%
%TA.AperFunction,SMDPad,CuDef*%
%ADD17R,4.000000X1.300000*%
%TD*%
%TA.AperFunction,ComponentPad*%
%ADD18C,1.524000*%
%TD*%
%TA.AperFunction,SMDPad,CuDef*%
%ADD19RoundRect,0.140000X-0.140000X-0.170000X0.140000X-0.170000X0.140000X0.170000X-0.140000X0.170000X0*%
%TD*%
%TA.AperFunction,SMDPad,CuDef*%
%ADD20RoundRect,0.140000X0.170000X-0.140000X0.170000X0.140000X-0.170000X0.140000X-0.170000X-0.140000X0*%
%TD*%
%TA.AperFunction,SMDPad,CuDef*%
%ADD21RoundRect,0.135000X-0.135000X-0.185000X0.135000X-0.185000X0.135000X0.185000X-0.135000X0.185000X0*%
%TD*%
%TA.AperFunction,SMDPad,CuDef*%
%ADD22RoundRect,0.135000X0.135000X0.185000X-0.135000X0.185000X-0.135000X-0.185000X0.135000X-0.185000X0*%
%TD*%
%TA.AperFunction,SMDPad,CuDef*%
%ADD23R,2.000000X0.450000*%
%TD*%
%TA.AperFunction,SMDPad,CuDef*%
%ADD24R,0.450000X2.000000*%
%TD*%
%TA.AperFunction,ComponentPad*%
%ADD25R,1.700000X1.700000*%
%TD*%
%TA.AperFunction,ComponentPad*%
%ADD26O,1.700000X1.700000*%
%TD*%
%TA.AperFunction,ViaPad*%
%ADD27C,0.800000*%
%TD*%
%TA.AperFunction,Conductor*%
%ADD28C,0.250000*%
%TD*%
G04 APERTURE END LIST*
D10*
%TO.P,TP1,1*%
%TO.N,GND*%
X111150000Y-42000000D03*
D11*
X110460000Y-42000000D03*
%TD*%
D10*
%TO.P,TP2,1*%
%TO.N,3V3*%
X111150000Y-43750000D03*
D11*
X110460000Y-43750000D03*
%TD*%
D10*
%TO.P,TP3,1*%
%TO.N,DATA*%
X111150000Y-36750000D03*
D11*
X110460000Y-36750000D03*
%TD*%
D10*
%TO.P,TP4,1*%
%TO.N,A*%
X133450000Y-70350000D03*
D12*
X133450000Y-71040000D03*
%TD*%
D10*
%TO.P,TP5,1*%
%TO.N,B*%
X138700000Y-70350000D03*
D12*
X138700000Y-71040000D03*
%TD*%
D10*
%TO.P,TP6,1*%
%TO.N,S*%
X131700000Y-70350000D03*
D12*
X131700000Y-71040000D03*
%TD*%
D10*
%TO.P,TP8,1*%
%TO.N,R*%
X111150000Y-38500000D03*
D11*
X110460000Y-38500000D03*
%TD*%
D10*
%TO.P,TP10,1*%
%TO.N,CL*%
X140450000Y-70350000D03*
D12*
X140450000Y-71040000D03*
%TD*%
D10*
%TO.P,TP11,1*%
%TO.N,CR*%
X136950000Y-70350000D03*
D12*
X136950000Y-71040000D03*
%TD*%
D10*
%TO.P,TP12,1*%
%TO.N,CU*%
X142200000Y-70350000D03*
D12*
X142200000Y-71040000D03*
%TD*%
D10*
%TO.P,TP13,1*%
%TO.N,CD*%
X135200000Y-70350000D03*
D12*
X135200000Y-71040000D03*
%TD*%
D10*
%TO.P,TP14,1*%
%TO.N,DL*%
X128200000Y-70350000D03*
D12*
X128200000Y-71040000D03*
%TD*%
D10*
%TO.P,TP15,1*%
%TO.N,DR*%
X124700000Y-70350000D03*
D12*
X124700000Y-71040000D03*
%TD*%
D10*
%TO.P,TP16,1*%
%TO.N,DU*%
X126450000Y-70350000D03*
D12*
X126450000Y-71040000D03*
%TD*%
D10*
%TO.P,TP17,1*%
%TO.N,DD*%
X129950000Y-70350000D03*
D12*
X129950000Y-71040000D03*
%TD*%
D10*
%TO.P,TP18,1*%
%TO.N,SX*%
X121200000Y-70350000D03*
D12*
X121200000Y-71040000D03*
%TD*%
D10*
%TO.P,TP19,1*%
%TO.N,SY*%
X119450000Y-70350000D03*
D12*
X119450000Y-71040000D03*
%TD*%
D10*
%TO.P,TP9,1*%
%TO.N,Z*%
X111150000Y-40250000D03*
D11*
X110460000Y-40250000D03*
%TD*%
D10*
%TO.P,TP7,1*%
%TO.N,L*%
X122950000Y-70350000D03*
D12*
X122950000Y-71040000D03*
%TD*%
D10*
%TO.P,TP20,1*%
%TO.N,GND*%
X115950000Y-70350000D03*
D12*
X115950000Y-71040000D03*
%TD*%
D10*
%TO.P,TP21,1*%
%TO.N,3V3*%
X117700000Y-70350000D03*
D12*
X117700000Y-71040000D03*
%TD*%
D13*
%TO.P,U13,1*%
%TO.N,YA*%
X113125000Y-53550000D03*
%TO.P,U13,2*%
%TO.N,SY*%
X113775000Y-53550000D03*
%TO.P,U13,3*%
%TO.N,MCLR*%
X114425000Y-53550000D03*
%TO.P,U13,4*%
%TO.N,YB*%
X115075000Y-53550000D03*
D14*
%TO.P,U13,5*%
%TO.N,SX*%
X116050000Y-52575000D03*
%TO.P,U13,6*%
%TO.N,XB*%
X116050000Y-51925000D03*
%TO.P,U13,7*%
%TO.N,XA*%
X116050000Y-51275000D03*
%TO.P,U13,8*%
%TO.N,Z*%
X116050000Y-50625000D03*
D13*
%TO.P,U13,9*%
%TO.N,R*%
X115075000Y-49650000D03*
%TO.P,U13,10*%
%TO.N,Net-(U13-Pad10)*%
X114425000Y-49650000D03*
%TO.P,U13,11*%
%TO.N,Net-(J2-Pad5)*%
X113775000Y-49650000D03*
%TO.P,U13,12*%
%TO.N,Net-(J2-Pad4)*%
X113125000Y-49650000D03*
D14*
%TO.P,U13,13*%
%TO.N,GND*%
X112150000Y-50625000D03*
%TO.P,U13,14*%
%TO.N,Net-(U13-Pad14)*%
X112150000Y-51275000D03*
%TO.P,U13,15*%
%TO.N,Net-(U13-Pad15)*%
X112150000Y-51925000D03*
%TO.P,U13,16*%
%TO.N,3V3*%
X112150000Y-52575000D03*
D15*
%TO.P,U13,17*%
%TO.N,GND*%
X114100000Y-51600000D03*
%TD*%
D16*
%TO.P,U14,1*%
%TO.N,A14*%
X140255000Y-35050000D03*
%TO.P,U14,2*%
%TO.N,A12*%
X138985000Y-35050000D03*
%TO.P,U14,3*%
%TO.N,A7*%
X137715000Y-35050000D03*
%TO.P,U14,4*%
%TO.N,A6*%
X136445000Y-35050000D03*
%TO.P,U14,5*%
%TO.N,A5*%
X135175000Y-35050000D03*
%TO.P,U14,6*%
%TO.N,A4*%
X133905000Y-35050000D03*
%TO.P,U14,7*%
%TO.N,A3*%
X132635000Y-35050000D03*
%TO.P,U14,8*%
%TO.N,A2*%
X131365000Y-35050000D03*
%TO.P,U14,9*%
%TO.N,A1*%
X130095000Y-35050000D03*
%TO.P,U14,10*%
%TO.N,A0*%
X128825000Y-35050000D03*
%TO.P,U14,11*%
%TO.N,DQ0*%
X127555000Y-35050000D03*
%TO.P,U14,12*%
%TO.N,DQ1*%
X126285000Y-35050000D03*
%TO.P,U14,13*%
%TO.N,DQ2*%
X125015000Y-35050000D03*
%TO.P,U14,14*%
%TO.N,GND*%
X123745000Y-35050000D03*
%TO.P,U14,15*%
%TO.N,DQ3*%
X123745000Y-44350000D03*
%TO.P,U14,16*%
%TO.N,DQ4*%
X125015000Y-44350000D03*
%TO.P,U14,17*%
%TO.N,DQ5*%
X126285000Y-44350000D03*
%TO.P,U14,18*%
%TO.N,DQ6*%
X127555000Y-44350000D03*
%TO.P,U14,19*%
%TO.N,DQ7*%
X128825000Y-44350000D03*
%TO.P,U14,20*%
%TO.N,CE*%
X130095000Y-44350000D03*
%TO.P,U14,21*%
%TO.N,A10*%
X131365000Y-44350000D03*
%TO.P,U14,22*%
%TO.N,OE*%
X132635000Y-44350000D03*
%TO.P,U14,23*%
%TO.N,A11*%
X133905000Y-44350000D03*
%TO.P,U14,24*%
%TO.N,A9*%
X135175000Y-44350000D03*
%TO.P,U14,25*%
%TO.N,A8*%
X136445000Y-44350000D03*
%TO.P,U14,26*%
%TO.N,A13*%
X137715000Y-44350000D03*
%TO.P,U14,27*%
%TO.N,WE*%
X138985000Y-44350000D03*
%TO.P,U14,28*%
%TO.N,3V3*%
X140255000Y-44350000D03*
%TD*%
D17*
%TO.P,Y1,1*%
%TO.N,OSC1*%
X115500000Y-64400000D03*
D18*
X111300000Y-64400000D03*
D17*
%TO.P,Y1,2*%
%TO.N,Net-(R1-Pad1)*%
X115500000Y-59500000D03*
D18*
X111300000Y-59500000D03*
D17*
%TO.P,Y1,3*%
%TO.N,GND*%
X115500000Y-61900000D03*
D18*
X111300000Y-61950000D03*
%TD*%
D19*
%TO.P,C2,1*%
%TO.N,GND*%
X142840000Y-43900000D03*
%TO.P,C2,2*%
%TO.N,3V3*%
X143800000Y-43900000D03*
%TD*%
D20*
%TO.P,C36,1*%
%TO.N,GND*%
X111260000Y-55750000D03*
%TO.P,C36,2*%
%TO.N,3V3*%
X111260000Y-54790000D03*
%TD*%
D19*
%TO.P,C37,1*%
%TO.N,GND*%
X118640000Y-66300000D03*
%TO.P,C37,2*%
%TO.N,3V3*%
X119600000Y-66300000D03*
%TD*%
D21*
%TO.P,R1,1*%
%TO.N,Net-(R1-Pad1)*%
X115480000Y-55400000D03*
%TO.P,R1,2*%
%TO.N,OSC1*%
X116500000Y-55400000D03*
%TD*%
D22*
%TO.P,R7,1*%
%TO.N,OSC2*%
X116520000Y-56700000D03*
%TO.P,R7,2*%
%TO.N,Net-(R1-Pad1)*%
X115500000Y-56700000D03*
%TD*%
%TO.P,R11,1*%
%TO.N,3V3*%
X143800000Y-42600000D03*
%TO.P,R11,2*%
%TO.N,WE*%
X142780000Y-42600000D03*
%TD*%
D21*
%TO.P,R13,1*%
%TO.N,GND*%
X142800000Y-45200000D03*
%TO.P,R13,2*%
%TO.N,Net-(R13-Pad2)*%
X143820000Y-45200000D03*
%TD*%
D23*
%TO.P,U1,1*%
%TO.N,GND*%
X120000000Y-50700000D03*
%TO.P,U1,2*%
%TO.N,DQ6*%
X120000000Y-51700000D03*
%TO.P,U1,3*%
%TO.N,DQ7*%
X120000000Y-52700000D03*
%TO.P,U1,4*%
%TO.N,A10*%
X120000000Y-53700000D03*
%TO.P,U1,5*%
%TO.N,OE*%
X120000000Y-54700000D03*
%TO.P,U1,6*%
%TO.N,GND*%
X120000000Y-55700000D03*
%TO.P,U1,7*%
%TO.N,L*%
X120000000Y-56700000D03*
%TO.P,U1,8*%
%TO.N,GND*%
X120000000Y-57700000D03*
%TO.P,U1,9*%
%TO.N,Net-(U1-Pad9)*%
X120000000Y-58700000D03*
%TO.P,U1,10*%
%TO.N,GND*%
X120000000Y-59700000D03*
%TO.P,U1,11*%
%TO.N,OSC1*%
X120000000Y-60700000D03*
%TO.P,U1,12*%
%TO.N,OSC2*%
X120000000Y-61700000D03*
%TO.P,U1,13*%
%TO.N,3V3*%
X120000000Y-62700000D03*
D24*
%TO.P,U1,14*%
X123000000Y-65700000D03*
%TO.P,U1,15*%
%TO.N,DR*%
X124000000Y-65700000D03*
%TO.P,U1,16*%
%TO.N,DU*%
X125000000Y-65700000D03*
%TO.P,U1,17*%
%TO.N,DL*%
X126000000Y-65700000D03*
%TO.P,U1,18*%
%TO.N,DD*%
X127000000Y-65700000D03*
%TO.P,U1,19*%
%TO.N,XA*%
X128000000Y-65700000D03*
%TO.P,U1,20*%
%TO.N,XB*%
X129000000Y-65700000D03*
%TO.P,U1,21*%
%TO.N,YB*%
X130000000Y-65700000D03*
%TO.P,U1,22*%
%TO.N,YA*%
X131000000Y-65700000D03*
%TO.P,U1,23*%
%TO.N,3V3*%
X132000000Y-65700000D03*
%TO.P,U1,24*%
%TO.N,S*%
X133000000Y-65700000D03*
%TO.P,U1,25*%
%TO.N,A*%
X134000000Y-65700000D03*
%TO.P,U1,26*%
%TO.N,CD*%
X135000000Y-65700000D03*
%TO.P,U1,27*%
%TO.N,CR*%
X136000000Y-65700000D03*
%TO.P,U1,28*%
%TO.N,B*%
X137000000Y-65700000D03*
%TO.P,U1,29*%
%TO.N,CL*%
X138000000Y-65700000D03*
%TO.P,U1,30*%
%TO.N,CU*%
X139000000Y-65700000D03*
%TO.P,U1,31*%
%TO.N,GND*%
X140000000Y-65700000D03*
%TO.P,U1,32*%
X141000000Y-65700000D03*
D23*
%TO.P,U1,33*%
%TO.N,Z*%
X144000000Y-62700000D03*
%TO.P,U1,34*%
%TO.N,R*%
X144000000Y-61700000D03*
%TO.P,U1,35*%
%TO.N,DATA*%
X144000000Y-60700000D03*
%TO.P,U1,36*%
X144000000Y-59700000D03*
%TO.P,U1,37*%
%TO.N,A11*%
X144000000Y-58700000D03*
%TO.P,U1,38*%
%TO.N,A9*%
X144000000Y-57700000D03*
%TO.P,U1,39*%
%TO.N,A8*%
X144000000Y-56700000D03*
%TO.P,U1,40*%
%TO.N,A13*%
X144000000Y-55700000D03*
%TO.P,U1,41*%
%TO.N,WE*%
X144000000Y-54700000D03*
%TO.P,U1,42*%
%TO.N,CE*%
X144000000Y-53700000D03*
%TO.P,U1,43*%
%TO.N,Net-(R13-Pad2)*%
X144000000Y-52700000D03*
%TO.P,U1,44*%
%TO.N,A14*%
X144000000Y-51700000D03*
%TO.P,U1,45*%
%TO.N,GND*%
X144000000Y-50700000D03*
D24*
%TO.P,U1,46*%
%TO.N,3V3*%
X141000000Y-47700000D03*
%TO.P,U1,47*%
%TO.N,A12*%
X140000000Y-47700000D03*
%TO.P,U1,48*%
%TO.N,A7*%
X139000000Y-47700000D03*
%TO.P,U1,49*%
%TO.N,A6*%
X138000000Y-47700000D03*
%TO.P,U1,50*%
%TO.N,A5*%
X137000000Y-47700000D03*
%TO.P,U1,51*%
%TO.N,A4*%
X136000000Y-47700000D03*
%TO.P,U1,52*%
%TO.N,A3*%
X135000000Y-47700000D03*
%TO.P,U1,53*%
%TO.N,3V3*%
X134000000Y-47700000D03*
%TO.P,U1,54*%
%TO.N,A2*%
X133000000Y-47700000D03*
%TO.P,U1,55*%
%TO.N,A1*%
X132000000Y-47700000D03*
%TO.P,U1,56*%
%TO.N,A0*%
X131000000Y-47700000D03*
%TO.P,U1,57*%
%TO.N,DQ0*%
X130000000Y-47700000D03*
%TO.P,U1,58*%
%TO.N,DQ1*%
X129000000Y-47700000D03*
%TO.P,U1,59*%
%TO.N,3V3*%
X128000000Y-47700000D03*
%TO.P,U1,60*%
%TO.N,DQ2*%
X127000000Y-47700000D03*
%TO.P,U1,61*%
%TO.N,DQ3*%
X126000000Y-47700000D03*
%TO.P,U1,62*%
%TO.N,DQ4*%
X125000000Y-47700000D03*
%TO.P,U1,63*%
%TO.N,DQ5*%
X124000000Y-47700000D03*
%TO.P,U1,64*%
X123000000Y-47700000D03*
%TD*%
D22*
%TO.P,R2,1*%
%TO.N,3V3*%
X143820000Y-41300000D03*
%TO.P,R2,2*%
%TO.N,CE*%
X142800000Y-41300000D03*
%TD*%
D25*
%TO.P,J2,1*%
%TO.N,MCLR*%
X116290000Y-36700000D03*
D26*
%TO.P,J2,2*%
%TO.N,3V3*%
X116290000Y-39240000D03*
%TO.P,J2,3*%
%TO.N,GND*%
X116290000Y-41780000D03*
%TO.P,J2,4*%
%TO.N,Net-(J2-Pad4)*%
X116290000Y-44320000D03*
%TO.P,J2,5*%
%TO.N,Net-(J2-Pad5)*%
X116290000Y-46860000D03*
%TD*%
D27*
%TO.N,MCLR*%
X114460000Y-54660000D03*
X117510000Y-48910000D03*
%TO.N,3V3*%
X117010000Y-66590000D03*
X111290000Y-53610000D03*
X120000000Y-63700000D03*
X132000000Y-63700000D03*
X140300000Y-40900000D03*
X119900000Y-65300000D03*
X142990000Y-40070000D03*
X137260000Y-61930000D03*
X124010000Y-63700000D03*
X140800000Y-49500000D03*
%TO.N,GND*%
X141000000Y-63700000D03*
X142800000Y-46200000D03*
X121800000Y-57700000D03*
X111260000Y-56730000D03*
X111290000Y-49710000D03*
X121800000Y-59800000D03*
X140000000Y-63700000D03*
X123700000Y-36900000D03*
X144000000Y-49300000D03*
X120500000Y-49800000D03*
X120230000Y-67350000D03*
X121800000Y-55700000D03*
X118500000Y-65300000D03*
X114810000Y-66600000D03*
%TO.N,R*%
X119820001Y-47590000D03*
X121375000Y-47580000D03*
%TO.N,SX*%
X122765000Y-62730000D03*
X117250000Y-53400000D03*
%TO.N,SY*%
X113540000Y-56230000D03*
%TO.N,DQ6*%
X124960000Y-51695030D03*
X127600000Y-40800000D03*
%TO.N,DQ7*%
X125800000Y-52360000D03*
X128800000Y-42000000D03*
%TO.N,A10*%
X131300000Y-42000000D03*
X126580870Y-52984696D03*
%TO.N,OE*%
X132600000Y-40800000D03*
X127430000Y-53530000D03*
%TO.N,XA*%
X117370000Y-51180000D03*
X127990000Y-62840000D03*
%TO.N,XB*%
X127265000Y-62020000D03*
X117489231Y-52293926D03*
%TO.N,YB*%
X115920000Y-54390000D03*
X125585000Y-61140000D03*
%TO.N,YA*%
X112543915Y-55048439D03*
X125059507Y-60289201D03*
%TO.N,A11*%
X134800000Y-51700000D03*
X133900000Y-42000000D03*
%TO.N,A9*%
X135100000Y-40800000D03*
X135675000Y-50700000D03*
%TO.N,A8*%
X136400000Y-42000000D03*
X136900000Y-51500000D03*
%TO.N,A13*%
X137700000Y-40800000D03*
X137700000Y-50800000D03*
%TO.N,WE*%
X139000000Y-42000000D03*
X141889990Y-42600000D03*
%TO.N,CE*%
X141900000Y-53300000D03*
X141900000Y-41300000D03*
X130100000Y-40800000D03*
%TD*%
D28*
%TO.N,MCLR*%
X118070000Y-38740000D02*
X118070000Y-48350000D01*
X118070000Y-48350000D02*
X117510000Y-48910000D01*
X116290000Y-36960000D02*
X118070000Y-38740000D01*
X114425000Y-53550000D02*
X114425000Y-54625000D01*
X114425000Y-54625000D02*
X114460000Y-54660000D01*
X116290000Y-36700000D02*
X116290000Y-36960000D01*
%TO.N,3V3*%
X111030000Y-48610000D02*
X110840000Y-48800000D01*
X111290000Y-52900000D02*
X111290000Y-53610000D01*
X111360000Y-45600000D02*
X111360000Y-45030000D01*
X111260000Y-53640000D02*
X111290000Y-53610000D01*
X119600000Y-66300000D02*
X119600000Y-65600000D01*
X143820000Y-40900000D02*
X142990000Y-40070000D01*
X111615000Y-52575000D02*
X111290000Y-52900000D01*
X111260000Y-54790000D02*
X111260000Y-53640000D01*
X117010000Y-66590000D02*
X117680000Y-67260000D01*
X133950000Y-49620000D02*
X140680000Y-49620000D01*
X110564999Y-49075001D02*
X110564999Y-51414999D01*
X110564999Y-51414999D02*
X111725000Y-52575000D01*
X123000000Y-64196410D02*
X123496410Y-63700000D01*
X134000000Y-47700000D02*
X134000000Y-49570000D01*
X123000000Y-65700000D02*
X123000000Y-64196410D01*
X120000000Y-62700000D02*
X120000000Y-63700000D01*
X111360000Y-45620000D02*
X111360000Y-47470000D01*
X141000000Y-47700000D02*
X141000000Y-49500000D01*
X132000000Y-65700000D02*
X132000000Y-63700000D01*
X143820000Y-41300000D02*
X143820000Y-40900000D01*
X110840000Y-48800000D02*
X110564999Y-49075001D01*
X134000000Y-49310000D02*
X134000000Y-47700000D01*
X123496410Y-63700000D02*
X124010000Y-63700000D01*
X128000000Y-49070000D02*
X128550000Y-49620000D01*
X113970000Y-42820000D02*
X113040000Y-43750000D01*
X111360000Y-43860000D02*
X111250000Y-43750000D01*
X132000000Y-63700000D02*
X135490000Y-63700000D01*
X119240000Y-67260000D02*
X119600000Y-66900000D01*
X128000000Y-47700000D02*
X128000000Y-49070000D01*
X133120000Y-49620000D02*
X133690000Y-49620000D01*
X112150000Y-52575000D02*
X111615000Y-52575000D01*
X140680000Y-49620000D02*
X140800000Y-49500000D01*
X135490000Y-63700000D02*
X137260000Y-61930000D01*
X119600000Y-66900000D02*
X119600000Y-66300000D01*
X140255000Y-40945000D02*
X140300000Y-40900000D01*
X116290000Y-39240000D02*
X115140000Y-39240000D01*
X111725000Y-52575000D02*
X112150000Y-52575000D01*
X143800000Y-41320000D02*
X143820000Y-41300000D01*
X113040000Y-43750000D02*
X111250000Y-43750000D01*
X111360000Y-47470000D02*
X111360000Y-48280000D01*
X111360000Y-45030000D02*
X111360000Y-45620000D01*
X113970000Y-40410000D02*
X113970000Y-42820000D01*
X119600000Y-65600000D02*
X119900000Y-65300000D01*
X111360000Y-45030000D02*
X111360000Y-43860000D01*
X133120000Y-49620000D02*
X133950000Y-49620000D01*
X140255000Y-44350000D02*
X140255000Y-40945000D01*
X134000000Y-49570000D02*
X133950000Y-49620000D01*
X128550000Y-49620000D02*
X133120000Y-49620000D01*
X117680000Y-67260000D02*
X119240000Y-67260000D01*
X111360000Y-48280000D02*
X110840000Y-48800000D01*
X143800000Y-43900000D02*
X143800000Y-41320000D01*
X111380000Y-47450000D02*
X111360000Y-47470000D01*
X115140000Y-39240000D02*
X113970000Y-40410000D01*
%TO.N,GND*%
X111635000Y-50625000D02*
X111390000Y-50380000D01*
X142800000Y-45200000D02*
X142800000Y-43940000D01*
X142800000Y-45200000D02*
X142800000Y-46200000D01*
X120000000Y-55700000D02*
X121800000Y-55700000D01*
X118640000Y-66300000D02*
X118640000Y-65440000D01*
X120000000Y-59700000D02*
X121800000Y-59700000D01*
X111390000Y-49810000D02*
X111290000Y-49710000D01*
X112150000Y-50625000D02*
X111635000Y-50625000D01*
X141000000Y-65700000D02*
X141000000Y-63700000D01*
X142800000Y-43940000D02*
X142840000Y-43900000D01*
X111260000Y-55750000D02*
X111260000Y-56730000D01*
X113125000Y-50625000D02*
X114100000Y-51600000D01*
X120000000Y-50300000D02*
X120500000Y-49800000D01*
X118640000Y-65440000D02*
X118500000Y-65300000D01*
X120000000Y-57700000D02*
X121800000Y-57700000D01*
X140000000Y-65700000D02*
X140000000Y-63700000D01*
X120000000Y-50700000D02*
X120000000Y-50300000D01*
X111350000Y-61900000D02*
X111300000Y-61950000D01*
X123745000Y-36855000D02*
X123700000Y-36900000D01*
X115500000Y-61900000D02*
X111350000Y-61900000D01*
X144000000Y-50700000D02*
X144000000Y-49300000D01*
X112150000Y-50625000D02*
X113125000Y-50625000D01*
X123745000Y-35050000D02*
X123745000Y-36855000D01*
X111390000Y-50380000D02*
X111390000Y-49810000D01*
%TO.N,DATA*%
X114909990Y-33950010D02*
X112110000Y-36750000D01*
X139800000Y-59900000D02*
X129970010Y-50070010D01*
X144000000Y-60700000D02*
X142700000Y-60700000D01*
X142300000Y-60300000D02*
X142300000Y-59900000D01*
X142700000Y-60700000D02*
X142300000Y-60300000D01*
X122100000Y-35170000D02*
X120880010Y-33950010D01*
X142300000Y-59900000D02*
X139800000Y-59900000D01*
X142500000Y-59700000D02*
X144000000Y-59700000D01*
X123370010Y-50070010D02*
X122100000Y-48800000D01*
X142300000Y-59900000D02*
X142500000Y-59700000D01*
X129970010Y-50070010D02*
X123370010Y-50070010D01*
X120880010Y-33950010D02*
X114909990Y-33950010D01*
X122100000Y-48800000D02*
X122100000Y-35170000D01*
X112110000Y-36750000D02*
X111250000Y-36750000D01*
%TO.N,A*%
X134000000Y-65700000D02*
X134000000Y-67360000D01*
X133450000Y-67910000D02*
X133450000Y-70350000D01*
X134000000Y-67360000D02*
X133450000Y-67910000D01*
%TO.N,B*%
X138700000Y-69330000D02*
X138700000Y-70350000D01*
X137000000Y-67630000D02*
X138700000Y-69330000D01*
X137000000Y-65700000D02*
X137000000Y-67630000D01*
%TO.N,S*%
X133000000Y-66950000D02*
X131700000Y-68250000D01*
X133000000Y-65700000D02*
X133000000Y-66950000D01*
X131700000Y-68250000D02*
X131700000Y-70350000D01*
%TO.N,L*%
X122950000Y-70350000D02*
X122950000Y-67900000D01*
X122950000Y-67900000D02*
X121860000Y-66810000D01*
X121873002Y-56700000D02*
X120000000Y-56700000D01*
X123490000Y-58316998D02*
X121873002Y-56700000D01*
X121860000Y-64700000D02*
X123490000Y-63070000D01*
X123490000Y-63070000D02*
X123490000Y-58316998D01*
X121860000Y-66810000D02*
X121860000Y-64700000D01*
%TO.N,R*%
X116980020Y-34400020D02*
X118010000Y-35430000D01*
X140963590Y-61700000D02*
X129783610Y-50520020D01*
X118010000Y-35430000D02*
X118010000Y-37407180D01*
X121093205Y-46756795D02*
X121296420Y-46960010D01*
X113260000Y-37260000D02*
X113260000Y-36236410D01*
X118970020Y-38367200D02*
X118970020Y-44633610D01*
X117010000Y-49720000D02*
X118343590Y-49720000D01*
X112020000Y-38500000D02*
X113260000Y-37260000D01*
X123183610Y-50520020D02*
X121649990Y-48986400D01*
X111250000Y-38500000D02*
X112020000Y-38500000D01*
X116899980Y-49720000D02*
X116139990Y-48960010D01*
X118970020Y-44633610D02*
X121093205Y-46756795D01*
X129783610Y-50520020D02*
X123183610Y-50520020D01*
X121375000Y-47580000D02*
X121375000Y-47038590D01*
X121649990Y-48986400D02*
X121649990Y-47854990D01*
X113260000Y-36236410D02*
X115096390Y-34400020D01*
X115160000Y-48960010D02*
X116139990Y-48960010D01*
X115075000Y-49045010D02*
X115160000Y-48960010D01*
X115075000Y-49650000D02*
X115075000Y-49045010D01*
X115096390Y-34400020D02*
X116980020Y-34400020D01*
X119820001Y-48243589D02*
X119820001Y-47590000D01*
X121649990Y-47854990D02*
X121375000Y-47580000D01*
X121375000Y-47038590D02*
X121093205Y-46756795D01*
X118343590Y-49720000D02*
X119820001Y-48243589D01*
X118010000Y-37407180D02*
X118970020Y-38367200D01*
X117010000Y-49720000D02*
X116899980Y-49720000D01*
X144000000Y-61700000D02*
X140963590Y-61700000D01*
%TO.N,Z*%
X116875000Y-50625000D02*
X117130000Y-50370000D01*
X113710010Y-36422810D02*
X115282790Y-34850030D01*
X117130000Y-50370000D02*
X118330000Y-50370000D01*
X119625001Y-49074999D02*
X120545001Y-49074999D01*
X118330000Y-50370000D02*
X119625001Y-49074999D01*
X116050000Y-50625000D02*
X116875000Y-50625000D01*
X129597210Y-50970030D02*
X141327180Y-62700000D01*
X111250000Y-40250000D02*
X112210000Y-40250000D01*
X118520010Y-44820010D02*
X120545001Y-46845001D01*
X117559990Y-35616400D02*
X117559991Y-36270009D01*
X120545001Y-47674999D02*
X120545001Y-49074999D01*
X115282790Y-34850030D02*
X116793620Y-34850030D01*
X117559991Y-37593581D02*
X118520010Y-38553600D01*
X113710010Y-38749990D02*
X113710010Y-36422810D01*
X112210000Y-40250000D02*
X113710010Y-38749990D01*
X118520010Y-38553600D02*
X118520010Y-44820010D01*
X117559991Y-36270009D02*
X117559991Y-37593581D01*
X122997210Y-50970030D02*
X129597210Y-50970030D01*
X120545001Y-49074999D02*
X121102179Y-49074999D01*
X121102179Y-49074999D02*
X122997210Y-50970030D01*
X120545001Y-46845001D02*
X120545001Y-47674999D01*
X116793620Y-34850030D02*
X117559990Y-35616400D01*
X141327180Y-62700000D02*
X144000000Y-62700000D01*
%TO.N,CL*%
X140450000Y-69590000D02*
X138000000Y-67140000D01*
X138000000Y-65700000D02*
X138000000Y-67140000D01*
X140450000Y-70350000D02*
X140450000Y-69590000D01*
%TO.N,CR*%
X136950000Y-68870000D02*
X136950000Y-70350000D01*
X136000000Y-65700000D02*
X136000000Y-67920000D01*
X136000000Y-67920000D02*
X136950000Y-68870000D01*
%TO.N,CU*%
X141150000Y-68460000D02*
X142200000Y-69510000D01*
X142200000Y-69510000D02*
X142200000Y-70350000D01*
X139000000Y-65700000D02*
X139000000Y-67340000D01*
X140120000Y-68460000D02*
X141150000Y-68460000D01*
X139000000Y-67340000D02*
X140120000Y-68460000D01*
%TO.N,CD*%
X135000000Y-70150000D02*
X135200000Y-70350000D01*
X135000000Y-65700000D02*
X135000000Y-70150000D01*
%TO.N,DL*%
X128200000Y-69560000D02*
X128200000Y-70350000D01*
X126000000Y-65700000D02*
X126000000Y-67360000D01*
X126000000Y-67360000D02*
X128200000Y-69560000D01*
%TO.N,DR*%
X124000000Y-67500000D02*
X124700000Y-68200000D01*
X124700000Y-68200000D02*
X124700000Y-70350000D01*
X124000000Y-65700000D02*
X124000000Y-67500000D01*
%TO.N,DU*%
X125000000Y-65700000D02*
X125000000Y-67440000D01*
X126450000Y-68890000D02*
X126450000Y-70350000D01*
X125000000Y-67440000D02*
X126450000Y-68890000D01*
%TO.N,DD*%
X128070000Y-68600000D02*
X129180000Y-68600000D01*
X127000000Y-67530000D02*
X128070000Y-68600000D01*
X127000000Y-65700000D02*
X127000000Y-67530000D01*
X129180000Y-68600000D02*
X129950000Y-69370000D01*
X129950000Y-69370000D02*
X129950000Y-70350000D01*
%TO.N,SX*%
X117250000Y-53080000D02*
X117250000Y-53400000D01*
X122765000Y-63158590D02*
X122765000Y-62730000D01*
X116050000Y-52575000D02*
X116745000Y-52575000D01*
X121200000Y-70350000D02*
X121200000Y-64723590D01*
X116745000Y-52575000D02*
X117250000Y-53080000D01*
X121200000Y-64723590D02*
X122765000Y-63158590D01*
%TO.N,SY*%
X113775000Y-53975000D02*
X113543841Y-54206159D01*
X113543841Y-54206159D02*
X113543841Y-55060819D01*
X113540000Y-55064660D02*
X113543841Y-55060819D01*
X113775000Y-53550000D02*
X113775000Y-53975000D01*
X113540000Y-56230000D02*
X113540000Y-55064660D01*
%TO.N,DQ6*%
X127555000Y-44350000D02*
X127555000Y-40845000D01*
X127555000Y-40845000D02*
X127600000Y-40800000D01*
X124899969Y-51634999D02*
X124960000Y-51695030D01*
X120065001Y-51634999D02*
X124899969Y-51634999D01*
X120000000Y-51700000D02*
X120065001Y-51634999D01*
%TO.N,DQ7*%
X124910010Y-53249990D02*
X121869990Y-53249990D01*
X125800000Y-52360000D02*
X124910010Y-53249990D01*
X128825000Y-42025000D02*
X128800000Y-42000000D01*
X121869990Y-53249990D02*
X121320000Y-52700000D01*
X120000000Y-52700000D02*
X121320000Y-52700000D01*
X128825000Y-44350000D02*
X128825000Y-42025000D01*
%TO.N,A10*%
X125865566Y-53700000D02*
X120000000Y-53700000D01*
X126580870Y-52984696D02*
X125865566Y-53700000D01*
X131365000Y-44350000D02*
X131365000Y-42065000D01*
X131365000Y-42065000D02*
X131300000Y-42000000D01*
%TO.N,OE*%
X126260000Y-54700000D02*
X127430000Y-53530000D01*
X132635000Y-40835000D02*
X132600000Y-40800000D01*
X120000000Y-54700000D02*
X126260000Y-54700000D01*
X132635000Y-44350000D02*
X132635000Y-40835000D01*
%TO.N,OSC1*%
X115500000Y-64400000D02*
X115525001Y-64425001D01*
X118750000Y-60700000D02*
X118600000Y-60550000D01*
X118600000Y-56700000D02*
X117300000Y-55400000D01*
X115525001Y-64425001D02*
X120348001Y-64425001D01*
X121600000Y-60700000D02*
X120000000Y-60700000D01*
X117300000Y-55400000D02*
X116500000Y-55400000D01*
X118600000Y-60550000D02*
X118600000Y-56700000D01*
X120000000Y-60700000D02*
X118750000Y-60700000D01*
X121900000Y-61000000D02*
X121600000Y-60700000D01*
X120348001Y-64425001D02*
X121900000Y-62873002D01*
X121900000Y-62873002D02*
X121900000Y-61000000D01*
X111300000Y-64400000D02*
X115500000Y-64400000D01*
%TO.N,OSC2*%
X117400000Y-56700000D02*
X116520000Y-56700000D01*
X118149990Y-61099990D02*
X118149990Y-57449990D01*
X120000000Y-61700000D02*
X118750000Y-61700000D01*
X118750000Y-61700000D02*
X118149990Y-61099990D01*
X118149990Y-57449990D02*
X117400000Y-56700000D01*
%TO.N,XA*%
X117275000Y-51275000D02*
X117370000Y-51180000D01*
X127990000Y-65690000D02*
X128000000Y-65700000D01*
X127990000Y-62840000D02*
X127990000Y-65690000D01*
X116050000Y-51275000D02*
X117275000Y-51275000D01*
%TO.N,XB*%
X117120305Y-51925000D02*
X117489231Y-52293926D01*
X128243002Y-62020000D02*
X129000000Y-62776998D01*
X127265000Y-62020000D02*
X128243002Y-62020000D01*
X116050000Y-51925000D02*
X117120305Y-51925000D01*
X129000000Y-62776998D02*
X129000000Y-65700000D01*
%TO.N,YB*%
X127999412Y-61140000D02*
X130000000Y-63140588D01*
X115075000Y-53550000D02*
X115080000Y-53550000D01*
X125585000Y-61140000D02*
X127999412Y-61140000D01*
X115080000Y-53550000D02*
X115920000Y-54390000D01*
X130000000Y-63140588D02*
X130000000Y-65700000D01*
%TO.N,YA*%
X131000000Y-65700000D02*
X131000000Y-63504178D01*
X112543915Y-54131085D02*
X112543915Y-55048439D01*
X113125000Y-53550000D02*
X112543915Y-54131085D01*
X131000000Y-63504178D02*
X127785023Y-60289201D01*
X127785023Y-60289201D02*
X125059507Y-60289201D01*
%TO.N,A11*%
X144000000Y-58700000D02*
X142500000Y-58700000D01*
X133905000Y-44350000D02*
X133905000Y-42005000D01*
X140700000Y-58700000D02*
X142500000Y-58700000D01*
X133905000Y-42005000D02*
X133900000Y-42000000D01*
X134800000Y-51700000D02*
X134800000Y-52800000D01*
X134800000Y-52800000D02*
X140700000Y-58700000D01*
%TO.N,A9*%
X135175000Y-44350000D02*
X135175000Y-40875000D01*
X144000000Y-57700000D02*
X140336410Y-57700000D01*
X135175000Y-40875000D02*
X135100000Y-40800000D01*
X140336410Y-57700000D02*
X135675000Y-53038590D01*
X135675000Y-53038590D02*
X135675000Y-50700000D01*
%TO.N,A8*%
X144000000Y-56700000D02*
X142500000Y-56700000D01*
X136900000Y-53627180D02*
X139972820Y-56700000D01*
X139972820Y-56700000D02*
X142500000Y-56700000D01*
X136445000Y-44350000D02*
X136445000Y-42045000D01*
X136900000Y-51500000D02*
X136900000Y-53627180D01*
X136445000Y-42045000D02*
X136400000Y-42000000D01*
%TO.N,A13*%
X139609230Y-55700000D02*
X144000000Y-55700000D01*
X137700000Y-50800000D02*
X137700000Y-53790770D01*
X137715000Y-44350000D02*
X137715000Y-40815000D01*
X137700000Y-53790770D02*
X139609230Y-55700000D01*
X137715000Y-40815000D02*
X137700000Y-40800000D01*
%TO.N,WE*%
X142780000Y-42600000D02*
X141889990Y-42600000D01*
X142226998Y-54700000D02*
X141174999Y-53648001D01*
X141174999Y-53648001D02*
X141174999Y-50252181D01*
X138985000Y-44350000D02*
X138985000Y-42015000D01*
X141174999Y-50252181D02*
X141889990Y-49537190D01*
X144000000Y-54700000D02*
X142226998Y-54700000D01*
X138985000Y-42015000D02*
X139000000Y-42000000D01*
X141889990Y-49537190D02*
X141889990Y-42600000D01*
%TO.N,Net-(R13-Pad2)*%
X142749990Y-49313600D02*
X142749990Y-48513600D01*
X141949991Y-51899991D02*
X141949991Y-50113599D01*
X142750000Y-52700000D02*
X141949991Y-51899991D01*
X143820000Y-47443590D02*
X143820000Y-45200000D01*
X144000000Y-52700000D02*
X142750000Y-52700000D01*
X141949991Y-50113599D02*
X142749990Y-49313600D01*
X142749990Y-48513600D02*
X143820000Y-47443590D01*
%TO.N,A14*%
X143900000Y-39100000D02*
X142400000Y-39100000D01*
X144415010Y-47484990D02*
X144415010Y-43684990D01*
X142600000Y-51700000D02*
X142400000Y-51500000D01*
X144700000Y-43400000D02*
X144700000Y-39900000D01*
X144415010Y-43684990D02*
X144700000Y-43400000D01*
X144700000Y-39900000D02*
X143900000Y-39100000D01*
X144000000Y-51700000D02*
X142600000Y-51700000D01*
X143200000Y-48700000D02*
X144415010Y-47484990D01*
X143200000Y-49500000D02*
X143200000Y-48700000D01*
X142400000Y-39100000D02*
X140255000Y-36955000D01*
X140255000Y-36955000D02*
X140255000Y-35050000D01*
X142400000Y-51500000D02*
X142400000Y-50300000D01*
X142400000Y-50300000D02*
X143200000Y-49500000D01*
%TO.N,A12*%
X141164990Y-40235010D02*
X138985000Y-38055020D01*
X141164990Y-45435010D02*
X141164990Y-40235010D01*
X140000000Y-47700000D02*
X140000000Y-46600000D01*
X140000000Y-46600000D02*
X141164990Y-45435010D01*
X138985000Y-38055020D02*
X138985000Y-35050000D01*
%TO.N,A7*%
X139629990Y-45770010D02*
X139629990Y-42443012D01*
X139725001Y-42348001D02*
X139725001Y-41398003D01*
X139725001Y-41398003D02*
X139263499Y-40936501D01*
X139263499Y-40936501D02*
X139263499Y-39333499D01*
X139263499Y-39333499D02*
X137715000Y-37785000D01*
X139000000Y-47700000D02*
X139000000Y-46400000D01*
X139000000Y-46400000D02*
X139629990Y-45770010D01*
X139629990Y-42443012D02*
X139725001Y-42348001D01*
X137715000Y-37785000D02*
X137715000Y-35050000D01*
%TO.N,A6*%
X138359990Y-42559990D02*
X138200000Y-42400000D01*
X138200000Y-41373002D02*
X138425001Y-41148001D01*
X136445000Y-37645000D02*
X136445000Y-35050000D01*
X138000000Y-45900000D02*
X138359990Y-45540010D01*
X138359990Y-45540010D02*
X138359990Y-42559990D01*
X138000000Y-47700000D02*
X138000000Y-45900000D01*
X138200000Y-42400000D02*
X138200000Y-41373002D01*
X138425001Y-41148001D02*
X138425001Y-39625001D01*
X138425001Y-39625001D02*
X136445000Y-37645000D01*
%TO.N,A5*%
X135175000Y-37475000D02*
X135175000Y-35050000D01*
X137070010Y-42402992D02*
X137264990Y-42208012D01*
X136700000Y-41100000D02*
X136700000Y-39000000D01*
X137000000Y-47700000D02*
X137000000Y-45491768D01*
X137000000Y-45491768D02*
X137070010Y-45421758D01*
X137264990Y-42208012D02*
X137264990Y-41664990D01*
X137264990Y-41664990D02*
X136700000Y-41100000D01*
X137070010Y-45421758D02*
X137070010Y-42402992D01*
X136700000Y-39000000D02*
X135175000Y-37475000D01*
%TO.N,A4*%
X135800000Y-42473002D02*
X135625010Y-42298012D01*
X136000000Y-47700000D02*
X135800000Y-47500000D01*
X133905000Y-37205000D02*
X133905000Y-35050000D01*
X135625010Y-42298012D02*
X135625010Y-41347992D01*
X135625010Y-41347992D02*
X135900000Y-41073002D01*
X135900000Y-41073002D02*
X135900000Y-39200000D01*
X135900000Y-39200000D02*
X133905000Y-37205000D01*
X135800000Y-47500000D02*
X135800000Y-42473002D01*
%TO.N,A3*%
X134549990Y-45649990D02*
X134549990Y-42423012D01*
X134374999Y-39925001D02*
X132635000Y-38185002D01*
X134374999Y-41174999D02*
X134374999Y-39925001D01*
X134549990Y-42423012D02*
X134700000Y-42273002D01*
X135000000Y-46100000D02*
X134549990Y-45649990D01*
X134700000Y-41500000D02*
X134374999Y-41174999D01*
X132635000Y-38185002D02*
X132635000Y-35050000D01*
X134700000Y-42273002D02*
X134700000Y-41500000D01*
X135000000Y-47700000D02*
X135000000Y-46100000D01*
%TO.N,A2*%
X133260010Y-42433012D02*
X133100000Y-42273002D01*
X133325001Y-39511413D02*
X131365000Y-37551412D01*
X133000000Y-47700000D02*
X133000000Y-46100000D01*
X131365000Y-37551412D02*
X131365000Y-35050000D01*
X133260010Y-45839990D02*
X133260010Y-42433012D01*
X133100000Y-41400000D02*
X133325001Y-41174999D01*
X133000000Y-46100000D02*
X133260010Y-45839990D01*
X133100000Y-42273002D02*
X133100000Y-41400000D01*
X133325001Y-41174999D02*
X133325001Y-39511413D01*
%TO.N,A1*%
X131700000Y-38900000D02*
X130095000Y-37295000D01*
X132025001Y-41325001D02*
X131700000Y-41000000D01*
X132000000Y-47700000D02*
X132000000Y-42373002D01*
X132025001Y-42348001D02*
X132025001Y-41325001D01*
X131700000Y-41000000D02*
X131700000Y-38900000D01*
X132000000Y-42373002D02*
X132025001Y-42348001D01*
X130095000Y-37295000D02*
X130095000Y-35050000D01*
%TO.N,A0*%
X131000000Y-46000000D02*
X131000000Y-47700000D01*
X130739990Y-42539990D02*
X130739990Y-44560010D01*
X130720010Y-44579990D02*
X130720010Y-45120010D01*
X130739990Y-44560010D02*
X130720010Y-44579990D01*
X130739990Y-45739990D02*
X131000000Y-46000000D01*
X130825001Y-39125001D02*
X130825001Y-41148001D01*
X128825000Y-37125000D02*
X130825001Y-39125001D01*
X128825000Y-35050000D02*
X128825000Y-37125000D01*
X130825001Y-41148001D02*
X130545010Y-41427992D01*
X130720010Y-45120010D02*
X130739990Y-45139990D01*
X130739990Y-45139990D02*
X130739990Y-45739990D01*
X130545010Y-42345010D02*
X130739990Y-42539990D01*
X130545010Y-41427992D02*
X130545010Y-42345010D01*
%TO.N,DQ0*%
X129450010Y-42422992D02*
X129600000Y-42273002D01*
X130000000Y-47700000D02*
X130000000Y-46200000D01*
X127555000Y-37555000D02*
X127555000Y-35050000D01*
X129450010Y-45650010D02*
X129450010Y-42422992D01*
X129600000Y-41373002D02*
X129300000Y-41073002D01*
X129600000Y-42273002D02*
X129600000Y-41373002D01*
X129300000Y-39300000D02*
X127555000Y-37555000D01*
X129300000Y-41073002D02*
X129300000Y-39300000D01*
X130000000Y-46200000D02*
X129450010Y-45650010D01*
%TO.N,DQ1*%
X128005010Y-42505010D02*
X128005010Y-41721988D01*
X129000000Y-46600000D02*
X128180010Y-45780010D01*
X128300000Y-41426998D02*
X128300000Y-41173002D01*
X126285000Y-37585000D02*
X126285000Y-35050000D01*
X128180010Y-42680010D02*
X128005010Y-42505010D01*
X128325001Y-39625001D02*
X126285000Y-37585000D01*
X128005010Y-41721988D02*
X128300000Y-41426998D01*
X128300000Y-41173002D02*
X128325001Y-41148001D01*
X128180010Y-45780010D02*
X128180010Y-42680010D01*
X128325001Y-41148001D02*
X128325001Y-39625001D01*
X129000000Y-47700000D02*
X129000000Y-46600000D01*
%TO.N,DQ2*%
X127000000Y-47700000D02*
X126929990Y-47629990D01*
X126929990Y-47629990D02*
X126929990Y-41829990D01*
X125015000Y-39915000D02*
X125015000Y-35050000D01*
X126929990Y-41829990D02*
X125015000Y-39915000D01*
%TO.N,DQ3*%
X124570000Y-42500000D02*
X123745000Y-43325000D01*
X125300000Y-42500000D02*
X124570000Y-42500000D01*
X125640010Y-45940010D02*
X125640010Y-42840010D01*
X123745000Y-43325000D02*
X123745000Y-44350000D01*
X126000000Y-47700000D02*
X126000000Y-46300000D01*
X125640010Y-42840010D02*
X125300000Y-42500000D01*
X126000000Y-46300000D02*
X125640010Y-45940010D01*
%TO.N,DQ4*%
X125000000Y-47700000D02*
X125000000Y-44365000D01*
X125000000Y-44365000D02*
X125015000Y-44350000D01*
%TO.N,DQ5*%
X123000000Y-42600000D02*
X123550010Y-42049990D01*
X124000000Y-47700000D02*
X123000000Y-47700000D01*
X123000000Y-47700000D02*
X123000000Y-42600000D01*
X126285000Y-44350000D02*
X126285000Y-43015000D01*
X125486401Y-42049991D02*
X126285000Y-42848590D01*
X123550010Y-42049990D02*
X125486401Y-42049991D01*
X126285000Y-42848590D02*
X126285000Y-43015000D01*
%TO.N,CE*%
X142800000Y-41300000D02*
X141900000Y-41300000D01*
X144000000Y-53700000D02*
X142300000Y-53700000D01*
X130095000Y-44350000D02*
X130095000Y-40805000D01*
X130095000Y-40805000D02*
X130100000Y-40800000D01*
X142300000Y-53700000D02*
X141900000Y-53300000D01*
%TO.N,Net-(R1-Pad1)*%
X115480000Y-56680000D02*
X115500000Y-56700000D01*
X111300000Y-59500000D02*
X115500000Y-59500000D01*
X115500000Y-56700000D02*
X115500000Y-59500000D01*
X115480000Y-55400000D02*
X115480000Y-56680000D01*
%TO.N,Net-(J2-Pad4)*%
X114750000Y-47063590D02*
X114750000Y-44970000D01*
X113125000Y-48688590D02*
X114750000Y-47063590D01*
X114750000Y-44970000D02*
X115400000Y-44320000D01*
X113125000Y-49650000D02*
X113125000Y-48688590D01*
X115400000Y-44320000D02*
X116290000Y-44320000D01*
%TO.N,Net-(J2-Pad5)*%
X113775000Y-48675000D02*
X115590000Y-46860000D01*
X115590000Y-46860000D02*
X116290000Y-46860000D01*
X113775000Y-49650000D02*
X113775000Y-48675000D01*
%TD*%
%TA.AperFunction,Conductor*%
%TO.N,GND*%
G36*
X112939438Y-65053502D02*
G01*
X112985931Y-65107158D01*
X112996595Y-65146034D01*
X112998009Y-65159195D01*
X112998011Y-65159204D01*
X113049110Y-65296202D01*
X113049112Y-65296207D01*
X113136738Y-65413261D01*
X113253792Y-65500887D01*
X113253794Y-65500888D01*
X113253796Y-65500889D01*
X113304954Y-65519970D01*
X113390795Y-65551988D01*
X113390803Y-65551990D01*
X113451350Y-65558499D01*
X113451355Y-65558499D01*
X113451362Y-65558500D01*
X113451368Y-65558500D01*
X116500371Y-65558500D01*
X116568492Y-65578502D01*
X116614985Y-65632158D01*
X116625089Y-65702432D01*
X116595595Y-65767012D01*
X116558395Y-65794585D01*
X116558969Y-65795579D01*
X116553248Y-65798882D01*
X116398744Y-65911135D01*
X116270965Y-66053048D01*
X116270958Y-66053058D01*
X116175476Y-66218438D01*
X116175473Y-66218445D01*
X116116457Y-66400072D01*
X116096496Y-66590000D01*
X116116457Y-66779927D01*
X116125256Y-66807006D01*
X116175473Y-66961556D01*
X116175476Y-66961561D01*
X116270958Y-67126941D01*
X116270965Y-67126951D01*
X116398744Y-67268864D01*
X116428478Y-67290467D01*
X116553248Y-67381118D01*
X116727712Y-67458794D01*
X116914513Y-67498500D01*
X116970404Y-67498500D01*
X117038525Y-67518502D01*
X117059499Y-67535404D01*
X117172754Y-67648658D01*
X117182722Y-67661101D01*
X117182950Y-67660913D01*
X117188001Y-67667019D01*
X117238371Y-67714319D01*
X117239761Y-67715666D01*
X117249567Y-67725472D01*
X117260224Y-67736130D01*
X117260228Y-67736133D01*
X117260230Y-67736135D01*
X117265782Y-67740442D01*
X117270269Y-67744273D01*
X117291852Y-67764541D01*
X117304677Y-67776585D01*
X117304679Y-67776586D01*
X117322428Y-67786343D01*
X117338953Y-67797198D01*
X117354959Y-67809614D01*
X117390398Y-67824949D01*
X117398262Y-67828352D01*
X117403583Y-67830958D01*
X117444940Y-67853695D01*
X117444948Y-67853697D01*
X117464558Y-67858732D01*
X117483267Y-67865137D01*
X117501855Y-67873181D01*
X117548477Y-67880564D01*
X117554262Y-67881763D01*
X117599970Y-67893500D01*
X117620224Y-67893500D01*
X117639934Y-67895051D01*
X117642141Y-67895400D01*
X117659943Y-67898220D01*
X117694472Y-67894956D01*
X117706917Y-67893780D01*
X117712850Y-67893500D01*
X119156147Y-67893500D01*
X119171988Y-67895249D01*
X119172016Y-67894956D01*
X119179901Y-67895700D01*
X119179909Y-67895702D01*
X119241208Y-67893775D01*
X119248976Y-67893531D01*
X119250955Y-67893500D01*
X119279851Y-67893500D01*
X119279856Y-67893500D01*
X119286818Y-67892619D01*
X119292719Y-67892154D01*
X119339889Y-67890673D01*
X119359347Y-67885019D01*
X119378694Y-67881013D01*
X119398797Y-67878474D01*
X119404801Y-67876097D01*
X119412165Y-67873181D01*
X119442679Y-67861099D01*
X119448274Y-67859183D01*
X119476816Y-67850891D01*
X119493591Y-67846019D01*
X119493595Y-67846017D01*
X119511026Y-67835708D01*
X119528780Y-67827009D01*
X119547617Y-67819552D01*
X119585786Y-67791818D01*
X119590744Y-67788562D01*
X119631362Y-67764542D01*
X119645685Y-67750218D01*
X119660724Y-67737374D01*
X119677107Y-67725472D01*
X119707202Y-67689092D01*
X119711161Y-67684742D01*
X119988661Y-67407242D01*
X120001096Y-67397281D01*
X120000909Y-67397054D01*
X120007014Y-67392003D01*
X120007015Y-67392001D01*
X120007018Y-67392000D01*
X120054337Y-67341608D01*
X120055652Y-67340251D01*
X120076135Y-67319770D01*
X120080445Y-67314212D01*
X120084274Y-67309729D01*
X120116586Y-67275321D01*
X120126346Y-67257565D01*
X120137195Y-67241050D01*
X120149614Y-67225041D01*
X120168363Y-67181710D01*
X120170953Y-67176423D01*
X120193695Y-67135060D01*
X120198733Y-67115434D01*
X120205137Y-67096732D01*
X120213180Y-67078147D01*
X120213179Y-67078147D01*
X120213181Y-67078145D01*
X120220561Y-67031547D01*
X120221762Y-67025740D01*
X120233500Y-66980030D01*
X120233500Y-66959774D01*
X120235051Y-66940065D01*
X120238470Y-66918478D01*
X120254466Y-66874049D01*
X120332047Y-66742867D01*
X120383940Y-66694414D01*
X120453790Y-66681709D01*
X120519421Y-66708784D01*
X120559995Y-66767045D01*
X120566500Y-66807006D01*
X120566500Y-69099518D01*
X120546498Y-69167639D01*
X120492842Y-69214132D01*
X120469488Y-69222138D01*
X120465805Y-69223008D01*
X120369031Y-69259103D01*
X120298215Y-69264167D01*
X120280966Y-69259103D01*
X120243128Y-69244990D01*
X120184201Y-69223011D01*
X120184199Y-69223010D01*
X120184197Y-69223010D01*
X120184196Y-69223009D01*
X120123649Y-69216500D01*
X120123638Y-69216500D01*
X118776362Y-69216500D01*
X118776350Y-69216500D01*
X118715803Y-69223009D01*
X118715795Y-69223011D01*
X118619033Y-69259103D01*
X118548217Y-69264169D01*
X118530967Y-69259103D01*
X118434204Y-69223011D01*
X118434196Y-69223009D01*
X118373649Y-69216500D01*
X118373638Y-69216500D01*
X117026362Y-69216500D01*
X117026350Y-69216500D01*
X116965803Y-69223009D01*
X116965799Y-69223010D01*
X116868316Y-69259370D01*
X116797500Y-69264434D01*
X116780252Y-69259370D01*
X116684094Y-69223505D01*
X116623597Y-69217000D01*
X116204000Y-69217000D01*
X116204000Y-70064892D01*
X116133843Y-70010287D01*
X116013578Y-69969000D01*
X115918431Y-69969000D01*
X115824579Y-69984661D01*
X115712749Y-70045180D01*
X115696000Y-70063374D01*
X115696000Y-69217000D01*
X115276402Y-69217000D01*
X115215906Y-69223505D01*
X115079035Y-69274555D01*
X115079034Y-69274555D01*
X114962095Y-69362095D01*
X114874555Y-69479034D01*
X114874555Y-69479035D01*
X114823505Y-69615906D01*
X114817000Y-69676402D01*
X114817000Y-70096000D01*
X115665966Y-70096000D01*
X115626629Y-70138731D01*
X115575552Y-70255177D01*
X115565051Y-70381898D01*
X115596266Y-70505162D01*
X115660840Y-70604000D01*
X114817000Y-70604000D01*
X114817000Y-70973500D01*
X114796998Y-71041621D01*
X114743342Y-71088114D01*
X114691000Y-71099500D01*
X110526500Y-71099500D01*
X110458379Y-71079498D01*
X110411886Y-71025842D01*
X110400500Y-70973500D01*
X110400500Y-69149999D01*
X111004341Y-69149999D01*
X111024937Y-69385411D01*
X111086096Y-69613661D01*
X111086098Y-69613665D01*
X111185966Y-69827832D01*
X111321498Y-70021392D01*
X111321502Y-70021397D01*
X111321505Y-70021401D01*
X111488599Y-70188495D01*
X111488603Y-70188498D01*
X111488607Y-70188501D01*
X111682167Y-70324033D01*
X111682166Y-70324033D01*
X111758304Y-70359537D01*
X111896337Y-70423903D01*
X112124592Y-70485063D01*
X112301034Y-70500500D01*
X112301041Y-70500500D01*
X112418959Y-70500500D01*
X112418966Y-70500500D01*
X112595408Y-70485063D01*
X112823663Y-70423903D01*
X113037829Y-70324035D01*
X113231401Y-70188495D01*
X113398495Y-70021401D01*
X113534035Y-69827830D01*
X113633903Y-69613663D01*
X113695063Y-69385408D01*
X113715659Y-69150000D01*
X113695063Y-68914592D01*
X113633903Y-68686337D01*
X113534035Y-68472171D01*
X113534034Y-68472169D01*
X113534033Y-68472167D01*
X113398501Y-68278607D01*
X113398497Y-68278602D01*
X113398495Y-68278599D01*
X113231401Y-68111505D01*
X113231397Y-68111502D01*
X113231392Y-68111498D01*
X113037832Y-67975966D01*
X113037833Y-67975966D01*
X112823665Y-67876098D01*
X112823661Y-67876096D01*
X112595411Y-67814937D01*
X112534567Y-67809614D01*
X112418966Y-67799500D01*
X112301034Y-67799500D01*
X112191548Y-67809079D01*
X112124588Y-67814937D01*
X111896338Y-67876096D01*
X111896334Y-67876098D01*
X111682167Y-67975966D01*
X111488607Y-68111498D01*
X111488596Y-68111507D01*
X111321507Y-68278596D01*
X111321502Y-68278602D01*
X111185965Y-68472169D01*
X111086098Y-68686334D01*
X111086096Y-68686338D01*
X111024937Y-68914588D01*
X111004341Y-69149999D01*
X110400500Y-69149999D01*
X110400500Y-68276917D01*
X110400499Y-65563199D01*
X110420501Y-65495079D01*
X110474157Y-65448586D01*
X110544431Y-65438482D01*
X110598768Y-65459986D01*
X110662323Y-65504488D01*
X110863804Y-65598440D01*
X111078537Y-65655978D01*
X111300000Y-65675353D01*
X111521463Y-65655978D01*
X111736196Y-65598440D01*
X111937677Y-65504488D01*
X112119781Y-65376977D01*
X112276977Y-65219781D01*
X112338331Y-65132159D01*
X112369792Y-65087229D01*
X112425250Y-65042901D01*
X112473005Y-65033500D01*
X112871317Y-65033500D01*
X112939438Y-65053502D01*
G37*
%TD.AperFunction*%
%TA.AperFunction,Conductor*%
G36*
X129350737Y-51623532D02*
G01*
X129371711Y-51640435D01*
X140819933Y-63088657D01*
X140829900Y-63101097D01*
X140830127Y-63100910D01*
X140835179Y-63107017D01*
X140885568Y-63154335D01*
X140886957Y-63155681D01*
X140907411Y-63176135D01*
X140912950Y-63180431D01*
X140917462Y-63184285D01*
X140946500Y-63211554D01*
X140951858Y-63216585D01*
X140951862Y-63216588D01*
X140969610Y-63226345D01*
X140986137Y-63237201D01*
X141002140Y-63249614D01*
X141045439Y-63268351D01*
X141050765Y-63270960D01*
X141092115Y-63293693D01*
X141092118Y-63293694D01*
X141092120Y-63293695D01*
X141111742Y-63298733D01*
X141130443Y-63305135D01*
X141142994Y-63310567D01*
X141149032Y-63313180D01*
X141149033Y-63313180D01*
X141149035Y-63313181D01*
X141195657Y-63320564D01*
X141201442Y-63321763D01*
X141247150Y-63333500D01*
X141267404Y-63333500D01*
X141287114Y-63335051D01*
X141289321Y-63335400D01*
X141307123Y-63338220D01*
X141341050Y-63335012D01*
X141354097Y-63333780D01*
X141360030Y-63333500D01*
X142655234Y-63333500D01*
X142723355Y-63353502D01*
X142730735Y-63358626D01*
X142753793Y-63375887D01*
X142753796Y-63375889D01*
X142890795Y-63426988D01*
X142890803Y-63426990D01*
X142951350Y-63433499D01*
X142951355Y-63433499D01*
X142951362Y-63433500D01*
X144823500Y-63433500D01*
X144891621Y-63453502D01*
X144938114Y-63507158D01*
X144949500Y-63559500D01*
X144949500Y-70973500D01*
X144929498Y-71041621D01*
X144875842Y-71088114D01*
X144823500Y-71099500D01*
X143459500Y-71099500D01*
X143391379Y-71079498D01*
X143344886Y-71025842D01*
X143333500Y-70973500D01*
X143333500Y-69676367D01*
X143333499Y-69676350D01*
X143326990Y-69615803D01*
X143326988Y-69615795D01*
X143275978Y-69479035D01*
X143275889Y-69478796D01*
X143275888Y-69478794D01*
X143275887Y-69478792D01*
X143188261Y-69361738D01*
X143071207Y-69274112D01*
X143071202Y-69274110D01*
X142934204Y-69223011D01*
X142934196Y-69223009D01*
X142873649Y-69216500D01*
X142873638Y-69216500D01*
X142834286Y-69216500D01*
X142766165Y-69196498D01*
X142725831Y-69154637D01*
X142723089Y-69150000D01*
X142704542Y-69118637D01*
X142704540Y-69118635D01*
X142704539Y-69118633D01*
X142690218Y-69104312D01*
X142677377Y-69089279D01*
X142665471Y-69072892D01*
X142652763Y-69062379D01*
X142629108Y-69042810D01*
X142624736Y-69038831D01*
X141657244Y-68071339D01*
X141647279Y-68058901D01*
X141647052Y-68059090D01*
X141642001Y-68052984D01*
X141642000Y-68052982D01*
X141619281Y-68031648D01*
X141591627Y-68005679D01*
X141590237Y-68004332D01*
X141579990Y-67994085D01*
X141569776Y-67983870D01*
X141569772Y-67983866D01*
X141564225Y-67979563D01*
X141559717Y-67975712D01*
X141525325Y-67943417D01*
X141525319Y-67943413D01*
X141507563Y-67933651D01*
X141491047Y-67922802D01*
X141475041Y-67910386D01*
X141441108Y-67895702D01*
X141431740Y-67891648D01*
X141426408Y-67889036D01*
X141385061Y-67866305D01*
X141365436Y-67861266D01*
X141346736Y-67854864D01*
X141344039Y-67853697D01*
X141328145Y-67846819D01*
X141328143Y-67846818D01*
X141328142Y-67846818D01*
X141281542Y-67839437D01*
X141275729Y-67838233D01*
X141230030Y-67826500D01*
X141209776Y-67826500D01*
X141190066Y-67824949D01*
X141170057Y-67821780D01*
X141170056Y-67821780D01*
X141123083Y-67826220D01*
X141117150Y-67826500D01*
X140434595Y-67826500D01*
X140366474Y-67806498D01*
X140345500Y-67789595D01*
X139811905Y-67256000D01*
X139777879Y-67193688D01*
X139775000Y-67166905D01*
X139775000Y-65925000D01*
X140225000Y-65925000D01*
X140225000Y-67208000D01*
X140273585Y-67208000D01*
X140273597Y-67207999D01*
X140334096Y-67201494D01*
X140455967Y-67156038D01*
X140526782Y-67150972D01*
X140544033Y-67156038D01*
X140665904Y-67201494D01*
X140665903Y-67201494D01*
X140726402Y-67207999D01*
X140726415Y-67208000D01*
X140775000Y-67208000D01*
X140775000Y-65925000D01*
X141225000Y-65925000D01*
X141225000Y-67208000D01*
X141273585Y-67208000D01*
X141273597Y-67207999D01*
X141334093Y-67201494D01*
X141470964Y-67150444D01*
X141470965Y-67150444D01*
X141587904Y-67062904D01*
X141675444Y-66945965D01*
X141675444Y-66945964D01*
X141726494Y-66809093D01*
X141732999Y-66748597D01*
X141733000Y-66748585D01*
X141733000Y-65925000D01*
X141225000Y-65925000D01*
X140775000Y-65925000D01*
X140225000Y-65925000D01*
X139775000Y-65925000D01*
X139775000Y-64192000D01*
X140225000Y-64192000D01*
X140225000Y-65475000D01*
X140775000Y-65475000D01*
X140775000Y-64192000D01*
X141225000Y-64192000D01*
X141225000Y-65475000D01*
X141733000Y-65475000D01*
X141733000Y-64651414D01*
X141732999Y-64651402D01*
X141726494Y-64590906D01*
X141675444Y-64454035D01*
X141675444Y-64454034D01*
X141587904Y-64337095D01*
X141470965Y-64249555D01*
X141334093Y-64198505D01*
X141273597Y-64192000D01*
X141225000Y-64192000D01*
X140775000Y-64192000D01*
X140726402Y-64192000D01*
X140665905Y-64198505D01*
X140544032Y-64243961D01*
X140473216Y-64249025D01*
X140455968Y-64243961D01*
X140334094Y-64198505D01*
X140273597Y-64192000D01*
X140225000Y-64192000D01*
X139775000Y-64192000D01*
X139726402Y-64192000D01*
X139665905Y-64198505D01*
X139544746Y-64243695D01*
X139473930Y-64248759D01*
X139456681Y-64243694D01*
X139334204Y-64198011D01*
X139334196Y-64198009D01*
X139273649Y-64191500D01*
X139273638Y-64191500D01*
X138726362Y-64191500D01*
X138726350Y-64191500D01*
X138665803Y-64198009D01*
X138665802Y-64198010D01*
X138665799Y-64198010D01*
X138665799Y-64198011D01*
X138544036Y-64243427D01*
X138544033Y-64243428D01*
X138473217Y-64248493D01*
X138455967Y-64243428D01*
X138334201Y-64198011D01*
X138334199Y-64198010D01*
X138334197Y-64198010D01*
X138334196Y-64198009D01*
X138273649Y-64191500D01*
X138273638Y-64191500D01*
X137726362Y-64191500D01*
X137726350Y-64191500D01*
X137665803Y-64198009D01*
X137665802Y-64198010D01*
X137665799Y-64198010D01*
X137665799Y-64198011D01*
X137544036Y-64243427D01*
X137544033Y-64243428D01*
X137473217Y-64248493D01*
X137455967Y-64243428D01*
X137334201Y-64198011D01*
X137334199Y-64198010D01*
X137334197Y-64198010D01*
X137334196Y-64198009D01*
X137273649Y-64191500D01*
X137273638Y-64191500D01*
X136726362Y-64191500D01*
X136726350Y-64191500D01*
X136665803Y-64198009D01*
X136665802Y-64198010D01*
X136665799Y-64198010D01*
X136665799Y-64198011D01*
X136544036Y-64243427D01*
X136544033Y-64243428D01*
X136473217Y-64248493D01*
X136455967Y-64243428D01*
X136334201Y-64198011D01*
X136334199Y-64198010D01*
X136334197Y-64198010D01*
X136334196Y-64198009D01*
X136273649Y-64191500D01*
X136273638Y-64191500D01*
X136198594Y-64191500D01*
X136130473Y-64171498D01*
X136083980Y-64117842D01*
X136073876Y-64047568D01*
X136103370Y-63982988D01*
X136109499Y-63976404D01*
X136294403Y-63791501D01*
X137210500Y-62875404D01*
X137272813Y-62841379D01*
X137299596Y-62838500D01*
X137355487Y-62838500D01*
X137542288Y-62798794D01*
X137716752Y-62721118D01*
X137871253Y-62608866D01*
X137890559Y-62587425D01*
X137999034Y-62466951D01*
X137999035Y-62466949D01*
X137999040Y-62466944D01*
X138094527Y-62301556D01*
X138153542Y-62119928D01*
X138173504Y-61930000D01*
X138153542Y-61740072D01*
X138094527Y-61558444D01*
X137999040Y-61393056D01*
X137999038Y-61393054D01*
X137999034Y-61393048D01*
X137871255Y-61251135D01*
X137716752Y-61138882D01*
X137542288Y-61061206D01*
X137355487Y-61021500D01*
X137164513Y-61021500D01*
X136977711Y-61061206D01*
X136803247Y-61138882D01*
X136648744Y-61251135D01*
X136520965Y-61393048D01*
X136520958Y-61393058D01*
X136425476Y-61558438D01*
X136425473Y-61558445D01*
X136366457Y-61740072D01*
X136349092Y-61905292D01*
X136322079Y-61970949D01*
X136312877Y-61981216D01*
X135264498Y-63029596D01*
X135202188Y-63063620D01*
X135175405Y-63066500D01*
X132708200Y-63066500D01*
X132640079Y-63046498D01*
X132614563Y-63024810D01*
X132611252Y-63021133D01*
X132456752Y-62908882D01*
X132282288Y-62831206D01*
X132095487Y-62791500D01*
X131904513Y-62791500D01*
X131717711Y-62831206D01*
X131543247Y-62908882D01*
X131489774Y-62947733D01*
X131422906Y-62971592D01*
X131353754Y-62955511D01*
X131326618Y-62934892D01*
X129839907Y-61448181D01*
X128292267Y-59900540D01*
X128282302Y-59888102D01*
X128282075Y-59888291D01*
X128277024Y-59882185D01*
X128277023Y-59882183D01*
X128226649Y-59834879D01*
X128225260Y-59833533D01*
X128215013Y-59823286D01*
X128204799Y-59813071D01*
X128204795Y-59813067D01*
X128199248Y-59808764D01*
X128194740Y-59804913D01*
X128160348Y-59772618D01*
X128160342Y-59772614D01*
X128142586Y-59762852D01*
X128126070Y-59752003D01*
X128110064Y-59739587D01*
X128079312Y-59726279D01*
X128066763Y-59720849D01*
X128061431Y-59718237D01*
X128020084Y-59695506D01*
X128000459Y-59690467D01*
X127981759Y-59684065D01*
X127963168Y-59676020D01*
X127963166Y-59676019D01*
X127963165Y-59676019D01*
X127916565Y-59668638D01*
X127910752Y-59667434D01*
X127865053Y-59655701D01*
X127844799Y-59655701D01*
X127825089Y-59654150D01*
X127805080Y-59650981D01*
X127805079Y-59650981D01*
X127758106Y-59655421D01*
X127752173Y-59655701D01*
X125767707Y-59655701D01*
X125699586Y-59635699D01*
X125674070Y-59614011D01*
X125670759Y-59610334D01*
X125516259Y-59498083D01*
X125341795Y-59420407D01*
X125154994Y-59380701D01*
X124964020Y-59380701D01*
X124777218Y-59420407D01*
X124602754Y-59498083D01*
X124448251Y-59610336D01*
X124343136Y-59727079D01*
X124282690Y-59764319D01*
X124211706Y-59762967D01*
X124152722Y-59723454D01*
X124124464Y-59658323D01*
X124123500Y-59642769D01*
X124123500Y-58400852D01*
X124125249Y-58385010D01*
X124124956Y-58384983D01*
X124125702Y-58377090D01*
X124123531Y-58308009D01*
X124123500Y-58306030D01*
X124123500Y-58277148D01*
X124123500Y-58277142D01*
X124122620Y-58270180D01*
X124122156Y-58264291D01*
X124120674Y-58217109D01*
X124115020Y-58197650D01*
X124111012Y-58178295D01*
X124108474Y-58158201D01*
X124091103Y-58114327D01*
X124089189Y-58108738D01*
X124076019Y-58063405D01*
X124065703Y-58045962D01*
X124057005Y-58028207D01*
X124049552Y-58009381D01*
X124023583Y-57973638D01*
X124021818Y-57971208D01*
X124018558Y-57966245D01*
X123994542Y-57925636D01*
X123980214Y-57911308D01*
X123967384Y-57896287D01*
X123955472Y-57879891D01*
X123955469Y-57879889D01*
X123955469Y-57879888D01*
X123919107Y-57849806D01*
X123914726Y-57845820D01*
X122380246Y-56311339D01*
X122370281Y-56298901D01*
X122370054Y-56299090D01*
X122365003Y-56292984D01*
X122365002Y-56292982D01*
X122314627Y-56245677D01*
X122313238Y-56244331D01*
X122298906Y-56229999D01*
X122292778Y-56223870D01*
X122292774Y-56223866D01*
X122287227Y-56219563D01*
X122282719Y-56215712D01*
X122248327Y-56183417D01*
X122248321Y-56183413D01*
X122230565Y-56173651D01*
X122214049Y-56162802D01*
X122198043Y-56150386D01*
X122167291Y-56137078D01*
X122154742Y-56131648D01*
X122149410Y-56129036D01*
X122108063Y-56106305D01*
X122088438Y-56101266D01*
X122069738Y-56094864D01*
X122065719Y-56093125D01*
X122051147Y-56086819D01*
X122051145Y-56086818D01*
X122051144Y-56086818D01*
X122004544Y-56079437D01*
X121998731Y-56078233D01*
X121953032Y-56066500D01*
X121932778Y-56066500D01*
X121913068Y-56064949D01*
X121893059Y-56061780D01*
X121893058Y-56061780D01*
X121846085Y-56066220D01*
X121840152Y-56066500D01*
X121634000Y-56066500D01*
X121565879Y-56046498D01*
X121519386Y-55992842D01*
X121508000Y-55940500D01*
X121508000Y-55925000D01*
X119901000Y-55925000D01*
X119832879Y-55904998D01*
X119786386Y-55851342D01*
X119775000Y-55799000D01*
X119775000Y-55601000D01*
X119795002Y-55532879D01*
X119848658Y-55486386D01*
X119901000Y-55475000D01*
X121508000Y-55475000D01*
X121508000Y-55459500D01*
X121528002Y-55391379D01*
X121581658Y-55344886D01*
X121634000Y-55333500D01*
X126176147Y-55333500D01*
X126191988Y-55335249D01*
X126192016Y-55334956D01*
X126199901Y-55335700D01*
X126199909Y-55335702D01*
X126261208Y-55333775D01*
X126268976Y-55333531D01*
X126270955Y-55333500D01*
X126299851Y-55333500D01*
X126299856Y-55333500D01*
X126306818Y-55332619D01*
X126312719Y-55332154D01*
X126359889Y-55330673D01*
X126379347Y-55325019D01*
X126398694Y-55321013D01*
X126418797Y-55318474D01*
X126462679Y-55301099D01*
X126468274Y-55299183D01*
X126496816Y-55290891D01*
X126513591Y-55286019D01*
X126513595Y-55286017D01*
X126531026Y-55275708D01*
X126548780Y-55267009D01*
X126567617Y-55259552D01*
X126605786Y-55231818D01*
X126610744Y-55228562D01*
X126651362Y-55204542D01*
X126665685Y-55190218D01*
X126680724Y-55177374D01*
X126697107Y-55165472D01*
X126727188Y-55129108D01*
X126731178Y-55124725D01*
X127380501Y-54475404D01*
X127442813Y-54441379D01*
X127469596Y-54438500D01*
X127525487Y-54438500D01*
X127712288Y-54398794D01*
X127886752Y-54321118D01*
X128041253Y-54208866D01*
X128049236Y-54200000D01*
X128169034Y-54066951D01*
X128169035Y-54066949D01*
X128169040Y-54066944D01*
X128264527Y-53901556D01*
X128323542Y-53719928D01*
X128343504Y-53530000D01*
X128323542Y-53340072D01*
X128264527Y-53158444D01*
X128169040Y-52993056D01*
X128169038Y-52993054D01*
X128169034Y-52993048D01*
X128041255Y-52851135D01*
X127886752Y-52738882D01*
X127712288Y-52661206D01*
X127525487Y-52621500D01*
X127492969Y-52621500D01*
X127424848Y-52601498D01*
X127383851Y-52558501D01*
X127319910Y-52447752D01*
X127319908Y-52447750D01*
X127319904Y-52447744D01*
X127192125Y-52305831D01*
X127037622Y-52193578D01*
X126863154Y-52115900D01*
X126733206Y-52088278D01*
X126670733Y-52054550D01*
X126639571Y-52003969D01*
X126634525Y-51988439D01*
X126539041Y-51823058D01*
X126539040Y-51823056D01*
X126530741Y-51813839D01*
X126500025Y-51749831D01*
X126508790Y-51679377D01*
X126554254Y-51624847D01*
X126621982Y-51603553D01*
X126624379Y-51603530D01*
X129282616Y-51603530D01*
X129350737Y-51623532D01*
G37*
%TD.AperFunction*%
%TA.AperFunction,Conductor*%
G36*
X115766157Y-70689713D02*
G01*
X115886422Y-70731000D01*
X115981569Y-70731000D01*
X116075421Y-70715339D01*
X116187251Y-70654820D01*
X116204000Y-70636625D01*
X116204000Y-70973500D01*
X116183998Y-71041621D01*
X116179314Y-71045679D01*
X116133843Y-71010287D01*
X116013578Y-70969000D01*
X115918431Y-70969000D01*
X115824579Y-70984661D01*
X115720505Y-71040982D01*
X115707386Y-71025842D01*
X115696000Y-70973500D01*
X115696000Y-70635107D01*
X115766157Y-70689713D01*
G37*
%TD.AperFunction*%
%TA.AperFunction,Conductor*%
G36*
X118940062Y-65078503D02*
G01*
X118986555Y-65132159D01*
X118997251Y-65197671D01*
X118986496Y-65300001D01*
X118986496Y-65300002D01*
X118990609Y-65339146D01*
X118977835Y-65408984D01*
X118940952Y-65453073D01*
X118894000Y-65488325D01*
X118894000Y-65778620D01*
X118876454Y-65842758D01*
X118860107Y-65870399D01*
X118814393Y-66027747D01*
X118814393Y-66027748D01*
X118811500Y-66064506D01*
X118811500Y-66428000D01*
X118791498Y-66496121D01*
X118737842Y-66542614D01*
X118685500Y-66554000D01*
X118512000Y-66554000D01*
X118443879Y-66533998D01*
X118397386Y-66480342D01*
X118386000Y-66428000D01*
X118385999Y-65488326D01*
X118240598Y-65530570D01*
X118099681Y-65613908D01*
X118099674Y-65613914D01*
X117983914Y-65729674D01*
X117983908Y-65729681D01*
X117900570Y-65870599D01*
X117900568Y-65870603D01*
X117886683Y-65918395D01*
X117848470Y-65978230D01*
X117783973Y-66007906D01*
X117713670Y-65998002D01*
X117672050Y-65967550D01*
X117621252Y-65911133D01*
X117565467Y-65870603D01*
X117466752Y-65798882D01*
X117466747Y-65798880D01*
X117461031Y-65795579D01*
X117461889Y-65794091D01*
X117414282Y-65753622D01*
X117393635Y-65685694D01*
X117412990Y-65617387D01*
X117466203Y-65570388D01*
X117519629Y-65558500D01*
X117548632Y-65558500D01*
X117548638Y-65558500D01*
X117548645Y-65558499D01*
X117548649Y-65558499D01*
X117609196Y-65551990D01*
X117609199Y-65551989D01*
X117609201Y-65551989D01*
X117746204Y-65500889D01*
X117753966Y-65495079D01*
X117863261Y-65413261D01*
X117950887Y-65296207D01*
X117950887Y-65296206D01*
X117950889Y-65296204D01*
X118001989Y-65159201D01*
X118001990Y-65159195D01*
X118002859Y-65155520D01*
X118004318Y-65152958D01*
X118004744Y-65151816D01*
X118004929Y-65151885D01*
X118037993Y-65093827D01*
X118100904Y-65060921D01*
X118125481Y-65058501D01*
X118871941Y-65058501D01*
X118940062Y-65078503D01*
G37*
%TD.AperFunction*%
%TA.AperFunction,Conductor*%
G36*
X112939438Y-60153502D02*
G01*
X112985931Y-60207158D01*
X112996595Y-60246034D01*
X112998009Y-60259195D01*
X112998011Y-60259204D01*
X113049110Y-60396202D01*
X113049112Y-60396207D01*
X113136737Y-60513259D01*
X113136738Y-60513259D01*
X113136739Y-60513261D01*
X113163775Y-60533500D01*
X113251865Y-60599444D01*
X113294411Y-60656280D01*
X113299475Y-60727096D01*
X113265450Y-60789408D01*
X113251865Y-60801180D01*
X113137094Y-60887097D01*
X113049555Y-61004034D01*
X113049555Y-61004035D01*
X112998505Y-61140906D01*
X112992000Y-61201402D01*
X112992000Y-61646000D01*
X115628000Y-61646000D01*
X115696121Y-61666002D01*
X115742614Y-61719658D01*
X115754000Y-61772000D01*
X115754000Y-62028000D01*
X115733998Y-62096121D01*
X115680342Y-62142614D01*
X115628000Y-62154000D01*
X112992000Y-62154000D01*
X112992000Y-62598597D01*
X112998505Y-62659093D01*
X113049555Y-62795964D01*
X113049555Y-62795965D01*
X113137095Y-62912904D01*
X113254034Y-63000444D01*
X113337773Y-63031677D01*
X113394609Y-63074224D01*
X113419420Y-63140744D01*
X113404329Y-63210118D01*
X113354126Y-63260321D01*
X113337774Y-63267788D01*
X113253797Y-63299110D01*
X113253792Y-63299112D01*
X113136738Y-63386738D01*
X113049112Y-63503792D01*
X113049110Y-63503797D01*
X112998011Y-63640795D01*
X112998009Y-63640804D01*
X112996595Y-63653966D01*
X112969428Y-63719559D01*
X112911110Y-63760051D01*
X112871317Y-63766500D01*
X112473004Y-63766500D01*
X112404883Y-63746498D01*
X112369791Y-63712771D01*
X112276979Y-63580222D01*
X112276974Y-63580216D01*
X112119783Y-63423025D01*
X112119772Y-63423016D01*
X111937677Y-63295512D01*
X111937671Y-63295509D01*
X111923534Y-63288916D01*
X111870250Y-63241997D01*
X111850792Y-63173719D01*
X111871336Y-63105760D01*
X111923544Y-63060526D01*
X111937421Y-63054055D01*
X111937426Y-63054052D01*
X112000603Y-63009814D01*
X112000603Y-63009812D01*
X111321791Y-62331000D01*
X111331569Y-62331000D01*
X111425421Y-62315339D01*
X111537251Y-62254820D01*
X111623371Y-62161269D01*
X111674448Y-62044823D01*
X111680538Y-61971329D01*
X112359812Y-62650603D01*
X112359814Y-62650603D01*
X112404052Y-62587426D01*
X112404053Y-62587425D01*
X112497966Y-62386027D01*
X112497968Y-62386023D01*
X112555482Y-62171374D01*
X112574850Y-61949999D01*
X112555482Y-61728625D01*
X112497968Y-61513976D01*
X112497966Y-61513972D01*
X112404051Y-61312571D01*
X112359815Y-61249395D01*
X112359813Y-61249395D01*
X111684392Y-61924816D01*
X111684949Y-61918102D01*
X111653734Y-61794838D01*
X111584187Y-61688388D01*
X111483843Y-61610287D01*
X111363578Y-61569000D01*
X111321789Y-61569000D01*
X112000603Y-60890186D01*
X112000603Y-60890184D01*
X111937425Y-60845946D01*
X111937421Y-60845944D01*
X111923539Y-60839471D01*
X111870253Y-60792554D01*
X111850792Y-60724277D01*
X111871334Y-60656317D01*
X111923539Y-60611081D01*
X111937671Y-60604491D01*
X111937672Y-60604490D01*
X111937677Y-60604488D01*
X112119781Y-60476977D01*
X112276977Y-60319781D01*
X112344138Y-60223866D01*
X112369792Y-60187229D01*
X112425250Y-60142901D01*
X112473005Y-60133500D01*
X112871317Y-60133500D01*
X112939438Y-60153502D01*
G37*
%TD.AperFunction*%
%TA.AperFunction,Conductor*%
G36*
X121674081Y-57413085D02*
G01*
X121719144Y-57442045D01*
X122819596Y-58542498D01*
X122853620Y-58604808D01*
X122856500Y-58631591D01*
X122856500Y-61695500D01*
X122836498Y-61763621D01*
X122782842Y-61810114D01*
X122730500Y-61821500D01*
X122662910Y-61821500D01*
X122662910Y-61819386D01*
X122602815Y-61808387D01*
X122550975Y-61759878D01*
X122533499Y-61695858D01*
X122533499Y-61491352D01*
X122533499Y-61083846D01*
X122535249Y-61068014D01*
X122534956Y-61067987D01*
X122535701Y-61060094D01*
X122535702Y-61060091D01*
X122533531Y-60991024D01*
X122533500Y-60989045D01*
X122533500Y-60960149D01*
X122533500Y-60960144D01*
X122532619Y-60953178D01*
X122532155Y-60947282D01*
X122530673Y-60900111D01*
X122525022Y-60880664D01*
X122521012Y-60861300D01*
X122518474Y-60841203D01*
X122501097Y-60797314D01*
X122499183Y-60791723D01*
X122486018Y-60746407D01*
X122475706Y-60728970D01*
X122467010Y-60711221D01*
X122459552Y-60692383D01*
X122431812Y-60654203D01*
X122428564Y-60649258D01*
X122404542Y-60608638D01*
X122390214Y-60594310D01*
X122377384Y-60579289D01*
X122365472Y-60562893D01*
X122329119Y-60532819D01*
X122324726Y-60528822D01*
X122107242Y-60311337D01*
X122097279Y-60298902D01*
X122097053Y-60299090D01*
X122092000Y-60292982D01*
X122041626Y-60245678D01*
X122040236Y-60244331D01*
X122029990Y-60234085D01*
X122019776Y-60223870D01*
X122019772Y-60223866D01*
X122014225Y-60219563D01*
X122009717Y-60215712D01*
X121975325Y-60183417D01*
X121975319Y-60183413D01*
X121957563Y-60173651D01*
X121941047Y-60162802D01*
X121925041Y-60150386D01*
X121894289Y-60137078D01*
X121881740Y-60131648D01*
X121876408Y-60129036D01*
X121835061Y-60106305D01*
X121815436Y-60101266D01*
X121796736Y-60094864D01*
X121778145Y-60086819D01*
X121778143Y-60086818D01*
X121778142Y-60086818D01*
X121731542Y-60079437D01*
X121725729Y-60078233D01*
X121680030Y-60066500D01*
X121659776Y-60066500D01*
X121640063Y-60064948D01*
X121614287Y-60060865D01*
X121550134Y-60030452D01*
X121512609Y-59970183D01*
X121508000Y-59936417D01*
X121508000Y-59925000D01*
X119901000Y-59925000D01*
X119832879Y-59904998D01*
X119786386Y-59851342D01*
X119775000Y-59799000D01*
X119775000Y-59601000D01*
X119795002Y-59532879D01*
X119848658Y-59486386D01*
X119901000Y-59475000D01*
X121508000Y-59475000D01*
X121508000Y-59426414D01*
X121507999Y-59426402D01*
X121501494Y-59365903D01*
X121456305Y-59244748D01*
X121451239Y-59173932D01*
X121456301Y-59156691D01*
X121501989Y-59034201D01*
X121508500Y-58973638D01*
X121508500Y-58426362D01*
X121508499Y-58426350D01*
X121501990Y-58365803D01*
X121501988Y-58365795D01*
X121456305Y-58243317D01*
X121451239Y-58172502D01*
X121456305Y-58155251D01*
X121501494Y-58034096D01*
X121507999Y-57973597D01*
X121508000Y-57973585D01*
X121508000Y-57925000D01*
X119901000Y-57925000D01*
X119832879Y-57904998D01*
X119786386Y-57851342D01*
X119775000Y-57799000D01*
X119775000Y-57601000D01*
X119795002Y-57532879D01*
X119848658Y-57486386D01*
X119901000Y-57475000D01*
X121507999Y-57475000D01*
X121540953Y-57442046D01*
X121603265Y-57408021D01*
X121674081Y-57413085D01*
G37*
%TD.AperFunction*%
%TA.AperFunction,Conductor*%
G36*
X114562274Y-55569954D02*
G01*
X114623026Y-55574582D01*
X114679665Y-55617390D01*
X114703160Y-55680136D01*
X114703213Y-55680127D01*
X114703265Y-55680416D01*
X114704061Y-55682540D01*
X114704369Y-55686459D01*
X114704370Y-55686462D01*
X114704370Y-55686465D01*
X114704371Y-55686466D01*
X114706286Y-55693056D01*
X114749732Y-55842600D01*
X114828953Y-55976554D01*
X114846500Y-56040695D01*
X114846499Y-56093125D01*
X114828953Y-56157261D01*
X114769732Y-56257400D01*
X114724370Y-56413534D01*
X114724370Y-56413535D01*
X114721500Y-56450001D01*
X114721500Y-56949987D01*
X114724370Y-56986464D01*
X114724371Y-56986466D01*
X114769731Y-57142596D01*
X114820709Y-57228796D01*
X114848952Y-57276551D01*
X114866499Y-57340691D01*
X114866499Y-57799000D01*
X114866500Y-58215500D01*
X114846498Y-58283621D01*
X114792842Y-58330114D01*
X114740500Y-58341500D01*
X113451350Y-58341500D01*
X113390803Y-58348009D01*
X113390795Y-58348011D01*
X113253797Y-58399110D01*
X113253792Y-58399112D01*
X113136738Y-58486738D01*
X113049112Y-58603792D01*
X113049110Y-58603797D01*
X112998011Y-58740795D01*
X112998009Y-58740804D01*
X112996595Y-58753966D01*
X112969428Y-58819559D01*
X112911110Y-58860051D01*
X112871317Y-58866500D01*
X112473004Y-58866500D01*
X112404883Y-58846498D01*
X112369791Y-58812771D01*
X112276979Y-58680222D01*
X112276974Y-58680216D01*
X112119783Y-58523025D01*
X112119772Y-58523016D01*
X111937677Y-58395512D01*
X111937675Y-58395511D01*
X111736199Y-58301561D01*
X111736193Y-58301559D01*
X111669247Y-58283621D01*
X111521463Y-58244022D01*
X111300000Y-58224647D01*
X111078537Y-58244022D01*
X110980822Y-58270205D01*
X110863806Y-58301559D01*
X110863801Y-58301561D01*
X110662324Y-58395511D01*
X110598769Y-58440013D01*
X110531495Y-58462700D01*
X110462634Y-58445414D01*
X110414051Y-58393644D01*
X110400499Y-58336799D01*
X110400499Y-56421100D01*
X110420501Y-56352979D01*
X110474157Y-56306486D01*
X110544431Y-56296382D01*
X110609011Y-56325876D01*
X110615594Y-56332005D01*
X110689674Y-56406085D01*
X110689681Y-56406091D01*
X110830599Y-56489429D01*
X110987829Y-56535109D01*
X110987824Y-56535109D01*
X111005999Y-56536539D01*
X111006000Y-56536538D01*
X111006000Y-55704500D01*
X111026002Y-55636379D01*
X111079658Y-55589886D01*
X111132000Y-55578500D01*
X111388000Y-55578500D01*
X111456121Y-55598502D01*
X111502614Y-55652158D01*
X111514000Y-55704500D01*
X111514000Y-56536539D01*
X111532173Y-56535109D01*
X111689400Y-56489429D01*
X111830318Y-56406091D01*
X111830325Y-56406085D01*
X111946085Y-56290325D01*
X111946091Y-56290318D01*
X112029429Y-56149400D01*
X112075454Y-55990986D01*
X112113667Y-55931150D01*
X112178164Y-55901473D01*
X112247701Y-55911033D01*
X112261624Y-55917232D01*
X112261625Y-55917232D01*
X112261627Y-55917233D01*
X112448428Y-55956939D01*
X112515258Y-55956939D01*
X112583379Y-55976941D01*
X112629872Y-56030597D01*
X112640568Y-56096109D01*
X112626496Y-56229999D01*
X112646457Y-56419927D01*
X112669040Y-56489429D01*
X112705473Y-56601556D01*
X112705476Y-56601561D01*
X112800958Y-56766941D01*
X112800965Y-56766951D01*
X112928744Y-56908864D01*
X112928747Y-56908866D01*
X113083248Y-57021118D01*
X113257712Y-57098794D01*
X113444513Y-57138500D01*
X113635487Y-57138500D01*
X113822288Y-57098794D01*
X113996752Y-57021118D01*
X114151253Y-56908866D01*
X114279040Y-56766944D01*
X114374527Y-56601556D01*
X114433542Y-56419928D01*
X114453504Y-56230000D01*
X114433542Y-56040072D01*
X114374527Y-55858444D01*
X114316247Y-55757500D01*
X114299509Y-55688505D01*
X114322729Y-55621413D01*
X114378536Y-55577526D01*
X114425366Y-55568500D01*
X114555487Y-55568500D01*
X114562049Y-55567810D01*
X114562274Y-55569954D01*
G37*
%TD.AperFunction*%
%TA.AperFunction,Conductor*%
G36*
X120496817Y-49710730D02*
G01*
X120504907Y-49712274D01*
X120562950Y-49708622D01*
X120566884Y-49708499D01*
X120787585Y-49708499D01*
X120855706Y-49728501D01*
X120876680Y-49745404D01*
X120883181Y-49751905D01*
X120917207Y-49814217D01*
X120912142Y-49885032D01*
X120869595Y-49941868D01*
X120803075Y-49966679D01*
X120794086Y-49967000D01*
X120225000Y-49967000D01*
X120225000Y-50475000D01*
X121554086Y-50475000D01*
X121622207Y-50495002D01*
X121643181Y-50511905D01*
X121917680Y-50786404D01*
X121951706Y-50848716D01*
X121946641Y-50919531D01*
X121904094Y-50976367D01*
X121837574Y-51001178D01*
X121828585Y-51001499D01*
X121634000Y-51001499D01*
X121565879Y-50981497D01*
X121547046Y-50959762D01*
X121544905Y-50961904D01*
X121508001Y-50925000D01*
X119901000Y-50925000D01*
X119832879Y-50904998D01*
X119786386Y-50851342D01*
X119775000Y-50799000D01*
X119775000Y-49953660D01*
X119757022Y-49920738D01*
X119762085Y-49849922D01*
X119791043Y-49804861D01*
X119850503Y-49745401D01*
X119912814Y-49711378D01*
X119939596Y-49708499D01*
X120464971Y-49708499D01*
X120473207Y-49708499D01*
X120496817Y-49710730D01*
G37*
%TD.AperFunction*%
%TA.AperFunction,Conductor*%
G36*
X144867532Y-48032537D02*
G01*
X144924368Y-48075084D01*
X144949179Y-48141604D01*
X144949500Y-48150593D01*
X144949500Y-49841000D01*
X144929498Y-49909121D01*
X144875842Y-49955614D01*
X144823500Y-49967000D01*
X144225000Y-49967000D01*
X144225000Y-50799000D01*
X144204998Y-50867121D01*
X144151342Y-50913614D01*
X144099000Y-50925000D01*
X143901000Y-50925000D01*
X143832879Y-50904998D01*
X143786386Y-50851342D01*
X143775000Y-50799000D01*
X143775000Y-49966999D01*
X143774954Y-49966953D01*
X143740928Y-49904641D01*
X143745993Y-49833826D01*
X143748410Y-49827821D01*
X143749611Y-49825044D01*
X143749614Y-49825041D01*
X143768363Y-49781710D01*
X143770953Y-49776423D01*
X143793695Y-49735060D01*
X143798733Y-49715434D01*
X143805137Y-49696732D01*
X143813180Y-49678147D01*
X143813179Y-49678147D01*
X143813181Y-49678145D01*
X143820561Y-49631547D01*
X143821762Y-49625740D01*
X143833500Y-49580030D01*
X143833500Y-49559775D01*
X143835051Y-49540063D01*
X143838220Y-49520057D01*
X143835629Y-49492651D01*
X143833780Y-49473080D01*
X143833500Y-49467148D01*
X143833500Y-49014593D01*
X143853502Y-48946472D01*
X143870401Y-48925502D01*
X144734405Y-48061497D01*
X144796717Y-48027472D01*
X144867532Y-48032537D01*
G37*
%TD.AperFunction*%
%TA.AperFunction,Conductor*%
G36*
X115247051Y-40133018D02*
G01*
X115295718Y-40165734D01*
X115366760Y-40242906D01*
X115366762Y-40242908D01*
X115416202Y-40281389D01*
X115544424Y-40381189D01*
X115578205Y-40399470D01*
X115628596Y-40449482D01*
X115643949Y-40518799D01*
X115619389Y-40585412D01*
X115578209Y-40621096D01*
X115544704Y-40639228D01*
X115544698Y-40639232D01*
X115367097Y-40777465D01*
X115214674Y-40943041D01*
X115091580Y-41131451D01*
X115001179Y-41337543D01*
X115001176Y-41337550D01*
X114953455Y-41525999D01*
X114953456Y-41526000D01*
X115858884Y-41526000D01*
X115830507Y-41570156D01*
X115790000Y-41708111D01*
X115790000Y-41851889D01*
X115830507Y-41989844D01*
X115858884Y-42034000D01*
X114953455Y-42034000D01*
X115001176Y-42222449D01*
X115001179Y-42222456D01*
X115091580Y-42428548D01*
X115214674Y-42616958D01*
X115367097Y-42782534D01*
X115544698Y-42920767D01*
X115544704Y-42920771D01*
X115578207Y-42938902D01*
X115628597Y-42988915D01*
X115643949Y-43058232D01*
X115619388Y-43124845D01*
X115578207Y-43160528D01*
X115544430Y-43178807D01*
X115544424Y-43178811D01*
X115366762Y-43317091D01*
X115214279Y-43482729D01*
X115214275Y-43482734D01*
X115091139Y-43671209D01*
X115050644Y-43763529D01*
X115012486Y-43812472D01*
X115008641Y-43815454D01*
X114994312Y-43829783D01*
X114979283Y-43842619D01*
X114962893Y-43854527D01*
X114932813Y-43890886D01*
X114928817Y-43895277D01*
X114361333Y-44462760D01*
X114348901Y-44472720D01*
X114349089Y-44472947D01*
X114342982Y-44477999D01*
X114295694Y-44528355D01*
X114294319Y-44529774D01*
X114273863Y-44550231D01*
X114269560Y-44555777D01*
X114265714Y-44560279D01*
X114233417Y-44594674D01*
X114233411Y-44594683D01*
X114223651Y-44612435D01*
X114212803Y-44628950D01*
X114200386Y-44644958D01*
X114181645Y-44688264D01*
X114179034Y-44693594D01*
X114156305Y-44734939D01*
X114156303Y-44734944D01*
X114151267Y-44754559D01*
X114144864Y-44773262D01*
X114136819Y-44791852D01*
X114129437Y-44838456D01*
X114128233Y-44844268D01*
X114116500Y-44889968D01*
X114116500Y-44910223D01*
X114114949Y-44929933D01*
X114111780Y-44949942D01*
X114111780Y-44949943D01*
X114116220Y-44996917D01*
X114116500Y-45002850D01*
X114116500Y-46748994D01*
X114096498Y-46817115D01*
X114079595Y-46838089D01*
X112736336Y-48181347D01*
X112723901Y-48191311D01*
X112724089Y-48191538D01*
X112717979Y-48196592D01*
X112670694Y-48246945D01*
X112669319Y-48248364D01*
X112648863Y-48268821D01*
X112644560Y-48274367D01*
X112640714Y-48278869D01*
X112608417Y-48313264D01*
X112608411Y-48313273D01*
X112598651Y-48331025D01*
X112587803Y-48347540D01*
X112575386Y-48363548D01*
X112556645Y-48406854D01*
X112554034Y-48412184D01*
X112531305Y-48453529D01*
X112531303Y-48453534D01*
X112526267Y-48473149D01*
X112519864Y-48491852D01*
X112511819Y-48510442D01*
X112504437Y-48557046D01*
X112503233Y-48562858D01*
X112491500Y-48608558D01*
X112491500Y-48628813D01*
X112489949Y-48648523D01*
X112486780Y-48668532D01*
X112486780Y-48668533D01*
X112491220Y-48715507D01*
X112491500Y-48721440D01*
X112491500Y-49098516D01*
X112483326Y-49139607D01*
X112483657Y-49139696D01*
X112482304Y-49144743D01*
X112481909Y-49146733D01*
X112481520Y-49147671D01*
X112481519Y-49147676D01*
X112466500Y-49261753D01*
X112466500Y-49841000D01*
X112446498Y-49909121D01*
X112392842Y-49955614D01*
X112340500Y-49967000D01*
X112300000Y-49967000D01*
X112300000Y-50490500D01*
X112279998Y-50558621D01*
X112226342Y-50605114D01*
X112174000Y-50616500D01*
X112126000Y-50616500D01*
X112057879Y-50596498D01*
X112011386Y-50542842D01*
X112000000Y-50490500D01*
X112000000Y-49967000D01*
X111761783Y-49967000D01*
X111647805Y-49982006D01*
X111505985Y-50040748D01*
X111401202Y-50121151D01*
X111334982Y-50146751D01*
X111265433Y-50132486D01*
X111214638Y-50082885D01*
X111198499Y-50021188D01*
X111198499Y-49389595D01*
X111218501Y-49321474D01*
X111235404Y-49300499D01*
X111243325Y-49292578D01*
X111316134Y-49219770D01*
X111316133Y-49219770D01*
X111748663Y-48787240D01*
X111761097Y-48777281D01*
X111760909Y-48777054D01*
X111767014Y-48772003D01*
X111767015Y-48772001D01*
X111767018Y-48772000D01*
X111814337Y-48721608D01*
X111815652Y-48720251D01*
X111836135Y-48699770D01*
X111840445Y-48694212D01*
X111844274Y-48689729D01*
X111876586Y-48655321D01*
X111886346Y-48637565D01*
X111897195Y-48621050D01*
X111909614Y-48605041D01*
X111928363Y-48561710D01*
X111930953Y-48556423D01*
X111953695Y-48515060D01*
X111958733Y-48495434D01*
X111965137Y-48476732D01*
X111973180Y-48458147D01*
X111973179Y-48458147D01*
X111973181Y-48458145D01*
X111980561Y-48411547D01*
X111981762Y-48405740D01*
X111993500Y-48360030D01*
X111993500Y-48339775D01*
X111995051Y-48320064D01*
X111995315Y-48318399D01*
X111998220Y-48300057D01*
X111995267Y-48268820D01*
X111993779Y-48253079D01*
X111993499Y-48247146D01*
X111993499Y-47958434D01*
X111993499Y-47636035D01*
X111995048Y-47616351D01*
X112018220Y-47470057D01*
X112003157Y-47310708D01*
X112000948Y-47304572D01*
X111993500Y-47261894D01*
X111993500Y-44909699D01*
X112013502Y-44841578D01*
X112043991Y-44808831D01*
X112138261Y-44738261D01*
X112225887Y-44621207D01*
X112225887Y-44621206D01*
X112225889Y-44621204D01*
X112276989Y-44484201D01*
X112276989Y-44484199D01*
X112277859Y-44480522D01*
X112279316Y-44477963D01*
X112279744Y-44476816D01*
X112279929Y-44476885D01*
X112312991Y-44418827D01*
X112375901Y-44385921D01*
X112400481Y-44383500D01*
X112956147Y-44383500D01*
X112971988Y-44385249D01*
X112972016Y-44384956D01*
X112979901Y-44385700D01*
X112979909Y-44385702D01*
X113041208Y-44383775D01*
X113048976Y-44383531D01*
X113050955Y-44383500D01*
X113079851Y-44383500D01*
X113079856Y-44383500D01*
X113086818Y-44382619D01*
X113092719Y-44382154D01*
X113139889Y-44380673D01*
X113159347Y-44375019D01*
X113178694Y-44371013D01*
X113198797Y-44368474D01*
X113242679Y-44351099D01*
X113248274Y-44349183D01*
X113276816Y-44340891D01*
X113293591Y-44336019D01*
X113293595Y-44336017D01*
X113311026Y-44325708D01*
X113328780Y-44317009D01*
X113347617Y-44309552D01*
X113385786Y-44281818D01*
X113390744Y-44278562D01*
X113431362Y-44254542D01*
X113445685Y-44240218D01*
X113460724Y-44227374D01*
X113477107Y-44215472D01*
X113507193Y-44179103D01*
X113511161Y-44174741D01*
X114358657Y-43327245D01*
X114371092Y-43317284D01*
X114370905Y-43317057D01*
X114377016Y-43312001D01*
X114377015Y-43312001D01*
X114377018Y-43312000D01*
X114424352Y-43261592D01*
X114425667Y-43260235D01*
X114446135Y-43239769D01*
X114450437Y-43234221D01*
X114454267Y-43229735D01*
X114486586Y-43195321D01*
X114496345Y-43177567D01*
X114507204Y-43161038D01*
X114507600Y-43160528D01*
X114519614Y-43145040D01*
X114538354Y-43101732D01*
X114540965Y-43096404D01*
X114550206Y-43079595D01*
X114563695Y-43055060D01*
X114568733Y-43035435D01*
X114575138Y-43016730D01*
X114575541Y-43015799D01*
X114583181Y-42998145D01*
X114590561Y-42951547D01*
X114591762Y-42945740D01*
X114603500Y-42900030D01*
X114603500Y-42879775D01*
X114605051Y-42860063D01*
X114608220Y-42840057D01*
X114605629Y-42812651D01*
X114603780Y-42793080D01*
X114603500Y-42787148D01*
X114603500Y-40724594D01*
X114623502Y-40656473D01*
X114640399Y-40635504D01*
X115113927Y-40161976D01*
X115176236Y-40127954D01*
X115247051Y-40133018D01*
G37*
%TD.AperFunction*%
%TA.AperFunction,Conductor*%
G36*
X142953621Y-43666002D02*
G01*
X143000114Y-43719658D01*
X143011500Y-43772000D01*
X143011500Y-44135493D01*
X143014393Y-44172251D01*
X143014393Y-44172252D01*
X143016386Y-44179112D01*
X143058976Y-44325708D01*
X143060107Y-44329599D01*
X143076453Y-44357238D01*
X143094000Y-44421378D01*
X143094000Y-44665809D01*
X143073998Y-44733930D01*
X143057095Y-44754904D01*
X143054000Y-44757999D01*
X143054000Y-44862458D01*
X143048998Y-44897609D01*
X143044370Y-44913537D01*
X143041500Y-44950002D01*
X143041500Y-45449987D01*
X143044370Y-45486465D01*
X143048997Y-45502389D01*
X143054000Y-45537541D01*
X143054000Y-46020014D01*
X143065237Y-46028451D01*
X143096342Y-46028540D01*
X143155959Y-46067093D01*
X143185268Y-46131758D01*
X143186500Y-46149335D01*
X143186500Y-47128994D01*
X143166498Y-47197115D01*
X143149595Y-47218089D01*
X142738585Y-47629099D01*
X142676273Y-47663125D01*
X142605458Y-47658060D01*
X142548622Y-47615513D01*
X142523811Y-47548993D01*
X142523490Y-47540004D01*
X142523490Y-46099872D01*
X142543492Y-46031751D01*
X142546000Y-46029053D01*
X142546000Y-44424191D01*
X142566002Y-44356070D01*
X142582905Y-44335096D01*
X142586000Y-44332001D01*
X142586000Y-43772000D01*
X142606002Y-43703879D01*
X142659658Y-43657386D01*
X142712000Y-43646000D01*
X142885500Y-43646000D01*
X142953621Y-43666002D01*
G37*
%TD.AperFunction*%
%TA.AperFunction,Conductor*%
G36*
X113254532Y-40205536D02*
G01*
X113311368Y-40248083D01*
X113336179Y-40314603D01*
X113336500Y-40323592D01*
X113336500Y-40350223D01*
X113334949Y-40369933D01*
X113331780Y-40389942D01*
X113331780Y-40389943D01*
X113336220Y-40436917D01*
X113336500Y-40442850D01*
X113336500Y-42505405D01*
X113316498Y-42573526D01*
X113299595Y-42594500D01*
X112814500Y-43079595D01*
X112752188Y-43113621D01*
X112725405Y-43116500D01*
X112400481Y-43116500D01*
X112332360Y-43096498D01*
X112285867Y-43042842D01*
X112277859Y-43019478D01*
X112276989Y-43015799D01*
X112253024Y-42951547D01*
X112240629Y-42918317D01*
X112235564Y-42847503D01*
X112240629Y-42830252D01*
X112276494Y-42734092D01*
X112282999Y-42673597D01*
X112283000Y-42673585D01*
X112283000Y-42254000D01*
X111434034Y-42254000D01*
X111473371Y-42211269D01*
X111524448Y-42094823D01*
X111534949Y-41968102D01*
X111503734Y-41844838D01*
X111439160Y-41746000D01*
X112283000Y-41746000D01*
X112283000Y-41326414D01*
X112282999Y-41326402D01*
X112276494Y-41265907D01*
X112240629Y-41169748D01*
X112235564Y-41098932D01*
X112240630Y-41081682D01*
X112276988Y-40984204D01*
X112276990Y-40984196D01*
X112277841Y-40976281D01*
X112305009Y-40910689D01*
X112361462Y-40871490D01*
X112361424Y-40871394D01*
X112361838Y-40871229D01*
X112363326Y-40870197D01*
X112367695Y-40868910D01*
X112368795Y-40868474D01*
X112368797Y-40868474D01*
X112412679Y-40851099D01*
X112418274Y-40849183D01*
X112446816Y-40840891D01*
X112463591Y-40836019D01*
X112463595Y-40836017D01*
X112481026Y-40825708D01*
X112498780Y-40817009D01*
X112517617Y-40809552D01*
X112555786Y-40781818D01*
X112560744Y-40778562D01*
X112601362Y-40754542D01*
X112615685Y-40740218D01*
X112630724Y-40727374D01*
X112647107Y-40715472D01*
X112677193Y-40679103D01*
X112681161Y-40674741D01*
X113121407Y-40234495D01*
X113183717Y-40200471D01*
X113254532Y-40205536D01*
G37*
%TD.AperFunction*%
%TA.AperFunction,Conductor*%
G36*
X110826629Y-41788731D02*
G01*
X110775552Y-41905177D01*
X110765051Y-42031898D01*
X110796266Y-42155162D01*
X110860840Y-42254000D01*
X110526500Y-42254000D01*
X110458379Y-42233998D01*
X110455502Y-42230678D01*
X110473371Y-42211269D01*
X110524448Y-42094823D01*
X110534949Y-41968102D01*
X110503734Y-41844838D01*
X110456560Y-41772633D01*
X110474158Y-41757386D01*
X110526500Y-41746000D01*
X110865966Y-41746000D01*
X110826629Y-41788731D01*
G37*
%TD.AperFunction*%
%TA.AperFunction,Conductor*%
G36*
X123941121Y-34816002D02*
G01*
X123987614Y-34869658D01*
X123999000Y-34922000D01*
X123999000Y-36579991D01*
X124158400Y-36533681D01*
X124191360Y-36514189D01*
X124260177Y-36496729D01*
X124327508Y-36519245D01*
X124371977Y-36574590D01*
X124381500Y-36622642D01*
X124381500Y-39831146D01*
X124379751Y-39846988D01*
X124380044Y-39847016D01*
X124379298Y-39854908D01*
X124381469Y-39923974D01*
X124381500Y-39925953D01*
X124381500Y-39954851D01*
X124381501Y-39954872D01*
X124382378Y-39961820D01*
X124382844Y-39967732D01*
X124384326Y-40014888D01*
X124384327Y-40014893D01*
X124389977Y-40034339D01*
X124393986Y-40053697D01*
X124396525Y-40073793D01*
X124396526Y-40073799D01*
X124413893Y-40117662D01*
X124415816Y-40123279D01*
X124428982Y-40168593D01*
X124439294Y-40186031D01*
X124447988Y-40203779D01*
X124455444Y-40222609D01*
X124455450Y-40222620D01*
X124483177Y-40260783D01*
X124486437Y-40265746D01*
X124510460Y-40306365D01*
X124524779Y-40320684D01*
X124537617Y-40335714D01*
X124547156Y-40348843D01*
X124549528Y-40352107D01*
X124559241Y-40360142D01*
X124585886Y-40382185D01*
X124590267Y-40386171D01*
X125013647Y-40809551D01*
X125405491Y-41201395D01*
X125439517Y-41263707D01*
X125434452Y-41334522D01*
X125391905Y-41391358D01*
X125325385Y-41416169D01*
X125316396Y-41416490D01*
X123633864Y-41416490D01*
X123618022Y-41414740D01*
X123617995Y-41415034D01*
X123610102Y-41414287D01*
X123541022Y-41416459D01*
X123539043Y-41416490D01*
X123510154Y-41416490D01*
X123510150Y-41416490D01*
X123510139Y-41416491D01*
X123503200Y-41417367D01*
X123497287Y-41417833D01*
X123450121Y-41419315D01*
X123430660Y-41424969D01*
X123411314Y-41428975D01*
X123391214Y-41431515D01*
X123391213Y-41431515D01*
X123347345Y-41448883D01*
X123341730Y-41450805D01*
X123296423Y-41463968D01*
X123296414Y-41463972D01*
X123278972Y-41474287D01*
X123261225Y-41482981D01*
X123242393Y-41490437D01*
X123242391Y-41490438D01*
X123204224Y-41518168D01*
X123199264Y-41521426D01*
X123158646Y-41545449D01*
X123158643Y-41545451D01*
X123144322Y-41559773D01*
X123129293Y-41572609D01*
X123112903Y-41584517D01*
X123082818Y-41620882D01*
X123078823Y-41625271D01*
X122948593Y-41755501D01*
X122886284Y-41789525D01*
X122815468Y-41784461D01*
X122758632Y-41741914D01*
X122733821Y-41675394D01*
X122733500Y-41666405D01*
X122733500Y-36203516D01*
X122753502Y-36135395D01*
X122807158Y-36088902D01*
X122877432Y-36078798D01*
X122942012Y-36108292D01*
X122980396Y-36168018D01*
X122980497Y-36168363D01*
X122986318Y-36188400D01*
X123070948Y-36331501D01*
X123070949Y-36331503D01*
X123188497Y-36449051D01*
X123331600Y-36533681D01*
X123491000Y-36579991D01*
X123491000Y-34922000D01*
X123511002Y-34853879D01*
X123564658Y-34807386D01*
X123617000Y-34796000D01*
X123873000Y-34796000D01*
X123941121Y-34816002D01*
G37*
%TD.AperFunction*%
%TD*%
M02*
