%TF.GenerationSoftware,KiCad,Pcbnew,7.0.5*%
%TF.CreationDate,2024-02-13T07:46:18-05:00*%
%TF.ProjectId,N64SP PCB,4e363453-5020-4504-9342-2e6b69636164,rev?*%
%TF.SameCoordinates,Original*%
%TF.FileFunction,Soldermask,Top*%
%TF.FilePolarity,Negative*%
%FSLAX46Y46*%
G04 Gerber Fmt 4.6, Leading zero omitted, Abs format (unit mm)*
G04 Created by KiCad (PCBNEW 7.0.5) date 2024-02-13 07:46:18*
%MOMM*%
%LPD*%
G01*
G04 APERTURE LIST*
G04 APERTURE END LIST*
G36*
X116594517Y-69677882D02*
G01*
X116611062Y-69688938D01*
X116622118Y-69705483D01*
X116626000Y-69725000D01*
X116626000Y-70724999D01*
X116626000Y-70725000D01*
X116626000Y-71975000D01*
X116622118Y-71994517D01*
X116611062Y-72011062D01*
X116594517Y-72022118D01*
X116575000Y-72026000D01*
X115325000Y-72026000D01*
X115305483Y-72022118D01*
X115288938Y-72011062D01*
X115277882Y-71994517D01*
X115274000Y-71975000D01*
X115274000Y-70725000D01*
X115274000Y-70724999D01*
X115274000Y-69728449D01*
X115274000Y-69728448D01*
X115274000Y-69725000D01*
X115277882Y-69705483D01*
X115288938Y-69688938D01*
X115305483Y-69677882D01*
X115325000Y-69674000D01*
X116575000Y-69674000D01*
X116594517Y-69677882D01*
G37*
G36*
X118344517Y-69677882D02*
G01*
X118361062Y-69688938D01*
X118372118Y-69705483D01*
X118376000Y-69725000D01*
X118376000Y-70724999D01*
X118376000Y-70725000D01*
X118376000Y-71975000D01*
X118372118Y-71994517D01*
X118361062Y-72011062D01*
X118344517Y-72022118D01*
X118325000Y-72026000D01*
X117075000Y-72026000D01*
X117055483Y-72022118D01*
X117038938Y-72011062D01*
X117027882Y-71994517D01*
X117024000Y-71975000D01*
X117024000Y-70725000D01*
X117024000Y-70724999D01*
X117024000Y-69728449D01*
X117024000Y-69728448D01*
X117024000Y-69725000D01*
X117027882Y-69705483D01*
X117038938Y-69688938D01*
X117055483Y-69677882D01*
X117075000Y-69674000D01*
X118325000Y-69674000D01*
X118344517Y-69677882D01*
G37*
G36*
X120094517Y-69677882D02*
G01*
X120111062Y-69688938D01*
X120122118Y-69705483D01*
X120126000Y-69725000D01*
X120126000Y-70725000D01*
X120126000Y-71975000D01*
X120122118Y-71994517D01*
X120111062Y-72011062D01*
X120094517Y-72022118D01*
X120075000Y-72026000D01*
X118825000Y-72026000D01*
X118805483Y-72022118D01*
X118788938Y-72011062D01*
X118777882Y-71994517D01*
X118774000Y-71975000D01*
X118774000Y-70725000D01*
X118774000Y-70724999D01*
X118774000Y-69728449D01*
X118774000Y-69728448D01*
X118774000Y-69725000D01*
X118777882Y-69705483D01*
X118788938Y-69688938D01*
X118805483Y-69677882D01*
X118825000Y-69674000D01*
X120075000Y-69674000D01*
X120094517Y-69677882D01*
G37*
G36*
X121844517Y-69677882D02*
G01*
X121861062Y-69688938D01*
X121872118Y-69705483D01*
X121876000Y-69725000D01*
X121876000Y-70725000D01*
X121876000Y-71975000D01*
X121872118Y-71994517D01*
X121861062Y-72011062D01*
X121844517Y-72022118D01*
X121825000Y-72026000D01*
X120575000Y-72026000D01*
X120555483Y-72022118D01*
X120538938Y-72011062D01*
X120527882Y-71994517D01*
X120524000Y-71975000D01*
X120524000Y-70725000D01*
X120524000Y-70724995D01*
X120523999Y-69728449D01*
X120524000Y-69728443D01*
X120524000Y-69725000D01*
X120527882Y-69705483D01*
X120538938Y-69688938D01*
X120555483Y-69677882D01*
X120575000Y-69674000D01*
X121825000Y-69674000D01*
X121844517Y-69677882D01*
G37*
G36*
X123594517Y-69677882D02*
G01*
X123611062Y-69688938D01*
X123622118Y-69705483D01*
X123626000Y-69725000D01*
X123626000Y-70724999D01*
X123626000Y-70725000D01*
X123626000Y-71975000D01*
X123622118Y-71994517D01*
X123611062Y-72011062D01*
X123594517Y-72022118D01*
X123575000Y-72026000D01*
X122325000Y-72026000D01*
X122305483Y-72022118D01*
X122288938Y-72011062D01*
X122277882Y-71994517D01*
X122274000Y-71975000D01*
X122274000Y-70725000D01*
X122274000Y-70724999D01*
X122274000Y-69728449D01*
X122274000Y-69728448D01*
X122274000Y-69725000D01*
X122277882Y-69705483D01*
X122288938Y-69688938D01*
X122305483Y-69677882D01*
X122325000Y-69674000D01*
X123575000Y-69674000D01*
X123594517Y-69677882D01*
G37*
G36*
X125344517Y-69677882D02*
G01*
X125361062Y-69688938D01*
X125372118Y-69705483D01*
X125376000Y-69725000D01*
X125376000Y-70724999D01*
X125376000Y-70725000D01*
X125376000Y-71975000D01*
X125372118Y-71994517D01*
X125361062Y-72011062D01*
X125344517Y-72022118D01*
X125325000Y-72026000D01*
X124075000Y-72026000D01*
X124055483Y-72022118D01*
X124038938Y-72011062D01*
X124027882Y-71994517D01*
X124024000Y-71975000D01*
X124024000Y-70725000D01*
X124024000Y-70724999D01*
X124024000Y-69728449D01*
X124024000Y-69728448D01*
X124024000Y-69725000D01*
X124027882Y-69705483D01*
X124038938Y-69688938D01*
X124055483Y-69677882D01*
X124075000Y-69674000D01*
X125325000Y-69674000D01*
X125344517Y-69677882D01*
G37*
G36*
X127094517Y-69677882D02*
G01*
X127111062Y-69688938D01*
X127122118Y-69705483D01*
X127126000Y-69725000D01*
X127126000Y-70725000D01*
X127126000Y-71975000D01*
X127122118Y-71994517D01*
X127111062Y-72011062D01*
X127094517Y-72022118D01*
X127075000Y-72026000D01*
X125825000Y-72026000D01*
X125805483Y-72022118D01*
X125788938Y-72011062D01*
X125777882Y-71994517D01*
X125774000Y-71975000D01*
X125774000Y-70725000D01*
X125774000Y-70724999D01*
X125774000Y-69728449D01*
X125774000Y-69728448D01*
X125774000Y-69725000D01*
X125777882Y-69705483D01*
X125788938Y-69688938D01*
X125805483Y-69677882D01*
X125825000Y-69674000D01*
X127075000Y-69674000D01*
X127094517Y-69677882D01*
G37*
G36*
X128844517Y-69677882D02*
G01*
X128861062Y-69688938D01*
X128872118Y-69705483D01*
X128876000Y-69725000D01*
X128876000Y-70725000D01*
X128876000Y-71975000D01*
X128872118Y-71994517D01*
X128861062Y-72011062D01*
X128844517Y-72022118D01*
X128825000Y-72026000D01*
X127575000Y-72026000D01*
X127555483Y-72022118D01*
X127538938Y-72011062D01*
X127527882Y-71994517D01*
X127524000Y-71975000D01*
X127524000Y-70725000D01*
X127524000Y-70724999D01*
X127524000Y-69728449D01*
X127524000Y-69728448D01*
X127524000Y-69725000D01*
X127527882Y-69705483D01*
X127538938Y-69688938D01*
X127555483Y-69677882D01*
X127575000Y-69674000D01*
X128825000Y-69674000D01*
X128844517Y-69677882D01*
G37*
G36*
X130594517Y-69677882D02*
G01*
X130611062Y-69688938D01*
X130622118Y-69705483D01*
X130626000Y-69725000D01*
X130626000Y-70724999D01*
X130626000Y-70725000D01*
X130626000Y-71975000D01*
X130622118Y-71994517D01*
X130611062Y-72011062D01*
X130594517Y-72022118D01*
X130575000Y-72026000D01*
X129325000Y-72026000D01*
X129305483Y-72022118D01*
X129288938Y-72011062D01*
X129277882Y-71994517D01*
X129274000Y-71975000D01*
X129274000Y-70725000D01*
X129274000Y-69728449D01*
X129274000Y-69728448D01*
X129274000Y-69725000D01*
X129277882Y-69705483D01*
X129288938Y-69688938D01*
X129305483Y-69677882D01*
X129325000Y-69674000D01*
X130575000Y-69674000D01*
X130594517Y-69677882D01*
G37*
G36*
X132344517Y-69677882D02*
G01*
X132361062Y-69688938D01*
X132372118Y-69705483D01*
X132376000Y-69725000D01*
X132376000Y-70724999D01*
X132376000Y-70725000D01*
X132376000Y-71975000D01*
X132372118Y-71994517D01*
X132361062Y-72011062D01*
X132344517Y-72022118D01*
X132325000Y-72026000D01*
X131075000Y-72026000D01*
X131055483Y-72022118D01*
X131038938Y-72011062D01*
X131027882Y-71994517D01*
X131024000Y-71975000D01*
X131024000Y-70725000D01*
X131024000Y-70724999D01*
X131024000Y-69728449D01*
X131024000Y-69728448D01*
X131024000Y-69725000D01*
X131027882Y-69705483D01*
X131038938Y-69688938D01*
X131055483Y-69677882D01*
X131075000Y-69674000D01*
X132325000Y-69674000D01*
X132344517Y-69677882D01*
G37*
G36*
X134094517Y-69677882D02*
G01*
X134111062Y-69688938D01*
X134122118Y-69705483D01*
X134126000Y-69725000D01*
X134126000Y-70725000D01*
X134126000Y-71975000D01*
X134122118Y-71994517D01*
X134111062Y-72011062D01*
X134094517Y-72022118D01*
X134075000Y-72026000D01*
X132825000Y-72026000D01*
X132805483Y-72022118D01*
X132788938Y-72011062D01*
X132777882Y-71994517D01*
X132774000Y-71975000D01*
X132774000Y-70725000D01*
X132774000Y-70724999D01*
X132774000Y-69728449D01*
X132774000Y-69728448D01*
X132774000Y-69725000D01*
X132777882Y-69705483D01*
X132788938Y-69688938D01*
X132805483Y-69677882D01*
X132825000Y-69674000D01*
X134075000Y-69674000D01*
X134094517Y-69677882D01*
G37*
G36*
X135844517Y-69677882D02*
G01*
X135861062Y-69688938D01*
X135872118Y-69705483D01*
X135876000Y-69725000D01*
X135876000Y-70725000D01*
X135876000Y-71975000D01*
X135872118Y-71994517D01*
X135861062Y-72011062D01*
X135844517Y-72022118D01*
X135825000Y-72026000D01*
X134575000Y-72026000D01*
X134555483Y-72022118D01*
X134538938Y-72011062D01*
X134527882Y-71994517D01*
X134524000Y-71975000D01*
X134524000Y-70725000D01*
X134524000Y-70724999D01*
X134524000Y-69728449D01*
X134524000Y-69728448D01*
X134524000Y-69725000D01*
X134527882Y-69705483D01*
X134538938Y-69688938D01*
X134555483Y-69677882D01*
X134575000Y-69674000D01*
X135825000Y-69674000D01*
X135844517Y-69677882D01*
G37*
G36*
X137594517Y-69677882D02*
G01*
X137611062Y-69688938D01*
X137622118Y-69705483D01*
X137626000Y-69725000D01*
X137626000Y-70724999D01*
X137626000Y-70725000D01*
X137626000Y-71975000D01*
X137622118Y-71994517D01*
X137611062Y-72011062D01*
X137594517Y-72022118D01*
X137575000Y-72026000D01*
X136325000Y-72026000D01*
X136305483Y-72022118D01*
X136288938Y-72011062D01*
X136277882Y-71994517D01*
X136274000Y-71975000D01*
X136274000Y-70725000D01*
X136274000Y-70724999D01*
X136274000Y-69728449D01*
X136274000Y-69728448D01*
X136274000Y-69725000D01*
X136277882Y-69705483D01*
X136288938Y-69688938D01*
X136305483Y-69677882D01*
X136325000Y-69674000D01*
X137575000Y-69674000D01*
X137594517Y-69677882D01*
G37*
G36*
X139344517Y-69677882D02*
G01*
X139361062Y-69688938D01*
X139372118Y-69705483D01*
X139376000Y-69725000D01*
X139376000Y-70724999D01*
X139376000Y-70725000D01*
X139376000Y-71975000D01*
X139372118Y-71994517D01*
X139361062Y-72011062D01*
X139344517Y-72022118D01*
X139325000Y-72026000D01*
X138075000Y-72026000D01*
X138055483Y-72022118D01*
X138038938Y-72011062D01*
X138027882Y-71994517D01*
X138024000Y-71975000D01*
X138024000Y-70725000D01*
X138024000Y-69728449D01*
X138024000Y-69728448D01*
X138024000Y-69725000D01*
X138027882Y-69705483D01*
X138038938Y-69688938D01*
X138055483Y-69677882D01*
X138075000Y-69674000D01*
X139325000Y-69674000D01*
X139344517Y-69677882D01*
G37*
G36*
X141094517Y-69677882D02*
G01*
X141111062Y-69688938D01*
X141122118Y-69705483D01*
X141126000Y-69725000D01*
X141126000Y-70725000D01*
X141126000Y-71975000D01*
X141122118Y-71994517D01*
X141111062Y-72011062D01*
X141094517Y-72022118D01*
X141075000Y-72026000D01*
X139825000Y-72026000D01*
X139805483Y-72022118D01*
X139788938Y-72011062D01*
X139777882Y-71994517D01*
X139774000Y-71975000D01*
X139774000Y-70725000D01*
X139774000Y-70724999D01*
X139774000Y-69728449D01*
X139774000Y-69728448D01*
X139774000Y-69725000D01*
X139777882Y-69705483D01*
X139788938Y-69688938D01*
X139805483Y-69677882D01*
X139825000Y-69674000D01*
X141075000Y-69674000D01*
X141094517Y-69677882D01*
G37*
G36*
X142844517Y-69677882D02*
G01*
X142861062Y-69688938D01*
X142872118Y-69705483D01*
X142876000Y-69725000D01*
X142876000Y-70725000D01*
X142876000Y-71975000D01*
X142872118Y-71994517D01*
X142861062Y-72011062D01*
X142844517Y-72022118D01*
X142825000Y-72026000D01*
X141575000Y-72026000D01*
X141555483Y-72022118D01*
X141538938Y-72011062D01*
X141527882Y-71994517D01*
X141524000Y-71975000D01*
X141524000Y-70725000D01*
X141524000Y-69728449D01*
X141524000Y-69728448D01*
X141524000Y-69725000D01*
X141527882Y-69705483D01*
X141538938Y-69688938D01*
X141555483Y-69677882D01*
X141575000Y-69674000D01*
X142825000Y-69674000D01*
X142844517Y-69677882D01*
G37*
G36*
X112674986Y-68042939D02*
G01*
X112873045Y-68119667D01*
X113053632Y-68231482D01*
X113210599Y-68374576D01*
X113338600Y-68544077D01*
X113433276Y-68734211D01*
X113491402Y-68938504D01*
X113511000Y-69150000D01*
X113491402Y-69361496D01*
X113433276Y-69565789D01*
X113338600Y-69755923D01*
X113210599Y-69925424D01*
X113053632Y-70068518D01*
X112873045Y-70180333D01*
X112674986Y-70257061D01*
X112466201Y-70296090D01*
X112253799Y-70296090D01*
X112045014Y-70257061D01*
X111846955Y-70180333D01*
X111666368Y-70068518D01*
X111509401Y-69925424D01*
X111381400Y-69755923D01*
X111286724Y-69565789D01*
X111228598Y-69361496D01*
X111209000Y-69150000D01*
X111228598Y-68938504D01*
X111286724Y-68734211D01*
X111381400Y-68544077D01*
X111509401Y-68374576D01*
X111666368Y-68231482D01*
X111846955Y-68119667D01*
X112045014Y-68042939D01*
X112253799Y-68003910D01*
X112466201Y-68003910D01*
X112674986Y-68042939D01*
G37*
G36*
X123244517Y-64652882D02*
G01*
X123261062Y-64663938D01*
X123272118Y-64680483D01*
X123276000Y-64700000D01*
X123276000Y-66700000D01*
X123272118Y-66719517D01*
X123261062Y-66736062D01*
X123244517Y-66747118D01*
X123225000Y-66751000D01*
X122775000Y-66751000D01*
X122755483Y-66747118D01*
X122738938Y-66736062D01*
X122727882Y-66719517D01*
X122724000Y-66700000D01*
X122724000Y-64700000D01*
X122727882Y-64680483D01*
X122738938Y-64663938D01*
X122755483Y-64652882D01*
X122775000Y-64649000D01*
X123225000Y-64649000D01*
X123244517Y-64652882D01*
G37*
G36*
X124244517Y-64652882D02*
G01*
X124261062Y-64663938D01*
X124272118Y-64680483D01*
X124276000Y-64700000D01*
X124276000Y-66700000D01*
X124272118Y-66719517D01*
X124261062Y-66736062D01*
X124244517Y-66747118D01*
X124225000Y-66751000D01*
X123775000Y-66751000D01*
X123755483Y-66747118D01*
X123738938Y-66736062D01*
X123727882Y-66719517D01*
X123724000Y-66700000D01*
X123724000Y-64700000D01*
X123727882Y-64680483D01*
X123738938Y-64663938D01*
X123755483Y-64652882D01*
X123775000Y-64649000D01*
X124225000Y-64649000D01*
X124244517Y-64652882D01*
G37*
G36*
X125244517Y-64652882D02*
G01*
X125261062Y-64663938D01*
X125272118Y-64680483D01*
X125276000Y-64700000D01*
X125276000Y-66700000D01*
X125272118Y-66719517D01*
X125261062Y-66736062D01*
X125244517Y-66747118D01*
X125225000Y-66751000D01*
X124775000Y-66751000D01*
X124755483Y-66747118D01*
X124738938Y-66736062D01*
X124727882Y-66719517D01*
X124724000Y-66700000D01*
X124724000Y-64700000D01*
X124727882Y-64680483D01*
X124738938Y-64663938D01*
X124755483Y-64652882D01*
X124775000Y-64649000D01*
X125225000Y-64649000D01*
X125244517Y-64652882D01*
G37*
G36*
X126244517Y-64652882D02*
G01*
X126261062Y-64663938D01*
X126272118Y-64680483D01*
X126276000Y-64700000D01*
X126276000Y-66700000D01*
X126272118Y-66719517D01*
X126261062Y-66736062D01*
X126244517Y-66747118D01*
X126225000Y-66751000D01*
X125775000Y-66751000D01*
X125755483Y-66747118D01*
X125738938Y-66736062D01*
X125727882Y-66719517D01*
X125724000Y-66700000D01*
X125724000Y-64700000D01*
X125727882Y-64680483D01*
X125738938Y-64663938D01*
X125755483Y-64652882D01*
X125775000Y-64649000D01*
X126225000Y-64649000D01*
X126244517Y-64652882D01*
G37*
G36*
X127244517Y-64652882D02*
G01*
X127261062Y-64663938D01*
X127272118Y-64680483D01*
X127276000Y-64700000D01*
X127276000Y-66700000D01*
X127272118Y-66719517D01*
X127261062Y-66736062D01*
X127244517Y-66747118D01*
X127225000Y-66751000D01*
X126775000Y-66751000D01*
X126755483Y-66747118D01*
X126738938Y-66736062D01*
X126727882Y-66719517D01*
X126724000Y-66700000D01*
X126724000Y-64700000D01*
X126727882Y-64680483D01*
X126738938Y-64663938D01*
X126755483Y-64652882D01*
X126775000Y-64649000D01*
X127225000Y-64649000D01*
X127244517Y-64652882D01*
G37*
G36*
X128244517Y-64652882D02*
G01*
X128261062Y-64663938D01*
X128272118Y-64680483D01*
X128276000Y-64700000D01*
X128276000Y-66700000D01*
X128272118Y-66719517D01*
X128261062Y-66736062D01*
X128244517Y-66747118D01*
X128225000Y-66751000D01*
X127775000Y-66751000D01*
X127755483Y-66747118D01*
X127738938Y-66736062D01*
X127727882Y-66719517D01*
X127724000Y-66700000D01*
X127724000Y-64700000D01*
X127727882Y-64680483D01*
X127738938Y-64663938D01*
X127755483Y-64652882D01*
X127775000Y-64649000D01*
X128225000Y-64649000D01*
X128244517Y-64652882D01*
G37*
G36*
X129244517Y-64652882D02*
G01*
X129261062Y-64663938D01*
X129272118Y-64680483D01*
X129276000Y-64700000D01*
X129276000Y-66700000D01*
X129272118Y-66719517D01*
X129261062Y-66736062D01*
X129244517Y-66747118D01*
X129225000Y-66751000D01*
X128775000Y-66751000D01*
X128755483Y-66747118D01*
X128738938Y-66736062D01*
X128727882Y-66719517D01*
X128724000Y-66700000D01*
X128724000Y-64700000D01*
X128727882Y-64680483D01*
X128738938Y-64663938D01*
X128755483Y-64652882D01*
X128775000Y-64649000D01*
X129225000Y-64649000D01*
X129244517Y-64652882D01*
G37*
G36*
X130244517Y-64652882D02*
G01*
X130261062Y-64663938D01*
X130272118Y-64680483D01*
X130276000Y-64700000D01*
X130276000Y-66700000D01*
X130272118Y-66719517D01*
X130261062Y-66736062D01*
X130244517Y-66747118D01*
X130225000Y-66751000D01*
X129775000Y-66751000D01*
X129755483Y-66747118D01*
X129738938Y-66736062D01*
X129727882Y-66719517D01*
X129724000Y-66700000D01*
X129724000Y-64700000D01*
X129727882Y-64680483D01*
X129738938Y-64663938D01*
X129755483Y-64652882D01*
X129775000Y-64649000D01*
X130225000Y-64649000D01*
X130244517Y-64652882D01*
G37*
G36*
X131244517Y-64652882D02*
G01*
X131261062Y-64663938D01*
X131272118Y-64680483D01*
X131276000Y-64700000D01*
X131276000Y-66700000D01*
X131272118Y-66719517D01*
X131261062Y-66736062D01*
X131244517Y-66747118D01*
X131225000Y-66751000D01*
X130775000Y-66751000D01*
X130755483Y-66747118D01*
X130738938Y-66736062D01*
X130727882Y-66719517D01*
X130724000Y-66700000D01*
X130724000Y-64700000D01*
X130727882Y-64680483D01*
X130738938Y-64663938D01*
X130755483Y-64652882D01*
X130775000Y-64649000D01*
X131225000Y-64649000D01*
X131244517Y-64652882D01*
G37*
G36*
X132244517Y-64652882D02*
G01*
X132261062Y-64663938D01*
X132272118Y-64680483D01*
X132276000Y-64700000D01*
X132276000Y-66700000D01*
X132272118Y-66719517D01*
X132261062Y-66736062D01*
X132244517Y-66747118D01*
X132225000Y-66751000D01*
X131775000Y-66751000D01*
X131755483Y-66747118D01*
X131738938Y-66736062D01*
X131727882Y-66719517D01*
X131724000Y-66700000D01*
X131724000Y-64700000D01*
X131727882Y-64680483D01*
X131738938Y-64663938D01*
X131755483Y-64652882D01*
X131775000Y-64649000D01*
X132225000Y-64649000D01*
X132244517Y-64652882D01*
G37*
G36*
X133244517Y-64652882D02*
G01*
X133261062Y-64663938D01*
X133272118Y-64680483D01*
X133276000Y-64700000D01*
X133276000Y-66700000D01*
X133272118Y-66719517D01*
X133261062Y-66736062D01*
X133244517Y-66747118D01*
X133225000Y-66751000D01*
X132775000Y-66751000D01*
X132755483Y-66747118D01*
X132738938Y-66736062D01*
X132727882Y-66719517D01*
X132724000Y-66700000D01*
X132724000Y-64700000D01*
X132727882Y-64680483D01*
X132738938Y-64663938D01*
X132755483Y-64652882D01*
X132775000Y-64649000D01*
X133225000Y-64649000D01*
X133244517Y-64652882D01*
G37*
G36*
X134244517Y-64652882D02*
G01*
X134261062Y-64663938D01*
X134272118Y-64680483D01*
X134276000Y-64700000D01*
X134276000Y-66700000D01*
X134272118Y-66719517D01*
X134261062Y-66736062D01*
X134244517Y-66747118D01*
X134225000Y-66751000D01*
X133775000Y-66751000D01*
X133755483Y-66747118D01*
X133738938Y-66736062D01*
X133727882Y-66719517D01*
X133724000Y-66700000D01*
X133724000Y-64700000D01*
X133727882Y-64680483D01*
X133738938Y-64663938D01*
X133755483Y-64652882D01*
X133775000Y-64649000D01*
X134225000Y-64649000D01*
X134244517Y-64652882D01*
G37*
G36*
X135244517Y-64652882D02*
G01*
X135261062Y-64663938D01*
X135272118Y-64680483D01*
X135276000Y-64700000D01*
X135276000Y-66700000D01*
X135272118Y-66719517D01*
X135261062Y-66736062D01*
X135244517Y-66747118D01*
X135225000Y-66751000D01*
X134775000Y-66751000D01*
X134755483Y-66747118D01*
X134738938Y-66736062D01*
X134727882Y-66719517D01*
X134724000Y-66700000D01*
X134724000Y-64700000D01*
X134727882Y-64680483D01*
X134738938Y-64663938D01*
X134755483Y-64652882D01*
X134775000Y-64649000D01*
X135225000Y-64649000D01*
X135244517Y-64652882D01*
G37*
G36*
X136244517Y-64652882D02*
G01*
X136261062Y-64663938D01*
X136272118Y-64680483D01*
X136276000Y-64700000D01*
X136276000Y-66700000D01*
X136272118Y-66719517D01*
X136261062Y-66736062D01*
X136244517Y-66747118D01*
X136225000Y-66751000D01*
X135775000Y-66751000D01*
X135755483Y-66747118D01*
X135738938Y-66736062D01*
X135727882Y-66719517D01*
X135724000Y-66700000D01*
X135724000Y-64700000D01*
X135727882Y-64680483D01*
X135738938Y-64663938D01*
X135755483Y-64652882D01*
X135775000Y-64649000D01*
X136225000Y-64649000D01*
X136244517Y-64652882D01*
G37*
G36*
X137244517Y-64652882D02*
G01*
X137261062Y-64663938D01*
X137272118Y-64680483D01*
X137276000Y-64700000D01*
X137276000Y-66700000D01*
X137272118Y-66719517D01*
X137261062Y-66736062D01*
X137244517Y-66747118D01*
X137225000Y-66751000D01*
X136775000Y-66751000D01*
X136755483Y-66747118D01*
X136738938Y-66736062D01*
X136727882Y-66719517D01*
X136724000Y-66700000D01*
X136724000Y-64700000D01*
X136727882Y-64680483D01*
X136738938Y-64663938D01*
X136755483Y-64652882D01*
X136775000Y-64649000D01*
X137225000Y-64649000D01*
X137244517Y-64652882D01*
G37*
G36*
X138244517Y-64652882D02*
G01*
X138261062Y-64663938D01*
X138272118Y-64680483D01*
X138276000Y-64700000D01*
X138276000Y-66700000D01*
X138272118Y-66719517D01*
X138261062Y-66736062D01*
X138244517Y-66747118D01*
X138225000Y-66751000D01*
X137775000Y-66751000D01*
X137755483Y-66747118D01*
X137738938Y-66736062D01*
X137727882Y-66719517D01*
X137724000Y-66700000D01*
X137724000Y-64700000D01*
X137727882Y-64680483D01*
X137738938Y-64663938D01*
X137755483Y-64652882D01*
X137775000Y-64649000D01*
X138225000Y-64649000D01*
X138244517Y-64652882D01*
G37*
G36*
X139244517Y-64652882D02*
G01*
X139261062Y-64663938D01*
X139272118Y-64680483D01*
X139276000Y-64700000D01*
X139276000Y-66700000D01*
X139272118Y-66719517D01*
X139261062Y-66736062D01*
X139244517Y-66747118D01*
X139225000Y-66751000D01*
X138775000Y-66751000D01*
X138755483Y-66747118D01*
X138738938Y-66736062D01*
X138727882Y-66719517D01*
X138724000Y-66700000D01*
X138724000Y-64700000D01*
X138727882Y-64680483D01*
X138738938Y-64663938D01*
X138755483Y-64652882D01*
X138775000Y-64649000D01*
X139225000Y-64649000D01*
X139244517Y-64652882D01*
G37*
G36*
X140244517Y-64652882D02*
G01*
X140261062Y-64663938D01*
X140272118Y-64680483D01*
X140276000Y-64700000D01*
X140276000Y-66700000D01*
X140272118Y-66719517D01*
X140261062Y-66736062D01*
X140244517Y-66747118D01*
X140225000Y-66751000D01*
X139775000Y-66751000D01*
X139755483Y-66747118D01*
X139738938Y-66736062D01*
X139727882Y-66719517D01*
X139724000Y-66700000D01*
X139724000Y-64700000D01*
X139727882Y-64680483D01*
X139738938Y-64663938D01*
X139755483Y-64652882D01*
X139775000Y-64649000D01*
X140225000Y-64649000D01*
X140244517Y-64652882D01*
G37*
G36*
X141244517Y-64652882D02*
G01*
X141261062Y-64663938D01*
X141272118Y-64680483D01*
X141276000Y-64700000D01*
X141276000Y-66700000D01*
X141272118Y-66719517D01*
X141261062Y-66736062D01*
X141244517Y-66747118D01*
X141225000Y-66751000D01*
X140775000Y-66751000D01*
X140755483Y-66747118D01*
X140738938Y-66736062D01*
X140727882Y-66719517D01*
X140724000Y-66700000D01*
X140724000Y-64700000D01*
X140727882Y-64680483D01*
X140738938Y-64663938D01*
X140755483Y-64652882D01*
X140775000Y-64649000D01*
X141225000Y-64649000D01*
X141244517Y-64652882D01*
G37*
G36*
X118853093Y-65953539D02*
G01*
X118915057Y-65994943D01*
X118956461Y-66056907D01*
X118971000Y-66130000D01*
X118971000Y-66470000D01*
X118956461Y-66543093D01*
X118915057Y-66605057D01*
X118853093Y-66646461D01*
X118780000Y-66661000D01*
X118500000Y-66661000D01*
X118426907Y-66646461D01*
X118364943Y-66605057D01*
X118323539Y-66543093D01*
X118309000Y-66470000D01*
X118309000Y-66130000D01*
X118323539Y-66056907D01*
X118364943Y-65994943D01*
X118426907Y-65953539D01*
X118500000Y-65939000D01*
X118780000Y-65939000D01*
X118853093Y-65953539D01*
G37*
G36*
X119813093Y-65953539D02*
G01*
X119875057Y-65994943D01*
X119916461Y-66056907D01*
X119931000Y-66130000D01*
X119931000Y-66470000D01*
X119916461Y-66543093D01*
X119875057Y-66605057D01*
X119813093Y-66646461D01*
X119740000Y-66661000D01*
X119460000Y-66661000D01*
X119386907Y-66646461D01*
X119324943Y-66605057D01*
X119283539Y-66543093D01*
X119269000Y-66470000D01*
X119269000Y-66130000D01*
X119283539Y-66056907D01*
X119324943Y-65994943D01*
X119386907Y-65953539D01*
X119460000Y-65939000D01*
X119740000Y-65939000D01*
X119813093Y-65953539D01*
G37*
G36*
X111341225Y-63591645D02*
G01*
X111384962Y-63591645D01*
X111434301Y-63602132D01*
X111480910Y-63607384D01*
X111514802Y-63619243D01*
X111551172Y-63626974D01*
X111603584Y-63650309D01*
X111652747Y-63667512D01*
X111678336Y-63683590D01*
X111706401Y-63696086D01*
X111758732Y-63734107D01*
X111806897Y-63764371D01*
X111824193Y-63781667D01*
X111843875Y-63795967D01*
X111892529Y-63850003D01*
X111935629Y-63893103D01*
X111945543Y-63908881D01*
X111957575Y-63922244D01*
X111998739Y-63993542D01*
X112032488Y-64047253D01*
X112036701Y-64059294D01*
X112042536Y-64069400D01*
X112072411Y-64161349D01*
X112092616Y-64219090D01*
X112093382Y-64225890D01*
X112095045Y-64231008D01*
X112110128Y-64374513D01*
X112113000Y-64400000D01*
X112110125Y-64425511D01*
X112095045Y-64568991D01*
X112093382Y-64574107D01*
X112092616Y-64580910D01*
X112072407Y-64638663D01*
X112042536Y-64730599D01*
X112036702Y-64740703D01*
X112032488Y-64752747D01*
X111998732Y-64806468D01*
X111957575Y-64877755D01*
X111945545Y-64891115D01*
X111935629Y-64906897D01*
X111892520Y-64950005D01*
X111843875Y-65004032D01*
X111824197Y-65018328D01*
X111806897Y-65035629D01*
X111758722Y-65065899D01*
X111706401Y-65103913D01*
X111678341Y-65116405D01*
X111652747Y-65132488D01*
X111603573Y-65149694D01*
X111551172Y-65173025D01*
X111514808Y-65180754D01*
X111480910Y-65192616D01*
X111434298Y-65197867D01*
X111384962Y-65208355D01*
X111341225Y-65208355D01*
X111300000Y-65213000D01*
X111258775Y-65208355D01*
X111215038Y-65208355D01*
X111165701Y-65197867D01*
X111119090Y-65192616D01*
X111085192Y-65180754D01*
X111048827Y-65173025D01*
X110996421Y-65149692D01*
X110947253Y-65132488D01*
X110921660Y-65116407D01*
X110893598Y-65103913D01*
X110841270Y-65065894D01*
X110793103Y-65035629D01*
X110775805Y-65018331D01*
X110756124Y-65004032D01*
X110707469Y-64949995D01*
X110664371Y-64906897D01*
X110654457Y-64891119D01*
X110642424Y-64877755D01*
X110601255Y-64806448D01*
X110567512Y-64752747D01*
X110563299Y-64740707D01*
X110557463Y-64730599D01*
X110527578Y-64638623D01*
X110507384Y-64580910D01*
X110506618Y-64574112D01*
X110504954Y-64568991D01*
X110489858Y-64425367D01*
X110487000Y-64400000D01*
X110489858Y-64374634D01*
X110504954Y-64231008D01*
X110506618Y-64225885D01*
X110507384Y-64219090D01*
X110527574Y-64161389D01*
X110557463Y-64069400D01*
X110563300Y-64059289D01*
X110567512Y-64047253D01*
X110601248Y-63993562D01*
X110642424Y-63922244D01*
X110654459Y-63908877D01*
X110664371Y-63893103D01*
X110707460Y-63850013D01*
X110756124Y-63795967D01*
X110775808Y-63781665D01*
X110793103Y-63764371D01*
X110841264Y-63734109D01*
X110893599Y-63696086D01*
X110921664Y-63683590D01*
X110947253Y-63667512D01*
X110996412Y-63650310D01*
X111048827Y-63626974D01*
X111085198Y-63619243D01*
X111119090Y-63607384D01*
X111165698Y-63602132D01*
X111215038Y-63591645D01*
X111258775Y-63591645D01*
X111300000Y-63587000D01*
X111341225Y-63591645D01*
G37*
G36*
X117519517Y-63702882D02*
G01*
X117536062Y-63713938D01*
X117547118Y-63730483D01*
X117551000Y-63750000D01*
X117551000Y-65050000D01*
X117547118Y-65069517D01*
X117536062Y-65086062D01*
X117519517Y-65097118D01*
X117500000Y-65101000D01*
X113500000Y-65101000D01*
X113480483Y-65097118D01*
X113463938Y-65086062D01*
X113452882Y-65069517D01*
X113449000Y-65050000D01*
X113449000Y-63750000D01*
X113452882Y-63730483D01*
X113463938Y-63713938D01*
X113480483Y-63702882D01*
X113500000Y-63699000D01*
X117500000Y-63699000D01*
X117519517Y-63702882D01*
G37*
G36*
X121019517Y-62427882D02*
G01*
X121036062Y-62438938D01*
X121047118Y-62455483D01*
X121051000Y-62475000D01*
X121051000Y-62925000D01*
X121047118Y-62944517D01*
X121036062Y-62961062D01*
X121019517Y-62972118D01*
X121000000Y-62976000D01*
X119000000Y-62976000D01*
X118980483Y-62972118D01*
X118963938Y-62961062D01*
X118952882Y-62944517D01*
X118949000Y-62925000D01*
X118949000Y-62475000D01*
X118952882Y-62455483D01*
X118963938Y-62438938D01*
X118980483Y-62427882D01*
X119000000Y-62424000D01*
X121000000Y-62424000D01*
X121019517Y-62427882D01*
G37*
G36*
X145019517Y-62427882D02*
G01*
X145036062Y-62438938D01*
X145047118Y-62455483D01*
X145051000Y-62475000D01*
X145051000Y-62925000D01*
X145047118Y-62944517D01*
X145036062Y-62961062D01*
X145019517Y-62972118D01*
X145000000Y-62976000D01*
X143000000Y-62976000D01*
X142980483Y-62972118D01*
X142963938Y-62961062D01*
X142952882Y-62944517D01*
X142949000Y-62925000D01*
X142949000Y-62475000D01*
X142952882Y-62455483D01*
X142963938Y-62438938D01*
X142980483Y-62427882D01*
X143000000Y-62424000D01*
X145000000Y-62424000D01*
X145019517Y-62427882D01*
G37*
G36*
X111341225Y-61141645D02*
G01*
X111384962Y-61141645D01*
X111434301Y-61152132D01*
X111480910Y-61157384D01*
X111514802Y-61169243D01*
X111551172Y-61176974D01*
X111603584Y-61200309D01*
X111652747Y-61217512D01*
X111678336Y-61233590D01*
X111706401Y-61246086D01*
X111758732Y-61284107D01*
X111806897Y-61314371D01*
X111824193Y-61331667D01*
X111843875Y-61345967D01*
X111892529Y-61400003D01*
X111935629Y-61443103D01*
X111945543Y-61458881D01*
X111957575Y-61472244D01*
X111998739Y-61543542D01*
X112032488Y-61597253D01*
X112036701Y-61609294D01*
X112042536Y-61619400D01*
X112072411Y-61711349D01*
X112092616Y-61769090D01*
X112093382Y-61775890D01*
X112095045Y-61781008D01*
X112110127Y-61924502D01*
X112113000Y-61950000D01*
X112110126Y-61975500D01*
X112095045Y-62118991D01*
X112093382Y-62124107D01*
X112092616Y-62130910D01*
X112072407Y-62188663D01*
X112042536Y-62280599D01*
X112036702Y-62290703D01*
X112032488Y-62302747D01*
X111998732Y-62356468D01*
X111957575Y-62427755D01*
X111945545Y-62441115D01*
X111935629Y-62456897D01*
X111892520Y-62500005D01*
X111843875Y-62554032D01*
X111824197Y-62568328D01*
X111806897Y-62585629D01*
X111758722Y-62615899D01*
X111706401Y-62653913D01*
X111678341Y-62666405D01*
X111652747Y-62682488D01*
X111603573Y-62699694D01*
X111551172Y-62723025D01*
X111514808Y-62730754D01*
X111480910Y-62742616D01*
X111434298Y-62747867D01*
X111384962Y-62758355D01*
X111341225Y-62758355D01*
X111300000Y-62763000D01*
X111258775Y-62758355D01*
X111215038Y-62758355D01*
X111165701Y-62747867D01*
X111119090Y-62742616D01*
X111085192Y-62730754D01*
X111048827Y-62723025D01*
X110996421Y-62699692D01*
X110947253Y-62682488D01*
X110921660Y-62666407D01*
X110893598Y-62653913D01*
X110841270Y-62615894D01*
X110793103Y-62585629D01*
X110775805Y-62568331D01*
X110756124Y-62554032D01*
X110707469Y-62499995D01*
X110664371Y-62456897D01*
X110654457Y-62441119D01*
X110642424Y-62427755D01*
X110601255Y-62356448D01*
X110567512Y-62302747D01*
X110563299Y-62290707D01*
X110557463Y-62280599D01*
X110527578Y-62188623D01*
X110507384Y-62130910D01*
X110506618Y-62124112D01*
X110504954Y-62118991D01*
X110489858Y-61975367D01*
X110487000Y-61950000D01*
X110489858Y-61924634D01*
X110504954Y-61781008D01*
X110506618Y-61775885D01*
X110507384Y-61769090D01*
X110527574Y-61711389D01*
X110557463Y-61619400D01*
X110563300Y-61609289D01*
X110567512Y-61597253D01*
X110601248Y-61543562D01*
X110642424Y-61472244D01*
X110654459Y-61458877D01*
X110664371Y-61443103D01*
X110707460Y-61400013D01*
X110756124Y-61345967D01*
X110775808Y-61331665D01*
X110793103Y-61314371D01*
X110841264Y-61284109D01*
X110893599Y-61246086D01*
X110921664Y-61233590D01*
X110947253Y-61217512D01*
X110996412Y-61200310D01*
X111048827Y-61176974D01*
X111085198Y-61169243D01*
X111119090Y-61157384D01*
X111165698Y-61152132D01*
X111215038Y-61141645D01*
X111258775Y-61141645D01*
X111300000Y-61137000D01*
X111341225Y-61141645D01*
G37*
G36*
X117519517Y-61202882D02*
G01*
X117536062Y-61213938D01*
X117547118Y-61230483D01*
X117551000Y-61250000D01*
X117551000Y-62550000D01*
X117547118Y-62569517D01*
X117536062Y-62586062D01*
X117519517Y-62597118D01*
X117500000Y-62601000D01*
X113500000Y-62601000D01*
X113480483Y-62597118D01*
X113463938Y-62586062D01*
X113452882Y-62569517D01*
X113449000Y-62550000D01*
X113449000Y-61250000D01*
X113452882Y-61230483D01*
X113463938Y-61213938D01*
X113480483Y-61202882D01*
X113500000Y-61199000D01*
X117500000Y-61199000D01*
X117519517Y-61202882D01*
G37*
G36*
X121019517Y-61427882D02*
G01*
X121036062Y-61438938D01*
X121047118Y-61455483D01*
X121051000Y-61475000D01*
X121051000Y-61925000D01*
X121047118Y-61944517D01*
X121036062Y-61961062D01*
X121019517Y-61972118D01*
X121000000Y-61976000D01*
X119000000Y-61976000D01*
X118980483Y-61972118D01*
X118963938Y-61961062D01*
X118952882Y-61944517D01*
X118949000Y-61925000D01*
X118949000Y-61475000D01*
X118952882Y-61455483D01*
X118963938Y-61438938D01*
X118980483Y-61427882D01*
X119000000Y-61424000D01*
X121000000Y-61424000D01*
X121019517Y-61427882D01*
G37*
G36*
X145019517Y-61427882D02*
G01*
X145036062Y-61438938D01*
X145047118Y-61455483D01*
X145051000Y-61475000D01*
X145051000Y-61925000D01*
X145047118Y-61944517D01*
X145036062Y-61961062D01*
X145019517Y-61972118D01*
X145000000Y-61976000D01*
X143000000Y-61976000D01*
X142980483Y-61972118D01*
X142963938Y-61961062D01*
X142952882Y-61944517D01*
X142949000Y-61925000D01*
X142949000Y-61475000D01*
X142952882Y-61455483D01*
X142963938Y-61438938D01*
X142980483Y-61427882D01*
X143000000Y-61424000D01*
X145000000Y-61424000D01*
X145019517Y-61427882D01*
G37*
G36*
X121019517Y-60427882D02*
G01*
X121036062Y-60438938D01*
X121047118Y-60455483D01*
X121051000Y-60475000D01*
X121051000Y-60925000D01*
X121047118Y-60944517D01*
X121036062Y-60961062D01*
X121019517Y-60972118D01*
X121000000Y-60976000D01*
X119000000Y-60976000D01*
X118980483Y-60972118D01*
X118963938Y-60961062D01*
X118952882Y-60944517D01*
X118949000Y-60925000D01*
X118949000Y-60475000D01*
X118952882Y-60455483D01*
X118963938Y-60438938D01*
X118980483Y-60427882D01*
X119000000Y-60424000D01*
X121000000Y-60424000D01*
X121019517Y-60427882D01*
G37*
G36*
X145019517Y-60427882D02*
G01*
X145036062Y-60438938D01*
X145047118Y-60455483D01*
X145051000Y-60475000D01*
X145051000Y-60925000D01*
X145047118Y-60944517D01*
X145036062Y-60961062D01*
X145019517Y-60972118D01*
X145000000Y-60976000D01*
X143000000Y-60976000D01*
X142980483Y-60972118D01*
X142963938Y-60961062D01*
X142952882Y-60944517D01*
X142949000Y-60925000D01*
X142949000Y-60475000D01*
X142952882Y-60455483D01*
X142963938Y-60438938D01*
X142980483Y-60427882D01*
X143000000Y-60424000D01*
X145000000Y-60424000D01*
X145019517Y-60427882D01*
G37*
G36*
X111341225Y-58691645D02*
G01*
X111384962Y-58691645D01*
X111434301Y-58702132D01*
X111480910Y-58707384D01*
X111514802Y-58719243D01*
X111551172Y-58726974D01*
X111603584Y-58750309D01*
X111652747Y-58767512D01*
X111678336Y-58783590D01*
X111706401Y-58796086D01*
X111758732Y-58834107D01*
X111806897Y-58864371D01*
X111824193Y-58881667D01*
X111843875Y-58895967D01*
X111892529Y-58950003D01*
X111935629Y-58993103D01*
X111945543Y-59008881D01*
X111957575Y-59022244D01*
X111998739Y-59093542D01*
X112032488Y-59147253D01*
X112036701Y-59159294D01*
X112042536Y-59169400D01*
X112072411Y-59261349D01*
X112092616Y-59319090D01*
X112093382Y-59325890D01*
X112095045Y-59331008D01*
X112110128Y-59474513D01*
X112113000Y-59500000D01*
X112110125Y-59525511D01*
X112095045Y-59668991D01*
X112093382Y-59674107D01*
X112092616Y-59680910D01*
X112072407Y-59738663D01*
X112042536Y-59830599D01*
X112036702Y-59840703D01*
X112032488Y-59852747D01*
X111998732Y-59906468D01*
X111957575Y-59977755D01*
X111945545Y-59991115D01*
X111935629Y-60006897D01*
X111892520Y-60050005D01*
X111843875Y-60104032D01*
X111824197Y-60118328D01*
X111806897Y-60135629D01*
X111758722Y-60165899D01*
X111706401Y-60203913D01*
X111678341Y-60216405D01*
X111652747Y-60232488D01*
X111603573Y-60249694D01*
X111551172Y-60273025D01*
X111514808Y-60280754D01*
X111480910Y-60292616D01*
X111434298Y-60297867D01*
X111384962Y-60308355D01*
X111341225Y-60308355D01*
X111300000Y-60313000D01*
X111258775Y-60308355D01*
X111215038Y-60308355D01*
X111165701Y-60297867D01*
X111119090Y-60292616D01*
X111085192Y-60280754D01*
X111048827Y-60273025D01*
X110996421Y-60249692D01*
X110947253Y-60232488D01*
X110921660Y-60216407D01*
X110893598Y-60203913D01*
X110841270Y-60165894D01*
X110793103Y-60135629D01*
X110775805Y-60118331D01*
X110756124Y-60104032D01*
X110707469Y-60049995D01*
X110664371Y-60006897D01*
X110654457Y-59991119D01*
X110642424Y-59977755D01*
X110601255Y-59906448D01*
X110567512Y-59852747D01*
X110563299Y-59840707D01*
X110557463Y-59830599D01*
X110527578Y-59738623D01*
X110507384Y-59680910D01*
X110506618Y-59674112D01*
X110504954Y-59668991D01*
X110489859Y-59525379D01*
X110487000Y-59500000D01*
X110489856Y-59474645D01*
X110504954Y-59331008D01*
X110506618Y-59325885D01*
X110507384Y-59319090D01*
X110527574Y-59261389D01*
X110557463Y-59169400D01*
X110563300Y-59159289D01*
X110567512Y-59147253D01*
X110601248Y-59093562D01*
X110642424Y-59022244D01*
X110654459Y-59008877D01*
X110664371Y-58993103D01*
X110707460Y-58950013D01*
X110756124Y-58895967D01*
X110775808Y-58881665D01*
X110793103Y-58864371D01*
X110841264Y-58834109D01*
X110893599Y-58796086D01*
X110921664Y-58783590D01*
X110947253Y-58767512D01*
X110996412Y-58750310D01*
X111048827Y-58726974D01*
X111085198Y-58719243D01*
X111119090Y-58707384D01*
X111165698Y-58702132D01*
X111215038Y-58691645D01*
X111258775Y-58691645D01*
X111300000Y-58687000D01*
X111341225Y-58691645D01*
G37*
G36*
X117519517Y-58802882D02*
G01*
X117536062Y-58813938D01*
X117547118Y-58830483D01*
X117551000Y-58850000D01*
X117551000Y-60150000D01*
X117547118Y-60169517D01*
X117536062Y-60186062D01*
X117519517Y-60197118D01*
X117500000Y-60201000D01*
X113500000Y-60201000D01*
X113480483Y-60197118D01*
X113463938Y-60186062D01*
X113452882Y-60169517D01*
X113449000Y-60150000D01*
X113449000Y-58850000D01*
X113452882Y-58830483D01*
X113463938Y-58813938D01*
X113480483Y-58802882D01*
X113500000Y-58799000D01*
X117500000Y-58799000D01*
X117519517Y-58802882D01*
G37*
G36*
X121019517Y-59427882D02*
G01*
X121036062Y-59438938D01*
X121047118Y-59455483D01*
X121051000Y-59475000D01*
X121051000Y-59925000D01*
X121047118Y-59944517D01*
X121036062Y-59961062D01*
X121019517Y-59972118D01*
X121000000Y-59976000D01*
X119000000Y-59976000D01*
X118980483Y-59972118D01*
X118963938Y-59961062D01*
X118952882Y-59944517D01*
X118949000Y-59925000D01*
X118949000Y-59475000D01*
X118952882Y-59455483D01*
X118963938Y-59438938D01*
X118980483Y-59427882D01*
X119000000Y-59424000D01*
X121000000Y-59424000D01*
X121019517Y-59427882D01*
G37*
G36*
X145019517Y-59427882D02*
G01*
X145036062Y-59438938D01*
X145047118Y-59455483D01*
X145051000Y-59475000D01*
X145051000Y-59925000D01*
X145047118Y-59944517D01*
X145036062Y-59961062D01*
X145019517Y-59972118D01*
X145000000Y-59976000D01*
X143000000Y-59976000D01*
X142980483Y-59972118D01*
X142963938Y-59961062D01*
X142952882Y-59944517D01*
X142949000Y-59925000D01*
X142949000Y-59475000D01*
X142952882Y-59455483D01*
X142963938Y-59438938D01*
X142980483Y-59427882D01*
X143000000Y-59424000D01*
X145000000Y-59424000D01*
X145019517Y-59427882D01*
G37*
G36*
X121019517Y-58427882D02*
G01*
X121036062Y-58438938D01*
X121047118Y-58455483D01*
X121051000Y-58475000D01*
X121051000Y-58925000D01*
X121047118Y-58944517D01*
X121036062Y-58961062D01*
X121019517Y-58972118D01*
X121000000Y-58976000D01*
X119000000Y-58976000D01*
X118980483Y-58972118D01*
X118963938Y-58961062D01*
X118952882Y-58944517D01*
X118949000Y-58925000D01*
X118949000Y-58475000D01*
X118952882Y-58455483D01*
X118963938Y-58438938D01*
X118980483Y-58427882D01*
X119000000Y-58424000D01*
X121000000Y-58424000D01*
X121019517Y-58427882D01*
G37*
G36*
X145019517Y-58427882D02*
G01*
X145036062Y-58438938D01*
X145047118Y-58455483D01*
X145051000Y-58475000D01*
X145051000Y-58925000D01*
X145047118Y-58944517D01*
X145036062Y-58961062D01*
X145019517Y-58972118D01*
X145000000Y-58976000D01*
X143000000Y-58976000D01*
X142980483Y-58972118D01*
X142963938Y-58961062D01*
X142952882Y-58944517D01*
X142949000Y-58925000D01*
X142949000Y-58475000D01*
X142952882Y-58455483D01*
X142963938Y-58438938D01*
X142980483Y-58427882D01*
X143000000Y-58424000D01*
X145000000Y-58424000D01*
X145019517Y-58427882D01*
G37*
G36*
X121019517Y-57427882D02*
G01*
X121036062Y-57438938D01*
X121047118Y-57455483D01*
X121051000Y-57475000D01*
X121051000Y-57925000D01*
X121047118Y-57944517D01*
X121036062Y-57961062D01*
X121019517Y-57972118D01*
X121000000Y-57976000D01*
X119000000Y-57976000D01*
X118980483Y-57972118D01*
X118963938Y-57961062D01*
X118952882Y-57944517D01*
X118949000Y-57925000D01*
X118949000Y-57475000D01*
X118952882Y-57455483D01*
X118963938Y-57438938D01*
X118980483Y-57427882D01*
X119000000Y-57424000D01*
X121000000Y-57424000D01*
X121019517Y-57427882D01*
G37*
G36*
X145019517Y-57427882D02*
G01*
X145036062Y-57438938D01*
X145047118Y-57455483D01*
X145051000Y-57475000D01*
X145051000Y-57925000D01*
X145047118Y-57944517D01*
X145036062Y-57961062D01*
X145019517Y-57972118D01*
X145000000Y-57976000D01*
X143000000Y-57976000D01*
X142980483Y-57972118D01*
X142963938Y-57961062D01*
X142952882Y-57944517D01*
X142949000Y-57925000D01*
X142949000Y-57475000D01*
X142952882Y-57455483D01*
X142963938Y-57438938D01*
X142980483Y-57427882D01*
X143000000Y-57424000D01*
X145000000Y-57424000D01*
X145019517Y-57427882D01*
G37*
G36*
X115706179Y-56343158D02*
G01*
X115766522Y-56383478D01*
X115806842Y-56443821D01*
X115821000Y-56515000D01*
X115821000Y-56885000D01*
X115806842Y-56956179D01*
X115766522Y-57016522D01*
X115706179Y-57056842D01*
X115635000Y-57071000D01*
X115365000Y-57071000D01*
X115293821Y-57056842D01*
X115233478Y-57016522D01*
X115193158Y-56956179D01*
X115179000Y-56885000D01*
X115179000Y-56515000D01*
X115193158Y-56443821D01*
X115233478Y-56383478D01*
X115293821Y-56343158D01*
X115365000Y-56329000D01*
X115635000Y-56329000D01*
X115706179Y-56343158D01*
G37*
G36*
X116726179Y-56343158D02*
G01*
X116786522Y-56383478D01*
X116826842Y-56443821D01*
X116841000Y-56515000D01*
X116841000Y-56885000D01*
X116826842Y-56956179D01*
X116786522Y-57016522D01*
X116726179Y-57056842D01*
X116655000Y-57071000D01*
X116385000Y-57071000D01*
X116313821Y-57056842D01*
X116253478Y-57016522D01*
X116213158Y-56956179D01*
X116199000Y-56885000D01*
X116199000Y-56515000D01*
X116213158Y-56443821D01*
X116253478Y-56383478D01*
X116313821Y-56343158D01*
X116385000Y-56329000D01*
X116655000Y-56329000D01*
X116726179Y-56343158D01*
G37*
G36*
X121019517Y-56427882D02*
G01*
X121036062Y-56438938D01*
X121047118Y-56455483D01*
X121051000Y-56475000D01*
X121051000Y-56925000D01*
X121047118Y-56944517D01*
X121036062Y-56961062D01*
X121019517Y-56972118D01*
X121000000Y-56976000D01*
X119000000Y-56976000D01*
X118980483Y-56972118D01*
X118963938Y-56961062D01*
X118952882Y-56944517D01*
X118949000Y-56925000D01*
X118949000Y-56475000D01*
X118952882Y-56455483D01*
X118963938Y-56438938D01*
X118980483Y-56427882D01*
X119000000Y-56424000D01*
X121000000Y-56424000D01*
X121019517Y-56427882D01*
G37*
G36*
X145019517Y-56427882D02*
G01*
X145036062Y-56438938D01*
X145047118Y-56455483D01*
X145051000Y-56475000D01*
X145051000Y-56925000D01*
X145047118Y-56944517D01*
X145036062Y-56961062D01*
X145019517Y-56972118D01*
X145000000Y-56976000D01*
X143000000Y-56976000D01*
X142980483Y-56972118D01*
X142963938Y-56961062D01*
X142952882Y-56944517D01*
X142949000Y-56925000D01*
X142949000Y-56475000D01*
X142952882Y-56455483D01*
X142963938Y-56438938D01*
X142980483Y-56427882D01*
X143000000Y-56424000D01*
X145000000Y-56424000D01*
X145019517Y-56427882D01*
G37*
G36*
X111503093Y-55433539D02*
G01*
X111565057Y-55474943D01*
X111606461Y-55536907D01*
X111621000Y-55610000D01*
X111621000Y-55890000D01*
X111606461Y-55963093D01*
X111565057Y-56025057D01*
X111503093Y-56066461D01*
X111430000Y-56081000D01*
X111090000Y-56081000D01*
X111016907Y-56066461D01*
X110954943Y-56025057D01*
X110913539Y-55963093D01*
X110899000Y-55890000D01*
X110899000Y-55610000D01*
X110913539Y-55536907D01*
X110954943Y-55474943D01*
X111016907Y-55433539D01*
X111090000Y-55419000D01*
X111430000Y-55419000D01*
X111503093Y-55433539D01*
G37*
G36*
X121019517Y-55427882D02*
G01*
X121036062Y-55438938D01*
X121047118Y-55455483D01*
X121051000Y-55475000D01*
X121051000Y-55925000D01*
X121047118Y-55944517D01*
X121036062Y-55961062D01*
X121019517Y-55972118D01*
X121000000Y-55976000D01*
X119000000Y-55976000D01*
X118980483Y-55972118D01*
X118963938Y-55961062D01*
X118952882Y-55944517D01*
X118949000Y-55925000D01*
X118949000Y-55475000D01*
X118952882Y-55455483D01*
X118963938Y-55438938D01*
X118980483Y-55427882D01*
X119000000Y-55424000D01*
X121000000Y-55424000D01*
X121019517Y-55427882D01*
G37*
G36*
X145019517Y-55427882D02*
G01*
X145036062Y-55438938D01*
X145047118Y-55455483D01*
X145051000Y-55475000D01*
X145051000Y-55925000D01*
X145047118Y-55944517D01*
X145036062Y-55961062D01*
X145019517Y-55972118D01*
X145000000Y-55976000D01*
X143000000Y-55976000D01*
X142980483Y-55972118D01*
X142963938Y-55961062D01*
X142952882Y-55944517D01*
X142949000Y-55925000D01*
X142949000Y-55475000D01*
X142952882Y-55455483D01*
X142963938Y-55438938D01*
X142980483Y-55427882D01*
X143000000Y-55424000D01*
X145000000Y-55424000D01*
X145019517Y-55427882D01*
G37*
G36*
X115686179Y-55043158D02*
G01*
X115746522Y-55083478D01*
X115786842Y-55143821D01*
X115801000Y-55215000D01*
X115801000Y-55585000D01*
X115786842Y-55656179D01*
X115746522Y-55716522D01*
X115686179Y-55756842D01*
X115615000Y-55771000D01*
X115345000Y-55771000D01*
X115273821Y-55756842D01*
X115213478Y-55716522D01*
X115173158Y-55656179D01*
X115159000Y-55585000D01*
X115159000Y-55215000D01*
X115173158Y-55143821D01*
X115213478Y-55083478D01*
X115273821Y-55043158D01*
X115345000Y-55029000D01*
X115615000Y-55029000D01*
X115686179Y-55043158D01*
G37*
G36*
X116706179Y-55043158D02*
G01*
X116766522Y-55083478D01*
X116806842Y-55143821D01*
X116821000Y-55215000D01*
X116821000Y-55585000D01*
X116806842Y-55656179D01*
X116766522Y-55716522D01*
X116706179Y-55756842D01*
X116635000Y-55771000D01*
X116365000Y-55771000D01*
X116293821Y-55756842D01*
X116233478Y-55716522D01*
X116193158Y-55656179D01*
X116179000Y-55585000D01*
X116179000Y-55215000D01*
X116193158Y-55143821D01*
X116233478Y-55083478D01*
X116293821Y-55043158D01*
X116365000Y-55029000D01*
X116635000Y-55029000D01*
X116706179Y-55043158D01*
G37*
G36*
X111503093Y-54473539D02*
G01*
X111565057Y-54514943D01*
X111606461Y-54576907D01*
X111621000Y-54650000D01*
X111621000Y-54930000D01*
X111606461Y-55003093D01*
X111565057Y-55065057D01*
X111503093Y-55106461D01*
X111430000Y-55121000D01*
X111090000Y-55121000D01*
X111016907Y-55106461D01*
X110954943Y-55065057D01*
X110913539Y-55003093D01*
X110899000Y-54930000D01*
X110899000Y-54650000D01*
X110913539Y-54576907D01*
X110954943Y-54514943D01*
X111016907Y-54473539D01*
X111090000Y-54459000D01*
X111430000Y-54459000D01*
X111503093Y-54473539D01*
G37*
G36*
X121019517Y-54427882D02*
G01*
X121036062Y-54438938D01*
X121047118Y-54455483D01*
X121051000Y-54475000D01*
X121051000Y-54925000D01*
X121047118Y-54944517D01*
X121036062Y-54961062D01*
X121019517Y-54972118D01*
X121000000Y-54976000D01*
X119000000Y-54976000D01*
X118980483Y-54972118D01*
X118963938Y-54961062D01*
X118952882Y-54944517D01*
X118949000Y-54925000D01*
X118949000Y-54475000D01*
X118952882Y-54455483D01*
X118963938Y-54438938D01*
X118980483Y-54427882D01*
X119000000Y-54424000D01*
X121000000Y-54424000D01*
X121019517Y-54427882D01*
G37*
G36*
X145019517Y-54427882D02*
G01*
X145036062Y-54438938D01*
X145047118Y-54455483D01*
X145051000Y-54475000D01*
X145051000Y-54925000D01*
X145047118Y-54944517D01*
X145036062Y-54961062D01*
X145019517Y-54972118D01*
X145000000Y-54976000D01*
X143000000Y-54976000D01*
X142980483Y-54972118D01*
X142963938Y-54961062D01*
X142952882Y-54944517D01*
X142949000Y-54925000D01*
X142949000Y-54475000D01*
X142952882Y-54455483D01*
X142963938Y-54438938D01*
X142980483Y-54427882D01*
X143000000Y-54424000D01*
X145000000Y-54424000D01*
X145019517Y-54427882D01*
G37*
G36*
X113248218Y-53083591D02*
G01*
X113289095Y-53110905D01*
X113316409Y-53151782D01*
X113326000Y-53200000D01*
X113326000Y-53900000D01*
X113316409Y-53948218D01*
X113289095Y-53989095D01*
X113248218Y-54016409D01*
X113200000Y-54026000D01*
X113050000Y-54026000D01*
X113001782Y-54016409D01*
X112960905Y-53989095D01*
X112933591Y-53948218D01*
X112924000Y-53900000D01*
X112924000Y-53200000D01*
X112933591Y-53151782D01*
X112960905Y-53110905D01*
X113001782Y-53083591D01*
X113050000Y-53074000D01*
X113200000Y-53074000D01*
X113248218Y-53083591D01*
G37*
G36*
X113898218Y-53083591D02*
G01*
X113939095Y-53110905D01*
X113966409Y-53151782D01*
X113976000Y-53200000D01*
X113976000Y-53900000D01*
X113966409Y-53948218D01*
X113939095Y-53989095D01*
X113898218Y-54016409D01*
X113850000Y-54026000D01*
X113700000Y-54026000D01*
X113651782Y-54016409D01*
X113610905Y-53989095D01*
X113583591Y-53948218D01*
X113574000Y-53900000D01*
X113574000Y-53200000D01*
X113583591Y-53151782D01*
X113610905Y-53110905D01*
X113651782Y-53083591D01*
X113700000Y-53074000D01*
X113850000Y-53074000D01*
X113898218Y-53083591D01*
G37*
G36*
X114548218Y-53083591D02*
G01*
X114589095Y-53110905D01*
X114616409Y-53151782D01*
X114626000Y-53200000D01*
X114626000Y-53900000D01*
X114616409Y-53948218D01*
X114589095Y-53989095D01*
X114548218Y-54016409D01*
X114500000Y-54026000D01*
X114350000Y-54026000D01*
X114301782Y-54016409D01*
X114260905Y-53989095D01*
X114233591Y-53948218D01*
X114224000Y-53900000D01*
X114224000Y-53200000D01*
X114233591Y-53151782D01*
X114260905Y-53110905D01*
X114301782Y-53083591D01*
X114350000Y-53074000D01*
X114500000Y-53074000D01*
X114548218Y-53083591D01*
G37*
G36*
X115198218Y-53083591D02*
G01*
X115239095Y-53110905D01*
X115266409Y-53151782D01*
X115276000Y-53200000D01*
X115276000Y-53900000D01*
X115266409Y-53948218D01*
X115239095Y-53989095D01*
X115198218Y-54016409D01*
X115150000Y-54026000D01*
X115000000Y-54026000D01*
X114951782Y-54016409D01*
X114910905Y-53989095D01*
X114883591Y-53948218D01*
X114874000Y-53900000D01*
X114874000Y-53200000D01*
X114883591Y-53151782D01*
X114910905Y-53110905D01*
X114951782Y-53083591D01*
X115000000Y-53074000D01*
X115150000Y-53074000D01*
X115198218Y-53083591D01*
G37*
G36*
X121019517Y-53427882D02*
G01*
X121036062Y-53438938D01*
X121047118Y-53455483D01*
X121051000Y-53475000D01*
X121051000Y-53925000D01*
X121047118Y-53944517D01*
X121036062Y-53961062D01*
X121019517Y-53972118D01*
X121000000Y-53976000D01*
X119000000Y-53976000D01*
X118980483Y-53972118D01*
X118963938Y-53961062D01*
X118952882Y-53944517D01*
X118949000Y-53925000D01*
X118949000Y-53475000D01*
X118952882Y-53455483D01*
X118963938Y-53438938D01*
X118980483Y-53427882D01*
X119000000Y-53424000D01*
X121000000Y-53424000D01*
X121019517Y-53427882D01*
G37*
G36*
X145019517Y-53427882D02*
G01*
X145036062Y-53438938D01*
X145047118Y-53455483D01*
X145051000Y-53475000D01*
X145051000Y-53925000D01*
X145047118Y-53944517D01*
X145036062Y-53961062D01*
X145019517Y-53972118D01*
X145000000Y-53976000D01*
X143000000Y-53976000D01*
X142980483Y-53972118D01*
X142963938Y-53961062D01*
X142952882Y-53944517D01*
X142949000Y-53925000D01*
X142949000Y-53475000D01*
X142952882Y-53455483D01*
X142963938Y-53438938D01*
X142980483Y-53427882D01*
X143000000Y-53424000D01*
X145000000Y-53424000D01*
X145019517Y-53427882D01*
G37*
G36*
X121019517Y-52427882D02*
G01*
X121036062Y-52438938D01*
X121047118Y-52455483D01*
X121051000Y-52475000D01*
X121051000Y-52925000D01*
X121047118Y-52944517D01*
X121036062Y-52961062D01*
X121019517Y-52972118D01*
X121000000Y-52976000D01*
X119000000Y-52976000D01*
X118980483Y-52972118D01*
X118963938Y-52961062D01*
X118952882Y-52944517D01*
X118949000Y-52925000D01*
X118949000Y-52475000D01*
X118952882Y-52455483D01*
X118963938Y-52438938D01*
X118980483Y-52427882D01*
X119000000Y-52424000D01*
X121000000Y-52424000D01*
X121019517Y-52427882D01*
G37*
G36*
X145019517Y-52427882D02*
G01*
X145036062Y-52438938D01*
X145047118Y-52455483D01*
X145051000Y-52475000D01*
X145051000Y-52925000D01*
X145047118Y-52944517D01*
X145036062Y-52961062D01*
X145019517Y-52972118D01*
X145000000Y-52976000D01*
X143000000Y-52976000D01*
X142980483Y-52972118D01*
X142963938Y-52961062D01*
X142952882Y-52944517D01*
X142949000Y-52925000D01*
X142949000Y-52475000D01*
X142952882Y-52455483D01*
X142963938Y-52438938D01*
X142980483Y-52427882D01*
X143000000Y-52424000D01*
X145000000Y-52424000D01*
X145019517Y-52427882D01*
G37*
G36*
X112548218Y-52383591D02*
G01*
X112589095Y-52410905D01*
X112616409Y-52451782D01*
X112626000Y-52500000D01*
X112626000Y-52650000D01*
X112616409Y-52698218D01*
X112589095Y-52739095D01*
X112548218Y-52766409D01*
X112500000Y-52776000D01*
X111800000Y-52776000D01*
X111751782Y-52766409D01*
X111710905Y-52739095D01*
X111683591Y-52698218D01*
X111674000Y-52650000D01*
X111674000Y-52500000D01*
X111683591Y-52451782D01*
X111710905Y-52410905D01*
X111751782Y-52383591D01*
X111800000Y-52374000D01*
X112500000Y-52374000D01*
X112548218Y-52383591D01*
G37*
G36*
X116448218Y-52383591D02*
G01*
X116489095Y-52410905D01*
X116516409Y-52451782D01*
X116526000Y-52500000D01*
X116526000Y-52650000D01*
X116516409Y-52698218D01*
X116489095Y-52739095D01*
X116448218Y-52766409D01*
X116400000Y-52776000D01*
X115700000Y-52776000D01*
X115651782Y-52766409D01*
X115610905Y-52739095D01*
X115583591Y-52698218D01*
X115574000Y-52650000D01*
X115574000Y-52500000D01*
X115583591Y-52451782D01*
X115610905Y-52410905D01*
X115651782Y-52383591D01*
X115700000Y-52374000D01*
X116400000Y-52374000D01*
X116448218Y-52383591D01*
G37*
G36*
X115169517Y-50502882D02*
G01*
X115186062Y-50513938D01*
X115197118Y-50530483D01*
X115201000Y-50550000D01*
X115201000Y-52650000D01*
X115197118Y-52669517D01*
X115186062Y-52686062D01*
X115169517Y-52697118D01*
X115150000Y-52701000D01*
X113050000Y-52701000D01*
X113030483Y-52697118D01*
X113013938Y-52686062D01*
X113002882Y-52669517D01*
X112999000Y-52650000D01*
X112999000Y-50550000D01*
X113002882Y-50530483D01*
X113013938Y-50513938D01*
X113030483Y-50502882D01*
X113050000Y-50499000D01*
X115150000Y-50499000D01*
X115169517Y-50502882D01*
G37*
G36*
X112548218Y-51733591D02*
G01*
X112589095Y-51760905D01*
X112616409Y-51801782D01*
X112626000Y-51850000D01*
X112626000Y-52000000D01*
X112616409Y-52048218D01*
X112589095Y-52089095D01*
X112548218Y-52116409D01*
X112500000Y-52126000D01*
X111800000Y-52126000D01*
X111751782Y-52116409D01*
X111710905Y-52089095D01*
X111683591Y-52048218D01*
X111674000Y-52000000D01*
X111674000Y-51850000D01*
X111683591Y-51801782D01*
X111710905Y-51760905D01*
X111751782Y-51733591D01*
X111800000Y-51724000D01*
X112500000Y-51724000D01*
X112548218Y-51733591D01*
G37*
G36*
X116448218Y-51733591D02*
G01*
X116489095Y-51760905D01*
X116516409Y-51801782D01*
X116526000Y-51850000D01*
X116526000Y-52000000D01*
X116516409Y-52048218D01*
X116489095Y-52089095D01*
X116448218Y-52116409D01*
X116400000Y-52126000D01*
X115700000Y-52126000D01*
X115651782Y-52116409D01*
X115610905Y-52089095D01*
X115583591Y-52048218D01*
X115574000Y-52000000D01*
X115574000Y-51850000D01*
X115583591Y-51801782D01*
X115610905Y-51760905D01*
X115651782Y-51733591D01*
X115700000Y-51724000D01*
X116400000Y-51724000D01*
X116448218Y-51733591D01*
G37*
G36*
X121019517Y-51427882D02*
G01*
X121036062Y-51438938D01*
X121047118Y-51455483D01*
X121051000Y-51475000D01*
X121051000Y-51925000D01*
X121047118Y-51944517D01*
X121036062Y-51961062D01*
X121019517Y-51972118D01*
X121000000Y-51976000D01*
X119000000Y-51976000D01*
X118980483Y-51972118D01*
X118963938Y-51961062D01*
X118952882Y-51944517D01*
X118949000Y-51925000D01*
X118949000Y-51475000D01*
X118952882Y-51455483D01*
X118963938Y-51438938D01*
X118980483Y-51427882D01*
X119000000Y-51424000D01*
X121000000Y-51424000D01*
X121019517Y-51427882D01*
G37*
G36*
X145019517Y-51427882D02*
G01*
X145036062Y-51438938D01*
X145047118Y-51455483D01*
X145051000Y-51475000D01*
X145051000Y-51925000D01*
X145047118Y-51944517D01*
X145036062Y-51961062D01*
X145019517Y-51972118D01*
X145000000Y-51976000D01*
X143000000Y-51976000D01*
X142980483Y-51972118D01*
X142963938Y-51961062D01*
X142952882Y-51944517D01*
X142949000Y-51925000D01*
X142949000Y-51475000D01*
X142952882Y-51455483D01*
X142963938Y-51438938D01*
X142980483Y-51427882D01*
X143000000Y-51424000D01*
X145000000Y-51424000D01*
X145019517Y-51427882D01*
G37*
G36*
X112548218Y-51083591D02*
G01*
X112589095Y-51110905D01*
X112616409Y-51151782D01*
X112626000Y-51200000D01*
X112626000Y-51350000D01*
X112616409Y-51398218D01*
X112589095Y-51439095D01*
X112548218Y-51466409D01*
X112500000Y-51476000D01*
X111800000Y-51476000D01*
X111751782Y-51466409D01*
X111710905Y-51439095D01*
X111683591Y-51398218D01*
X111674000Y-51350000D01*
X111674000Y-51200000D01*
X111683591Y-51151782D01*
X111710905Y-51110905D01*
X111751782Y-51083591D01*
X111800000Y-51074000D01*
X112500000Y-51074000D01*
X112548218Y-51083591D01*
G37*
G36*
X116448218Y-51083591D02*
G01*
X116489095Y-51110905D01*
X116516409Y-51151782D01*
X116526000Y-51200000D01*
X116526000Y-51350000D01*
X116516409Y-51398218D01*
X116489095Y-51439095D01*
X116448218Y-51466409D01*
X116400000Y-51476000D01*
X115700000Y-51476000D01*
X115651782Y-51466409D01*
X115610905Y-51439095D01*
X115583591Y-51398218D01*
X115574000Y-51350000D01*
X115574000Y-51200000D01*
X115583591Y-51151782D01*
X115610905Y-51110905D01*
X115651782Y-51083591D01*
X115700000Y-51074000D01*
X116400000Y-51074000D01*
X116448218Y-51083591D01*
G37*
G36*
X121019517Y-50427882D02*
G01*
X121036062Y-50438938D01*
X121047118Y-50455483D01*
X121051000Y-50475000D01*
X121051000Y-50925000D01*
X121047118Y-50944517D01*
X121036062Y-50961062D01*
X121019517Y-50972118D01*
X121000000Y-50976000D01*
X119000000Y-50976000D01*
X118980483Y-50972118D01*
X118963938Y-50961062D01*
X118952882Y-50944517D01*
X118949000Y-50925000D01*
X118949000Y-50475000D01*
X118952882Y-50455483D01*
X118963938Y-50438938D01*
X118980483Y-50427882D01*
X119000000Y-50424000D01*
X121000000Y-50424000D01*
X121019517Y-50427882D01*
G37*
G36*
X145019517Y-50427882D02*
G01*
X145036062Y-50438938D01*
X145047118Y-50455483D01*
X145051000Y-50475000D01*
X145051000Y-50925000D01*
X145047118Y-50944517D01*
X145036062Y-50961062D01*
X145019517Y-50972118D01*
X145000000Y-50976000D01*
X143000000Y-50976000D01*
X142980483Y-50972118D01*
X142963938Y-50961062D01*
X142952882Y-50944517D01*
X142949000Y-50925000D01*
X142949000Y-50475000D01*
X142952882Y-50455483D01*
X142963938Y-50438938D01*
X142980483Y-50427882D01*
X143000000Y-50424000D01*
X145000000Y-50424000D01*
X145019517Y-50427882D01*
G37*
G36*
X112548218Y-50433591D02*
G01*
X112589095Y-50460905D01*
X112616409Y-50501782D01*
X112626000Y-50550000D01*
X112626000Y-50700000D01*
X112616409Y-50748218D01*
X112589095Y-50789095D01*
X112548218Y-50816409D01*
X112500000Y-50826000D01*
X111800000Y-50826000D01*
X111751782Y-50816409D01*
X111710905Y-50789095D01*
X111683591Y-50748218D01*
X111674000Y-50700000D01*
X111674000Y-50550000D01*
X111683591Y-50501782D01*
X111710905Y-50460905D01*
X111751782Y-50433591D01*
X111800000Y-50424000D01*
X112500000Y-50424000D01*
X112548218Y-50433591D01*
G37*
G36*
X116448218Y-50433591D02*
G01*
X116489095Y-50460905D01*
X116516409Y-50501782D01*
X116526000Y-50550000D01*
X116526000Y-50700000D01*
X116516409Y-50748218D01*
X116489095Y-50789095D01*
X116448218Y-50816409D01*
X116400000Y-50826000D01*
X115700000Y-50826000D01*
X115651782Y-50816409D01*
X115610905Y-50789095D01*
X115583591Y-50748218D01*
X115574000Y-50700000D01*
X115574000Y-50550000D01*
X115583591Y-50501782D01*
X115610905Y-50460905D01*
X115651782Y-50433591D01*
X115700000Y-50424000D01*
X116400000Y-50424000D01*
X116448218Y-50433591D01*
G37*
G36*
X113248218Y-49183591D02*
G01*
X113289095Y-49210905D01*
X113316409Y-49251782D01*
X113326000Y-49300000D01*
X113326000Y-50000000D01*
X113316409Y-50048218D01*
X113289095Y-50089095D01*
X113248218Y-50116409D01*
X113200000Y-50126000D01*
X113050000Y-50126000D01*
X113001782Y-50116409D01*
X112960905Y-50089095D01*
X112933591Y-50048218D01*
X112924000Y-50000000D01*
X112924000Y-49300000D01*
X112933591Y-49251782D01*
X112960905Y-49210905D01*
X113001782Y-49183591D01*
X113050000Y-49174000D01*
X113200000Y-49174000D01*
X113248218Y-49183591D01*
G37*
G36*
X113898218Y-49183591D02*
G01*
X113939095Y-49210905D01*
X113966409Y-49251782D01*
X113976000Y-49300000D01*
X113976000Y-50000000D01*
X113966409Y-50048218D01*
X113939095Y-50089095D01*
X113898218Y-50116409D01*
X113850000Y-50126000D01*
X113700000Y-50126000D01*
X113651782Y-50116409D01*
X113610905Y-50089095D01*
X113583591Y-50048218D01*
X113574000Y-50000000D01*
X113574000Y-49300000D01*
X113583591Y-49251782D01*
X113610905Y-49210905D01*
X113651782Y-49183591D01*
X113700000Y-49174000D01*
X113850000Y-49174000D01*
X113898218Y-49183591D01*
G37*
G36*
X114548218Y-49183591D02*
G01*
X114589095Y-49210905D01*
X114616409Y-49251782D01*
X114626000Y-49300000D01*
X114626000Y-50000000D01*
X114616409Y-50048218D01*
X114589095Y-50089095D01*
X114548218Y-50116409D01*
X114500000Y-50126000D01*
X114350000Y-50126000D01*
X114301782Y-50116409D01*
X114260905Y-50089095D01*
X114233591Y-50048218D01*
X114224000Y-50000000D01*
X114224000Y-49300000D01*
X114233591Y-49251782D01*
X114260905Y-49210905D01*
X114301782Y-49183591D01*
X114350000Y-49174000D01*
X114500000Y-49174000D01*
X114548218Y-49183591D01*
G37*
G36*
X115198218Y-49183591D02*
G01*
X115239095Y-49210905D01*
X115266409Y-49251782D01*
X115276000Y-49300000D01*
X115276000Y-50000000D01*
X115266409Y-50048218D01*
X115239095Y-50089095D01*
X115198218Y-50116409D01*
X115150000Y-50126000D01*
X115000000Y-50126000D01*
X114951782Y-50116409D01*
X114910905Y-50089095D01*
X114883591Y-50048218D01*
X114874000Y-50000000D01*
X114874000Y-49300000D01*
X114883591Y-49251782D01*
X114910905Y-49210905D01*
X114951782Y-49183591D01*
X115000000Y-49174000D01*
X115150000Y-49174000D01*
X115198218Y-49183591D01*
G37*
G36*
X123244517Y-46652882D02*
G01*
X123261062Y-46663938D01*
X123272118Y-46680483D01*
X123276000Y-46700000D01*
X123276000Y-48700000D01*
X123272118Y-48719517D01*
X123261062Y-48736062D01*
X123244517Y-48747118D01*
X123225000Y-48751000D01*
X122775000Y-48751000D01*
X122755483Y-48747118D01*
X122738938Y-48736062D01*
X122727882Y-48719517D01*
X122724000Y-48700000D01*
X122724000Y-46700000D01*
X122727882Y-46680483D01*
X122738938Y-46663938D01*
X122755483Y-46652882D01*
X122775000Y-46649000D01*
X123225000Y-46649000D01*
X123244517Y-46652882D01*
G37*
G36*
X124244517Y-46652882D02*
G01*
X124261062Y-46663938D01*
X124272118Y-46680483D01*
X124276000Y-46700000D01*
X124276000Y-48700000D01*
X124272118Y-48719517D01*
X124261062Y-48736062D01*
X124244517Y-48747118D01*
X124225000Y-48751000D01*
X123775000Y-48751000D01*
X123755483Y-48747118D01*
X123738938Y-48736062D01*
X123727882Y-48719517D01*
X123724000Y-48700000D01*
X123724000Y-46700000D01*
X123727882Y-46680483D01*
X123738938Y-46663938D01*
X123755483Y-46652882D01*
X123775000Y-46649000D01*
X124225000Y-46649000D01*
X124244517Y-46652882D01*
G37*
G36*
X125244517Y-46652882D02*
G01*
X125261062Y-46663938D01*
X125272118Y-46680483D01*
X125276000Y-46700000D01*
X125276000Y-48700000D01*
X125272118Y-48719517D01*
X125261062Y-48736062D01*
X125244517Y-48747118D01*
X125225000Y-48751000D01*
X124775000Y-48751000D01*
X124755483Y-48747118D01*
X124738938Y-48736062D01*
X124727882Y-48719517D01*
X124724000Y-48700000D01*
X124724000Y-46700000D01*
X124727882Y-46680483D01*
X124738938Y-46663938D01*
X124755483Y-46652882D01*
X124775000Y-46649000D01*
X125225000Y-46649000D01*
X125244517Y-46652882D01*
G37*
G36*
X126244517Y-46652882D02*
G01*
X126261062Y-46663938D01*
X126272118Y-46680483D01*
X126276000Y-46700000D01*
X126276000Y-48700000D01*
X126272118Y-48719517D01*
X126261062Y-48736062D01*
X126244517Y-48747118D01*
X126225000Y-48751000D01*
X125775000Y-48751000D01*
X125755483Y-48747118D01*
X125738938Y-48736062D01*
X125727882Y-48719517D01*
X125724000Y-48700000D01*
X125724000Y-46700000D01*
X125727882Y-46680483D01*
X125738938Y-46663938D01*
X125755483Y-46652882D01*
X125775000Y-46649000D01*
X126225000Y-46649000D01*
X126244517Y-46652882D01*
G37*
G36*
X127244517Y-46652882D02*
G01*
X127261062Y-46663938D01*
X127272118Y-46680483D01*
X127276000Y-46700000D01*
X127276000Y-48700000D01*
X127272118Y-48719517D01*
X127261062Y-48736062D01*
X127244517Y-48747118D01*
X127225000Y-48751000D01*
X126775000Y-48751000D01*
X126755483Y-48747118D01*
X126738938Y-48736062D01*
X126727882Y-48719517D01*
X126724000Y-48700000D01*
X126724000Y-46700000D01*
X126727882Y-46680483D01*
X126738938Y-46663938D01*
X126755483Y-46652882D01*
X126775000Y-46649000D01*
X127225000Y-46649000D01*
X127244517Y-46652882D01*
G37*
G36*
X128244517Y-46652882D02*
G01*
X128261062Y-46663938D01*
X128272118Y-46680483D01*
X128276000Y-46700000D01*
X128276000Y-48700000D01*
X128272118Y-48719517D01*
X128261062Y-48736062D01*
X128244517Y-48747118D01*
X128225000Y-48751000D01*
X127775000Y-48751000D01*
X127755483Y-48747118D01*
X127738938Y-48736062D01*
X127727882Y-48719517D01*
X127724000Y-48700000D01*
X127724000Y-46700000D01*
X127727882Y-46680483D01*
X127738938Y-46663938D01*
X127755483Y-46652882D01*
X127775000Y-46649000D01*
X128225000Y-46649000D01*
X128244517Y-46652882D01*
G37*
G36*
X129244517Y-46652882D02*
G01*
X129261062Y-46663938D01*
X129272118Y-46680483D01*
X129276000Y-46700000D01*
X129276000Y-48700000D01*
X129272118Y-48719517D01*
X129261062Y-48736062D01*
X129244517Y-48747118D01*
X129225000Y-48751000D01*
X128775000Y-48751000D01*
X128755483Y-48747118D01*
X128738938Y-48736062D01*
X128727882Y-48719517D01*
X128724000Y-48700000D01*
X128724000Y-46700000D01*
X128727882Y-46680483D01*
X128738938Y-46663938D01*
X128755483Y-46652882D01*
X128775000Y-46649000D01*
X129225000Y-46649000D01*
X129244517Y-46652882D01*
G37*
G36*
X130244517Y-46652882D02*
G01*
X130261062Y-46663938D01*
X130272118Y-46680483D01*
X130276000Y-46700000D01*
X130276000Y-48700000D01*
X130272118Y-48719517D01*
X130261062Y-48736062D01*
X130244517Y-48747118D01*
X130225000Y-48751000D01*
X129775000Y-48751000D01*
X129755483Y-48747118D01*
X129738938Y-48736062D01*
X129727882Y-48719517D01*
X129724000Y-48700000D01*
X129724000Y-46700000D01*
X129727882Y-46680483D01*
X129738938Y-46663938D01*
X129755483Y-46652882D01*
X129775000Y-46649000D01*
X130225000Y-46649000D01*
X130244517Y-46652882D01*
G37*
G36*
X131244517Y-46652882D02*
G01*
X131261062Y-46663938D01*
X131272118Y-46680483D01*
X131276000Y-46700000D01*
X131276000Y-48700000D01*
X131272118Y-48719517D01*
X131261062Y-48736062D01*
X131244517Y-48747118D01*
X131225000Y-48751000D01*
X130775000Y-48751000D01*
X130755483Y-48747118D01*
X130738938Y-48736062D01*
X130727882Y-48719517D01*
X130724000Y-48700000D01*
X130724000Y-46700000D01*
X130727882Y-46680483D01*
X130738938Y-46663938D01*
X130755483Y-46652882D01*
X130775000Y-46649000D01*
X131225000Y-46649000D01*
X131244517Y-46652882D01*
G37*
G36*
X132244517Y-46652882D02*
G01*
X132261062Y-46663938D01*
X132272118Y-46680483D01*
X132276000Y-46700000D01*
X132276000Y-48700000D01*
X132272118Y-48719517D01*
X132261062Y-48736062D01*
X132244517Y-48747118D01*
X132225000Y-48751000D01*
X131775000Y-48751000D01*
X131755483Y-48747118D01*
X131738938Y-48736062D01*
X131727882Y-48719517D01*
X131724000Y-48700000D01*
X131724000Y-46700000D01*
X131727882Y-46680483D01*
X131738938Y-46663938D01*
X131755483Y-46652882D01*
X131775000Y-46649000D01*
X132225000Y-46649000D01*
X132244517Y-46652882D01*
G37*
G36*
X133244517Y-46652882D02*
G01*
X133261062Y-46663938D01*
X133272118Y-46680483D01*
X133276000Y-46700000D01*
X133276000Y-48700000D01*
X133272118Y-48719517D01*
X133261062Y-48736062D01*
X133244517Y-48747118D01*
X133225000Y-48751000D01*
X132775000Y-48751000D01*
X132755483Y-48747118D01*
X132738938Y-48736062D01*
X132727882Y-48719517D01*
X132724000Y-48700000D01*
X132724000Y-46700000D01*
X132727882Y-46680483D01*
X132738938Y-46663938D01*
X132755483Y-46652882D01*
X132775000Y-46649000D01*
X133225000Y-46649000D01*
X133244517Y-46652882D01*
G37*
G36*
X134244517Y-46652882D02*
G01*
X134261062Y-46663938D01*
X134272118Y-46680483D01*
X134276000Y-46700000D01*
X134276000Y-48700000D01*
X134272118Y-48719517D01*
X134261062Y-48736062D01*
X134244517Y-48747118D01*
X134225000Y-48751000D01*
X133775000Y-48751000D01*
X133755483Y-48747118D01*
X133738938Y-48736062D01*
X133727882Y-48719517D01*
X133724000Y-48700000D01*
X133724000Y-46700000D01*
X133727882Y-46680483D01*
X133738938Y-46663938D01*
X133755483Y-46652882D01*
X133775000Y-46649000D01*
X134225000Y-46649000D01*
X134244517Y-46652882D01*
G37*
G36*
X135244517Y-46652882D02*
G01*
X135261062Y-46663938D01*
X135272118Y-46680483D01*
X135276000Y-46700000D01*
X135276000Y-48700000D01*
X135272118Y-48719517D01*
X135261062Y-48736062D01*
X135244517Y-48747118D01*
X135225000Y-48751000D01*
X134775000Y-48751000D01*
X134755483Y-48747118D01*
X134738938Y-48736062D01*
X134727882Y-48719517D01*
X134724000Y-48700000D01*
X134724000Y-46700000D01*
X134727882Y-46680483D01*
X134738938Y-46663938D01*
X134755483Y-46652882D01*
X134775000Y-46649000D01*
X135225000Y-46649000D01*
X135244517Y-46652882D01*
G37*
G36*
X136244517Y-46652882D02*
G01*
X136261062Y-46663938D01*
X136272118Y-46680483D01*
X136276000Y-46700000D01*
X136276000Y-48700000D01*
X136272118Y-48719517D01*
X136261062Y-48736062D01*
X136244517Y-48747118D01*
X136225000Y-48751000D01*
X135775000Y-48751000D01*
X135755483Y-48747118D01*
X135738938Y-48736062D01*
X135727882Y-48719517D01*
X135724000Y-48700000D01*
X135724000Y-46700000D01*
X135727882Y-46680483D01*
X135738938Y-46663938D01*
X135755483Y-46652882D01*
X135775000Y-46649000D01*
X136225000Y-46649000D01*
X136244517Y-46652882D01*
G37*
G36*
X137244517Y-46652882D02*
G01*
X137261062Y-46663938D01*
X137272118Y-46680483D01*
X137276000Y-46700000D01*
X137276000Y-48700000D01*
X137272118Y-48719517D01*
X137261062Y-48736062D01*
X137244517Y-48747118D01*
X137225000Y-48751000D01*
X136775000Y-48751000D01*
X136755483Y-48747118D01*
X136738938Y-48736062D01*
X136727882Y-48719517D01*
X136724000Y-48700000D01*
X136724000Y-46700000D01*
X136727882Y-46680483D01*
X136738938Y-46663938D01*
X136755483Y-46652882D01*
X136775000Y-46649000D01*
X137225000Y-46649000D01*
X137244517Y-46652882D01*
G37*
G36*
X138244517Y-46652882D02*
G01*
X138261062Y-46663938D01*
X138272118Y-46680483D01*
X138276000Y-46700000D01*
X138276000Y-48700000D01*
X138272118Y-48719517D01*
X138261062Y-48736062D01*
X138244517Y-48747118D01*
X138225000Y-48751000D01*
X137775000Y-48751000D01*
X137755483Y-48747118D01*
X137738938Y-48736062D01*
X137727882Y-48719517D01*
X137724000Y-48700000D01*
X137724000Y-46700000D01*
X137727882Y-46680483D01*
X137738938Y-46663938D01*
X137755483Y-46652882D01*
X137775000Y-46649000D01*
X138225000Y-46649000D01*
X138244517Y-46652882D01*
G37*
G36*
X139244517Y-46652882D02*
G01*
X139261062Y-46663938D01*
X139272118Y-46680483D01*
X139276000Y-46700000D01*
X139276000Y-48700000D01*
X139272118Y-48719517D01*
X139261062Y-48736062D01*
X139244517Y-48747118D01*
X139225000Y-48751000D01*
X138775000Y-48751000D01*
X138755483Y-48747118D01*
X138738938Y-48736062D01*
X138727882Y-48719517D01*
X138724000Y-48700000D01*
X138724000Y-46700000D01*
X138727882Y-46680483D01*
X138738938Y-46663938D01*
X138755483Y-46652882D01*
X138775000Y-46649000D01*
X139225000Y-46649000D01*
X139244517Y-46652882D01*
G37*
G36*
X140244517Y-46652882D02*
G01*
X140261062Y-46663938D01*
X140272118Y-46680483D01*
X140276000Y-46700000D01*
X140276000Y-48700000D01*
X140272118Y-48719517D01*
X140261062Y-48736062D01*
X140244517Y-48747118D01*
X140225000Y-48751000D01*
X139775000Y-48751000D01*
X139755483Y-48747118D01*
X139738938Y-48736062D01*
X139727882Y-48719517D01*
X139724000Y-48700000D01*
X139724000Y-46700000D01*
X139727882Y-46680483D01*
X139738938Y-46663938D01*
X139755483Y-46652882D01*
X139775000Y-46649000D01*
X140225000Y-46649000D01*
X140244517Y-46652882D01*
G37*
G36*
X141244517Y-46652882D02*
G01*
X141261062Y-46663938D01*
X141272118Y-46680483D01*
X141276000Y-46700000D01*
X141276000Y-48700000D01*
X141272118Y-48719517D01*
X141261062Y-48736062D01*
X141244517Y-48747118D01*
X141225000Y-48751000D01*
X140775000Y-48751000D01*
X140755483Y-48747118D01*
X140738938Y-48736062D01*
X140727882Y-48719517D01*
X140724000Y-48700000D01*
X140724000Y-46700000D01*
X140727882Y-46680483D01*
X140738938Y-46663938D01*
X140755483Y-46652882D01*
X140775000Y-46649000D01*
X141225000Y-46649000D01*
X141244517Y-46652882D01*
G37*
G36*
X116568424Y-46003098D02*
G01*
X116740500Y-46079711D01*
X116892887Y-46190427D01*
X117018924Y-46330405D01*
X117113104Y-46493530D01*
X117171311Y-46672672D01*
X117191000Y-46860000D01*
X117171311Y-47047328D01*
X117113104Y-47226470D01*
X117018924Y-47389595D01*
X116892887Y-47529573D01*
X116740500Y-47640289D01*
X116568424Y-47716902D01*
X116384180Y-47756064D01*
X116195820Y-47756064D01*
X116011576Y-47716902D01*
X115839500Y-47640289D01*
X115687113Y-47529573D01*
X115561076Y-47389595D01*
X115466896Y-47226470D01*
X115408689Y-47047328D01*
X115389000Y-46860000D01*
X115408689Y-46672672D01*
X115466896Y-46493530D01*
X115561076Y-46330405D01*
X115687113Y-46190427D01*
X115839500Y-46079711D01*
X116011576Y-46003098D01*
X116195820Y-45963936D01*
X116384180Y-45963936D01*
X116568424Y-46003098D01*
G37*
G36*
X143006179Y-44843158D02*
G01*
X143066522Y-44883478D01*
X143106842Y-44943821D01*
X143121000Y-45015000D01*
X143121000Y-45385000D01*
X143106842Y-45456179D01*
X143066522Y-45516522D01*
X143006179Y-45556842D01*
X142935000Y-45571000D01*
X142665000Y-45571000D01*
X142593821Y-45556842D01*
X142533478Y-45516522D01*
X142493158Y-45456179D01*
X142479000Y-45385000D01*
X142479000Y-45015000D01*
X142493158Y-44943821D01*
X142533478Y-44883478D01*
X142593821Y-44843158D01*
X142665000Y-44829000D01*
X142935000Y-44829000D01*
X143006179Y-44843158D01*
G37*
G36*
X144026179Y-44843158D02*
G01*
X144086522Y-44883478D01*
X144126842Y-44943821D01*
X144141000Y-45015000D01*
X144141000Y-45385000D01*
X144126842Y-45456179D01*
X144086522Y-45516522D01*
X144026179Y-45556842D01*
X143955000Y-45571000D01*
X143685000Y-45571000D01*
X143613821Y-45556842D01*
X143553478Y-45516522D01*
X143513158Y-45456179D01*
X143499000Y-45385000D01*
X143499000Y-45015000D01*
X143513158Y-44943821D01*
X143553478Y-44883478D01*
X143613821Y-44843158D01*
X143685000Y-44829000D01*
X143955000Y-44829000D01*
X144026179Y-44843158D01*
G37*
G36*
X123971919Y-43289300D02*
G01*
X124037128Y-43332872D01*
X124080700Y-43398081D01*
X124096000Y-43475000D01*
X124096000Y-45225000D01*
X124080700Y-45301919D01*
X124037128Y-45367128D01*
X123971919Y-45410700D01*
X123895000Y-45426000D01*
X123595000Y-45426000D01*
X123518081Y-45410700D01*
X123452872Y-45367128D01*
X123409300Y-45301919D01*
X123394000Y-45225000D01*
X123394000Y-43475000D01*
X123409300Y-43398081D01*
X123452872Y-43332872D01*
X123518081Y-43289300D01*
X123595000Y-43274000D01*
X123895000Y-43274000D01*
X123971919Y-43289300D01*
G37*
G36*
X125241919Y-43289300D02*
G01*
X125307128Y-43332872D01*
X125350700Y-43398081D01*
X125366000Y-43475000D01*
X125366000Y-45225000D01*
X125350700Y-45301919D01*
X125307128Y-45367128D01*
X125241919Y-45410700D01*
X125165000Y-45426000D01*
X124865000Y-45426000D01*
X124788081Y-45410700D01*
X124722872Y-45367128D01*
X124679300Y-45301919D01*
X124664000Y-45225000D01*
X124664000Y-43475000D01*
X124679300Y-43398081D01*
X124722872Y-43332872D01*
X124788081Y-43289300D01*
X124865000Y-43274000D01*
X125165000Y-43274000D01*
X125241919Y-43289300D01*
G37*
G36*
X126511919Y-43289300D02*
G01*
X126577128Y-43332872D01*
X126620700Y-43398081D01*
X126636000Y-43475000D01*
X126636000Y-45225000D01*
X126620700Y-45301919D01*
X126577128Y-45367128D01*
X126511919Y-45410700D01*
X126435000Y-45426000D01*
X126135000Y-45426000D01*
X126058081Y-45410700D01*
X125992872Y-45367128D01*
X125949300Y-45301919D01*
X125934000Y-45225000D01*
X125934000Y-43475000D01*
X125949300Y-43398081D01*
X125992872Y-43332872D01*
X126058081Y-43289300D01*
X126135000Y-43274000D01*
X126435000Y-43274000D01*
X126511919Y-43289300D01*
G37*
G36*
X127781919Y-43289300D02*
G01*
X127847128Y-43332872D01*
X127890700Y-43398081D01*
X127906000Y-43475000D01*
X127906000Y-45225000D01*
X127890700Y-45301919D01*
X127847128Y-45367128D01*
X127781919Y-45410700D01*
X127705000Y-45426000D01*
X127405000Y-45426000D01*
X127328081Y-45410700D01*
X127262872Y-45367128D01*
X127219300Y-45301919D01*
X127204000Y-45225000D01*
X127204000Y-43475000D01*
X127219300Y-43398081D01*
X127262872Y-43332872D01*
X127328081Y-43289300D01*
X127405000Y-43274000D01*
X127705000Y-43274000D01*
X127781919Y-43289300D01*
G37*
G36*
X129051919Y-43289300D02*
G01*
X129117128Y-43332872D01*
X129160700Y-43398081D01*
X129176000Y-43475000D01*
X129176000Y-45225000D01*
X129160700Y-45301919D01*
X129117128Y-45367128D01*
X129051919Y-45410700D01*
X128975000Y-45426000D01*
X128675000Y-45426000D01*
X128598081Y-45410700D01*
X128532872Y-45367128D01*
X128489300Y-45301919D01*
X128474000Y-45225000D01*
X128474000Y-43475000D01*
X128489300Y-43398081D01*
X128532872Y-43332872D01*
X128598081Y-43289300D01*
X128675000Y-43274000D01*
X128975000Y-43274000D01*
X129051919Y-43289300D01*
G37*
G36*
X130321919Y-43289300D02*
G01*
X130387128Y-43332872D01*
X130430700Y-43398081D01*
X130446000Y-43475000D01*
X130446000Y-45225000D01*
X130430700Y-45301919D01*
X130387128Y-45367128D01*
X130321919Y-45410700D01*
X130245000Y-45426000D01*
X129945000Y-45426000D01*
X129868081Y-45410700D01*
X129802872Y-45367128D01*
X129759300Y-45301919D01*
X129744000Y-45225000D01*
X129744000Y-43475000D01*
X129759300Y-43398081D01*
X129802872Y-43332872D01*
X129868081Y-43289300D01*
X129945000Y-43274000D01*
X130245000Y-43274000D01*
X130321919Y-43289300D01*
G37*
G36*
X131591919Y-43289300D02*
G01*
X131657128Y-43332872D01*
X131700700Y-43398081D01*
X131716000Y-43475000D01*
X131716000Y-45225000D01*
X131700700Y-45301919D01*
X131657128Y-45367128D01*
X131591919Y-45410700D01*
X131515000Y-45426000D01*
X131215000Y-45426000D01*
X131138081Y-45410700D01*
X131072872Y-45367128D01*
X131029300Y-45301919D01*
X131014000Y-45225000D01*
X131014000Y-43475000D01*
X131029300Y-43398081D01*
X131072872Y-43332872D01*
X131138081Y-43289300D01*
X131215000Y-43274000D01*
X131515000Y-43274000D01*
X131591919Y-43289300D01*
G37*
G36*
X132861919Y-43289300D02*
G01*
X132927128Y-43332872D01*
X132970700Y-43398081D01*
X132986000Y-43475000D01*
X132986000Y-45225000D01*
X132970700Y-45301919D01*
X132927128Y-45367128D01*
X132861919Y-45410700D01*
X132785000Y-45426000D01*
X132485000Y-45426000D01*
X132408081Y-45410700D01*
X132342872Y-45367128D01*
X132299300Y-45301919D01*
X132284000Y-45225000D01*
X132284000Y-43475000D01*
X132299300Y-43398081D01*
X132342872Y-43332872D01*
X132408081Y-43289300D01*
X132485000Y-43274000D01*
X132785000Y-43274000D01*
X132861919Y-43289300D01*
G37*
G36*
X134131919Y-43289300D02*
G01*
X134197128Y-43332872D01*
X134240700Y-43398081D01*
X134256000Y-43475000D01*
X134256000Y-45225000D01*
X134240700Y-45301919D01*
X134197128Y-45367128D01*
X134131919Y-45410700D01*
X134055000Y-45426000D01*
X133755000Y-45426000D01*
X133678081Y-45410700D01*
X133612872Y-45367128D01*
X133569300Y-45301919D01*
X133554000Y-45225000D01*
X133554000Y-43475000D01*
X133569300Y-43398081D01*
X133612872Y-43332872D01*
X133678081Y-43289300D01*
X133755000Y-43274000D01*
X134055000Y-43274000D01*
X134131919Y-43289300D01*
G37*
G36*
X135401919Y-43289300D02*
G01*
X135467128Y-43332872D01*
X135510700Y-43398081D01*
X135526000Y-43475000D01*
X135526000Y-45225000D01*
X135510700Y-45301919D01*
X135467128Y-45367128D01*
X135401919Y-45410700D01*
X135325000Y-45426000D01*
X135025000Y-45426000D01*
X134948081Y-45410700D01*
X134882872Y-45367128D01*
X134839300Y-45301919D01*
X134824000Y-45225000D01*
X134824000Y-43475000D01*
X134839300Y-43398081D01*
X134882872Y-43332872D01*
X134948081Y-43289300D01*
X135025000Y-43274000D01*
X135325000Y-43274000D01*
X135401919Y-43289300D01*
G37*
G36*
X136671919Y-43289300D02*
G01*
X136737128Y-43332872D01*
X136780700Y-43398081D01*
X136796000Y-43475000D01*
X136796000Y-45225000D01*
X136780700Y-45301919D01*
X136737128Y-45367128D01*
X136671919Y-45410700D01*
X136595000Y-45426000D01*
X136295000Y-45426000D01*
X136218081Y-45410700D01*
X136152872Y-45367128D01*
X136109300Y-45301919D01*
X136094000Y-45225000D01*
X136094000Y-43475000D01*
X136109300Y-43398081D01*
X136152872Y-43332872D01*
X136218081Y-43289300D01*
X136295000Y-43274000D01*
X136595000Y-43274000D01*
X136671919Y-43289300D01*
G37*
G36*
X137941919Y-43289300D02*
G01*
X138007128Y-43332872D01*
X138050700Y-43398081D01*
X138066000Y-43475000D01*
X138066000Y-45225000D01*
X138050700Y-45301919D01*
X138007128Y-45367128D01*
X137941919Y-45410700D01*
X137865000Y-45426000D01*
X137565000Y-45426000D01*
X137488081Y-45410700D01*
X137422872Y-45367128D01*
X137379300Y-45301919D01*
X137364000Y-45225000D01*
X137364000Y-43475000D01*
X137379300Y-43398081D01*
X137422872Y-43332872D01*
X137488081Y-43289300D01*
X137565000Y-43274000D01*
X137865000Y-43274000D01*
X137941919Y-43289300D01*
G37*
G36*
X139211919Y-43289300D02*
G01*
X139277128Y-43332872D01*
X139320700Y-43398081D01*
X139336000Y-43475000D01*
X139336000Y-45225000D01*
X139320700Y-45301919D01*
X139277128Y-45367128D01*
X139211919Y-45410700D01*
X139135000Y-45426000D01*
X138835000Y-45426000D01*
X138758081Y-45410700D01*
X138692872Y-45367128D01*
X138649300Y-45301919D01*
X138634000Y-45225000D01*
X138634000Y-43475000D01*
X138649300Y-43398081D01*
X138692872Y-43332872D01*
X138758081Y-43289300D01*
X138835000Y-43274000D01*
X139135000Y-43274000D01*
X139211919Y-43289300D01*
G37*
G36*
X140481919Y-43289300D02*
G01*
X140547128Y-43332872D01*
X140590700Y-43398081D01*
X140606000Y-43475000D01*
X140606000Y-45225000D01*
X140590700Y-45301919D01*
X140547128Y-45367128D01*
X140481919Y-45410700D01*
X140405000Y-45426000D01*
X140105000Y-45426000D01*
X140028081Y-45410700D01*
X139962872Y-45367128D01*
X139919300Y-45301919D01*
X139904000Y-45225000D01*
X139904000Y-43475000D01*
X139919300Y-43398081D01*
X139962872Y-43332872D01*
X140028081Y-43289300D01*
X140105000Y-43274000D01*
X140405000Y-43274000D01*
X140481919Y-43289300D01*
G37*
G36*
X116568424Y-43463098D02*
G01*
X116740500Y-43539711D01*
X116892887Y-43650427D01*
X117018924Y-43790405D01*
X117113104Y-43953530D01*
X117171311Y-44132672D01*
X117191000Y-44320000D01*
X117171311Y-44507328D01*
X117113104Y-44686470D01*
X117018924Y-44849595D01*
X116892887Y-44989573D01*
X116740500Y-45100289D01*
X116568424Y-45176902D01*
X116384180Y-45216064D01*
X116195820Y-45216064D01*
X116011576Y-45176902D01*
X115839500Y-45100289D01*
X115687113Y-44989573D01*
X115561076Y-44849595D01*
X115466896Y-44686470D01*
X115408689Y-44507328D01*
X115389000Y-44320000D01*
X115408689Y-44132672D01*
X115466896Y-43953530D01*
X115561076Y-43790405D01*
X115687113Y-43650427D01*
X115839500Y-43539711D01*
X116011576Y-43463098D01*
X116195820Y-43423936D01*
X116384180Y-43423936D01*
X116568424Y-43463098D01*
G37*
G36*
X111794517Y-43077882D02*
G01*
X111811062Y-43088938D01*
X111822118Y-43105483D01*
X111826000Y-43125000D01*
X111826000Y-44375000D01*
X111822118Y-44394517D01*
X111811062Y-44411062D01*
X111794517Y-44422118D01*
X111775000Y-44426000D01*
X110525000Y-44426000D01*
X109525000Y-44426000D01*
X109505483Y-44422118D01*
X109488938Y-44411062D01*
X109477882Y-44394517D01*
X109474000Y-44375000D01*
X109474000Y-43125000D01*
X109477882Y-43105483D01*
X109488938Y-43088938D01*
X109505483Y-43077882D01*
X109525000Y-43074000D01*
X110775000Y-43074000D01*
X111771550Y-43074000D01*
X111775000Y-43074000D01*
X111794517Y-43077882D01*
G37*
G36*
X143053093Y-43553539D02*
G01*
X143115057Y-43594943D01*
X143156461Y-43656907D01*
X143171000Y-43730000D01*
X143171000Y-44070000D01*
X143156461Y-44143093D01*
X143115057Y-44205057D01*
X143053093Y-44246461D01*
X142980000Y-44261000D01*
X142700000Y-44261000D01*
X142626907Y-44246461D01*
X142564943Y-44205057D01*
X142523539Y-44143093D01*
X142509000Y-44070000D01*
X142509000Y-43730000D01*
X142523539Y-43656907D01*
X142564943Y-43594943D01*
X142626907Y-43553539D01*
X142700000Y-43539000D01*
X142980000Y-43539000D01*
X143053093Y-43553539D01*
G37*
G36*
X144013093Y-43553539D02*
G01*
X144075057Y-43594943D01*
X144116461Y-43656907D01*
X144131000Y-43730000D01*
X144131000Y-44070000D01*
X144116461Y-44143093D01*
X144075057Y-44205057D01*
X144013093Y-44246461D01*
X143940000Y-44261000D01*
X143660000Y-44261000D01*
X143586907Y-44246461D01*
X143524943Y-44205057D01*
X143483539Y-44143093D01*
X143469000Y-44070000D01*
X143469000Y-43730000D01*
X143483539Y-43656907D01*
X143524943Y-43594943D01*
X143586907Y-43553539D01*
X143660000Y-43539000D01*
X143940000Y-43539000D01*
X144013093Y-43553539D01*
G37*
G36*
X142986179Y-42243158D02*
G01*
X143046522Y-42283478D01*
X143086842Y-42343821D01*
X143101000Y-42415000D01*
X143101000Y-42785000D01*
X143086842Y-42856179D01*
X143046522Y-42916522D01*
X142986179Y-42956842D01*
X142915000Y-42971000D01*
X142645000Y-42971000D01*
X142573821Y-42956842D01*
X142513478Y-42916522D01*
X142473158Y-42856179D01*
X142459000Y-42785000D01*
X142459000Y-42415000D01*
X142473158Y-42343821D01*
X142513478Y-42283478D01*
X142573821Y-42243158D01*
X142645000Y-42229000D01*
X142915000Y-42229000D01*
X142986179Y-42243158D01*
G37*
G36*
X144006179Y-42243158D02*
G01*
X144066522Y-42283478D01*
X144106842Y-42343821D01*
X144121000Y-42415000D01*
X144121000Y-42785000D01*
X144106842Y-42856179D01*
X144066522Y-42916522D01*
X144006179Y-42956842D01*
X143935000Y-42971000D01*
X143665000Y-42971000D01*
X143593821Y-42956842D01*
X143533478Y-42916522D01*
X143493158Y-42856179D01*
X143479000Y-42785000D01*
X143479000Y-42415000D01*
X143493158Y-42343821D01*
X143533478Y-42283478D01*
X143593821Y-42243158D01*
X143665000Y-42229000D01*
X143935000Y-42229000D01*
X144006179Y-42243158D01*
G37*
G36*
X116568424Y-40923098D02*
G01*
X116740500Y-40999711D01*
X116892887Y-41110427D01*
X117018924Y-41250405D01*
X117113104Y-41413530D01*
X117171311Y-41592672D01*
X117191000Y-41780000D01*
X117171311Y-41967328D01*
X117113104Y-42146470D01*
X117018924Y-42309595D01*
X116892887Y-42449573D01*
X116740500Y-42560289D01*
X116568424Y-42636902D01*
X116384180Y-42676064D01*
X116195820Y-42676064D01*
X116011576Y-42636902D01*
X115839500Y-42560289D01*
X115687113Y-42449573D01*
X115561076Y-42309595D01*
X115466896Y-42146470D01*
X115408689Y-41967328D01*
X115389000Y-41780000D01*
X115408689Y-41592672D01*
X115466896Y-41413530D01*
X115561076Y-41250405D01*
X115687113Y-41110427D01*
X115839500Y-40999711D01*
X116011576Y-40923098D01*
X116195820Y-40883936D01*
X116384180Y-40883936D01*
X116568424Y-40923098D01*
G37*
G36*
X111794517Y-41327882D02*
G01*
X111811062Y-41338938D01*
X111822118Y-41355483D01*
X111826000Y-41375000D01*
X111826000Y-42625000D01*
X111822118Y-42644517D01*
X111811062Y-42661062D01*
X111794517Y-42672118D01*
X111775000Y-42676000D01*
X110525000Y-42676000D01*
X109525000Y-42676000D01*
X109505483Y-42672118D01*
X109488938Y-42661062D01*
X109477882Y-42644517D01*
X109474000Y-42625000D01*
X109474000Y-41375000D01*
X109477882Y-41355483D01*
X109488938Y-41338938D01*
X109505483Y-41327882D01*
X109525000Y-41324000D01*
X110775000Y-41324000D01*
X111771550Y-41324000D01*
X111775000Y-41324000D01*
X111794517Y-41327882D01*
G37*
G36*
X143006179Y-40943158D02*
G01*
X143066522Y-40983478D01*
X143106842Y-41043821D01*
X143121000Y-41115000D01*
X143121000Y-41485000D01*
X143106842Y-41556179D01*
X143066522Y-41616522D01*
X143006179Y-41656842D01*
X142935000Y-41671000D01*
X142665000Y-41671000D01*
X142593821Y-41656842D01*
X142533478Y-41616522D01*
X142493158Y-41556179D01*
X142479000Y-41485000D01*
X142479000Y-41115000D01*
X142493158Y-41043821D01*
X142533478Y-40983478D01*
X142593821Y-40943158D01*
X142665000Y-40929000D01*
X142935000Y-40929000D01*
X143006179Y-40943158D01*
G37*
G36*
X144026179Y-40943158D02*
G01*
X144086522Y-40983478D01*
X144126842Y-41043821D01*
X144141000Y-41115000D01*
X144141000Y-41485000D01*
X144126842Y-41556179D01*
X144086522Y-41616522D01*
X144026179Y-41656842D01*
X143955000Y-41671000D01*
X143685000Y-41671000D01*
X143613821Y-41656842D01*
X143553478Y-41616522D01*
X143513158Y-41556179D01*
X143499000Y-41485000D01*
X143499000Y-41115000D01*
X143513158Y-41043821D01*
X143553478Y-40983478D01*
X143613821Y-40943158D01*
X143685000Y-40929000D01*
X143955000Y-40929000D01*
X144026179Y-40943158D01*
G37*
G36*
X111794517Y-39577882D02*
G01*
X111811062Y-39588938D01*
X111822118Y-39605483D01*
X111826000Y-39625000D01*
X111826000Y-40875000D01*
X111822118Y-40894517D01*
X111811062Y-40911062D01*
X111794517Y-40922118D01*
X111775000Y-40926000D01*
X110525000Y-40926000D01*
X109525000Y-40926000D01*
X109505483Y-40922118D01*
X109488938Y-40911062D01*
X109477882Y-40894517D01*
X109474000Y-40875000D01*
X109474000Y-39625000D01*
X109477882Y-39605483D01*
X109488938Y-39588938D01*
X109505483Y-39577882D01*
X109525000Y-39574000D01*
X110775000Y-39574000D01*
X111771550Y-39574000D01*
X111775000Y-39574000D01*
X111794517Y-39577882D01*
G37*
G36*
X116568424Y-38383098D02*
G01*
X116740500Y-38459711D01*
X116892887Y-38570427D01*
X117018924Y-38710405D01*
X117113104Y-38873530D01*
X117171311Y-39052672D01*
X117191000Y-39240000D01*
X117171311Y-39427328D01*
X117113104Y-39606470D01*
X117018924Y-39769595D01*
X116892887Y-39909573D01*
X116740500Y-40020289D01*
X116568424Y-40096902D01*
X116384180Y-40136064D01*
X116195820Y-40136064D01*
X116011576Y-40096902D01*
X115839500Y-40020289D01*
X115687113Y-39909573D01*
X115561076Y-39769595D01*
X115466896Y-39606470D01*
X115408689Y-39427328D01*
X115389000Y-39240000D01*
X115408689Y-39052672D01*
X115466896Y-38873530D01*
X115561076Y-38710405D01*
X115687113Y-38570427D01*
X115839500Y-38459711D01*
X116011576Y-38383098D01*
X116195820Y-38343936D01*
X116384180Y-38343936D01*
X116568424Y-38383098D01*
G37*
G36*
X111794517Y-37827882D02*
G01*
X111811062Y-37838938D01*
X111822118Y-37855483D01*
X111826000Y-37875000D01*
X111826000Y-39125000D01*
X111822118Y-39144517D01*
X111811062Y-39161062D01*
X111794517Y-39172118D01*
X111775000Y-39176000D01*
X110525000Y-39176000D01*
X109525000Y-39176000D01*
X109505483Y-39172118D01*
X109488938Y-39161062D01*
X109477882Y-39144517D01*
X109474000Y-39125000D01*
X109474000Y-37875000D01*
X109477882Y-37855483D01*
X109488938Y-37838938D01*
X109505483Y-37827882D01*
X109525000Y-37824000D01*
X110775000Y-37824000D01*
X111771550Y-37824000D01*
X111775000Y-37824000D01*
X111794517Y-37827882D01*
G37*
G36*
X117159517Y-35802882D02*
G01*
X117176062Y-35813938D01*
X117187118Y-35830483D01*
X117191000Y-35850000D01*
X117191000Y-37550000D01*
X117187118Y-37569517D01*
X117176062Y-37586062D01*
X117159517Y-37597118D01*
X117140000Y-37601000D01*
X115440000Y-37601000D01*
X115420483Y-37597118D01*
X115403938Y-37586062D01*
X115392882Y-37569517D01*
X115389000Y-37550000D01*
X115389000Y-35850000D01*
X115392882Y-35830483D01*
X115403938Y-35813938D01*
X115420483Y-35802882D01*
X115440000Y-35799000D01*
X117140000Y-35799000D01*
X117159517Y-35802882D01*
G37*
G36*
X111794517Y-36077882D02*
G01*
X111811062Y-36088938D01*
X111822118Y-36105483D01*
X111826000Y-36125000D01*
X111826000Y-37375000D01*
X111822118Y-37394517D01*
X111811062Y-37411062D01*
X111794517Y-37422118D01*
X111775000Y-37426000D01*
X110525000Y-37426000D01*
X109525000Y-37426000D01*
X109505483Y-37422118D01*
X109488938Y-37411062D01*
X109477882Y-37394517D01*
X109474000Y-37375000D01*
X109474000Y-36125000D01*
X109477882Y-36105483D01*
X109488938Y-36088938D01*
X109505483Y-36077882D01*
X109525000Y-36074000D01*
X110775000Y-36074000D01*
X111771550Y-36074000D01*
X111775000Y-36074000D01*
X111794517Y-36077882D01*
G37*
G36*
X120174986Y-34692939D02*
G01*
X120373045Y-34769667D01*
X120553632Y-34881482D01*
X120710599Y-35024576D01*
X120838600Y-35194077D01*
X120933276Y-35384211D01*
X120991402Y-35588504D01*
X121011000Y-35800000D01*
X120991402Y-36011496D01*
X120933276Y-36215789D01*
X120838600Y-36405923D01*
X120710599Y-36575424D01*
X120553632Y-36718518D01*
X120373045Y-36830333D01*
X120174986Y-36907061D01*
X119966201Y-36946090D01*
X119753799Y-36946090D01*
X119545014Y-36907061D01*
X119346955Y-36830333D01*
X119166368Y-36718518D01*
X119009401Y-36575424D01*
X118881400Y-36405923D01*
X118786724Y-36215789D01*
X118728598Y-36011496D01*
X118709000Y-35800000D01*
X118728598Y-35588504D01*
X118786724Y-35384211D01*
X118881400Y-35194077D01*
X119009401Y-35024576D01*
X119166368Y-34881482D01*
X119346955Y-34769667D01*
X119545014Y-34692939D01*
X119753799Y-34653910D01*
X119966201Y-34653910D01*
X120174986Y-34692939D01*
G37*
G36*
X123971919Y-33989300D02*
G01*
X124037128Y-34032872D01*
X124080700Y-34098081D01*
X124096000Y-34175000D01*
X124096000Y-35925000D01*
X124080700Y-36001919D01*
X124037128Y-36067128D01*
X123971919Y-36110700D01*
X123895000Y-36126000D01*
X123595000Y-36126000D01*
X123518081Y-36110700D01*
X123452872Y-36067128D01*
X123409300Y-36001919D01*
X123394000Y-35925000D01*
X123394000Y-34175000D01*
X123409300Y-34098081D01*
X123452872Y-34032872D01*
X123518081Y-33989300D01*
X123595000Y-33974000D01*
X123895000Y-33974000D01*
X123971919Y-33989300D01*
G37*
G36*
X125241919Y-33989300D02*
G01*
X125307128Y-34032872D01*
X125350700Y-34098081D01*
X125366000Y-34175000D01*
X125366000Y-35925000D01*
X125350700Y-36001919D01*
X125307128Y-36067128D01*
X125241919Y-36110700D01*
X125165000Y-36126000D01*
X124865000Y-36126000D01*
X124788081Y-36110700D01*
X124722872Y-36067128D01*
X124679300Y-36001919D01*
X124664000Y-35925000D01*
X124664000Y-34175000D01*
X124679300Y-34098081D01*
X124722872Y-34032872D01*
X124788081Y-33989300D01*
X124865000Y-33974000D01*
X125165000Y-33974000D01*
X125241919Y-33989300D01*
G37*
G36*
X126511919Y-33989300D02*
G01*
X126577128Y-34032872D01*
X126620700Y-34098081D01*
X126636000Y-34175000D01*
X126636000Y-35925000D01*
X126620700Y-36001919D01*
X126577128Y-36067128D01*
X126511919Y-36110700D01*
X126435000Y-36126000D01*
X126135000Y-36126000D01*
X126058081Y-36110700D01*
X125992872Y-36067128D01*
X125949300Y-36001919D01*
X125934000Y-35925000D01*
X125934000Y-34175000D01*
X125949300Y-34098081D01*
X125992872Y-34032872D01*
X126058081Y-33989300D01*
X126135000Y-33974000D01*
X126435000Y-33974000D01*
X126511919Y-33989300D01*
G37*
G36*
X127781919Y-33989300D02*
G01*
X127847128Y-34032872D01*
X127890700Y-34098081D01*
X127906000Y-34175000D01*
X127906000Y-35925000D01*
X127890700Y-36001919D01*
X127847128Y-36067128D01*
X127781919Y-36110700D01*
X127705000Y-36126000D01*
X127405000Y-36126000D01*
X127328081Y-36110700D01*
X127262872Y-36067128D01*
X127219300Y-36001919D01*
X127204000Y-35925000D01*
X127204000Y-34175000D01*
X127219300Y-34098081D01*
X127262872Y-34032872D01*
X127328081Y-33989300D01*
X127405000Y-33974000D01*
X127705000Y-33974000D01*
X127781919Y-33989300D01*
G37*
G36*
X129051919Y-33989300D02*
G01*
X129117128Y-34032872D01*
X129160700Y-34098081D01*
X129176000Y-34175000D01*
X129176000Y-35925000D01*
X129160700Y-36001919D01*
X129117128Y-36067128D01*
X129051919Y-36110700D01*
X128975000Y-36126000D01*
X128675000Y-36126000D01*
X128598081Y-36110700D01*
X128532872Y-36067128D01*
X128489300Y-36001919D01*
X128474000Y-35925000D01*
X128474000Y-34175000D01*
X128489300Y-34098081D01*
X128532872Y-34032872D01*
X128598081Y-33989300D01*
X128675000Y-33974000D01*
X128975000Y-33974000D01*
X129051919Y-33989300D01*
G37*
G36*
X130321919Y-33989300D02*
G01*
X130387128Y-34032872D01*
X130430700Y-34098081D01*
X130446000Y-34175000D01*
X130446000Y-35925000D01*
X130430700Y-36001919D01*
X130387128Y-36067128D01*
X130321919Y-36110700D01*
X130245000Y-36126000D01*
X129945000Y-36126000D01*
X129868081Y-36110700D01*
X129802872Y-36067128D01*
X129759300Y-36001919D01*
X129744000Y-35925000D01*
X129744000Y-34175000D01*
X129759300Y-34098081D01*
X129802872Y-34032872D01*
X129868081Y-33989300D01*
X129945000Y-33974000D01*
X130245000Y-33974000D01*
X130321919Y-33989300D01*
G37*
G36*
X131591919Y-33989300D02*
G01*
X131657128Y-34032872D01*
X131700700Y-34098081D01*
X131716000Y-34175000D01*
X131716000Y-35925000D01*
X131700700Y-36001919D01*
X131657128Y-36067128D01*
X131591919Y-36110700D01*
X131515000Y-36126000D01*
X131215000Y-36126000D01*
X131138081Y-36110700D01*
X131072872Y-36067128D01*
X131029300Y-36001919D01*
X131014000Y-35925000D01*
X131014000Y-34175000D01*
X131029300Y-34098081D01*
X131072872Y-34032872D01*
X131138081Y-33989300D01*
X131215000Y-33974000D01*
X131515000Y-33974000D01*
X131591919Y-33989300D01*
G37*
G36*
X132861919Y-33989300D02*
G01*
X132927128Y-34032872D01*
X132970700Y-34098081D01*
X132986000Y-34175000D01*
X132986000Y-35925000D01*
X132970700Y-36001919D01*
X132927128Y-36067128D01*
X132861919Y-36110700D01*
X132785000Y-36126000D01*
X132485000Y-36126000D01*
X132408081Y-36110700D01*
X132342872Y-36067128D01*
X132299300Y-36001919D01*
X132284000Y-35925000D01*
X132284000Y-34175000D01*
X132299300Y-34098081D01*
X132342872Y-34032872D01*
X132408081Y-33989300D01*
X132485000Y-33974000D01*
X132785000Y-33974000D01*
X132861919Y-33989300D01*
G37*
G36*
X134131919Y-33989300D02*
G01*
X134197128Y-34032872D01*
X134240700Y-34098081D01*
X134256000Y-34175000D01*
X134256000Y-35925000D01*
X134240700Y-36001919D01*
X134197128Y-36067128D01*
X134131919Y-36110700D01*
X134055000Y-36126000D01*
X133755000Y-36126000D01*
X133678081Y-36110700D01*
X133612872Y-36067128D01*
X133569300Y-36001919D01*
X133554000Y-35925000D01*
X133554000Y-34175000D01*
X133569300Y-34098081D01*
X133612872Y-34032872D01*
X133678081Y-33989300D01*
X133755000Y-33974000D01*
X134055000Y-33974000D01*
X134131919Y-33989300D01*
G37*
G36*
X135401919Y-33989300D02*
G01*
X135467128Y-34032872D01*
X135510700Y-34098081D01*
X135526000Y-34175000D01*
X135526000Y-35925000D01*
X135510700Y-36001919D01*
X135467128Y-36067128D01*
X135401919Y-36110700D01*
X135325000Y-36126000D01*
X135025000Y-36126000D01*
X134948081Y-36110700D01*
X134882872Y-36067128D01*
X134839300Y-36001919D01*
X134824000Y-35925000D01*
X134824000Y-34175000D01*
X134839300Y-34098081D01*
X134882872Y-34032872D01*
X134948081Y-33989300D01*
X135025000Y-33974000D01*
X135325000Y-33974000D01*
X135401919Y-33989300D01*
G37*
G36*
X136671919Y-33989300D02*
G01*
X136737128Y-34032872D01*
X136780700Y-34098081D01*
X136796000Y-34175000D01*
X136796000Y-35925000D01*
X136780700Y-36001919D01*
X136737128Y-36067128D01*
X136671919Y-36110700D01*
X136595000Y-36126000D01*
X136295000Y-36126000D01*
X136218081Y-36110700D01*
X136152872Y-36067128D01*
X136109300Y-36001919D01*
X136094000Y-35925000D01*
X136094000Y-34175000D01*
X136109300Y-34098081D01*
X136152872Y-34032872D01*
X136218081Y-33989300D01*
X136295000Y-33974000D01*
X136595000Y-33974000D01*
X136671919Y-33989300D01*
G37*
G36*
X137941919Y-33989300D02*
G01*
X138007128Y-34032872D01*
X138050700Y-34098081D01*
X138066000Y-34175000D01*
X138066000Y-35925000D01*
X138050700Y-36001919D01*
X138007128Y-36067128D01*
X137941919Y-36110700D01*
X137865000Y-36126000D01*
X137565000Y-36126000D01*
X137488081Y-36110700D01*
X137422872Y-36067128D01*
X137379300Y-36001919D01*
X137364000Y-35925000D01*
X137364000Y-34175000D01*
X137379300Y-34098081D01*
X137422872Y-34032872D01*
X137488081Y-33989300D01*
X137565000Y-33974000D01*
X137865000Y-33974000D01*
X137941919Y-33989300D01*
G37*
G36*
X139211919Y-33989300D02*
G01*
X139277128Y-34032872D01*
X139320700Y-34098081D01*
X139336000Y-34175000D01*
X139336000Y-35925000D01*
X139320700Y-36001919D01*
X139277128Y-36067128D01*
X139211919Y-36110700D01*
X139135000Y-36126000D01*
X138835000Y-36126000D01*
X138758081Y-36110700D01*
X138692872Y-36067128D01*
X138649300Y-36001919D01*
X138634000Y-35925000D01*
X138634000Y-34175000D01*
X138649300Y-34098081D01*
X138692872Y-34032872D01*
X138758081Y-33989300D01*
X138835000Y-33974000D01*
X139135000Y-33974000D01*
X139211919Y-33989300D01*
G37*
G36*
X140481919Y-33989300D02*
G01*
X140547128Y-34032872D01*
X140590700Y-34098081D01*
X140606000Y-34175000D01*
X140606000Y-35925000D01*
X140590700Y-36001919D01*
X140547128Y-36067128D01*
X140481919Y-36110700D01*
X140405000Y-36126000D01*
X140105000Y-36126000D01*
X140028081Y-36110700D01*
X139962872Y-36067128D01*
X139919300Y-36001919D01*
X139904000Y-35925000D01*
X139904000Y-34175000D01*
X139919300Y-34098081D01*
X139962872Y-34032872D01*
X140028081Y-33989300D01*
X140105000Y-33974000D01*
X140405000Y-33974000D01*
X140481919Y-33989300D01*
G37*
M02*
