M48
; DRILL file {KiCad 7.0.5} date Tue Feb 13 07:46:20 2024
; FORMAT={-:-/ absolute / inch / decimal}
; #@! TF.CreationDate,2024-02-13T07:46:20-05:00
; #@! TF.GenerationSoftware,Kicad,Pcbnew,7.0.5
; #@! TF.FileFunction,Plated,1,2,PTH
FMAT,2
INCH
; #@! TA.AperFunction,Plated,PTH,ViaDrill
T1C0.0157
; #@! TA.AperFunction,Plated,PTH,ComponentDrill
T2C0.0300
; #@! TA.AperFunction,Plated,PTH,ComponentDrill
T3C0.0394
%
G90
G05
T1
X4.3803Y-2.2335
X4.3815Y-1.9571
X4.3815Y-2.1106
X4.4309Y-2.1673
X4.4701Y-2.2138
X4.5063Y-2.152
X4.5201Y-2.622
X4.5638Y-2.1413
X4.6067Y-2.6217
X4.6161Y-2.1024
X4.6209Y-2.015
X4.6256Y-2.0588
X4.6264Y-1.9256
X4.6654Y-2.5709
X4.7173Y-1.8736
X4.7205Y-2.5709
X4.7244Y-2.5079
X4.7335Y-2.6516
X4.7441Y-1.9606
X4.7785Y-1.8732
X4.7953Y-2.1929
X4.7953Y-2.2717
X4.7953Y-2.3543
X4.8333Y-2.4697
X4.8701Y-1.4528
X4.8823Y-2.5079
X4.9197Y-2.0352
X4.9236Y-2.3736
X4.9443Y-2.4071
X4.9528Y-2.0614
X4.9835Y-2.086
X5.0104Y-2.4417
X5.0169Y-2.1075
X5.0236Y-1.6063
X5.039Y-2.474
X5.0709Y-1.6535
X5.122Y-1.6063
X5.1693Y-1.6535
X5.1969Y-2.5079
X5.2205Y-1.6063
X5.2717Y-1.6535
X5.3071Y-2.0354
X5.3189Y-1.6063
X5.3415Y-1.9961
X5.3701Y-1.6535
X5.3898Y-2.0276
X5.4039Y-2.4382
X5.4213Y-1.6063
X5.4213Y-2.0
X5.4724Y-1.6535
X5.5118Y-2.5079
X5.5236Y-1.6102
X5.5433Y-1.9488
X5.5512Y-2.5079
X5.5862Y-1.6772
X5.5866Y-1.626
X5.5866Y-2.0984
X5.622Y-1.8189
X5.6295Y-1.5776
X5.6693Y-1.9409
T2
X4.3366Y-1.4469
X4.3366Y-1.5157
X4.3366Y-1.5846
X4.3366Y-1.6535
X4.3366Y-1.7224
X4.376Y-1.4469
X4.376Y-1.5157
X4.376Y-1.5846
X4.376Y-1.6535
X4.376Y-1.7224
X4.3819Y-2.3425
X4.3819Y-2.439
X4.3819Y-2.5354
X4.565Y-2.7697
X4.565Y-2.8091
X4.6339Y-2.7697
X4.6339Y-2.8091
X4.7028Y-2.7697
X4.7028Y-2.8091
X4.7717Y-2.7697
X4.7717Y-2.8091
X4.8406Y-2.7697
X4.8406Y-2.8091
X4.9094Y-2.7697
X4.9094Y-2.8091
X4.9783Y-2.7697
X4.9783Y-2.8091
X5.0472Y-2.7697
X5.0472Y-2.8091
X5.1161Y-2.7697
X5.1161Y-2.8091
X5.185Y-2.7697
X5.185Y-2.8091
X5.2539Y-2.7697
X5.2539Y-2.8091
X5.3228Y-2.7697
X5.3228Y-2.8091
X5.3917Y-2.7697
X5.3917Y-2.8091
X5.4606Y-2.7697
X5.4606Y-2.8091
X5.5295Y-2.7697
X5.5295Y-2.8091
X5.5984Y-2.7697
X5.5984Y-2.8091
T3
X4.5783Y-1.4449
X4.5783Y-1.5449
X4.5783Y-1.6449
X4.5783Y-1.7449
X4.5783Y-1.8449
T0
M30
