%TF.GenerationSoftware,KiCad,Pcbnew,7.0.5*%
%TF.CreationDate,2024-02-13T07:46:18-05:00*%
%TF.ProjectId,N64SP PCB,4e363453-5020-4504-9342-2e6b69636164,rev?*%
%TF.SameCoordinates,Original*%
%TF.FileFunction,Paste,Top*%
%TF.FilePolarity,Positive*%
%FSLAX46Y46*%
G04 Gerber Fmt 4.6, Leading zero omitted, Abs format (unit mm)*
G04 Created by KiCad (PCBNEW 7.0.5) date 2024-02-13 07:46:18*
%MOMM*%
%LPD*%
G01*
G04 APERTURE LIST*
G04 Aperture macros list*
%AMRoundRect*
0 Rectangle with rounded corners*
0 $1 Rounding radius*
0 $2 $3 $4 $5 $6 $7 $8 $9 X,Y pos of 4 corners*
0 Add a 4 corners polygon primitive as box body*
4,1,4,$2,$3,$4,$5,$6,$7,$8,$9,$2,$3,0*
0 Add four circle primitives for the rounded corners*
1,1,$1+$1,$2,$3*
1,1,$1+$1,$4,$5*
1,1,$1+$1,$6,$7*
1,1,$1+$1,$8,$9*
0 Add four rect primitives between the rounded corners*
20,1,$1+$1,$2,$3,$4,$5,0*
20,1,$1+$1,$4,$5,$6,$7,0*
20,1,$1+$1,$6,$7,$8,$9,0*
20,1,$1+$1,$8,$9,$2,$3,0*%
G04 Aperture macros list end*
%ADD10RoundRect,0.212500X0.212500X-0.212500X0.212500X0.212500X-0.212500X0.212500X-0.212500X-0.212500X0*%
%ADD11RoundRect,0.075000X0.075000X-0.350000X0.075000X0.350000X-0.075000X0.350000X-0.075000X-0.350000X0*%
%ADD12RoundRect,0.075000X0.350000X-0.075000X0.350000X0.075000X-0.350000X0.075000X-0.350000X-0.075000X0*%
%ADD13RoundRect,0.150000X-0.150000X0.875000X-0.150000X-0.875000X0.150000X-0.875000X0.150000X0.875000X0*%
%ADD14R,4.000000X1.300000*%
%ADD15RoundRect,0.140000X-0.140000X-0.170000X0.140000X-0.170000X0.140000X0.170000X-0.140000X0.170000X0*%
%ADD16RoundRect,0.140000X0.170000X-0.140000X0.170000X0.140000X-0.170000X0.140000X-0.170000X-0.140000X0*%
%ADD17RoundRect,0.135000X-0.135000X-0.185000X0.135000X-0.185000X0.135000X0.185000X-0.135000X0.185000X0*%
%ADD18RoundRect,0.135000X0.135000X0.185000X-0.135000X0.185000X-0.135000X-0.185000X0.135000X-0.185000X0*%
%ADD19R,2.000000X0.450000*%
%ADD20R,0.450000X2.000000*%
G04 APERTURE END LIST*
D10*
%TO.C,U13*%
X113575000Y-52125000D03*
X114625000Y-52125000D03*
X113575000Y-51075000D03*
X114625000Y-51075000D03*
D11*
X113125000Y-53550000D03*
X113775000Y-53550000D03*
X114425000Y-53550000D03*
X115075000Y-53550000D03*
D12*
X116050000Y-52575000D03*
X116050000Y-51925000D03*
X116050000Y-51275000D03*
X116050000Y-50625000D03*
D11*
X115075000Y-49650000D03*
X114425000Y-49650000D03*
X113775000Y-49650000D03*
X113125000Y-49650000D03*
D12*
X112150000Y-50625000D03*
X112150000Y-51275000D03*
X112150000Y-51925000D03*
X112150000Y-52575000D03*
%TD*%
D13*
%TO.C,U14*%
X140255000Y-35050000D03*
X138985000Y-35050000D03*
X137715000Y-35050000D03*
X136445000Y-35050000D03*
X135175000Y-35050000D03*
X133905000Y-35050000D03*
X132635000Y-35050000D03*
X131365000Y-35050000D03*
X130095000Y-35050000D03*
X128825000Y-35050000D03*
X127555000Y-35050000D03*
X126285000Y-35050000D03*
X125015000Y-35050000D03*
X123745000Y-35050000D03*
X123745000Y-44350000D03*
X125015000Y-44350000D03*
X126285000Y-44350000D03*
X127555000Y-44350000D03*
X128825000Y-44350000D03*
X130095000Y-44350000D03*
X131365000Y-44350000D03*
X132635000Y-44350000D03*
X133905000Y-44350000D03*
X135175000Y-44350000D03*
X136445000Y-44350000D03*
X137715000Y-44350000D03*
X138985000Y-44350000D03*
X140255000Y-44350000D03*
%TD*%
D14*
%TO.C,Y1*%
X115500000Y-64400000D03*
X115500000Y-59500000D03*
X115500000Y-61900000D03*
%TD*%
D15*
%TO.C,C2*%
X142840000Y-43900000D03*
X143800000Y-43900000D03*
%TD*%
D16*
%TO.C,C36*%
X111260000Y-55750000D03*
X111260000Y-54790000D03*
%TD*%
D15*
%TO.C,C37*%
X118640000Y-66300000D03*
X119600000Y-66300000D03*
%TD*%
D17*
%TO.C,R1*%
X115480000Y-55400000D03*
X116500000Y-55400000D03*
%TD*%
D18*
%TO.C,R7*%
X116520000Y-56700000D03*
X115500000Y-56700000D03*
%TD*%
%TO.C,R11*%
X143800000Y-42600000D03*
X142780000Y-42600000D03*
%TD*%
D17*
%TO.C,R13*%
X142800000Y-45200000D03*
X143820000Y-45200000D03*
%TD*%
D19*
%TO.C,U1*%
X120000000Y-50700000D03*
X120000000Y-51700000D03*
X120000000Y-52700000D03*
X120000000Y-53700000D03*
X120000000Y-54700000D03*
X120000000Y-55700000D03*
X120000000Y-56700000D03*
X120000000Y-57700000D03*
X120000000Y-58700000D03*
X120000000Y-59700000D03*
X120000000Y-60700000D03*
X120000000Y-61700000D03*
X120000000Y-62700000D03*
D20*
X123000000Y-65700000D03*
X124000000Y-65700000D03*
X125000000Y-65700000D03*
X126000000Y-65700000D03*
X127000000Y-65700000D03*
X128000000Y-65700000D03*
X129000000Y-65700000D03*
X130000000Y-65700000D03*
X131000000Y-65700000D03*
X132000000Y-65700000D03*
X133000000Y-65700000D03*
X134000000Y-65700000D03*
X135000000Y-65700000D03*
X136000000Y-65700000D03*
X137000000Y-65700000D03*
X138000000Y-65700000D03*
X139000000Y-65700000D03*
X140000000Y-65700000D03*
X141000000Y-65700000D03*
D19*
X144000000Y-62700000D03*
X144000000Y-61700000D03*
X144000000Y-60700000D03*
X144000000Y-59700000D03*
X144000000Y-58700000D03*
X144000000Y-57700000D03*
X144000000Y-56700000D03*
X144000000Y-55700000D03*
X144000000Y-54700000D03*
X144000000Y-53700000D03*
X144000000Y-52700000D03*
X144000000Y-51700000D03*
X144000000Y-50700000D03*
D20*
X141000000Y-47700000D03*
X140000000Y-47700000D03*
X139000000Y-47700000D03*
X138000000Y-47700000D03*
X137000000Y-47700000D03*
X136000000Y-47700000D03*
X135000000Y-47700000D03*
X134000000Y-47700000D03*
X133000000Y-47700000D03*
X132000000Y-47700000D03*
X131000000Y-47700000D03*
X130000000Y-47700000D03*
X129000000Y-47700000D03*
X128000000Y-47700000D03*
X127000000Y-47700000D03*
X126000000Y-47700000D03*
X125000000Y-47700000D03*
X124000000Y-47700000D03*
X123000000Y-47700000D03*
%TD*%
D18*
%TO.C,R2*%
X143820000Y-41300000D03*
X142800000Y-41300000D03*
%TD*%
M02*
