%TF.GenerationSoftware,KiCad,Pcbnew,7.0.5*%
%TF.CreationDate,2024-02-13T07:46:18-05:00*%
%TF.ProjectId,N64SP PCB,4e363453-5020-4504-9342-2e6b69636164,rev?*%
%TF.SameCoordinates,Original*%
%TF.FileFunction,Soldermask,Bot*%
%TF.FilePolarity,Negative*%
%FSLAX46Y46*%
G04 Gerber Fmt 4.6, Leading zero omitted, Abs format (unit mm)*
G04 Created by KiCad (PCBNEW 7.0.5) date 2024-02-13 07:46:18*
%MOMM*%
%LPD*%
G01*
G04 APERTURE LIST*
G04 APERTURE END LIST*
G36*
X116594517Y-69677882D02*
G01*
X116611062Y-69688938D01*
X116622118Y-69705483D01*
X116626000Y-69725000D01*
X116626000Y-70724999D01*
X116626000Y-70725000D01*
X116626000Y-71975000D01*
X116622118Y-71994517D01*
X116611062Y-72011062D01*
X116594517Y-72022118D01*
X116575000Y-72026000D01*
X115325000Y-72026000D01*
X115305483Y-72022118D01*
X115288938Y-72011062D01*
X115277882Y-71994517D01*
X115274000Y-71975000D01*
X115274000Y-70725000D01*
X115274000Y-70724999D01*
X115274000Y-69728449D01*
X115274000Y-69728448D01*
X115274000Y-69725000D01*
X115277882Y-69705483D01*
X115288938Y-69688938D01*
X115305483Y-69677882D01*
X115325000Y-69674000D01*
X116575000Y-69674000D01*
X116594517Y-69677882D01*
G37*
G36*
X118344517Y-69677882D02*
G01*
X118361062Y-69688938D01*
X118372118Y-69705483D01*
X118376000Y-69725000D01*
X118376000Y-70724999D01*
X118376000Y-70725000D01*
X118376000Y-71975000D01*
X118372118Y-71994517D01*
X118361062Y-72011062D01*
X118344517Y-72022118D01*
X118325000Y-72026000D01*
X117075000Y-72026000D01*
X117055483Y-72022118D01*
X117038938Y-72011062D01*
X117027882Y-71994517D01*
X117024000Y-71975000D01*
X117024000Y-70725000D01*
X117024000Y-70724999D01*
X117024000Y-69728449D01*
X117024000Y-69728448D01*
X117024000Y-69725000D01*
X117027882Y-69705483D01*
X117038938Y-69688938D01*
X117055483Y-69677882D01*
X117075000Y-69674000D01*
X118325000Y-69674000D01*
X118344517Y-69677882D01*
G37*
G36*
X120094517Y-69677882D02*
G01*
X120111062Y-69688938D01*
X120122118Y-69705483D01*
X120126000Y-69725000D01*
X120126000Y-70725000D01*
X120126000Y-71975000D01*
X120122118Y-71994517D01*
X120111062Y-72011062D01*
X120094517Y-72022118D01*
X120075000Y-72026000D01*
X118825000Y-72026000D01*
X118805483Y-72022118D01*
X118788938Y-72011062D01*
X118777882Y-71994517D01*
X118774000Y-71975000D01*
X118774000Y-70725000D01*
X118774000Y-70724999D01*
X118774000Y-69728449D01*
X118774000Y-69728448D01*
X118774000Y-69725000D01*
X118777882Y-69705483D01*
X118788938Y-69688938D01*
X118805483Y-69677882D01*
X118825000Y-69674000D01*
X120075000Y-69674000D01*
X120094517Y-69677882D01*
G37*
G36*
X121844517Y-69677882D02*
G01*
X121861062Y-69688938D01*
X121872118Y-69705483D01*
X121876000Y-69725000D01*
X121876000Y-70725000D01*
X121876000Y-71975000D01*
X121872118Y-71994517D01*
X121861062Y-72011062D01*
X121844517Y-72022118D01*
X121825000Y-72026000D01*
X120575000Y-72026000D01*
X120555483Y-72022118D01*
X120538938Y-72011062D01*
X120527882Y-71994517D01*
X120524000Y-71975000D01*
X120524000Y-70725000D01*
X120524000Y-70724995D01*
X120523999Y-69728449D01*
X120524000Y-69728443D01*
X120524000Y-69725000D01*
X120527882Y-69705483D01*
X120538938Y-69688938D01*
X120555483Y-69677882D01*
X120575000Y-69674000D01*
X121825000Y-69674000D01*
X121844517Y-69677882D01*
G37*
G36*
X123594517Y-69677882D02*
G01*
X123611062Y-69688938D01*
X123622118Y-69705483D01*
X123626000Y-69725000D01*
X123626000Y-70724999D01*
X123626000Y-70725000D01*
X123626000Y-71975000D01*
X123622118Y-71994517D01*
X123611062Y-72011062D01*
X123594517Y-72022118D01*
X123575000Y-72026000D01*
X122325000Y-72026000D01*
X122305483Y-72022118D01*
X122288938Y-72011062D01*
X122277882Y-71994517D01*
X122274000Y-71975000D01*
X122274000Y-70725000D01*
X122274000Y-70724999D01*
X122274000Y-69728449D01*
X122274000Y-69728448D01*
X122274000Y-69725000D01*
X122277882Y-69705483D01*
X122288938Y-69688938D01*
X122305483Y-69677882D01*
X122325000Y-69674000D01*
X123575000Y-69674000D01*
X123594517Y-69677882D01*
G37*
G36*
X125344517Y-69677882D02*
G01*
X125361062Y-69688938D01*
X125372118Y-69705483D01*
X125376000Y-69725000D01*
X125376000Y-70724999D01*
X125376000Y-70725000D01*
X125376000Y-71975000D01*
X125372118Y-71994517D01*
X125361062Y-72011062D01*
X125344517Y-72022118D01*
X125325000Y-72026000D01*
X124075000Y-72026000D01*
X124055483Y-72022118D01*
X124038938Y-72011062D01*
X124027882Y-71994517D01*
X124024000Y-71975000D01*
X124024000Y-70725000D01*
X124024000Y-70724999D01*
X124024000Y-69728449D01*
X124024000Y-69728448D01*
X124024000Y-69725000D01*
X124027882Y-69705483D01*
X124038938Y-69688938D01*
X124055483Y-69677882D01*
X124075000Y-69674000D01*
X125325000Y-69674000D01*
X125344517Y-69677882D01*
G37*
G36*
X127094517Y-69677882D02*
G01*
X127111062Y-69688938D01*
X127122118Y-69705483D01*
X127126000Y-69725000D01*
X127126000Y-70725000D01*
X127126000Y-71975000D01*
X127122118Y-71994517D01*
X127111062Y-72011062D01*
X127094517Y-72022118D01*
X127075000Y-72026000D01*
X125825000Y-72026000D01*
X125805483Y-72022118D01*
X125788938Y-72011062D01*
X125777882Y-71994517D01*
X125774000Y-71975000D01*
X125774000Y-70725000D01*
X125774000Y-70724999D01*
X125774000Y-69728449D01*
X125774000Y-69728448D01*
X125774000Y-69725000D01*
X125777882Y-69705483D01*
X125788938Y-69688938D01*
X125805483Y-69677882D01*
X125825000Y-69674000D01*
X127075000Y-69674000D01*
X127094517Y-69677882D01*
G37*
G36*
X128844517Y-69677882D02*
G01*
X128861062Y-69688938D01*
X128872118Y-69705483D01*
X128876000Y-69725000D01*
X128876000Y-70725000D01*
X128876000Y-71975000D01*
X128872118Y-71994517D01*
X128861062Y-72011062D01*
X128844517Y-72022118D01*
X128825000Y-72026000D01*
X127575000Y-72026000D01*
X127555483Y-72022118D01*
X127538938Y-72011062D01*
X127527882Y-71994517D01*
X127524000Y-71975000D01*
X127524000Y-70725000D01*
X127524000Y-70724999D01*
X127524000Y-69728449D01*
X127524000Y-69728448D01*
X127524000Y-69725000D01*
X127527882Y-69705483D01*
X127538938Y-69688938D01*
X127555483Y-69677882D01*
X127575000Y-69674000D01*
X128825000Y-69674000D01*
X128844517Y-69677882D01*
G37*
G36*
X130594517Y-69677882D02*
G01*
X130611062Y-69688938D01*
X130622118Y-69705483D01*
X130626000Y-69725000D01*
X130626000Y-70724999D01*
X130626000Y-70725000D01*
X130626000Y-71975000D01*
X130622118Y-71994517D01*
X130611062Y-72011062D01*
X130594517Y-72022118D01*
X130575000Y-72026000D01*
X129325000Y-72026000D01*
X129305483Y-72022118D01*
X129288938Y-72011062D01*
X129277882Y-71994517D01*
X129274000Y-71975000D01*
X129274000Y-70725000D01*
X129274000Y-69728449D01*
X129274000Y-69728448D01*
X129274000Y-69725000D01*
X129277882Y-69705483D01*
X129288938Y-69688938D01*
X129305483Y-69677882D01*
X129325000Y-69674000D01*
X130575000Y-69674000D01*
X130594517Y-69677882D01*
G37*
G36*
X132344517Y-69677882D02*
G01*
X132361062Y-69688938D01*
X132372118Y-69705483D01*
X132376000Y-69725000D01*
X132376000Y-70724999D01*
X132376000Y-70725000D01*
X132376000Y-71975000D01*
X132372118Y-71994517D01*
X132361062Y-72011062D01*
X132344517Y-72022118D01*
X132325000Y-72026000D01*
X131075000Y-72026000D01*
X131055483Y-72022118D01*
X131038938Y-72011062D01*
X131027882Y-71994517D01*
X131024000Y-71975000D01*
X131024000Y-70725000D01*
X131024000Y-70724999D01*
X131024000Y-69728449D01*
X131024000Y-69728448D01*
X131024000Y-69725000D01*
X131027882Y-69705483D01*
X131038938Y-69688938D01*
X131055483Y-69677882D01*
X131075000Y-69674000D01*
X132325000Y-69674000D01*
X132344517Y-69677882D01*
G37*
G36*
X134094517Y-69677882D02*
G01*
X134111062Y-69688938D01*
X134122118Y-69705483D01*
X134126000Y-69725000D01*
X134126000Y-70725000D01*
X134126000Y-71975000D01*
X134122118Y-71994517D01*
X134111062Y-72011062D01*
X134094517Y-72022118D01*
X134075000Y-72026000D01*
X132825000Y-72026000D01*
X132805483Y-72022118D01*
X132788938Y-72011062D01*
X132777882Y-71994517D01*
X132774000Y-71975000D01*
X132774000Y-70725000D01*
X132774000Y-70724999D01*
X132774000Y-69728449D01*
X132774000Y-69728448D01*
X132774000Y-69725000D01*
X132777882Y-69705483D01*
X132788938Y-69688938D01*
X132805483Y-69677882D01*
X132825000Y-69674000D01*
X134075000Y-69674000D01*
X134094517Y-69677882D01*
G37*
G36*
X135844517Y-69677882D02*
G01*
X135861062Y-69688938D01*
X135872118Y-69705483D01*
X135876000Y-69725000D01*
X135876000Y-70725000D01*
X135876000Y-71975000D01*
X135872118Y-71994517D01*
X135861062Y-72011062D01*
X135844517Y-72022118D01*
X135825000Y-72026000D01*
X134575000Y-72026000D01*
X134555483Y-72022118D01*
X134538938Y-72011062D01*
X134527882Y-71994517D01*
X134524000Y-71975000D01*
X134524000Y-70725000D01*
X134524000Y-70724999D01*
X134524000Y-69728449D01*
X134524000Y-69728448D01*
X134524000Y-69725000D01*
X134527882Y-69705483D01*
X134538938Y-69688938D01*
X134555483Y-69677882D01*
X134575000Y-69674000D01*
X135825000Y-69674000D01*
X135844517Y-69677882D01*
G37*
G36*
X137594517Y-69677882D02*
G01*
X137611062Y-69688938D01*
X137622118Y-69705483D01*
X137626000Y-69725000D01*
X137626000Y-70724999D01*
X137626000Y-70725000D01*
X137626000Y-71975000D01*
X137622118Y-71994517D01*
X137611062Y-72011062D01*
X137594517Y-72022118D01*
X137575000Y-72026000D01*
X136325000Y-72026000D01*
X136305483Y-72022118D01*
X136288938Y-72011062D01*
X136277882Y-71994517D01*
X136274000Y-71975000D01*
X136274000Y-70725000D01*
X136274000Y-70724999D01*
X136274000Y-69728449D01*
X136274000Y-69728448D01*
X136274000Y-69725000D01*
X136277882Y-69705483D01*
X136288938Y-69688938D01*
X136305483Y-69677882D01*
X136325000Y-69674000D01*
X137575000Y-69674000D01*
X137594517Y-69677882D01*
G37*
G36*
X139344517Y-69677882D02*
G01*
X139361062Y-69688938D01*
X139372118Y-69705483D01*
X139376000Y-69725000D01*
X139376000Y-70724999D01*
X139376000Y-70725000D01*
X139376000Y-71975000D01*
X139372118Y-71994517D01*
X139361062Y-72011062D01*
X139344517Y-72022118D01*
X139325000Y-72026000D01*
X138075000Y-72026000D01*
X138055483Y-72022118D01*
X138038938Y-72011062D01*
X138027882Y-71994517D01*
X138024000Y-71975000D01*
X138024000Y-70725000D01*
X138024000Y-69728449D01*
X138024000Y-69728448D01*
X138024000Y-69725000D01*
X138027882Y-69705483D01*
X138038938Y-69688938D01*
X138055483Y-69677882D01*
X138075000Y-69674000D01*
X139325000Y-69674000D01*
X139344517Y-69677882D01*
G37*
G36*
X141094517Y-69677882D02*
G01*
X141111062Y-69688938D01*
X141122118Y-69705483D01*
X141126000Y-69725000D01*
X141126000Y-70725000D01*
X141126000Y-71975000D01*
X141122118Y-71994517D01*
X141111062Y-72011062D01*
X141094517Y-72022118D01*
X141075000Y-72026000D01*
X139825000Y-72026000D01*
X139805483Y-72022118D01*
X139788938Y-72011062D01*
X139777882Y-71994517D01*
X139774000Y-71975000D01*
X139774000Y-70725000D01*
X139774000Y-70724999D01*
X139774000Y-69728449D01*
X139774000Y-69728448D01*
X139774000Y-69725000D01*
X139777882Y-69705483D01*
X139788938Y-69688938D01*
X139805483Y-69677882D01*
X139825000Y-69674000D01*
X141075000Y-69674000D01*
X141094517Y-69677882D01*
G37*
G36*
X142844517Y-69677882D02*
G01*
X142861062Y-69688938D01*
X142872118Y-69705483D01*
X142876000Y-69725000D01*
X142876000Y-70725000D01*
X142876000Y-71975000D01*
X142872118Y-71994517D01*
X142861062Y-72011062D01*
X142844517Y-72022118D01*
X142825000Y-72026000D01*
X141575000Y-72026000D01*
X141555483Y-72022118D01*
X141538938Y-72011062D01*
X141527882Y-71994517D01*
X141524000Y-71975000D01*
X141524000Y-70725000D01*
X141524000Y-69728449D01*
X141524000Y-69728448D01*
X141524000Y-69725000D01*
X141527882Y-69705483D01*
X141538938Y-69688938D01*
X141555483Y-69677882D01*
X141575000Y-69674000D01*
X142825000Y-69674000D01*
X142844517Y-69677882D01*
G37*
G36*
X112674986Y-68042939D02*
G01*
X112873045Y-68119667D01*
X113053632Y-68231482D01*
X113210599Y-68374576D01*
X113338600Y-68544077D01*
X113433276Y-68734211D01*
X113491402Y-68938504D01*
X113511000Y-69150000D01*
X113491402Y-69361496D01*
X113433276Y-69565789D01*
X113338600Y-69755923D01*
X113210599Y-69925424D01*
X113053632Y-70068518D01*
X112873045Y-70180333D01*
X112674986Y-70257061D01*
X112466201Y-70296090D01*
X112253799Y-70296090D01*
X112045014Y-70257061D01*
X111846955Y-70180333D01*
X111666368Y-70068518D01*
X111509401Y-69925424D01*
X111381400Y-69755923D01*
X111286724Y-69565789D01*
X111228598Y-69361496D01*
X111209000Y-69150000D01*
X111228598Y-68938504D01*
X111286724Y-68734211D01*
X111381400Y-68544077D01*
X111509401Y-68374576D01*
X111666368Y-68231482D01*
X111846955Y-68119667D01*
X112045014Y-68042939D01*
X112253799Y-68003910D01*
X112466201Y-68003910D01*
X112674986Y-68042939D01*
G37*
G36*
X111341225Y-63591645D02*
G01*
X111384962Y-63591645D01*
X111434301Y-63602132D01*
X111480910Y-63607384D01*
X111514802Y-63619243D01*
X111551172Y-63626974D01*
X111603584Y-63650309D01*
X111652747Y-63667512D01*
X111678336Y-63683590D01*
X111706401Y-63696086D01*
X111758732Y-63734107D01*
X111806897Y-63764371D01*
X111824193Y-63781667D01*
X111843875Y-63795967D01*
X111892529Y-63850003D01*
X111935629Y-63893103D01*
X111945543Y-63908881D01*
X111957575Y-63922244D01*
X111998739Y-63993542D01*
X112032488Y-64047253D01*
X112036701Y-64059294D01*
X112042536Y-64069400D01*
X112072411Y-64161349D01*
X112092616Y-64219090D01*
X112093382Y-64225890D01*
X112095045Y-64231008D01*
X112110128Y-64374513D01*
X112113000Y-64400000D01*
X112110125Y-64425511D01*
X112095045Y-64568991D01*
X112093382Y-64574107D01*
X112092616Y-64580910D01*
X112072407Y-64638663D01*
X112042536Y-64730599D01*
X112036702Y-64740703D01*
X112032488Y-64752747D01*
X111998732Y-64806468D01*
X111957575Y-64877755D01*
X111945545Y-64891115D01*
X111935629Y-64906897D01*
X111892520Y-64950005D01*
X111843875Y-65004032D01*
X111824197Y-65018328D01*
X111806897Y-65035629D01*
X111758722Y-65065899D01*
X111706401Y-65103913D01*
X111678341Y-65116405D01*
X111652747Y-65132488D01*
X111603573Y-65149694D01*
X111551172Y-65173025D01*
X111514808Y-65180754D01*
X111480910Y-65192616D01*
X111434298Y-65197867D01*
X111384962Y-65208355D01*
X111341225Y-65208355D01*
X111300000Y-65213000D01*
X111258775Y-65208355D01*
X111215038Y-65208355D01*
X111165701Y-65197867D01*
X111119090Y-65192616D01*
X111085192Y-65180754D01*
X111048827Y-65173025D01*
X110996421Y-65149692D01*
X110947253Y-65132488D01*
X110921660Y-65116407D01*
X110893598Y-65103913D01*
X110841270Y-65065894D01*
X110793103Y-65035629D01*
X110775805Y-65018331D01*
X110756124Y-65004032D01*
X110707469Y-64949995D01*
X110664371Y-64906897D01*
X110654457Y-64891119D01*
X110642424Y-64877755D01*
X110601255Y-64806448D01*
X110567512Y-64752747D01*
X110563299Y-64740707D01*
X110557463Y-64730599D01*
X110527578Y-64638623D01*
X110507384Y-64580910D01*
X110506618Y-64574112D01*
X110504954Y-64568991D01*
X110489858Y-64425367D01*
X110487000Y-64400000D01*
X110489858Y-64374634D01*
X110504954Y-64231008D01*
X110506618Y-64225885D01*
X110507384Y-64219090D01*
X110527574Y-64161389D01*
X110557463Y-64069400D01*
X110563300Y-64059289D01*
X110567512Y-64047253D01*
X110601248Y-63993562D01*
X110642424Y-63922244D01*
X110654459Y-63908877D01*
X110664371Y-63893103D01*
X110707460Y-63850013D01*
X110756124Y-63795967D01*
X110775808Y-63781665D01*
X110793103Y-63764371D01*
X110841264Y-63734109D01*
X110893599Y-63696086D01*
X110921664Y-63683590D01*
X110947253Y-63667512D01*
X110996412Y-63650310D01*
X111048827Y-63626974D01*
X111085198Y-63619243D01*
X111119090Y-63607384D01*
X111165698Y-63602132D01*
X111215038Y-63591645D01*
X111258775Y-63591645D01*
X111300000Y-63587000D01*
X111341225Y-63591645D01*
G37*
G36*
X111341225Y-61141645D02*
G01*
X111384962Y-61141645D01*
X111434301Y-61152132D01*
X111480910Y-61157384D01*
X111514802Y-61169243D01*
X111551172Y-61176974D01*
X111603584Y-61200309D01*
X111652747Y-61217512D01*
X111678336Y-61233590D01*
X111706401Y-61246086D01*
X111758732Y-61284107D01*
X111806897Y-61314371D01*
X111824193Y-61331667D01*
X111843875Y-61345967D01*
X111892529Y-61400003D01*
X111935629Y-61443103D01*
X111945543Y-61458881D01*
X111957575Y-61472244D01*
X111998739Y-61543542D01*
X112032488Y-61597253D01*
X112036701Y-61609294D01*
X112042536Y-61619400D01*
X112072411Y-61711349D01*
X112092616Y-61769090D01*
X112093382Y-61775890D01*
X112095045Y-61781008D01*
X112110127Y-61924502D01*
X112113000Y-61950000D01*
X112110126Y-61975500D01*
X112095045Y-62118991D01*
X112093382Y-62124107D01*
X112092616Y-62130910D01*
X112072407Y-62188663D01*
X112042536Y-62280599D01*
X112036702Y-62290703D01*
X112032488Y-62302747D01*
X111998732Y-62356468D01*
X111957575Y-62427755D01*
X111945545Y-62441115D01*
X111935629Y-62456897D01*
X111892520Y-62500005D01*
X111843875Y-62554032D01*
X111824197Y-62568328D01*
X111806897Y-62585629D01*
X111758722Y-62615899D01*
X111706401Y-62653913D01*
X111678341Y-62666405D01*
X111652747Y-62682488D01*
X111603573Y-62699694D01*
X111551172Y-62723025D01*
X111514808Y-62730754D01*
X111480910Y-62742616D01*
X111434298Y-62747867D01*
X111384962Y-62758355D01*
X111341225Y-62758355D01*
X111300000Y-62763000D01*
X111258775Y-62758355D01*
X111215038Y-62758355D01*
X111165701Y-62747867D01*
X111119090Y-62742616D01*
X111085192Y-62730754D01*
X111048827Y-62723025D01*
X110996421Y-62699692D01*
X110947253Y-62682488D01*
X110921660Y-62666407D01*
X110893598Y-62653913D01*
X110841270Y-62615894D01*
X110793103Y-62585629D01*
X110775805Y-62568331D01*
X110756124Y-62554032D01*
X110707469Y-62499995D01*
X110664371Y-62456897D01*
X110654457Y-62441119D01*
X110642424Y-62427755D01*
X110601255Y-62356448D01*
X110567512Y-62302747D01*
X110563299Y-62290707D01*
X110557463Y-62280599D01*
X110527578Y-62188623D01*
X110507384Y-62130910D01*
X110506618Y-62124112D01*
X110504954Y-62118991D01*
X110489858Y-61975367D01*
X110487000Y-61950000D01*
X110489858Y-61924634D01*
X110504954Y-61781008D01*
X110506618Y-61775885D01*
X110507384Y-61769090D01*
X110527574Y-61711389D01*
X110557463Y-61619400D01*
X110563300Y-61609289D01*
X110567512Y-61597253D01*
X110601248Y-61543562D01*
X110642424Y-61472244D01*
X110654459Y-61458877D01*
X110664371Y-61443103D01*
X110707460Y-61400013D01*
X110756124Y-61345967D01*
X110775808Y-61331665D01*
X110793103Y-61314371D01*
X110841264Y-61284109D01*
X110893599Y-61246086D01*
X110921664Y-61233590D01*
X110947253Y-61217512D01*
X110996412Y-61200310D01*
X111048827Y-61176974D01*
X111085198Y-61169243D01*
X111119090Y-61157384D01*
X111165698Y-61152132D01*
X111215038Y-61141645D01*
X111258775Y-61141645D01*
X111300000Y-61137000D01*
X111341225Y-61141645D01*
G37*
G36*
X111341225Y-58691645D02*
G01*
X111384962Y-58691645D01*
X111434301Y-58702132D01*
X111480910Y-58707384D01*
X111514802Y-58719243D01*
X111551172Y-58726974D01*
X111603584Y-58750309D01*
X111652747Y-58767512D01*
X111678336Y-58783590D01*
X111706401Y-58796086D01*
X111758732Y-58834107D01*
X111806897Y-58864371D01*
X111824193Y-58881667D01*
X111843875Y-58895967D01*
X111892529Y-58950003D01*
X111935629Y-58993103D01*
X111945543Y-59008881D01*
X111957575Y-59022244D01*
X111998739Y-59093542D01*
X112032488Y-59147253D01*
X112036701Y-59159294D01*
X112042536Y-59169400D01*
X112072411Y-59261349D01*
X112092616Y-59319090D01*
X112093382Y-59325890D01*
X112095045Y-59331008D01*
X112110128Y-59474513D01*
X112113000Y-59500000D01*
X112110125Y-59525511D01*
X112095045Y-59668991D01*
X112093382Y-59674107D01*
X112092616Y-59680910D01*
X112072407Y-59738663D01*
X112042536Y-59830599D01*
X112036702Y-59840703D01*
X112032488Y-59852747D01*
X111998732Y-59906468D01*
X111957575Y-59977755D01*
X111945545Y-59991115D01*
X111935629Y-60006897D01*
X111892520Y-60050005D01*
X111843875Y-60104032D01*
X111824197Y-60118328D01*
X111806897Y-60135629D01*
X111758722Y-60165899D01*
X111706401Y-60203913D01*
X111678341Y-60216405D01*
X111652747Y-60232488D01*
X111603573Y-60249694D01*
X111551172Y-60273025D01*
X111514808Y-60280754D01*
X111480910Y-60292616D01*
X111434298Y-60297867D01*
X111384962Y-60308355D01*
X111341225Y-60308355D01*
X111300000Y-60313000D01*
X111258775Y-60308355D01*
X111215038Y-60308355D01*
X111165701Y-60297867D01*
X111119090Y-60292616D01*
X111085192Y-60280754D01*
X111048827Y-60273025D01*
X110996421Y-60249692D01*
X110947253Y-60232488D01*
X110921660Y-60216407D01*
X110893598Y-60203913D01*
X110841270Y-60165894D01*
X110793103Y-60135629D01*
X110775805Y-60118331D01*
X110756124Y-60104032D01*
X110707469Y-60049995D01*
X110664371Y-60006897D01*
X110654457Y-59991119D01*
X110642424Y-59977755D01*
X110601255Y-59906448D01*
X110567512Y-59852747D01*
X110563299Y-59840707D01*
X110557463Y-59830599D01*
X110527578Y-59738623D01*
X110507384Y-59680910D01*
X110506618Y-59674112D01*
X110504954Y-59668991D01*
X110489859Y-59525379D01*
X110487000Y-59500000D01*
X110489856Y-59474645D01*
X110504954Y-59331008D01*
X110506618Y-59325885D01*
X110507384Y-59319090D01*
X110527574Y-59261389D01*
X110557463Y-59169400D01*
X110563300Y-59159289D01*
X110567512Y-59147253D01*
X110601248Y-59093562D01*
X110642424Y-59022244D01*
X110654459Y-59008877D01*
X110664371Y-58993103D01*
X110707460Y-58950013D01*
X110756124Y-58895967D01*
X110775808Y-58881665D01*
X110793103Y-58864371D01*
X110841264Y-58834109D01*
X110893599Y-58796086D01*
X110921664Y-58783590D01*
X110947253Y-58767512D01*
X110996412Y-58750310D01*
X111048827Y-58726974D01*
X111085198Y-58719243D01*
X111119090Y-58707384D01*
X111165698Y-58702132D01*
X111215038Y-58691645D01*
X111258775Y-58691645D01*
X111300000Y-58687000D01*
X111341225Y-58691645D01*
G37*
G36*
X116568424Y-46003098D02*
G01*
X116740500Y-46079711D01*
X116892887Y-46190427D01*
X117018924Y-46330405D01*
X117113104Y-46493530D01*
X117171311Y-46672672D01*
X117191000Y-46860000D01*
X117171311Y-47047328D01*
X117113104Y-47226470D01*
X117018924Y-47389595D01*
X116892887Y-47529573D01*
X116740500Y-47640289D01*
X116568424Y-47716902D01*
X116384180Y-47756064D01*
X116195820Y-47756064D01*
X116011576Y-47716902D01*
X115839500Y-47640289D01*
X115687113Y-47529573D01*
X115561076Y-47389595D01*
X115466896Y-47226470D01*
X115408689Y-47047328D01*
X115389000Y-46860000D01*
X115408689Y-46672672D01*
X115466896Y-46493530D01*
X115561076Y-46330405D01*
X115687113Y-46190427D01*
X115839500Y-46079711D01*
X116011576Y-46003098D01*
X116195820Y-45963936D01*
X116384180Y-45963936D01*
X116568424Y-46003098D01*
G37*
G36*
X116568424Y-43463098D02*
G01*
X116740500Y-43539711D01*
X116892887Y-43650427D01*
X117018924Y-43790405D01*
X117113104Y-43953530D01*
X117171311Y-44132672D01*
X117191000Y-44320000D01*
X117171311Y-44507328D01*
X117113104Y-44686470D01*
X117018924Y-44849595D01*
X116892887Y-44989573D01*
X116740500Y-45100289D01*
X116568424Y-45176902D01*
X116384180Y-45216064D01*
X116195820Y-45216064D01*
X116011576Y-45176902D01*
X115839500Y-45100289D01*
X115687113Y-44989573D01*
X115561076Y-44849595D01*
X115466896Y-44686470D01*
X115408689Y-44507328D01*
X115389000Y-44320000D01*
X115408689Y-44132672D01*
X115466896Y-43953530D01*
X115561076Y-43790405D01*
X115687113Y-43650427D01*
X115839500Y-43539711D01*
X116011576Y-43463098D01*
X116195820Y-43423936D01*
X116384180Y-43423936D01*
X116568424Y-43463098D01*
G37*
G36*
X111794517Y-43077882D02*
G01*
X111811062Y-43088938D01*
X111822118Y-43105483D01*
X111826000Y-43125000D01*
X111826000Y-44375000D01*
X111822118Y-44394517D01*
X111811062Y-44411062D01*
X111794517Y-44422118D01*
X111775000Y-44426000D01*
X110525000Y-44426000D01*
X109525000Y-44426000D01*
X109505483Y-44422118D01*
X109488938Y-44411062D01*
X109477882Y-44394517D01*
X109474000Y-44375000D01*
X109474000Y-43125000D01*
X109477882Y-43105483D01*
X109488938Y-43088938D01*
X109505483Y-43077882D01*
X109525000Y-43074000D01*
X110775000Y-43074000D01*
X111771550Y-43074000D01*
X111775000Y-43074000D01*
X111794517Y-43077882D01*
G37*
G36*
X116568424Y-40923098D02*
G01*
X116740500Y-40999711D01*
X116892887Y-41110427D01*
X117018924Y-41250405D01*
X117113104Y-41413530D01*
X117171311Y-41592672D01*
X117191000Y-41780000D01*
X117171311Y-41967328D01*
X117113104Y-42146470D01*
X117018924Y-42309595D01*
X116892887Y-42449573D01*
X116740500Y-42560289D01*
X116568424Y-42636902D01*
X116384180Y-42676064D01*
X116195820Y-42676064D01*
X116011576Y-42636902D01*
X115839500Y-42560289D01*
X115687113Y-42449573D01*
X115561076Y-42309595D01*
X115466896Y-42146470D01*
X115408689Y-41967328D01*
X115389000Y-41780000D01*
X115408689Y-41592672D01*
X115466896Y-41413530D01*
X115561076Y-41250405D01*
X115687113Y-41110427D01*
X115839500Y-40999711D01*
X116011576Y-40923098D01*
X116195820Y-40883936D01*
X116384180Y-40883936D01*
X116568424Y-40923098D01*
G37*
G36*
X111794517Y-41327882D02*
G01*
X111811062Y-41338938D01*
X111822118Y-41355483D01*
X111826000Y-41375000D01*
X111826000Y-42625000D01*
X111822118Y-42644517D01*
X111811062Y-42661062D01*
X111794517Y-42672118D01*
X111775000Y-42676000D01*
X110525000Y-42676000D01*
X109525000Y-42676000D01*
X109505483Y-42672118D01*
X109488938Y-42661062D01*
X109477882Y-42644517D01*
X109474000Y-42625000D01*
X109474000Y-41375000D01*
X109477882Y-41355483D01*
X109488938Y-41338938D01*
X109505483Y-41327882D01*
X109525000Y-41324000D01*
X110775000Y-41324000D01*
X111771550Y-41324000D01*
X111775000Y-41324000D01*
X111794517Y-41327882D01*
G37*
G36*
X111794517Y-39577882D02*
G01*
X111811062Y-39588938D01*
X111822118Y-39605483D01*
X111826000Y-39625000D01*
X111826000Y-40875000D01*
X111822118Y-40894517D01*
X111811062Y-40911062D01*
X111794517Y-40922118D01*
X111775000Y-40926000D01*
X110525000Y-40926000D01*
X109525000Y-40926000D01*
X109505483Y-40922118D01*
X109488938Y-40911062D01*
X109477882Y-40894517D01*
X109474000Y-40875000D01*
X109474000Y-39625000D01*
X109477882Y-39605483D01*
X109488938Y-39588938D01*
X109505483Y-39577882D01*
X109525000Y-39574000D01*
X110775000Y-39574000D01*
X111771550Y-39574000D01*
X111775000Y-39574000D01*
X111794517Y-39577882D01*
G37*
G36*
X116568424Y-38383098D02*
G01*
X116740500Y-38459711D01*
X116892887Y-38570427D01*
X117018924Y-38710405D01*
X117113104Y-38873530D01*
X117171311Y-39052672D01*
X117191000Y-39240000D01*
X117171311Y-39427328D01*
X117113104Y-39606470D01*
X117018924Y-39769595D01*
X116892887Y-39909573D01*
X116740500Y-40020289D01*
X116568424Y-40096902D01*
X116384180Y-40136064D01*
X116195820Y-40136064D01*
X116011576Y-40096902D01*
X115839500Y-40020289D01*
X115687113Y-39909573D01*
X115561076Y-39769595D01*
X115466896Y-39606470D01*
X115408689Y-39427328D01*
X115389000Y-39240000D01*
X115408689Y-39052672D01*
X115466896Y-38873530D01*
X115561076Y-38710405D01*
X115687113Y-38570427D01*
X115839500Y-38459711D01*
X116011576Y-38383098D01*
X116195820Y-38343936D01*
X116384180Y-38343936D01*
X116568424Y-38383098D01*
G37*
G36*
X111794517Y-37827882D02*
G01*
X111811062Y-37838938D01*
X111822118Y-37855483D01*
X111826000Y-37875000D01*
X111826000Y-39125000D01*
X111822118Y-39144517D01*
X111811062Y-39161062D01*
X111794517Y-39172118D01*
X111775000Y-39176000D01*
X110525000Y-39176000D01*
X109525000Y-39176000D01*
X109505483Y-39172118D01*
X109488938Y-39161062D01*
X109477882Y-39144517D01*
X109474000Y-39125000D01*
X109474000Y-37875000D01*
X109477882Y-37855483D01*
X109488938Y-37838938D01*
X109505483Y-37827882D01*
X109525000Y-37824000D01*
X110775000Y-37824000D01*
X111771550Y-37824000D01*
X111775000Y-37824000D01*
X111794517Y-37827882D01*
G37*
G36*
X117159517Y-35802882D02*
G01*
X117176062Y-35813938D01*
X117187118Y-35830483D01*
X117191000Y-35850000D01*
X117191000Y-37550000D01*
X117187118Y-37569517D01*
X117176062Y-37586062D01*
X117159517Y-37597118D01*
X117140000Y-37601000D01*
X115440000Y-37601000D01*
X115420483Y-37597118D01*
X115403938Y-37586062D01*
X115392882Y-37569517D01*
X115389000Y-37550000D01*
X115389000Y-35850000D01*
X115392882Y-35830483D01*
X115403938Y-35813938D01*
X115420483Y-35802882D01*
X115440000Y-35799000D01*
X117140000Y-35799000D01*
X117159517Y-35802882D01*
G37*
G36*
X111794517Y-36077882D02*
G01*
X111811062Y-36088938D01*
X111822118Y-36105483D01*
X111826000Y-36125000D01*
X111826000Y-37375000D01*
X111822118Y-37394517D01*
X111811062Y-37411062D01*
X111794517Y-37422118D01*
X111775000Y-37426000D01*
X110525000Y-37426000D01*
X109525000Y-37426000D01*
X109505483Y-37422118D01*
X109488938Y-37411062D01*
X109477882Y-37394517D01*
X109474000Y-37375000D01*
X109474000Y-36125000D01*
X109477882Y-36105483D01*
X109488938Y-36088938D01*
X109505483Y-36077882D01*
X109525000Y-36074000D01*
X110775000Y-36074000D01*
X111771550Y-36074000D01*
X111775000Y-36074000D01*
X111794517Y-36077882D01*
G37*
G36*
X120174986Y-34692939D02*
G01*
X120373045Y-34769667D01*
X120553632Y-34881482D01*
X120710599Y-35024576D01*
X120838600Y-35194077D01*
X120933276Y-35384211D01*
X120991402Y-35588504D01*
X121011000Y-35800000D01*
X120991402Y-36011496D01*
X120933276Y-36215789D01*
X120838600Y-36405923D01*
X120710599Y-36575424D01*
X120553632Y-36718518D01*
X120373045Y-36830333D01*
X120174986Y-36907061D01*
X119966201Y-36946090D01*
X119753799Y-36946090D01*
X119545014Y-36907061D01*
X119346955Y-36830333D01*
X119166368Y-36718518D01*
X119009401Y-36575424D01*
X118881400Y-36405923D01*
X118786724Y-36215789D01*
X118728598Y-36011496D01*
X118709000Y-35800000D01*
X118728598Y-35588504D01*
X118786724Y-35384211D01*
X118881400Y-35194077D01*
X119009401Y-35024576D01*
X119166368Y-34881482D01*
X119346955Y-34769667D01*
X119545014Y-34692939D01*
X119753799Y-34653910D01*
X119966201Y-34653910D01*
X120174986Y-34692939D01*
G37*
M02*
